G04 #@! TF.GenerationSoftware,KiCad,Pcbnew,(5.0.0-3-g5ebb6b6)*
G04 #@! TF.CreationDate,2018-10-24T08:18:16-07:00*
G04 #@! TF.ProjectId,HackPackv4,4861636B5061636B76342E6B69636164,rev?*
G04 #@! TF.SameCoordinates,Original*
G04 #@! TF.FileFunction,Copper,L1,Top,Signal*
G04 #@! TF.FilePolarity,Positive*
%FSLAX46Y46*%
G04 Gerber Fmt 4.6, Leading zero omitted, Abs format (unit mm)*
G04 Created by KiCad (PCBNEW (5.0.0-3-g5ebb6b6)) date Wednesday, October 24, 2018 at 08:18:16 AM*
%MOMM*%
%LPD*%
G01*
G04 APERTURE LIST*
G04 #@! TA.AperFunction,ComponentPad*
%ADD10C,2.000000*%
G04 #@! TD*
G04 #@! TA.AperFunction,SMDPad,CuDef*
%ADD11R,1.600000X1.000000*%
G04 #@! TD*
G04 #@! TA.AperFunction,ComponentPad*
%ADD12C,1.778000*%
G04 #@! TD*
G04 #@! TA.AperFunction,SMDPad,CuDef*
%ADD13R,1.200000X0.900000*%
G04 #@! TD*
G04 #@! TA.AperFunction,SMDPad,CuDef*
%ADD14R,1.020000X1.780000*%
G04 #@! TD*
G04 #@! TA.AperFunction,SMDPad,CuDef*
%ADD15R,2.150000X1.800000*%
G04 #@! TD*
G04 #@! TA.AperFunction,SMDPad,CuDef*
%ADD16R,1.800000X2.150000*%
G04 #@! TD*
G04 #@! TA.AperFunction,SMDPad,CuDef*
%ADD17R,0.650000X1.300000*%
G04 #@! TD*
G04 #@! TA.AperFunction,ComponentPad*
%ADD18C,1.700000*%
G04 #@! TD*
G04 #@! TA.AperFunction,Conductor*
%ADD19C,1.700000*%
G04 #@! TD*
G04 #@! TA.AperFunction,SMDPad,CuDef*
%ADD20R,0.800000X0.900000*%
G04 #@! TD*
G04 #@! TA.AperFunction,SMDPad,CuDef*
%ADD21R,0.600000X1.500000*%
G04 #@! TD*
G04 #@! TA.AperFunction,SMDPad,CuDef*
%ADD22R,0.750000X0.800000*%
G04 #@! TD*
G04 #@! TA.AperFunction,SMDPad,CuDef*
%ADD23R,0.700000X1.300000*%
G04 #@! TD*
G04 #@! TA.AperFunction,SMDPad,CuDef*
%ADD24R,1.300000X0.700000*%
G04 #@! TD*
G04 #@! TA.AperFunction,SMDPad,CuDef*
%ADD25R,1.500000X3.600000*%
G04 #@! TD*
G04 #@! TA.AperFunction,SMDPad,CuDef*
%ADD26R,1.010000X3.400000*%
G04 #@! TD*
G04 #@! TA.AperFunction,SMDPad,CuDef*
%ADD27R,1.500000X4.500000*%
G04 #@! TD*
G04 #@! TA.AperFunction,BGAPad,CuDef*
%ADD28C,1.000000*%
G04 #@! TD*
G04 #@! TA.AperFunction,ViaPad*
%ADD29C,0.889000*%
G04 #@! TD*
G04 #@! TA.AperFunction,ViaPad*
%ADD30C,0.685800*%
G04 #@! TD*
G04 #@! TA.AperFunction,Conductor*
%ADD31C,0.508000*%
G04 #@! TD*
G04 #@! TA.AperFunction,Conductor*
%ADD32C,0.889000*%
G04 #@! TD*
G04 #@! TA.AperFunction,Conductor*
%ADD33C,1.143000*%
G04 #@! TD*
G04 #@! TA.AperFunction,Conductor*
%ADD34C,0.762000*%
G04 #@! TD*
G04 #@! TA.AperFunction,Conductor*
%ADD35C,0.203200*%
G04 #@! TD*
G04 #@! TA.AperFunction,Conductor*
%ADD36C,0.254000*%
G04 #@! TD*
G04 APERTURE END LIST*
D10*
G04 #@! TO.P,SW1,1*
G04 #@! TO.N,Net-(R1-Pad1)*
X79000000Y-125000000D03*
G04 #@! TO.P,SW1,2*
G04 #@! TO.N,+3V3*
X79000000Y-129500000D03*
G04 #@! TO.P,SW1,1*
G04 #@! TO.N,Net-(R1-Pad1)*
X72500000Y-125000000D03*
G04 #@! TO.P,SW1,2*
G04 #@! TO.N,+3V3*
X72500000Y-129500000D03*
G04 #@! TD*
G04 #@! TO.P,SW3,1*
G04 #@! TO.N,Net-(R3-Pad1)*
X91500000Y-120000000D03*
G04 #@! TO.P,SW3,2*
G04 #@! TO.N,+3V3*
X91500000Y-124500000D03*
G04 #@! TO.P,SW3,1*
G04 #@! TO.N,Net-(R3-Pad1)*
X85000000Y-120000000D03*
G04 #@! TO.P,SW3,2*
G04 #@! TO.N,+3V3*
X85000000Y-124500000D03*
G04 #@! TD*
G04 #@! TO.P,SW2,1*
G04 #@! TO.N,Net-(R2-Pad1)*
X79000000Y-137500000D03*
G04 #@! TO.P,SW2,2*
G04 #@! TO.N,+3V3*
X79000000Y-142000000D03*
G04 #@! TO.P,SW2,1*
G04 #@! TO.N,Net-(R2-Pad1)*
X72500000Y-137500000D03*
G04 #@! TO.P,SW2,2*
G04 #@! TO.N,+3V3*
X72500000Y-142000000D03*
G04 #@! TD*
G04 #@! TO.P,SW4,1*
G04 #@! TO.N,Net-(R4-Pad1)*
X91500000Y-132500000D03*
G04 #@! TO.P,SW4,2*
G04 #@! TO.N,+3V3*
X91500000Y-137000000D03*
G04 #@! TO.P,SW4,1*
G04 #@! TO.N,Net-(R4-Pad1)*
X85000000Y-132500000D03*
G04 #@! TO.P,SW4,2*
G04 #@! TO.N,+3V3*
X85000000Y-137000000D03*
G04 #@! TD*
G04 #@! TO.P,SW6,1*
G04 #@! TO.N,Net-(R6-Pad1)*
X104000000Y-115000000D03*
G04 #@! TO.P,SW6,2*
G04 #@! TO.N,+3V3*
X104000000Y-119500000D03*
G04 #@! TO.P,SW6,1*
G04 #@! TO.N,Net-(R6-Pad1)*
X97500000Y-115000000D03*
G04 #@! TO.P,SW6,2*
G04 #@! TO.N,+3V3*
X97500000Y-119500000D03*
G04 #@! TD*
G04 #@! TO.P,SW7,1*
G04 #@! TO.N,Net-(R7-Pad1)*
X104000000Y-127500000D03*
G04 #@! TO.P,SW7,2*
G04 #@! TO.N,+3V3*
X104000000Y-132000000D03*
G04 #@! TO.P,SW7,1*
G04 #@! TO.N,Net-(R7-Pad1)*
X97500000Y-127500000D03*
G04 #@! TO.P,SW7,2*
G04 #@! TO.N,+3V3*
X97500000Y-132000000D03*
G04 #@! TD*
D11*
G04 #@! TO.P,U1,1*
G04 #@! TO.N,+5V_LIGHTS*
X53475000Y-109600000D03*
G04 #@! TO.P,U1,2*
G04 #@! TO.N,Net-(U1-Pad2)*
X53475000Y-106400000D03*
G04 #@! TO.P,U1,4*
G04 #@! TO.N,Net-(U1-Pad4)*
X48475000Y-109600000D03*
G04 #@! TO.P,U1,3*
G04 #@! TO.N,GND*
X48475000Y-106400000D03*
G04 #@! TD*
G04 #@! TO.P,U2,1*
G04 #@! TO.N,+5V_LIGHTS*
X85550000Y-109600000D03*
G04 #@! TO.P,U2,2*
G04 #@! TO.N,Net-(U2-Pad2)*
X85550000Y-106400000D03*
G04 #@! TO.P,U2,4*
G04 #@! TO.N,Net-(U2-Pad4)*
X80550000Y-109600000D03*
G04 #@! TO.P,U2,3*
G04 #@! TO.N,GND*
X80550000Y-106400000D03*
G04 #@! TD*
G04 #@! TO.P,U3,1*
G04 #@! TO.N,+5V_LIGHTS*
X101340000Y-109600000D03*
G04 #@! TO.P,U3,2*
G04 #@! TO.N,N/C*
X101340000Y-106400000D03*
G04 #@! TO.P,U3,4*
G04 #@! TO.N,Net-(U2-Pad2)*
X96340000Y-109600000D03*
G04 #@! TO.P,U3,3*
G04 #@! TO.N,GND*
X96340000Y-106400000D03*
G04 #@! TD*
G04 #@! TO.P,U4,1*
G04 #@! TO.N,/LED1_PWR*
X37140000Y-109600000D03*
G04 #@! TO.P,U4,2*
G04 #@! TO.N,Net-(U1-Pad4)*
X37140000Y-106400000D03*
G04 #@! TO.P,U4,4*
G04 #@! TO.N,/LED_DATA*
X32140000Y-109600000D03*
G04 #@! TO.P,U4,3*
G04 #@! TO.N,GND*
X32140000Y-106400000D03*
G04 #@! TD*
G04 #@! TO.P,U5,1*
G04 #@! TO.N,+5V_LIGHTS*
X69815000Y-109600000D03*
G04 #@! TO.P,U5,2*
G04 #@! TO.N,Net-(U2-Pad4)*
X69815000Y-106400000D03*
G04 #@! TO.P,U5,4*
G04 #@! TO.N,Net-(U1-Pad2)*
X64815000Y-109600000D03*
G04 #@! TO.P,U5,3*
G04 #@! TO.N,GND*
X64815000Y-106400000D03*
G04 #@! TD*
D12*
G04 #@! TO.P,U7,14*
G04 #@! TO.N,/IRQ_TOUCH*
X109730000Y-60990000D03*
G04 #@! TO.P,U7,13*
G04 #@! TO.N,/SPI1_MISO*
X109730000Y-63530000D03*
G04 #@! TO.P,U7,12*
G04 #@! TO.N,/SPI1_MOSI*
X109730000Y-66070000D03*
G04 #@! TO.P,U7,11*
G04 #@! TO.N,/CS_TOUCH*
X109730000Y-68610000D03*
G04 #@! TO.P,U7,10*
G04 #@! TO.N,/SPI1_SCK*
X109730000Y-71150000D03*
G04 #@! TO.P,U7,9*
G04 #@! TO.N,N/C*
X109730000Y-73690000D03*
G04 #@! TO.P,U7,8*
G04 #@! TO.N,/LCD_BKLT*
X109730000Y-76230000D03*
G04 #@! TO.P,U7,7*
G04 #@! TO.N,/SPI0_SCK*
X109730000Y-78770000D03*
G04 #@! TO.P,U7,6*
G04 #@! TO.N,/SPI0_MOSI*
X109730000Y-81310000D03*
G04 #@! TO.P,U7,5*
G04 #@! TO.N,/LCD_DC*
X109730000Y-83850000D03*
G04 #@! TO.P,U7,4*
G04 #@! TO.N,/LCD_RESET*
X109730000Y-86390000D03*
G04 #@! TO.P,U7,3*
G04 #@! TO.N,/SPI0_CE0*
X109730000Y-88930000D03*
G04 #@! TO.P,U7,2*
G04 #@! TO.N,GND*
X109730000Y-91470000D03*
G04 #@! TO.P,U7,1*
G04 #@! TO.N,+5V_LCD*
X109730000Y-94010000D03*
G04 #@! TD*
D13*
G04 #@! TO.P,D1,1*
G04 #@! TO.N,/LED1_PWR*
X39370000Y-167514000D03*
G04 #@! TO.P,D1,2*
G04 #@! TO.N,+5V_LIGHTS*
X39370000Y-170814000D03*
G04 #@! TD*
D14*
G04 #@! TO.P,J1,40*
G04 #@! TO.N,/SPI1_SCK*
X42565000Y-149760000D03*
G04 #@! TO.P,J1,39*
G04 #@! TO.N,GND*
X42565000Y-155580000D03*
G04 #@! TO.P,J1,38*
G04 #@! TO.N,/SPI1_MOSI*
X45105000Y-149760000D03*
G04 #@! TO.P,J1,37*
G04 #@! TO.N,/START_B*
X45105000Y-155580000D03*
G04 #@! TO.P,J1,36*
G04 #@! TO.N,/SELECT_B*
X47645000Y-149760000D03*
G04 #@! TO.P,J1,35*
G04 #@! TO.N,/SPI1_MISO*
X47645000Y-155580000D03*
G04 #@! TO.P,J1,34*
G04 #@! TO.N,GND*
X50185000Y-149760000D03*
G04 #@! TO.P,J1,33*
G04 #@! TO.N,/A_B*
X50185000Y-155580000D03*
G04 #@! TO.P,J1,32*
G04 #@! TO.N,/X_B*
X52725000Y-149760000D03*
G04 #@! TO.P,J1,31*
G04 #@! TO.N,/~LED_ON*
X52725000Y-155580000D03*
G04 #@! TO.P,J1,30*
G04 #@! TO.N,GND*
X55265000Y-149760000D03*
G04 #@! TO.P,J1,29*
G04 #@! TO.N,/~LCD_ON*
X55265000Y-155580000D03*
G04 #@! TO.P,J1,28*
G04 #@! TO.N,N/C*
X57805000Y-149760000D03*
G04 #@! TO.P,J1,27*
X57805000Y-155580000D03*
G04 #@! TO.P,J1,26*
X60345000Y-149760000D03*
G04 #@! TO.P,J1,25*
G04 #@! TO.N,GND*
X60345000Y-155580000D03*
G04 #@! TO.P,J1,24*
G04 #@! TO.N,/SPI0_CE0*
X62885000Y-149760000D03*
G04 #@! TO.P,J1,23*
G04 #@! TO.N,/SPI0_SCK*
X62885000Y-155580000D03*
G04 #@! TO.P,J1,22*
G04 #@! TO.N,/B_B*
X65425000Y-149760000D03*
G04 #@! TO.P,J1,21*
G04 #@! TO.N,N/C*
X65425000Y-155580000D03*
G04 #@! TO.P,J1,20*
G04 #@! TO.N,GND*
X67965000Y-149760000D03*
G04 #@! TO.P,J1,19*
G04 #@! TO.N,/SPI0_MOSI*
X67965000Y-155580000D03*
G04 #@! TO.P,J1,18*
G04 #@! TO.N,/Y_B*
X70505000Y-149760000D03*
G04 #@! TO.P,J1,17*
G04 #@! TO.N,+3V3*
X70505000Y-155580000D03*
G04 #@! TO.P,J1,16*
G04 #@! TO.N,/LCD_BKLT*
X73045000Y-149760000D03*
G04 #@! TO.P,J1,15*
G04 #@! TO.N,/LCD_DC*
X73045000Y-155580000D03*
G04 #@! TO.P,J1,14*
G04 #@! TO.N,GND*
X75585000Y-149760000D03*
G04 #@! TO.P,J1,13*
G04 #@! TO.N,/LCD_RESET*
X75585000Y-155580000D03*
G04 #@! TO.P,J1,12*
G04 #@! TO.N,/LED_DATA*
X78125000Y-149760000D03*
G04 #@! TO.P,J1,11*
G04 #@! TO.N,/SPI1_CE1*
X78125000Y-155580000D03*
G04 #@! TO.P,J1,10*
G04 #@! TO.N,/Rx*
X80665000Y-149760000D03*
G04 #@! TO.P,J1,9*
G04 #@! TO.N,GND*
X80665000Y-155580000D03*
G04 #@! TO.P,J1,8*
G04 #@! TO.N,/Tx*
X83205000Y-149760000D03*
G04 #@! TO.P,J1,7*
G04 #@! TO.N,/CS_TOUCH*
X83205000Y-155580000D03*
G04 #@! TO.P,J1,6*
G04 #@! TO.N,GND*
X85745000Y-149760000D03*
G04 #@! TO.P,J1,5*
G04 #@! TO.N,/PWR_ON_OFF*
X85745000Y-155580000D03*
G04 #@! TO.P,J1,4*
G04 #@! TO.N,+5V*
X88285000Y-149760000D03*
G04 #@! TO.P,J1,3*
G04 #@! TO.N,/SDA*
X88285000Y-155580000D03*
G04 #@! TO.P,J1,2*
G04 #@! TO.N,+5V*
X90825000Y-149760000D03*
G04 #@! TO.P,J1,1*
G04 #@! TO.N,+3V3*
X90825000Y-155580000D03*
G04 #@! TD*
D15*
G04 #@! TO.P,C8,1*
G04 #@! TO.N,+5V*
X88239000Y-161290000D03*
G04 #@! TO.P,C8,2*
G04 #@! TO.N,GND*
X84989000Y-161290000D03*
G04 #@! TD*
D16*
G04 #@! TO.P,C1,1*
G04 #@! TO.N,+5V*
X97000000Y-151875000D03*
G04 #@! TO.P,C1,2*
G04 #@! TO.N,GND*
X97000000Y-155125000D03*
G04 #@! TD*
D17*
G04 #@! TO.P,SW5,1*
G04 #@! TO.N,Net-(R5-Pad1)*
X21910000Y-52920000D03*
X21910000Y-57070000D03*
G04 #@! TO.P,SW5,2*
G04 #@! TO.N,/PWR_ON_OFF*
X24060000Y-52920000D03*
X24060000Y-57070000D03*
G04 #@! TD*
D18*
G04 #@! TO.P,J2,1*
G04 #@! TO.N,+3V3*
X107315000Y-44450000D03*
G04 #@! TO.P,J2,2*
G04 #@! TO.N,/SDA*
X109111051Y-42653949D03*
D19*
G04 #@! TD*
G04 #@! TO.N,/SDA*
G04 #@! TO.C,J2*
X109111051Y-42653949D02*
X109111051Y-42653949D01*
D18*
G04 #@! TO.P,J2,3*
G04 #@! TO.N,GND*
X109111051Y-46246051D03*
D19*
G04 #@! TD*
G04 #@! TO.N,GND*
G04 #@! TO.C,J2*
X109111051Y-46246051D02*
X109111051Y-46246051D01*
D18*
G04 #@! TO.P,J2,4*
G04 #@! TO.N,/PWR_ON_OFF*
X110907102Y-44450000D03*
D19*
G04 #@! TD*
G04 #@! TO.N,/PWR_ON_OFF*
G04 #@! TO.C,J2*
X110907102Y-44450000D02*
X110907102Y-44450000D01*
D20*
G04 #@! TO.P,Q2,1*
G04 #@! TO.N,Net-(Q2-Pad1)*
X98460000Y-158420000D03*
G04 #@! TO.P,Q2,2*
G04 #@! TO.N,+5V*
X96560000Y-158420000D03*
G04 #@! TO.P,Q2,3*
G04 #@! TO.N,+5V_LCD*
X97510000Y-160420000D03*
G04 #@! TD*
D21*
G04 #@! TO.P,U6,16*
G04 #@! TO.N,+3V3*
X70555000Y-163800000D03*
G04 #@! TO.P,U6,15*
X71825000Y-163800000D03*
G04 #@! TO.P,U6,14*
G04 #@! TO.N,GND*
X73095000Y-163800000D03*
G04 #@! TO.P,U6,13*
G04 #@! TO.N,/SPI1_SCK*
X74365000Y-163800000D03*
G04 #@! TO.P,U6,12*
G04 #@! TO.N,/SPI1_MISO*
X75635000Y-163800000D03*
G04 #@! TO.P,U6,11*
G04 #@! TO.N,/SPI1_MOSI*
X76905000Y-163800000D03*
G04 #@! TO.P,U6,10*
G04 #@! TO.N,/SPI1_CE1*
X78175000Y-163800000D03*
G04 #@! TO.P,U6,9*
G04 #@! TO.N,GND*
X79445000Y-163800000D03*
G04 #@! TO.P,U6,8*
G04 #@! TO.N,/IRQ_TOUCH*
X79445000Y-169200000D03*
G04 #@! TO.P,U6,7*
G04 #@! TO.N,N/C*
X78175000Y-169200000D03*
G04 #@! TO.P,U6,6*
X76905000Y-169200000D03*
G04 #@! TO.P,U6,5*
X75635000Y-169200000D03*
G04 #@! TO.P,U6,4*
X74365000Y-169200000D03*
G04 #@! TO.P,U6,3*
X73095000Y-169200000D03*
G04 #@! TO.P,U6,2*
G04 #@! TO.N,Net-(U6-Pad2)*
X71825000Y-169200000D03*
G04 #@! TO.P,U6,1*
G04 #@! TO.N,Net-(U6-Pad1)*
X70555000Y-169200000D03*
G04 #@! TD*
D22*
G04 #@! TO.P,C2,1*
G04 #@! TO.N,+5V_LIGHTS*
X61000000Y-106750000D03*
G04 #@! TO.P,C2,2*
G04 #@! TO.N,GND*
X61000000Y-105250000D03*
G04 #@! TD*
G04 #@! TO.P,C3,1*
G04 #@! TO.N,+5V_LIGHTS*
X93000000Y-106750000D03*
G04 #@! TO.P,C3,2*
G04 #@! TO.N,GND*
X93000000Y-105250000D03*
G04 #@! TD*
G04 #@! TO.P,C4,1*
G04 #@! TO.N,+5V_LIGHTS*
X77000000Y-106750000D03*
G04 #@! TO.P,C4,2*
G04 #@! TO.N,GND*
X77000000Y-105250000D03*
G04 #@! TD*
G04 #@! TO.P,C5,1*
G04 #@! TO.N,+5V_LIGHTS*
X45000000Y-106750000D03*
G04 #@! TO.P,C5,2*
G04 #@! TO.N,GND*
X45000000Y-105250000D03*
G04 #@! TD*
G04 #@! TO.P,C6,1*
G04 #@! TO.N,/LED1_PWR*
X29000000Y-106750000D03*
G04 #@! TO.P,C6,2*
G04 #@! TO.N,GND*
X29000000Y-105250000D03*
G04 #@! TD*
G04 #@! TO.P,C7,1*
G04 #@! TO.N,+3V3*
X83159600Y-164959600D03*
G04 #@! TO.P,C7,2*
G04 #@! TO.N,GND*
X83159600Y-166459600D03*
G04 #@! TD*
D20*
G04 #@! TO.P,Q1,1*
G04 #@! TO.N,Net-(Q1-Pad1)*
X52766000Y-167910000D03*
G04 #@! TO.P,Q1,2*
G04 #@! TO.N,+5V*
X50866000Y-167910000D03*
G04 #@! TO.P,Q1,3*
G04 #@! TO.N,+5V_LIGHTS*
X51816000Y-169910000D03*
G04 #@! TD*
D23*
G04 #@! TO.P,R1,1*
G04 #@! TO.N,Net-(R1-Pad1)*
X68514000Y-124968000D03*
G04 #@! TO.P,R1,2*
G04 #@! TO.N,/SELECT_B*
X66614000Y-124968000D03*
G04 #@! TD*
G04 #@! TO.P,R2,1*
G04 #@! TO.N,Net-(R2-Pad1)*
X68514000Y-137414000D03*
G04 #@! TO.P,R2,2*
G04 #@! TO.N,/START_B*
X66614000Y-137414000D03*
G04 #@! TD*
G04 #@! TO.P,R3,1*
G04 #@! TO.N,Net-(R3-Pad1)*
X80950000Y-120000000D03*
G04 #@! TO.P,R3,2*
G04 #@! TO.N,/X_B*
X79050000Y-120000000D03*
G04 #@! TD*
G04 #@! TO.P,R4,1*
G04 #@! TO.N,Net-(R4-Pad1)*
X81468000Y-132588000D03*
G04 #@! TO.P,R4,2*
G04 #@! TO.N,/A_B*
X79568000Y-132588000D03*
G04 #@! TD*
D24*
G04 #@! TO.P,R5,1*
G04 #@! TO.N,Net-(R5-Pad1)*
X23000000Y-76050000D03*
G04 #@! TO.P,R5,2*
G04 #@! TO.N,GND*
X23000000Y-77950000D03*
G04 #@! TD*
D23*
G04 #@! TO.P,R6,1*
G04 #@! TO.N,Net-(R6-Pad1)*
X93500000Y-115000000D03*
G04 #@! TO.P,R6,2*
G04 #@! TO.N,/Y_B*
X91600000Y-115000000D03*
G04 #@! TD*
G04 #@! TO.P,R7,1*
G04 #@! TO.N,Net-(R7-Pad1)*
X93914000Y-127508000D03*
G04 #@! TO.P,R7,2*
G04 #@! TO.N,/B_B*
X92014000Y-127508000D03*
G04 #@! TD*
D24*
G04 #@! TO.P,R8,1*
G04 #@! TO.N,Net-(Q1-Pad1)*
X52832000Y-164272000D03*
G04 #@! TO.P,R8,2*
G04 #@! TO.N,/~LED_ON*
X52832000Y-162372000D03*
G04 #@! TD*
G04 #@! TO.P,R9,1*
G04 #@! TO.N,+5V*
X88138000Y-167198000D03*
G04 #@! TO.P,R9,2*
G04 #@! TO.N,Net-(Q1-Pad1)*
X88138000Y-169098000D03*
G04 #@! TD*
G04 #@! TO.P,R10,1*
G04 #@! TO.N,Net-(Q2-Pad1)*
X98044000Y-167198000D03*
G04 #@! TO.P,R10,2*
G04 #@! TO.N,/~LCD_ON*
X98044000Y-169098000D03*
G04 #@! TD*
D23*
G04 #@! TO.P,R11,1*
G04 #@! TO.N,+5V*
X94300000Y-162306000D03*
G04 #@! TO.P,R11,2*
G04 #@! TO.N,Net-(Q2-Pad1)*
X96200000Y-162306000D03*
G04 #@! TD*
D25*
G04 #@! TO.P,J3,*
G04 #@! TO.N,*
X90525000Y-42030000D03*
X100325000Y-42030000D03*
D26*
G04 #@! TO.P,J3,4*
G04 #@! TO.N,/Rx*
X92425000Y-49530000D03*
G04 #@! TO.P,J3,3*
G04 #@! TO.N,/Tx*
X94425000Y-49530000D03*
G04 #@! TO.P,J3,2*
G04 #@! TO.N,+3V3*
X96425000Y-49530000D03*
G04 #@! TO.P,J3,1*
G04 #@! TO.N,GND*
X98425000Y-49530000D03*
G04 #@! TD*
D27*
G04 #@! TO.P,U8,2*
G04 #@! TO.N,+3V3*
X38750000Y-122250000D03*
G04 #@! TO.P,U8,3*
G04 #@! TO.N,Net-(U6-Pad1)*
X36750000Y-122250000D03*
G04 #@! TO.P,U8,1*
G04 #@! TO.N,Net-(U6-Pad2)*
X40750000Y-122250000D03*
G04 #@! TO.P,U8,4*
G04 #@! TO.N,GND*
X34750000Y-122250000D03*
G04 #@! TD*
D28*
G04 #@! TO.P,F1,~*
G04 #@! TO.N,N/C*
X27500000Y-55000000D03*
G04 #@! TD*
G04 #@! TO.P,F2,~*
G04 #@! TO.N,N/C*
X110000000Y-55000000D03*
G04 #@! TD*
G04 #@! TO.P,F3,~*
G04 #@! TO.N,N/C*
X97500000Y-177500000D03*
G04 #@! TD*
D29*
G04 #@! TO.N,+5V*
X90500000Y-163000000D03*
X91000000Y-173500000D03*
X107330000Y-164840000D03*
X93020000Y-145790000D03*
G04 #@! TO.N,GND*
X103187500Y-107848400D03*
X43713400Y-159156400D03*
X50114200Y-147967700D03*
X56489600Y-160553400D03*
X66840100Y-148297900D03*
X74434700Y-152704800D03*
X82702400Y-168351200D03*
X72453500Y-167716200D03*
X86010000Y-152670000D03*
X94470000Y-154870000D03*
X87110000Y-143260000D03*
X96290000Y-102110000D03*
X32130000Y-101400000D03*
X34870000Y-117350000D03*
G04 #@! TO.N,+3V3*
X38862000Y-118618000D03*
X96380300Y-46189900D03*
X68922900Y-145491200D03*
X69405500Y-148145500D03*
X71970900Y-165544500D03*
X77952600Y-165557200D03*
D30*
G04 #@! TO.N,/SDA*
X89484200Y-156337000D03*
X85750400Y-157187900D03*
X85483700Y-147828000D03*
G04 #@! TO.N,/PWR_ON_OFF*
X82994500Y-157607000D03*
X25540000Y-51660000D03*
X103580000Y-46120000D03*
G04 #@! TO.N,/CS_TOUCH*
X81610200Y-152666700D03*
G04 #@! TO.N,/LED_DATA*
X77978000Y-146558000D03*
X35814000Y-110998000D03*
G04 #@! TO.N,/LCD_RESET*
X75692000Y-160020000D03*
X89154000Y-159258000D03*
G04 #@! TO.N,/LCD_DC*
X73406000Y-157988000D03*
G04 #@! TO.N,/LCD_BKLT*
X94560000Y-156270000D03*
X98460000Y-155020000D03*
X72644000Y-159258000D03*
X89154000Y-158242000D03*
G04 #@! TO.N,/Y_B*
X71983600Y-148234400D03*
X80276700Y-127850900D03*
G04 #@! TO.N,/SPI0_CE0*
X92540000Y-160470000D03*
X64008000Y-160782000D03*
G04 #@! TO.N,/SPI1_MISO*
X74930000Y-166878000D03*
X47498000Y-166116000D03*
X99750000Y-154750000D03*
X75819000Y-170815000D03*
X85280500Y-158051500D03*
G04 #@! TO.N,/SELECT_B*
X65500000Y-112400000D03*
X75650000Y-124300000D03*
G04 #@! TO.N,/SPI1_MOSI*
X76454000Y-166116000D03*
X46736000Y-165354000D03*
X99180000Y-155550000D03*
X86258400Y-157988000D03*
G04 #@! TO.N,/SPI1_SCK*
X37084000Y-154940000D03*
X73660000Y-162052000D03*
G04 #@! TO.N,Net-(Q1-Pad1)*
X54510000Y-167940000D03*
X87770000Y-171560000D03*
G04 #@! TO.N,Net-(Q2-Pad1)*
X98298000Y-164846000D03*
X98180000Y-162010000D03*
G04 #@! TO.N,/IRQ_TOUCH*
X79880000Y-161980000D03*
X82050000Y-162550000D03*
X99250500Y-153860500D03*
X84328000Y-158051500D03*
G04 #@! TO.N,Net-(U6-Pad2)*
X69443600Y-159397700D03*
X47910000Y-130920000D03*
G04 #@! TO.N,Net-(U6-Pad1)*
X47170000Y-136230000D03*
X68884800Y-157721300D03*
G04 #@! TO.N,/Tx*
X82423000Y-145605500D03*
X94437200Y-54813200D03*
G04 #@! TO.N,/Rx*
X92557600Y-54851300D03*
X81203800Y-145770600D03*
G04 #@! TD*
D31*
G04 #@! TO.N,+5V*
X88285000Y-149760000D02*
X88285000Y-148189000D01*
X90825000Y-148229000D02*
X90825000Y-149760000D01*
X89916000Y-147320000D02*
X90825000Y-148229000D01*
X89154000Y-147320000D02*
X89916000Y-147320000D01*
X88285000Y-148189000D02*
X89154000Y-147320000D01*
X90825000Y-149760000D02*
X96166000Y-149760000D01*
X97000000Y-150594000D02*
X97000000Y-152000000D01*
X96166000Y-149760000D02*
X97000000Y-150594000D01*
X88114000Y-161290000D02*
X93250000Y-161290000D01*
X93250000Y-161290000D02*
X93284000Y-161290000D01*
X93284000Y-161290000D02*
X94300000Y-162306000D01*
X88285000Y-149760000D02*
X88285000Y-149967000D01*
X88114000Y-158472000D02*
X88114000Y-161290000D01*
X87122000Y-157480000D02*
X88114000Y-158472000D01*
X87122000Y-151130000D02*
X87122000Y-157480000D01*
X88285000Y-149967000D02*
X87122000Y-151130000D01*
X88138000Y-167198000D02*
X88138000Y-161314000D01*
X88138000Y-161314000D02*
X88114000Y-161290000D01*
D32*
X88114000Y-161290000D02*
X88790000Y-161290000D01*
X88790000Y-161290000D02*
X89500000Y-162000000D01*
D33*
X89500000Y-162000000D02*
X90500000Y-163000000D01*
X50866000Y-166634000D02*
X50866000Y-167910000D01*
X91000000Y-173500000D02*
X88000000Y-176500000D01*
X88000000Y-176500000D02*
X68072722Y-176500000D01*
X68072722Y-176500000D02*
X57572722Y-166000000D01*
X57572722Y-166000000D02*
X51500000Y-166000000D01*
X51500000Y-166000000D02*
X50866000Y-166634000D01*
X90825000Y-149760000D02*
X90825000Y-147985000D01*
X96490000Y-173500000D02*
X91000000Y-173500000D01*
X99790000Y-170200000D02*
X96490000Y-173500000D01*
X99790000Y-167650000D02*
X99790000Y-170200000D01*
X102730000Y-164710000D02*
X99790000Y-167650000D01*
X107200000Y-164710000D02*
X102730000Y-164710000D01*
X107330000Y-164840000D02*
X107200000Y-164710000D01*
X90825000Y-147985000D02*
X93020000Y-145790000D01*
D31*
X96560000Y-158420000D02*
X95890000Y-158420000D01*
X94300000Y-160010000D02*
X94300000Y-160100000D01*
X94300000Y-160100000D02*
X94300000Y-162306000D01*
X95890000Y-158420000D02*
X94300000Y-160010000D01*
X94300000Y-160100000D02*
X94300000Y-160240000D01*
X94300000Y-160240000D02*
X93250000Y-161290000D01*
G04 #@! TO.N,GND*
X29000000Y-105250000D02*
X30990000Y-105250000D01*
X30990000Y-105250000D02*
X32140000Y-106400000D01*
X85114000Y-161290000D02*
X81955000Y-161290000D01*
X81955000Y-161290000D02*
X79445000Y-163800000D01*
X23000000Y-77950000D02*
X23000000Y-78880000D01*
X29000000Y-84880000D02*
X29000000Y-105250000D01*
X23000000Y-78880000D02*
X29000000Y-84880000D01*
X109111051Y-46246051D02*
X107079051Y-46246051D01*
X98425000Y-46799500D02*
X98425000Y-49530000D01*
X98933000Y-46291500D02*
X98425000Y-46799500D01*
X102044500Y-46291500D02*
X98933000Y-46291500D01*
X103718221Y-44617779D02*
X102044500Y-46291500D01*
X105450779Y-44617779D02*
X103718221Y-44617779D01*
X107079051Y-46246051D02*
X105450779Y-44617779D01*
D33*
X97839200Y-107899200D02*
X96340000Y-106400000D01*
X103136700Y-107899200D02*
X97839200Y-107899200D01*
X103187500Y-107848400D02*
X103136700Y-107899200D01*
D31*
X75585000Y-145737900D02*
X75585000Y-149760000D01*
X77292200Y-144030700D02*
X75585000Y-145737900D01*
X84963000Y-144030700D02*
X84950000Y-144030700D01*
X84950000Y-144030700D02*
X77292200Y-144030700D01*
D34*
X50185000Y-149760000D02*
X50185000Y-148038500D01*
X42565000Y-158008000D02*
X42565000Y-155580000D01*
X43713400Y-159156400D02*
X42565000Y-158008000D01*
X50185000Y-148038500D02*
X50114200Y-147967700D01*
X60345000Y-155580000D02*
X60345000Y-158806200D01*
X58597800Y-160553400D02*
X56489600Y-160553400D01*
X60345000Y-158806200D02*
X58597800Y-160553400D01*
X67965000Y-149760000D02*
X67965000Y-149422800D01*
X67965000Y-149422800D02*
X66840100Y-148297900D01*
X75585000Y-149760000D02*
X75080800Y-149760000D01*
X75080800Y-149760000D02*
X74434700Y-150406100D01*
X74434700Y-150406100D02*
X74434700Y-152704800D01*
D31*
X80665000Y-155580000D02*
X80256300Y-155580000D01*
X74574400Y-152844500D02*
X74434700Y-152704800D01*
X78600300Y-152844500D02*
X74574400Y-152844500D01*
X79413100Y-153657300D02*
X78600300Y-152844500D01*
X79413100Y-154736800D02*
X79413100Y-153657300D01*
X80256300Y-155580000D02*
X79413100Y-154736800D01*
X79445000Y-163800000D02*
X84209100Y-163800000D01*
X84209100Y-163800000D02*
X84988400Y-164579300D01*
X84988400Y-164579300D02*
X84988400Y-166116000D01*
X84988400Y-166116000D02*
X84644800Y-166459600D01*
X84644800Y-166459600D02*
X83159600Y-166459600D01*
X73095000Y-163800000D02*
X73095000Y-167074700D01*
X83159600Y-167894000D02*
X83159600Y-166459600D01*
X82702400Y-168351200D02*
X83159600Y-167894000D01*
X73095000Y-167074700D02*
X72453500Y-167716200D01*
X80665000Y-155580000D02*
X80665000Y-159535000D01*
X79445000Y-162785000D02*
X79445000Y-163800000D01*
X78930000Y-162270000D02*
X79445000Y-162785000D01*
X78930000Y-161270000D02*
X78930000Y-162270000D01*
X80665000Y-159535000D02*
X78930000Y-161270000D01*
D34*
X97000000Y-155125000D02*
X94725000Y-155125000D01*
X85220000Y-149760000D02*
X85745000Y-149760000D01*
X84380000Y-150600000D02*
X85220000Y-149760000D01*
X84380000Y-152480000D02*
X84380000Y-150600000D01*
X84570000Y-152670000D02*
X84380000Y-152480000D01*
X86010000Y-152670000D02*
X84570000Y-152670000D01*
X94725000Y-155125000D02*
X94470000Y-154870000D01*
D33*
X85745000Y-149760000D02*
X85745000Y-149255000D01*
X87120000Y-147880000D02*
X87120000Y-144830000D01*
X85745000Y-149255000D02*
X87120000Y-147880000D01*
X87110000Y-143260000D02*
X87120000Y-143270000D01*
X87120000Y-143270000D02*
X87120000Y-144830000D01*
X96340000Y-102160000D02*
X96340000Y-106400000D01*
X96340000Y-102160000D02*
X96290000Y-102110000D01*
D34*
X93000000Y-105250000D02*
X95190000Y-105250000D01*
X95190000Y-105250000D02*
X96340000Y-106400000D01*
X93000000Y-105250000D02*
X81700000Y-105250000D01*
X81700000Y-105250000D02*
X80550000Y-106400000D01*
X77000000Y-105250000D02*
X79400000Y-105250000D01*
X79400000Y-105250000D02*
X80550000Y-106400000D01*
X77000000Y-105250000D02*
X65965000Y-105250000D01*
X65965000Y-105250000D02*
X64815000Y-106400000D01*
X61000000Y-105250000D02*
X63665000Y-105250000D01*
X63665000Y-105250000D02*
X64815000Y-106400000D01*
X61000000Y-105250000D02*
X49625000Y-105250000D01*
X49625000Y-105250000D02*
X48475000Y-106400000D01*
X45000000Y-105250000D02*
X47325000Y-105250000D01*
X47325000Y-105250000D02*
X48475000Y-106400000D01*
X45000000Y-105250000D02*
X33290000Y-105250000D01*
X33290000Y-105250000D02*
X32140000Y-106400000D01*
D31*
X84950000Y-144030700D02*
X86339300Y-144030700D01*
X86339300Y-144030700D02*
X87110000Y-143260000D01*
D33*
X55265000Y-149760000D02*
X55265000Y-147345000D01*
X55265000Y-147345000D02*
X54130000Y-146210000D01*
X54130000Y-146210000D02*
X51580000Y-146210000D01*
X50185000Y-147605000D02*
X50185000Y-149760000D01*
X51580000Y-146210000D02*
X50185000Y-147605000D01*
X32140000Y-106400000D02*
X32140000Y-101410000D01*
X32140000Y-101410000D02*
X32130000Y-101400000D01*
X34870000Y-117350000D02*
X34750000Y-117470000D01*
X34750000Y-117470000D02*
X34750000Y-122250000D01*
X50114200Y-147967700D02*
X50027700Y-147967700D01*
X33240000Y-123760000D02*
X34750000Y-122250000D01*
X26620000Y-123760000D02*
X33240000Y-123760000D01*
X25273006Y-125106994D02*
X26620000Y-123760000D01*
X25273006Y-147687024D02*
X25273006Y-125106994D01*
X33821639Y-156235657D02*
X25273006Y-147687024D01*
X34544343Y-156235657D02*
X33821639Y-156235657D01*
X35111328Y-155668672D02*
X34544343Y-156235657D01*
X35111328Y-151174654D02*
X35111328Y-155668672D01*
X39085982Y-147200000D02*
X35111328Y-151174654D01*
X49260000Y-147200000D02*
X39085982Y-147200000D01*
X50027700Y-147967700D02*
X49260000Y-147200000D01*
D31*
G04 #@! TO.N,+5V_LIGHTS*
X93000000Y-106750000D02*
X93000000Y-108204000D01*
X93000000Y-108240000D02*
X95885000Y-111125000D01*
X95885000Y-111125000D02*
X99815000Y-111125000D01*
X93000000Y-108204000D02*
X93000000Y-108240000D01*
X99815000Y-111125000D02*
X101340000Y-109600000D01*
X77000000Y-106750000D02*
X77000000Y-108115000D01*
X84025000Y-111125000D02*
X85550000Y-109600000D01*
X80010000Y-111125000D02*
X84025000Y-111125000D01*
X77000000Y-108115000D02*
X80010000Y-111125000D01*
X75515000Y-109600000D02*
X77000000Y-108115000D01*
X61000000Y-106750000D02*
X61000000Y-107990000D01*
X68290000Y-111125000D02*
X69815000Y-109600000D01*
X64135000Y-111125000D02*
X68290000Y-111125000D01*
X61000000Y-107990000D02*
X64135000Y-111125000D01*
X59390000Y-109600000D02*
X61000000Y-107990000D01*
X45000000Y-106750000D02*
X45000000Y-108500000D01*
X45000000Y-108500000D02*
X47625000Y-111125000D01*
X47625000Y-111125000D02*
X51950000Y-111125000D01*
X51950000Y-111125000D02*
X53475000Y-109600000D01*
X42038000Y-170814000D02*
X42000000Y-170814000D01*
X42000000Y-170814000D02*
X39370000Y-170814000D01*
D33*
X51950000Y-111125000D02*
X45339000Y-111125000D01*
X31750000Y-113284000D02*
X43167300Y-113284000D01*
X23114000Y-121920000D02*
X31750000Y-113284000D01*
X23114000Y-148590000D02*
X23114000Y-121920000D01*
X42434000Y-167910000D02*
X23114000Y-148590000D01*
X43167300Y-113284000D02*
X43180000Y-113284000D01*
X43180000Y-113284000D02*
X45339000Y-111125000D01*
X42434000Y-167910000D02*
X42434000Y-168934000D01*
X42434000Y-168934000D02*
X43410000Y-169910000D01*
X43410000Y-169910000D02*
X51816000Y-169910000D01*
X51950000Y-111125000D02*
X53475000Y-109600000D01*
X68290000Y-111125000D02*
X69815000Y-109600000D01*
X69815000Y-109600000D02*
X75515000Y-109600000D01*
X84025000Y-111125000D02*
X85550000Y-109600000D01*
X99815000Y-111125000D02*
X101340000Y-109600000D01*
X77040000Y-111125000D02*
X84025000Y-111125000D01*
X75515000Y-109600000D02*
X77040000Y-111125000D01*
X53475000Y-109600000D02*
X59390000Y-109600000D01*
X59390000Y-109600000D02*
X60915000Y-111125000D01*
X60915000Y-111125000D02*
X68290000Y-111125000D01*
X85550000Y-109600000D02*
X91314000Y-109600000D01*
X92839000Y-111125000D02*
X99815000Y-111125000D01*
X91314000Y-109600000D02*
X92839000Y-111125000D01*
D31*
X93000000Y-106750000D02*
X93000000Y-107914000D01*
X93000000Y-107914000D02*
X91314000Y-109600000D01*
X91314000Y-109600000D02*
X85550000Y-109600000D01*
X42000000Y-170814000D02*
X42506000Y-170814000D01*
X42506000Y-170814000D02*
X43410000Y-169910000D01*
G04 #@! TO.N,+3V3*
X97500000Y-132000000D02*
X104000000Y-132000000D01*
X97500000Y-119500000D02*
X104000000Y-119500000D01*
X91500000Y-137000000D02*
X92500000Y-137000000D01*
X92500000Y-137000000D02*
X97500000Y-132000000D01*
X91500000Y-124500000D02*
X92500000Y-124500000D01*
X92500000Y-124500000D02*
X97500000Y-119500000D01*
X79000000Y-129500000D02*
X80000000Y-129500000D01*
X80000000Y-129500000D02*
X85000000Y-124500000D01*
X79000000Y-142000000D02*
X80000000Y-142000000D01*
X80000000Y-142000000D02*
X85000000Y-137000000D01*
X72500000Y-129500000D02*
X79000000Y-129500000D01*
X97500000Y-132000000D02*
X96186000Y-132000000D01*
X96186000Y-132000000D02*
X92964000Y-128778000D01*
X92964000Y-128778000D02*
X92964000Y-125964000D01*
X92964000Y-125964000D02*
X91500000Y-124500000D01*
X85000000Y-124500000D02*
X91500000Y-124500000D01*
X85000000Y-137000000D02*
X83660000Y-137000000D01*
X80518000Y-131018000D02*
X79000000Y-129500000D01*
X80518000Y-133858000D02*
X80518000Y-131018000D01*
X83660000Y-137000000D02*
X80518000Y-133858000D01*
X70505000Y-155580000D02*
X70505000Y-163750000D01*
X70505000Y-163750000D02*
X70555000Y-163800000D01*
X70505000Y-155580000D02*
X70505000Y-157627000D01*
X71825000Y-158947000D02*
X71825000Y-163800000D01*
X70505000Y-157627000D02*
X71825000Y-158947000D01*
X38750000Y-118730000D02*
X38750000Y-122250000D01*
X38862000Y-118618000D02*
X38750000Y-118730000D01*
X96425000Y-49530000D02*
X96425000Y-46132500D01*
X96425000Y-46132500D02*
X97155000Y-45402500D01*
X97155000Y-45402500D02*
X101437766Y-45402500D01*
X101437766Y-45402500D02*
X103596766Y-43243500D01*
X103596766Y-43243500D02*
X106108500Y-43243500D01*
X106108500Y-43243500D02*
X107315000Y-44450000D01*
X96425000Y-46234600D02*
X96425000Y-49530000D01*
X96380300Y-46189900D02*
X96425000Y-46234600D01*
X70505000Y-155580000D02*
X70505000Y-155391800D01*
X72414100Y-142000000D02*
X72500000Y-142000000D01*
X68922900Y-145491200D02*
X72414100Y-142000000D01*
X69405500Y-154292300D02*
X69405500Y-148145500D01*
X70505000Y-155391800D02*
X69405500Y-154292300D01*
X83159600Y-164959600D02*
X82360200Y-164959600D01*
X71825000Y-165398600D02*
X71825000Y-163800000D01*
X71970900Y-165544500D02*
X71825000Y-165398600D01*
X81762600Y-165557200D02*
X77952600Y-165557200D01*
X82360200Y-164959600D02*
X81762600Y-165557200D01*
X71970900Y-165544500D02*
X71259700Y-165544500D01*
X70555000Y-164839800D02*
X70555000Y-163800000D01*
X71259700Y-165544500D02*
X70555000Y-164839800D01*
X98806000Y-152654000D02*
X98806000Y-149860000D01*
X90825000Y-155580000D02*
X92420000Y-155580000D01*
X98806000Y-149860000D02*
X91500000Y-142554000D01*
X91500000Y-142554000D02*
X91500000Y-137000000D01*
X98806000Y-152654000D02*
X98806000Y-152874000D01*
X98806000Y-152874000D02*
X98270000Y-153410000D01*
X98270000Y-153410000D02*
X94590000Y-153410000D01*
X92420000Y-155580000D02*
X94590000Y-153410000D01*
D35*
G04 #@! TO.N,/SDA*
X88285000Y-155580000D02*
X88727200Y-155580000D01*
X81610000Y-157220000D02*
X81622898Y-157232898D01*
X81610000Y-157220000D02*
X81610000Y-153710000D01*
X82680000Y-158290000D02*
X81622898Y-157232898D01*
X83280000Y-158290000D02*
X82680000Y-158290000D01*
X83667600Y-157902400D02*
X83280000Y-158290000D01*
X83667600Y-157759400D02*
X83667600Y-157902400D01*
X83667600Y-157759400D02*
X84416900Y-157010100D01*
X88727200Y-155580000D02*
X89484200Y-156337000D01*
X85750400Y-157187900D02*
X85572600Y-157010100D01*
X85572600Y-157010100D02*
X84416900Y-157010100D01*
X85483700Y-145341666D02*
X85483700Y-147828000D01*
X84731536Y-144589502D02*
X85483700Y-145341666D01*
X79819498Y-144589502D02*
X84731536Y-144589502D01*
X79178150Y-145230850D02*
X79819498Y-144589502D01*
X79178150Y-145230850D02*
X79178150Y-152584150D01*
X79171800Y-152577800D02*
X79178150Y-152584150D01*
X79178150Y-152584150D02*
X79667100Y-153073100D01*
X81051400Y-153151400D02*
X81610000Y-153710000D01*
X81610000Y-153710000D02*
X81622898Y-153722898D01*
X81051400Y-153073100D02*
X81051400Y-153151400D01*
X79667100Y-153073100D02*
X81051400Y-153073100D01*
G04 #@! TO.N,/PWR_ON_OFF*
X24060000Y-52920000D02*
X24060000Y-57070000D01*
X82994500Y-157607000D02*
X83058000Y-157607000D01*
X83058000Y-157607000D02*
X85085000Y-155580000D01*
X85085000Y-155580000D02*
X85745000Y-155580000D01*
X110907102Y-44450000D02*
X110907102Y-46252898D01*
X24280000Y-52920000D02*
X24060000Y-52920000D01*
X25540000Y-51660000D02*
X24280000Y-52920000D01*
X105230000Y-46120000D02*
X103580000Y-46120000D01*
X106590000Y-47480000D02*
X105230000Y-46120000D01*
X109680000Y-47480000D02*
X106590000Y-47480000D01*
X110907102Y-46252898D02*
X109680000Y-47480000D01*
G04 #@! TO.N,/CS_TOUCH*
X83205000Y-155580000D02*
X82605800Y-155580000D01*
X82029300Y-153085800D02*
X81610200Y-152666700D01*
X82029300Y-155003500D02*
X82029300Y-153085800D01*
X82605800Y-155580000D02*
X82029300Y-155003500D01*
G04 #@! TO.N,/SPI1_CE1*
X78175000Y-163800000D02*
X78175000Y-155630000D01*
X78175000Y-155630000D02*
X78125000Y-155580000D01*
G04 #@! TO.N,/LED_DATA*
X32140000Y-109600000D02*
X34416000Y-109600000D01*
X78125000Y-146705000D02*
X78125000Y-149760000D01*
X77978000Y-146558000D02*
X78125000Y-146705000D01*
X34416000Y-109600000D02*
X35814000Y-110998000D01*
G04 #@! TO.N,/LCD_RESET*
X109730000Y-86390000D02*
X109730000Y-87120000D01*
X75585000Y-159913000D02*
X75585000Y-155580000D01*
X75692000Y-160020000D02*
X75585000Y-159913000D01*
X89408000Y-159258000D02*
X89154000Y-159258000D01*
X89916000Y-159766000D02*
X89408000Y-159258000D01*
X92964000Y-159766000D02*
X89916000Y-159766000D01*
X96012000Y-156718000D02*
X92964000Y-159766000D01*
X99060000Y-156718000D02*
X96012000Y-156718000D01*
X103378000Y-161036000D02*
X99060000Y-156718000D01*
X107797598Y-161036000D02*
X103378000Y-161036000D01*
X109220000Y-159613598D02*
X107797598Y-161036000D01*
X109220000Y-96266000D02*
X109220000Y-159613598D01*
X107950000Y-94996000D02*
X109220000Y-96266000D01*
X107950000Y-88900000D02*
X107950000Y-94996000D01*
X109730000Y-87120000D02*
X107950000Y-88900000D01*
G04 #@! TO.N,/LCD_DC*
X73045000Y-157627000D02*
X73045000Y-155580000D01*
X73406000Y-157988000D02*
X73045000Y-157627000D01*
G04 #@! TO.N,/LCD_BKLT*
X109730000Y-76230000D02*
X109730000Y-76706000D01*
X92588000Y-158242000D02*
X89154000Y-158242000D01*
X94560000Y-156270000D02*
X92588000Y-158242000D01*
X98460000Y-155760000D02*
X98460000Y-155020000D01*
X98910000Y-156210000D02*
X98460000Y-155760000D01*
X99314000Y-156210000D02*
X98910000Y-156210000D01*
X109730000Y-76706000D02*
X107442000Y-78994000D01*
X107442000Y-78994000D02*
X107442000Y-95250000D01*
X107442000Y-95250000D02*
X108712000Y-96520000D01*
X108712000Y-96520000D02*
X108712000Y-159359598D01*
X108712000Y-159359598D02*
X107543598Y-160528000D01*
X107543598Y-160528000D02*
X103632000Y-160528000D01*
X103632000Y-160528000D02*
X99314000Y-156210000D01*
X72390000Y-159004000D02*
X72390000Y-158267400D01*
X72390000Y-158267400D02*
X72390000Y-158242000D01*
X72644000Y-159258000D02*
X72390000Y-159004000D01*
X72390000Y-158267400D02*
X72390000Y-156781500D01*
X72224900Y-150580100D02*
X73045000Y-149760000D01*
X72224900Y-156616400D02*
X72224900Y-150580100D01*
X72390000Y-156781500D02*
X72224900Y-156616400D01*
G04 #@! TO.N,/Y_B*
X91600000Y-115000000D02*
X91600000Y-115488700D01*
X70505000Y-149713000D02*
X70505000Y-149760000D01*
X71983600Y-148234400D02*
X70505000Y-149713000D01*
X80276700Y-127266700D02*
X80276700Y-127850900D01*
X84442300Y-123101100D02*
X80276700Y-127266700D01*
X92290900Y-123101100D02*
X84442300Y-123101100D01*
X94322900Y-121069100D02*
X92290900Y-123101100D01*
X94322900Y-118211600D02*
X94322900Y-121069100D01*
X91600000Y-115488700D02*
X94322900Y-118211600D01*
G04 #@! TO.N,/SPI0_MOSI*
X109730000Y-81310000D02*
X109730000Y-81790000D01*
X67965000Y-159365000D02*
X67965000Y-155580000D01*
X64008000Y-163322000D02*
X67965000Y-159365000D01*
X64008000Y-168910000D02*
X64008000Y-163322000D01*
X68834000Y-173736000D02*
X64008000Y-168910000D01*
X87122000Y-173736000D02*
X68834000Y-173736000D01*
X97790000Y-163068000D02*
X87122000Y-173736000D01*
X108712000Y-163068000D02*
X97790000Y-163068000D01*
X111252000Y-160528000D02*
X108712000Y-163068000D01*
X111252000Y-83312000D02*
X111252000Y-160528000D01*
X109730000Y-81790000D02*
X111252000Y-83312000D01*
G04 #@! TO.N,/B_B*
X92014000Y-127508000D02*
X92014000Y-128869400D01*
X65425000Y-148379500D02*
X65425000Y-149760000D01*
X66446400Y-147358100D02*
X65425000Y-148379500D01*
X72390000Y-147358100D02*
X66446400Y-147358100D01*
X76403200Y-143344900D02*
X72390000Y-147358100D01*
X83248500Y-143344900D02*
X76403200Y-143344900D01*
X90919300Y-135674100D02*
X83248500Y-143344900D01*
X92976700Y-135674100D02*
X90919300Y-135674100D01*
X95135700Y-133515100D02*
X92976700Y-135674100D01*
X95135700Y-131991100D02*
X95135700Y-133515100D01*
X92014000Y-128869400D02*
X95135700Y-131991100D01*
G04 #@! TO.N,/SPI0_SCK*
X62885000Y-155580000D02*
X62885000Y-162808602D01*
X62885000Y-162808602D02*
X63246000Y-163169602D01*
X63246000Y-163169602D02*
X63246000Y-169164000D01*
X63246000Y-169164000D02*
X68580000Y-174498000D01*
X68580000Y-174498000D02*
X87376000Y-174498000D01*
X87376000Y-174498000D02*
X98044000Y-163830000D01*
X98044000Y-163830000D02*
X108966000Y-163830000D01*
X108966000Y-163830000D02*
X112014000Y-160782000D01*
X112014000Y-160782000D02*
X112014000Y-81054000D01*
X112014000Y-81054000D02*
X109730000Y-78770000D01*
G04 #@! TO.N,/SPI0_CE0*
X109730000Y-88930000D02*
X109730000Y-89660000D01*
X62885000Y-149760000D02*
X62885000Y-150007000D01*
X92759000Y-160251000D02*
X92540000Y-160470000D01*
X92759000Y-160251000D02*
X93241000Y-160251000D01*
X64008000Y-160782000D02*
X64008000Y-151130000D01*
X64008000Y-151130000D02*
X62885000Y-150007000D01*
X96266000Y-157226000D02*
X93241000Y-160251000D01*
X93241000Y-160251000D02*
X93218000Y-160274000D01*
X98806000Y-157226000D02*
X96266000Y-157226000D01*
X103124000Y-161544000D02*
X98806000Y-157226000D01*
X107950000Y-161544000D02*
X103124000Y-161544000D01*
X109728000Y-159766000D02*
X107950000Y-161544000D01*
X109728000Y-96012000D02*
X109728000Y-159766000D01*
X108458000Y-94742000D02*
X109728000Y-96012000D01*
X108458000Y-90932000D02*
X108458000Y-94742000D01*
X109730000Y-89660000D02*
X108458000Y-90932000D01*
G04 #@! TO.N,/~LCD_ON*
X55265000Y-155580000D02*
X55265000Y-162453000D01*
X94046000Y-169098000D02*
X98044000Y-169098000D01*
X87884000Y-175260000D02*
X94046000Y-169098000D01*
X68072000Y-175260000D02*
X87884000Y-175260000D01*
X55265000Y-162453000D02*
X68072000Y-175260000D01*
G04 #@! TO.N,/~LED_ON*
X52832000Y-162372000D02*
X52832000Y-155687000D01*
X52832000Y-155687000D02*
X52725000Y-155580000D01*
G04 #@! TO.N,/X_B*
X52725000Y-149760000D02*
X52240000Y-149760000D01*
X66898698Y-112001302D02*
X68652976Y-112001302D01*
X65800000Y-113100000D02*
X66898698Y-112001302D01*
X65250000Y-113100000D02*
X65800000Y-113100000D01*
X64562171Y-112412171D02*
X65250000Y-113100000D01*
X64287829Y-112412171D02*
X64562171Y-112412171D01*
X52240000Y-149760000D02*
X51200000Y-150800000D01*
X51200000Y-150800000D02*
X51200000Y-151650000D01*
X51200000Y-151650000D02*
X50500000Y-152350000D01*
X50500000Y-152350000D02*
X49300000Y-152350000D01*
X49300000Y-152350000D02*
X48550000Y-151600000D01*
X48550000Y-151600000D02*
X48550000Y-148800000D01*
X48550000Y-148800000D02*
X47843598Y-148093598D01*
X47843598Y-148093598D02*
X39431662Y-148093598D01*
X39431662Y-148093598D02*
X35987630Y-151537630D01*
X35987630Y-151537630D02*
X35987630Y-156112370D01*
X35987630Y-156112370D02*
X34988041Y-157111959D01*
X34988041Y-157111959D02*
X33458663Y-157111959D01*
X33458663Y-157111959D02*
X24396704Y-148050000D01*
X24396704Y-148050000D02*
X24396704Y-122478036D01*
X24396704Y-122478036D02*
X32268338Y-114606402D01*
X32268338Y-114606402D02*
X43671616Y-114606402D01*
X43671616Y-114606402D02*
X45870314Y-112407704D01*
X45870314Y-112407704D02*
X52525000Y-112407704D01*
X52525000Y-112407704D02*
X54032183Y-110900521D01*
X54032183Y-110900521D02*
X58649479Y-110900521D01*
X58649479Y-110900521D02*
X60161129Y-112412171D01*
X60161129Y-112412171D02*
X64287829Y-112412171D01*
X68652976Y-112001302D02*
X70167139Y-110487139D01*
X70167139Y-110487139D02*
X75137139Y-110487139D01*
X75137139Y-110487139D02*
X76700000Y-112050000D01*
X76700000Y-112050000D02*
X84339278Y-112050000D01*
X84339278Y-112050000D02*
X85839278Y-110550000D01*
X85839278Y-110550000D02*
X90700000Y-110550000D01*
X90700000Y-110550000D02*
X90900000Y-110750000D01*
X90900000Y-110750000D02*
X90900000Y-116050000D01*
X90900000Y-116050000D02*
X91731720Y-116881720D01*
X91731720Y-116881720D02*
X92418280Y-116881720D01*
X92418280Y-116881720D02*
X93916498Y-118379938D01*
X93916498Y-118379938D02*
X93916498Y-119683502D01*
X93916498Y-119683502D02*
X92200000Y-121400000D01*
X92200000Y-121400000D02*
X81900000Y-121400000D01*
X81900000Y-121400000D02*
X81500000Y-121000000D01*
X81500000Y-121000000D02*
X80450000Y-121000000D01*
X80450000Y-121000000D02*
X79450000Y-120000000D01*
X79450000Y-120000000D02*
X79050000Y-120000000D01*
G04 #@! TO.N,/SPI1_MISO*
X47645000Y-155580000D02*
X47645000Y-165969000D01*
X75635000Y-166173000D02*
X75635000Y-163800000D01*
X74930000Y-166878000D02*
X75635000Y-166173000D01*
X47645000Y-165969000D02*
X47498000Y-166116000D01*
X109730000Y-63530000D02*
X109507500Y-63530000D01*
X99822000Y-154822000D02*
X99750000Y-154750000D01*
X99822000Y-155384500D02*
X99822000Y-154822000D01*
X75819000Y-171386500D02*
X75819000Y-170815000D01*
X77101698Y-172669198D02*
X75819000Y-171386500D01*
X80400462Y-172669198D02*
X77101698Y-172669198D01*
X104093930Y-159656430D02*
X99822000Y-155384500D01*
X107111798Y-159656430D02*
X104093930Y-159656430D01*
X107823000Y-158945228D02*
X107111798Y-159656430D01*
X107823000Y-96824802D02*
X107823000Y-158945228D01*
X106489500Y-95491302D02*
X107823000Y-96824802D01*
X106489500Y-66548000D02*
X106489500Y-95491302D01*
X109507500Y-63530000D02*
X106489500Y-66548000D01*
X85280500Y-158051500D02*
X85280500Y-158125240D01*
X85280500Y-158125240D02*
X86430000Y-159274740D01*
X86430000Y-159274740D02*
X86430000Y-172400000D01*
X86430000Y-172400000D02*
X86160802Y-172669198D01*
X86160802Y-172669198D02*
X80400462Y-172669198D01*
G04 #@! TO.N,/SELECT_B*
X66700398Y-124881602D02*
X66614000Y-124968000D01*
X60325000Y-112001302D02*
X64287829Y-112001302D01*
X47645000Y-149760000D02*
X47010000Y-149760000D01*
X47010000Y-149760000D02*
X45750000Y-148500000D01*
X45750000Y-148500000D02*
X39600000Y-148500000D01*
X39600000Y-148500000D02*
X36400000Y-151700000D01*
X36400000Y-151700000D02*
X36400000Y-156300000D01*
X36400000Y-156300000D02*
X35181639Y-157518361D01*
X35181639Y-157518361D02*
X33281639Y-157518361D01*
X33281639Y-157518361D02*
X23990302Y-148227024D01*
X23990302Y-148227024D02*
X23990302Y-122309698D01*
X23990302Y-122309698D02*
X32100000Y-114200000D01*
X32100000Y-114200000D02*
X43503278Y-114200000D01*
X43503278Y-114200000D02*
X45701976Y-112001302D01*
X45701976Y-112001302D02*
X52312976Y-112001302D01*
X52312976Y-112001302D02*
X53837976Y-110476302D01*
X53837976Y-110476302D02*
X58800000Y-110476302D01*
X58800000Y-110476302D02*
X60325000Y-112001302D01*
X64287829Y-112001302D02*
X64451700Y-112001302D01*
X66614000Y-124968000D02*
X66682000Y-124968000D01*
X64287829Y-112005769D02*
X64287829Y-112001302D01*
X65105769Y-112005769D02*
X64287829Y-112005769D01*
X65500000Y-112400000D02*
X65105769Y-112005769D01*
X74900000Y-123550000D02*
X75650000Y-124300000D01*
X71850000Y-123550000D02*
X74900000Y-123550000D01*
X71650000Y-123750000D02*
X71850000Y-123550000D01*
X67900000Y-123750000D02*
X71650000Y-123750000D01*
X66682000Y-124968000D02*
X67900000Y-123750000D01*
G04 #@! TO.N,/START_B*
X66614000Y-137414000D02*
X67068700Y-137414000D01*
X46062900Y-156537900D02*
X45105000Y-155580000D01*
X46062900Y-165633400D02*
X46062900Y-156537900D01*
X47231300Y-166801800D02*
X46062900Y-165633400D01*
X47764700Y-166801800D02*
X47231300Y-166801800D01*
X48475900Y-166090600D02*
X47764700Y-166801800D01*
X48475900Y-154063700D02*
X48475900Y-166090600D01*
X49466500Y-153073100D02*
X48475900Y-154063700D01*
X50419000Y-153073100D02*
X49466500Y-153073100D01*
X50838100Y-152654000D02*
X50419000Y-153073100D01*
X61214000Y-152654000D02*
X50838100Y-152654000D01*
X61544200Y-152323800D02*
X61214000Y-152654000D01*
X61544200Y-148688360D02*
X61544200Y-152323800D01*
X63750760Y-146481800D02*
X61544200Y-148688360D01*
X71958200Y-146481800D02*
X63750760Y-146481800D01*
X77038200Y-141401800D02*
X71958200Y-146481800D01*
X77038200Y-140614400D02*
X77038200Y-141401800D01*
X76149200Y-139725400D02*
X77038200Y-140614400D01*
X72669400Y-139725400D02*
X76149200Y-139725400D01*
X71323200Y-138379200D02*
X72669400Y-139725400D01*
X68033900Y-138379200D02*
X71323200Y-138379200D01*
X67068700Y-137414000D02*
X68033900Y-138379200D01*
G04 #@! TO.N,/SPI1_MOSI*
X45105000Y-149760000D02*
X45620000Y-149760000D01*
X76905000Y-165665000D02*
X76905000Y-163800000D01*
X76454000Y-166116000D02*
X76905000Y-165665000D01*
X46736000Y-150876000D02*
X46736000Y-165354000D01*
X45620000Y-149760000D02*
X46736000Y-150876000D01*
X76905000Y-166173000D02*
X76905000Y-163800000D01*
X74980800Y-168097200D02*
X76905000Y-166173000D01*
X74980800Y-171246800D02*
X74980800Y-168097200D01*
X76809600Y-173075600D02*
X74980800Y-171246800D01*
X80568800Y-173075600D02*
X80400462Y-173075600D01*
X80400462Y-173075600D02*
X76809600Y-173075600D01*
X86850000Y-172620000D02*
X86394400Y-173075600D01*
X99228740Y-155550000D02*
X99180000Y-155550000D01*
X103792370Y-160113630D02*
X99228740Y-155550000D01*
X103878030Y-160113630D02*
X103792370Y-160113630D01*
X109730000Y-66070000D02*
X109730000Y-66088800D01*
X107383228Y-160113630D02*
X103878030Y-160113630D01*
X108305600Y-159191258D02*
X107383228Y-160113630D01*
X108305600Y-96688340D02*
X108305600Y-159191258D01*
X106934000Y-95316740D02*
X108305600Y-96688340D01*
X106934000Y-68884800D02*
X106934000Y-95316740D01*
X109730000Y-66088800D02*
X106934000Y-68884800D01*
X86394400Y-173075600D02*
X80400462Y-173075600D01*
X86258400Y-157988000D02*
X86258400Y-158528400D01*
X86258400Y-158528400D02*
X86850000Y-159120000D01*
X86850000Y-159120000D02*
X86850000Y-172620000D01*
G04 #@! TO.N,/SPI1_SCK*
X38962000Y-149760000D02*
X42565000Y-149760000D01*
X36830000Y-151892000D02*
X38962000Y-149760000D01*
X36830000Y-154686000D02*
X36830000Y-151892000D01*
X37084000Y-154940000D02*
X36830000Y-154686000D01*
X74365000Y-163800000D02*
X74365000Y-162757000D01*
X74365000Y-162757000D02*
X73660000Y-162052000D01*
G04 #@! TO.N,/A_B*
X79568000Y-132588000D02*
X79568000Y-133720800D01*
X62039500Y-148767800D02*
X62039500Y-152730200D01*
X63893700Y-146913600D02*
X62039500Y-148767800D01*
X72199500Y-146913600D02*
X63893700Y-146913600D01*
X79568000Y-133720800D02*
X82785517Y-136938317D01*
X82785517Y-136938317D02*
X82785517Y-138424217D01*
X82785517Y-138424217D02*
X80595334Y-140614400D01*
X80595334Y-140614400D02*
X78498700Y-140614400D01*
X78498700Y-140614400D02*
X72199500Y-146913600D01*
X62039500Y-152730200D02*
X61658500Y-153111200D01*
X61658500Y-153111200D02*
X52362100Y-153111200D01*
X52362100Y-153111200D02*
X51854100Y-153619200D01*
X51854100Y-153619200D02*
X51854100Y-155168600D01*
X51854100Y-155168600D02*
X51442700Y-155580000D01*
X51442700Y-155580000D02*
X50185000Y-155580000D01*
G04 #@! TO.N,Net-(Q1-Pad1)*
X52832000Y-164272000D02*
X51228000Y-164272000D01*
X51676000Y-169000000D02*
X52766000Y-167910000D01*
X50500000Y-169000000D02*
X51676000Y-169000000D01*
X49500000Y-168000000D02*
X50500000Y-169000000D01*
X49500000Y-166000000D02*
X49500000Y-168000000D01*
X51228000Y-164272000D02*
X49500000Y-166000000D01*
X88138000Y-169098000D02*
X88138000Y-171192000D01*
X54480000Y-167910000D02*
X52766000Y-167910000D01*
X54510000Y-167940000D02*
X54480000Y-167910000D01*
X88138000Y-171192000D02*
X87770000Y-171560000D01*
G04 #@! TO.N,Net-(Q2-Pad1)*
X98044000Y-167198000D02*
X98044000Y-165100000D01*
X98044000Y-165100000D02*
X98298000Y-164846000D01*
X98460000Y-158420000D02*
X97790000Y-158420000D01*
X96200000Y-160430000D02*
X96200000Y-162306000D01*
X97280000Y-159350000D02*
X96200000Y-160430000D01*
X97280000Y-158930000D02*
X97280000Y-159350000D01*
X97790000Y-158420000D02*
X97280000Y-158930000D01*
X96200000Y-162306000D02*
X97884000Y-162306000D01*
X97884000Y-162306000D02*
X98180000Y-162010000D01*
D31*
G04 #@! TO.N,+5V_LCD*
X109730000Y-94010000D02*
X110490000Y-94770000D01*
X98830000Y-160420000D02*
X97510000Y-160420000D01*
X100715998Y-162305998D02*
X98830000Y-160420000D01*
X102615998Y-162305998D02*
X100715998Y-162305998D01*
X102615998Y-162305998D02*
X108396368Y-162305998D01*
X108396368Y-162305998D02*
X110490000Y-160212366D01*
X110490000Y-160212366D02*
X110490000Y-94770000D01*
D35*
G04 #@! TO.N,Net-(R1-Pad1)*
X79000000Y-125000000D02*
X68546000Y-125000000D01*
X68546000Y-125000000D02*
X68514000Y-124968000D01*
G04 #@! TO.N,Net-(R2-Pad1)*
X68514000Y-137414000D02*
X78914000Y-137414000D01*
X78914000Y-137414000D02*
X79000000Y-137500000D01*
G04 #@! TO.N,Net-(R3-Pad1)*
X80950000Y-120000000D02*
X91500000Y-120000000D01*
G04 #@! TO.N,Net-(R4-Pad1)*
X81468000Y-132588000D02*
X91412000Y-132588000D01*
X91412000Y-132588000D02*
X91500000Y-132500000D01*
G04 #@! TO.N,Net-(R5-Pad1)*
X21910000Y-52920000D02*
X21910000Y-57070000D01*
X23000000Y-76050000D02*
X23000000Y-62116000D01*
X21910000Y-61026000D02*
X21910000Y-57070000D01*
X23000000Y-62116000D02*
X21910000Y-61026000D01*
G04 #@! TO.N,Net-(R6-Pad1)*
X93500000Y-115000000D02*
X97500000Y-115000000D01*
X97500000Y-115000000D02*
X104000000Y-115000000D01*
G04 #@! TO.N,Net-(R7-Pad1)*
X93914000Y-127508000D02*
X103992000Y-127508000D01*
X103992000Y-127508000D02*
X104000000Y-127500000D01*
G04 #@! TO.N,Net-(U1-Pad4)*
X48475000Y-109600000D02*
X48475000Y-108800000D01*
X37495000Y-106045000D02*
X37140000Y-106400000D01*
X45720000Y-106045000D02*
X37495000Y-106045000D01*
X48475000Y-108800000D02*
X45720000Y-106045000D01*
G04 #@! TO.N,Net-(U1-Pad2)*
X64815000Y-109600000D02*
X64815000Y-109265000D01*
X53830000Y-106045000D02*
X53475000Y-106400000D01*
X61595000Y-106045000D02*
X53830000Y-106045000D01*
X64815000Y-109265000D02*
X61595000Y-106045000D01*
G04 #@! TO.N,Net-(U2-Pad4)*
X80550000Y-109600000D02*
X80550000Y-108490000D01*
X70170000Y-106045000D02*
X69815000Y-106400000D01*
X78105000Y-106045000D02*
X70170000Y-106045000D01*
X80550000Y-108490000D02*
X78105000Y-106045000D01*
G04 #@! TO.N,Net-(U2-Pad2)*
X96340000Y-109600000D02*
X96340000Y-108405000D01*
X85905000Y-106045000D02*
X85550000Y-106400000D01*
X93980000Y-106045000D02*
X85905000Y-106045000D01*
X96340000Y-108405000D02*
X93980000Y-106045000D01*
G04 #@! TO.N,/IRQ_TOUCH*
X109730000Y-60990000D02*
X109253500Y-60990000D01*
X84328000Y-158832000D02*
X84328000Y-158051500D01*
X83620000Y-159540000D02*
X84328000Y-158832000D01*
X82320000Y-159540000D02*
X83620000Y-159540000D01*
X79880000Y-161980000D02*
X82320000Y-159540000D01*
X85550000Y-162550000D02*
X82050000Y-162550000D01*
X86020000Y-163020000D02*
X85550000Y-162550000D01*
X86020000Y-171033598D02*
X86020000Y-163020000D01*
X85730598Y-171323000D02*
X86020000Y-171033598D01*
X79692500Y-171323000D02*
X85730598Y-171323000D01*
X109253500Y-60990000D02*
X106083098Y-64160402D01*
X106083098Y-64160402D02*
X106083098Y-95732598D01*
X106083098Y-95732598D02*
X107416598Y-97066098D01*
X107416598Y-97066098D02*
X107416598Y-158703930D01*
X107416598Y-158703930D02*
X106870500Y-159250028D01*
X106870500Y-159250028D02*
X104322528Y-159250028D01*
X104322528Y-159250028D02*
X100520500Y-155448000D01*
X100520500Y-155448000D02*
X100520500Y-154495500D01*
X100520500Y-154495500D02*
X99885500Y-153860500D01*
X99885500Y-153860500D02*
X99250500Y-153860500D01*
X79692500Y-171323000D02*
X79445000Y-171075500D01*
X79445000Y-171075500D02*
X79445000Y-169200000D01*
G04 #@! TO.N,Net-(U6-Pad2)*
X71825000Y-169200000D02*
X71825000Y-168751400D01*
X71825000Y-168751400D02*
X68656200Y-165582600D01*
X68656200Y-165582600D02*
X68656200Y-163512500D01*
X68656200Y-163512500D02*
X67970400Y-162826700D01*
X67970400Y-162826700D02*
X67970400Y-160870900D01*
X67970400Y-160870900D02*
X69443600Y-159397700D01*
X40750000Y-122250000D02*
X40750000Y-123760000D01*
X40750000Y-123760000D02*
X47910000Y-130920000D01*
G04 #@! TO.N,Net-(U6-Pad1)*
X36750000Y-122250000D02*
X36750000Y-125484900D01*
X36750000Y-125810000D02*
X47170000Y-136230000D01*
X36750000Y-125484900D02*
X36750000Y-125810000D01*
X70555000Y-168116400D02*
X70555000Y-169200000D01*
X70555000Y-168116400D02*
X68173600Y-165735000D01*
X68173600Y-165735000D02*
X68173600Y-163677600D01*
X68173600Y-163677600D02*
X67518804Y-163022804D01*
X67518804Y-163022804D02*
X67518804Y-160673304D01*
X67518804Y-160673304D02*
X68580000Y-159612108D01*
X68580000Y-159612108D02*
X68580000Y-158026100D01*
X68580000Y-158026100D02*
X68884800Y-157721300D01*
G04 #@! TO.N,/Tx*
X94425000Y-49530000D02*
X94425000Y-54801000D01*
X83205000Y-146387500D02*
X83205000Y-149760000D01*
X82423000Y-145605500D02*
X83205000Y-146387500D01*
X94425000Y-54801000D02*
X94437200Y-54813200D01*
G04 #@! TO.N,/Rx*
X80665000Y-149760000D02*
X80665000Y-146309400D01*
X92425000Y-54718700D02*
X92425000Y-49530000D01*
X92557600Y-54851300D02*
X92425000Y-54718700D01*
X80665000Y-146309400D02*
X81203800Y-145770600D01*
D31*
G04 #@! TO.N,/LED1_PWR*
X29000000Y-106750000D02*
X29915000Y-106750000D01*
X35490000Y-107950000D02*
X37140000Y-109600000D01*
X31115000Y-107950000D02*
X35490000Y-107950000D01*
X29915000Y-106750000D02*
X31115000Y-107950000D01*
X39370000Y-167514000D02*
X39370000Y-166370000D01*
X37140000Y-111196000D02*
X37140000Y-109600000D01*
X36322000Y-112014000D02*
X37140000Y-111196000D01*
X31242000Y-112014000D02*
X36322000Y-112014000D01*
X21844000Y-121412000D02*
X31242000Y-112014000D01*
X21844000Y-148844000D02*
X21844000Y-121412000D01*
X39370000Y-166370000D02*
X21844000Y-148844000D01*
G04 #@! TD*
D36*
G04 #@! TO.N,+3V3*
G36*
X89127560Y-43830000D02*
X89176843Y-44077765D01*
X89317191Y-44287809D01*
X89527235Y-44428157D01*
X89775000Y-44477440D01*
X91275000Y-44477440D01*
X91522765Y-44428157D01*
X91732809Y-44287809D01*
X91873157Y-44077765D01*
X91922440Y-43830000D01*
X91922440Y-40685000D01*
X98927560Y-40685000D01*
X98927560Y-43830000D01*
X98976843Y-44077765D01*
X99117191Y-44287809D01*
X99327235Y-44428157D01*
X99575000Y-44477440D01*
X101075000Y-44477440D01*
X101322765Y-44428157D01*
X101532809Y-44287809D01*
X101673157Y-44077765D01*
X101722440Y-43830000D01*
X101722440Y-40685000D01*
X108419494Y-40685000D01*
X109213637Y-40755875D01*
X109953140Y-40958180D01*
X110645128Y-41288242D01*
X111267733Y-41735629D01*
X111801268Y-42286195D01*
X112228876Y-42922544D01*
X112537041Y-43624561D01*
X112717283Y-44375320D01*
X112765000Y-45025112D01*
X112765000Y-81053856D01*
X112750600Y-80981459D01*
X112750600Y-80981456D01*
X112707861Y-80766593D01*
X112586151Y-80584441D01*
X112586149Y-80584439D01*
X112545058Y-80522942D01*
X112483560Y-80481851D01*
X111201529Y-79199819D01*
X111254000Y-79073142D01*
X111254000Y-78466858D01*
X111021985Y-77906723D01*
X110615262Y-77500000D01*
X111021985Y-77093277D01*
X111254000Y-76533142D01*
X111254000Y-75926858D01*
X111021985Y-75366723D01*
X110615262Y-74960000D01*
X111021985Y-74553277D01*
X111254000Y-73993142D01*
X111254000Y-73386858D01*
X111021985Y-72826723D01*
X110615262Y-72420000D01*
X111021985Y-72013277D01*
X111254000Y-71453142D01*
X111254000Y-70846858D01*
X111021985Y-70286723D01*
X110615262Y-69880000D01*
X111021985Y-69473277D01*
X111254000Y-68913142D01*
X111254000Y-68306858D01*
X111021985Y-67746723D01*
X110615262Y-67340000D01*
X111021985Y-66933277D01*
X111254000Y-66373142D01*
X111254000Y-65766858D01*
X111021985Y-65206723D01*
X110615262Y-64800000D01*
X111021985Y-64393277D01*
X111254000Y-63833142D01*
X111254000Y-63226858D01*
X111021985Y-62666723D01*
X110615262Y-62260000D01*
X111021985Y-61853277D01*
X111254000Y-61293142D01*
X111254000Y-60686858D01*
X111021985Y-60126723D01*
X110593277Y-59698015D01*
X110033142Y-59466000D01*
X109426858Y-59466000D01*
X108866723Y-59698015D01*
X108438015Y-60126723D01*
X108206000Y-60686858D01*
X108206000Y-60995790D01*
X105613540Y-63588251D01*
X105552040Y-63629344D01*
X105389237Y-63872996D01*
X105346498Y-64087859D01*
X105346498Y-64087862D01*
X105332069Y-64160402D01*
X105346498Y-64232942D01*
X105346499Y-95660053D01*
X105332069Y-95732598D01*
X105389237Y-96020004D01*
X105510947Y-96202156D01*
X105510950Y-96202159D01*
X105552041Y-96263656D01*
X105613538Y-96304747D01*
X106679998Y-97371208D01*
X106679999Y-158398819D01*
X106565391Y-158513428D01*
X104627638Y-158513428D01*
X101257100Y-155142891D01*
X101257100Y-154568040D01*
X101271529Y-154495500D01*
X101257100Y-154422959D01*
X101257100Y-154422956D01*
X101214361Y-154208093D01*
X101202924Y-154190977D01*
X101092651Y-154025941D01*
X101092649Y-154025939D01*
X101051558Y-153964442D01*
X100990060Y-153923350D01*
X100457651Y-153390942D01*
X100416558Y-153329442D01*
X100172907Y-153166639D01*
X99958044Y-153123900D01*
X99958040Y-153123900D01*
X99885500Y-153109471D01*
X99882939Y-153109980D01*
X99804436Y-153031477D01*
X99445016Y-152882600D01*
X99055984Y-152882600D01*
X98696564Y-153031477D01*
X98433478Y-153294563D01*
X98498157Y-153197765D01*
X98547440Y-152950000D01*
X98547440Y-150800000D01*
X98498157Y-150552235D01*
X98357809Y-150342191D01*
X98147765Y-150201843D01*
X97900000Y-150152560D01*
X97774230Y-150152560D01*
X97640933Y-149953067D01*
X97566707Y-149903471D01*
X96856531Y-149193296D01*
X96806933Y-149119067D01*
X96512870Y-148922581D01*
X96253556Y-148871000D01*
X96253555Y-148871000D01*
X96166000Y-148853584D01*
X96078445Y-148871000D01*
X92031500Y-148871000D01*
X92031500Y-148484748D01*
X93957147Y-146559102D01*
X94156497Y-146260752D01*
X94250136Y-145790000D01*
X94156497Y-145319248D01*
X93889837Y-144920163D01*
X93490752Y-144653503D01*
X93020000Y-144559864D01*
X92549248Y-144653503D01*
X92250898Y-144852853D01*
X90477656Y-146626096D01*
X90262870Y-146482581D01*
X90003556Y-146431000D01*
X90003555Y-146431000D01*
X89916000Y-146413584D01*
X89828445Y-146431000D01*
X89241556Y-146431000D01*
X89154000Y-146413584D01*
X88807129Y-146482581D01*
X88668339Y-146575318D01*
X88513067Y-146679067D01*
X88463471Y-146753294D01*
X88326500Y-146890264D01*
X88326500Y-143388825D01*
X88350136Y-143269999D01*
X88256497Y-142799248D01*
X88256497Y-142799247D01*
X87989838Y-142400162D01*
X87889098Y-142332850D01*
X87879101Y-142322853D01*
X87580752Y-142123503D01*
X87110000Y-142029864D01*
X86639248Y-142123503D01*
X86240163Y-142390163D01*
X85973503Y-142789248D01*
X85903395Y-143141700D01*
X84493409Y-143141700D01*
X89482577Y-138152532D01*
X90527073Y-138152532D01*
X90625736Y-138419387D01*
X91235461Y-138645908D01*
X91885460Y-138621856D01*
X92374264Y-138419387D01*
X92472927Y-138152532D01*
X91500000Y-137179605D01*
X90527073Y-138152532D01*
X89482577Y-138152532D01*
X89986955Y-137648154D01*
X90080613Y-137874264D01*
X90347468Y-137972927D01*
X91320395Y-137000000D01*
X91306253Y-136985858D01*
X91485858Y-136806253D01*
X91500000Y-136820395D01*
X91514143Y-136806253D01*
X91693748Y-136985858D01*
X91679605Y-137000000D01*
X92652532Y-137972927D01*
X92919387Y-137874264D01*
X93145908Y-137264539D01*
X93121856Y-136614540D01*
X93038322Y-136412872D01*
X93049240Y-136410700D01*
X93049244Y-136410700D01*
X93264107Y-136367961D01*
X93507758Y-136205158D01*
X93548851Y-136143658D01*
X95605260Y-134087249D01*
X95666758Y-134046158D01*
X95707849Y-133984661D01*
X95707851Y-133984659D01*
X95829561Y-133802507D01*
X95831384Y-133793344D01*
X95872300Y-133587644D01*
X95872300Y-133587641D01*
X95886729Y-133515101D01*
X95872300Y-133442560D01*
X95872300Y-133152532D01*
X96527073Y-133152532D01*
X96625736Y-133419387D01*
X97235461Y-133645908D01*
X97885460Y-133621856D01*
X98374264Y-133419387D01*
X98472927Y-133152532D01*
X103027073Y-133152532D01*
X103125736Y-133419387D01*
X103735461Y-133645908D01*
X104385460Y-133621856D01*
X104874264Y-133419387D01*
X104972927Y-133152532D01*
X104000000Y-132179605D01*
X103027073Y-133152532D01*
X98472927Y-133152532D01*
X97500000Y-132179605D01*
X96527073Y-133152532D01*
X95872300Y-133152532D01*
X95872300Y-132227527D01*
X95878144Y-132385460D01*
X96080613Y-132874264D01*
X96347468Y-132972927D01*
X97320395Y-132000000D01*
X97679605Y-132000000D01*
X98652532Y-132972927D01*
X98919387Y-132874264D01*
X99145908Y-132264539D01*
X99126331Y-131735461D01*
X102354092Y-131735461D01*
X102378144Y-132385460D01*
X102580613Y-132874264D01*
X102847468Y-132972927D01*
X103820395Y-132000000D01*
X104179605Y-132000000D01*
X105152532Y-132972927D01*
X105419387Y-132874264D01*
X105645908Y-132264539D01*
X105621856Y-131614540D01*
X105419387Y-131125736D01*
X105152532Y-131027073D01*
X104179605Y-132000000D01*
X103820395Y-132000000D01*
X102847468Y-131027073D01*
X102580613Y-131125736D01*
X102354092Y-131735461D01*
X99126331Y-131735461D01*
X99121856Y-131614540D01*
X98919387Y-131125736D01*
X98652532Y-131027073D01*
X97679605Y-132000000D01*
X97320395Y-132000000D01*
X96347468Y-131027073D01*
X96080613Y-131125736D01*
X95854092Y-131735461D01*
X95858254Y-131847943D01*
X95829561Y-131703693D01*
X95666758Y-131460042D01*
X95605258Y-131418949D01*
X95033777Y-130847468D01*
X96527073Y-130847468D01*
X97500000Y-131820395D01*
X98472927Y-130847468D01*
X103027073Y-130847468D01*
X104000000Y-131820395D01*
X104972927Y-130847468D01*
X104874264Y-130580613D01*
X104264539Y-130354092D01*
X103614540Y-130378144D01*
X103125736Y-130580613D01*
X103027073Y-130847468D01*
X98472927Y-130847468D01*
X98374264Y-130580613D01*
X97764539Y-130354092D01*
X97114540Y-130378144D01*
X96625736Y-130580613D01*
X96527073Y-130847468D01*
X95033777Y-130847468D01*
X92810005Y-128623696D01*
X92821809Y-128615809D01*
X92962157Y-128405765D01*
X92964000Y-128396500D01*
X92965843Y-128405765D01*
X93106191Y-128615809D01*
X93316235Y-128756157D01*
X93564000Y-128805440D01*
X94264000Y-128805440D01*
X94511765Y-128756157D01*
X94721809Y-128615809D01*
X94862157Y-128405765D01*
X94894214Y-128244600D01*
X96038712Y-128244600D01*
X96113914Y-128426153D01*
X96573847Y-128886086D01*
X97174778Y-129135000D01*
X97825222Y-129135000D01*
X98426153Y-128886086D01*
X98886086Y-128426153D01*
X98961288Y-128244600D01*
X102538712Y-128244600D01*
X102613914Y-128426153D01*
X103073847Y-128886086D01*
X103674778Y-129135000D01*
X104325222Y-129135000D01*
X104926153Y-128886086D01*
X105386086Y-128426153D01*
X105635000Y-127825222D01*
X105635000Y-127174778D01*
X105386086Y-126573847D01*
X104926153Y-126113914D01*
X104325222Y-125865000D01*
X103674778Y-125865000D01*
X103073847Y-126113914D01*
X102613914Y-126573847D01*
X102532085Y-126771400D01*
X98967915Y-126771400D01*
X98886086Y-126573847D01*
X98426153Y-126113914D01*
X97825222Y-125865000D01*
X97174778Y-125865000D01*
X96573847Y-126113914D01*
X96113914Y-126573847D01*
X96032085Y-126771400D01*
X94894214Y-126771400D01*
X94862157Y-126610235D01*
X94721809Y-126400191D01*
X94511765Y-126259843D01*
X94264000Y-126210560D01*
X93564000Y-126210560D01*
X93316235Y-126259843D01*
X93106191Y-126400191D01*
X92965843Y-126610235D01*
X92964000Y-126619500D01*
X92962157Y-126610235D01*
X92821809Y-126400191D01*
X92611765Y-126259843D01*
X92364000Y-126210560D01*
X91664000Y-126210560D01*
X91416235Y-126259843D01*
X91206191Y-126400191D01*
X91065843Y-126610235D01*
X91016560Y-126858000D01*
X91016560Y-128158000D01*
X91065843Y-128405765D01*
X91206191Y-128615809D01*
X91277401Y-128663390D01*
X91277401Y-128796855D01*
X91262971Y-128869400D01*
X91320139Y-129156806D01*
X91441849Y-129338958D01*
X91441852Y-129338961D01*
X91482943Y-129400458D01*
X91544440Y-129441549D01*
X94399100Y-132296209D01*
X94399101Y-133209989D01*
X92671591Y-134937500D01*
X90991838Y-134937500D01*
X90919299Y-134923071D01*
X90846760Y-134937500D01*
X90846756Y-134937500D01*
X90631893Y-134980239D01*
X90388242Y-135143042D01*
X90347149Y-135204542D01*
X82943391Y-142608300D01*
X80518196Y-142608300D01*
X80645908Y-142264539D01*
X80621856Y-141614540D01*
X80512694Y-141351000D01*
X80522794Y-141351000D01*
X80595334Y-141365429D01*
X80667874Y-141351000D01*
X80667878Y-141351000D01*
X80882741Y-141308261D01*
X81126392Y-141145458D01*
X81167485Y-141083958D01*
X83255077Y-138996366D01*
X83316575Y-138955275D01*
X83357666Y-138893778D01*
X83357668Y-138893776D01*
X83479378Y-138711624D01*
X83488333Y-138666606D01*
X83522117Y-138496761D01*
X83522117Y-138496758D01*
X83536546Y-138424217D01*
X83522117Y-138351677D01*
X83522117Y-138152532D01*
X84027073Y-138152532D01*
X84125736Y-138419387D01*
X84735461Y-138645908D01*
X85385460Y-138621856D01*
X85874264Y-138419387D01*
X85972927Y-138152532D01*
X85000000Y-137179605D01*
X84027073Y-138152532D01*
X83522117Y-138152532D01*
X83522117Y-137733042D01*
X83580613Y-137874264D01*
X83847468Y-137972927D01*
X84820395Y-137000000D01*
X85179605Y-137000000D01*
X86152532Y-137972927D01*
X86419387Y-137874264D01*
X86645908Y-137264539D01*
X86621856Y-136614540D01*
X86419387Y-136125736D01*
X86152532Y-136027073D01*
X85179605Y-137000000D01*
X84820395Y-137000000D01*
X83847468Y-136027073D01*
X83580613Y-136125736D01*
X83419048Y-136560620D01*
X83357668Y-136468758D01*
X83357666Y-136468756D01*
X83316575Y-136407259D01*
X83255078Y-136366168D01*
X82736378Y-135847468D01*
X84027073Y-135847468D01*
X85000000Y-136820395D01*
X85972927Y-135847468D01*
X85874264Y-135580613D01*
X85264539Y-135354092D01*
X84614540Y-135378144D01*
X84125736Y-135580613D01*
X84027073Y-135847468D01*
X82736378Y-135847468D01*
X80459487Y-133570578D01*
X80516157Y-133485765D01*
X80518000Y-133476500D01*
X80519843Y-133485765D01*
X80660191Y-133695809D01*
X80870235Y-133836157D01*
X81118000Y-133885440D01*
X81818000Y-133885440D01*
X82065765Y-133836157D01*
X82275809Y-133695809D01*
X82416157Y-133485765D01*
X82448214Y-133324600D01*
X83571849Y-133324600D01*
X83613914Y-133426153D01*
X84073847Y-133886086D01*
X84674778Y-134135000D01*
X85325222Y-134135000D01*
X85926153Y-133886086D01*
X86386086Y-133426153D01*
X86428151Y-133324600D01*
X90071849Y-133324600D01*
X90113914Y-133426153D01*
X90573847Y-133886086D01*
X91174778Y-134135000D01*
X91825222Y-134135000D01*
X92426153Y-133886086D01*
X92886086Y-133426153D01*
X93135000Y-132825222D01*
X93135000Y-132174778D01*
X92886086Y-131573847D01*
X92426153Y-131113914D01*
X91825222Y-130865000D01*
X91174778Y-130865000D01*
X90573847Y-131113914D01*
X90113914Y-131573847D01*
X89998948Y-131851400D01*
X86501052Y-131851400D01*
X86386086Y-131573847D01*
X85926153Y-131113914D01*
X85325222Y-130865000D01*
X84674778Y-130865000D01*
X84073847Y-131113914D01*
X83613914Y-131573847D01*
X83498948Y-131851400D01*
X82448214Y-131851400D01*
X82416157Y-131690235D01*
X82275809Y-131480191D01*
X82065765Y-131339843D01*
X81818000Y-131290560D01*
X81118000Y-131290560D01*
X80870235Y-131339843D01*
X80660191Y-131480191D01*
X80519843Y-131690235D01*
X80518000Y-131699500D01*
X80516157Y-131690235D01*
X80375809Y-131480191D01*
X80165765Y-131339843D01*
X79918000Y-131290560D01*
X79218000Y-131290560D01*
X78970235Y-131339843D01*
X78760191Y-131480191D01*
X78619843Y-131690235D01*
X78570560Y-131938000D01*
X78570560Y-133238000D01*
X78619843Y-133485765D01*
X78760191Y-133695809D01*
X78819941Y-133735733D01*
X78874139Y-134008206D01*
X78995849Y-134190358D01*
X78995852Y-134190361D01*
X79036943Y-134251858D01*
X79098440Y-134292949D01*
X82048917Y-137243427D01*
X82048918Y-138119106D01*
X80290225Y-139877800D01*
X78571240Y-139877800D01*
X78498699Y-139863371D01*
X78426159Y-139877800D01*
X78426156Y-139877800D01*
X78211293Y-139920539D01*
X78029141Y-140042249D01*
X78029139Y-140042251D01*
X77967642Y-140083342D01*
X77926551Y-140144839D01*
X77734108Y-140337282D01*
X77732061Y-140326993D01*
X77643838Y-140194958D01*
X77610351Y-140144841D01*
X77610349Y-140144839D01*
X77569258Y-140083342D01*
X77507761Y-140042251D01*
X76721350Y-139255841D01*
X76680258Y-139194342D01*
X76436607Y-139031539D01*
X76221744Y-138988800D01*
X76221740Y-138988800D01*
X76149200Y-138974371D01*
X76076660Y-138988800D01*
X73178180Y-138988800D01*
X73426153Y-138886086D01*
X73886086Y-138426153D01*
X74000224Y-138150600D01*
X77499776Y-138150600D01*
X77613914Y-138426153D01*
X78073847Y-138886086D01*
X78674778Y-139135000D01*
X79325222Y-139135000D01*
X79926153Y-138886086D01*
X80386086Y-138426153D01*
X80635000Y-137825222D01*
X80635000Y-137174778D01*
X80386086Y-136573847D01*
X79926153Y-136113914D01*
X79325222Y-135865000D01*
X78674778Y-135865000D01*
X78073847Y-136113914D01*
X77613914Y-136573847D01*
X77571021Y-136677400D01*
X73928979Y-136677400D01*
X73886086Y-136573847D01*
X73426153Y-136113914D01*
X72825222Y-135865000D01*
X72174778Y-135865000D01*
X71573847Y-136113914D01*
X71113914Y-136573847D01*
X71071021Y-136677400D01*
X69494214Y-136677400D01*
X69462157Y-136516235D01*
X69321809Y-136306191D01*
X69111765Y-136165843D01*
X68864000Y-136116560D01*
X68164000Y-136116560D01*
X67916235Y-136165843D01*
X67706191Y-136306191D01*
X67565843Y-136516235D01*
X67564000Y-136525500D01*
X67562157Y-136516235D01*
X67421809Y-136306191D01*
X67211765Y-136165843D01*
X66964000Y-136116560D01*
X66264000Y-136116560D01*
X66016235Y-136165843D01*
X65806191Y-136306191D01*
X65665843Y-136516235D01*
X65616560Y-136764000D01*
X65616560Y-138064000D01*
X65665843Y-138311765D01*
X65806191Y-138521809D01*
X66016235Y-138662157D01*
X66264000Y-138711440D01*
X66964000Y-138711440D01*
X67211765Y-138662157D01*
X67249760Y-138636769D01*
X67461750Y-138848760D01*
X67502842Y-138910258D01*
X67564339Y-138951349D01*
X67564341Y-138951351D01*
X67684351Y-139031539D01*
X67746493Y-139073061D01*
X67961356Y-139115800D01*
X67961359Y-139115800D01*
X68033900Y-139130229D01*
X68106440Y-139115800D01*
X71018091Y-139115800D01*
X72097249Y-140194958D01*
X72138342Y-140256458D01*
X72309652Y-140370924D01*
X72114540Y-140378144D01*
X71625736Y-140580613D01*
X71527073Y-140847468D01*
X72500000Y-141820395D01*
X73472927Y-140847468D01*
X73374264Y-140580613D01*
X73054994Y-140462000D01*
X75844091Y-140462000D01*
X76301600Y-140919510D01*
X76301600Y-141096690D01*
X71653091Y-145745200D01*
X63823300Y-145745200D01*
X63750759Y-145730771D01*
X63678219Y-145745200D01*
X63678216Y-145745200D01*
X63463353Y-145787939D01*
X63281201Y-145909649D01*
X63281199Y-145909651D01*
X63219702Y-145950742D01*
X63178611Y-146012240D01*
X61074642Y-148116209D01*
X61013142Y-148157302D01*
X60956101Y-148242670D01*
X60855000Y-148222560D01*
X59835000Y-148222560D01*
X59587235Y-148271843D01*
X59377191Y-148412191D01*
X59236843Y-148622235D01*
X59187560Y-148870000D01*
X59187560Y-150650000D01*
X59236843Y-150897765D01*
X59284284Y-150968765D01*
X59200000Y-151172245D01*
X59200000Y-151627755D01*
X59319975Y-151917400D01*
X58830025Y-151917400D01*
X58950000Y-151627755D01*
X58950000Y-151172245D01*
X58865716Y-150968765D01*
X58913157Y-150897765D01*
X58962440Y-150650000D01*
X58962440Y-148870000D01*
X58913157Y-148622235D01*
X58772809Y-148412191D01*
X58562765Y-148271843D01*
X58315000Y-148222560D01*
X57295000Y-148222560D01*
X57047235Y-148271843D01*
X56837191Y-148412191D01*
X56696843Y-148622235D01*
X56647560Y-148870000D01*
X56647560Y-150650000D01*
X56696843Y-150897765D01*
X56744284Y-150968765D01*
X56660000Y-151172245D01*
X56660000Y-151627755D01*
X56779975Y-151917400D01*
X56290025Y-151917400D01*
X56410000Y-151627755D01*
X56410000Y-151172245D01*
X56325716Y-150968765D01*
X56373157Y-150897765D01*
X56422440Y-150650000D01*
X56422440Y-150125466D01*
X56471500Y-149878826D01*
X56471500Y-147463824D01*
X56495136Y-147344999D01*
X56401497Y-146874247D01*
X56398325Y-146869500D01*
X56134838Y-146475162D01*
X56034098Y-146407850D01*
X55067150Y-145440902D01*
X54999838Y-145340162D01*
X54600753Y-145073503D01*
X54248826Y-145003500D01*
X54248825Y-145003500D01*
X54130000Y-144979864D01*
X54011175Y-145003500D01*
X51698825Y-145003500D01*
X51580000Y-144979864D01*
X51461174Y-145003500D01*
X51109247Y-145073503D01*
X50710162Y-145340162D01*
X50642852Y-145440899D01*
X49904293Y-146179458D01*
X49730753Y-146063503D01*
X49378826Y-145993500D01*
X49378825Y-145993500D01*
X49260000Y-145969864D01*
X49141175Y-145993500D01*
X39204807Y-145993500D01*
X39085982Y-145969864D01*
X38967157Y-145993500D01*
X38967156Y-145993500D01*
X38615229Y-146063503D01*
X38216144Y-146330162D01*
X38148834Y-146430899D01*
X34342230Y-150237504D01*
X34241490Y-150304816D01*
X34044963Y-150598942D01*
X33974831Y-150703902D01*
X33881192Y-151174654D01*
X33904828Y-151293480D01*
X33904829Y-154612598D01*
X26479506Y-147187276D01*
X26479506Y-143152532D01*
X71527073Y-143152532D01*
X71625736Y-143419387D01*
X72235461Y-143645908D01*
X72885460Y-143621856D01*
X73374264Y-143419387D01*
X73472927Y-143152532D01*
X72500000Y-142179605D01*
X71527073Y-143152532D01*
X26479506Y-143152532D01*
X26479506Y-141735461D01*
X70854092Y-141735461D01*
X70878144Y-142385460D01*
X71080613Y-142874264D01*
X71347468Y-142972927D01*
X72320395Y-142000000D01*
X72679605Y-142000000D01*
X73652532Y-142972927D01*
X73919387Y-142874264D01*
X74145908Y-142264539D01*
X74121856Y-141614540D01*
X73919387Y-141125736D01*
X73652532Y-141027073D01*
X72679605Y-142000000D01*
X72320395Y-142000000D01*
X71347468Y-141027073D01*
X71080613Y-141125736D01*
X70854092Y-141735461D01*
X26479506Y-141735461D01*
X26479506Y-139734778D01*
X28740000Y-139734778D01*
X28740000Y-140385222D01*
X28988914Y-140986153D01*
X29448847Y-141446086D01*
X30049778Y-141695000D01*
X30700222Y-141695000D01*
X31301153Y-141446086D01*
X31761086Y-140986153D01*
X32010000Y-140385222D01*
X32010000Y-139734778D01*
X31761086Y-139133847D01*
X31301153Y-138673914D01*
X30700222Y-138425000D01*
X30049778Y-138425000D01*
X29448847Y-138673914D01*
X28988914Y-139133847D01*
X28740000Y-139734778D01*
X26479506Y-139734778D01*
X26479506Y-125606742D01*
X27119748Y-124966500D01*
X33121175Y-124966500D01*
X33240000Y-124990136D01*
X33358825Y-124966500D01*
X33358826Y-124966500D01*
X33525805Y-124933286D01*
X33542191Y-124957809D01*
X33752235Y-125098157D01*
X34000000Y-125147440D01*
X35500000Y-125147440D01*
X35747765Y-125098157D01*
X35750000Y-125096664D01*
X35752235Y-125098157D01*
X36000000Y-125147440D01*
X36013401Y-125147440D01*
X36013401Y-125412352D01*
X36013400Y-125412357D01*
X36013400Y-125737460D01*
X35998971Y-125810000D01*
X36013400Y-125882540D01*
X36013400Y-125882544D01*
X36056139Y-126097407D01*
X36218942Y-126341058D01*
X36280442Y-126382151D01*
X46192100Y-136293809D01*
X46192100Y-136424516D01*
X46340977Y-136783936D01*
X46616064Y-137059023D01*
X46975484Y-137207900D01*
X47364516Y-137207900D01*
X47723936Y-137059023D01*
X47999023Y-136783936D01*
X48147900Y-136424516D01*
X48147900Y-136035484D01*
X47999023Y-135676064D01*
X47723936Y-135400977D01*
X47364516Y-135252100D01*
X47233809Y-135252100D01*
X37486600Y-125504891D01*
X37486600Y-125147440D01*
X37500000Y-125147440D01*
X37747765Y-125098157D01*
X37761916Y-125088702D01*
X37873690Y-125135000D01*
X38464250Y-125135000D01*
X38623000Y-124976250D01*
X38623000Y-122377000D01*
X38603000Y-122377000D01*
X38603000Y-122123000D01*
X38623000Y-122123000D01*
X38623000Y-119523750D01*
X38877000Y-119523750D01*
X38877000Y-122123000D01*
X38897000Y-122123000D01*
X38897000Y-122377000D01*
X38877000Y-122377000D01*
X38877000Y-124976250D01*
X39035750Y-125135000D01*
X39626310Y-125135000D01*
X39738084Y-125088702D01*
X39752235Y-125098157D01*
X40000000Y-125147440D01*
X41095731Y-125147440D01*
X46932100Y-130983810D01*
X46932100Y-131114516D01*
X47080977Y-131473936D01*
X47356064Y-131749023D01*
X47715484Y-131897900D01*
X48104516Y-131897900D01*
X48463936Y-131749023D01*
X48739023Y-131473936D01*
X48887900Y-131114516D01*
X48887900Y-130725484D01*
X48857683Y-130652532D01*
X71527073Y-130652532D01*
X71625736Y-130919387D01*
X72235461Y-131145908D01*
X72885460Y-131121856D01*
X73374264Y-130919387D01*
X73472927Y-130652532D01*
X78027073Y-130652532D01*
X78125736Y-130919387D01*
X78735461Y-131145908D01*
X79385460Y-131121856D01*
X79874264Y-130919387D01*
X79972927Y-130652532D01*
X79000000Y-129679605D01*
X78027073Y-130652532D01*
X73472927Y-130652532D01*
X72500000Y-129679605D01*
X71527073Y-130652532D01*
X48857683Y-130652532D01*
X48739023Y-130366064D01*
X48463936Y-130090977D01*
X48104516Y-129942100D01*
X47973810Y-129942100D01*
X47267171Y-129235461D01*
X70854092Y-129235461D01*
X70878144Y-129885460D01*
X71080613Y-130374264D01*
X71347468Y-130472927D01*
X72320395Y-129500000D01*
X72679605Y-129500000D01*
X73652532Y-130472927D01*
X73919387Y-130374264D01*
X74145908Y-129764539D01*
X74126331Y-129235461D01*
X77354092Y-129235461D01*
X77378144Y-129885460D01*
X77580613Y-130374264D01*
X77847468Y-130472927D01*
X78820395Y-129500000D01*
X77847468Y-128527073D01*
X77580613Y-128625736D01*
X77354092Y-129235461D01*
X74126331Y-129235461D01*
X74121856Y-129114540D01*
X73919387Y-128625736D01*
X73652532Y-128527073D01*
X72679605Y-129500000D01*
X72320395Y-129500000D01*
X71347468Y-128527073D01*
X71080613Y-128625736D01*
X70854092Y-129235461D01*
X47267171Y-129235461D01*
X46379178Y-128347468D01*
X71527073Y-128347468D01*
X72500000Y-129320395D01*
X73472927Y-128347468D01*
X73374264Y-128080613D01*
X72764539Y-127854092D01*
X72114540Y-127878144D01*
X71625736Y-128080613D01*
X71527073Y-128347468D01*
X46379178Y-128347468D01*
X42349710Y-124318000D01*
X65616560Y-124318000D01*
X65616560Y-125618000D01*
X65665843Y-125865765D01*
X65806191Y-126075809D01*
X66016235Y-126216157D01*
X66264000Y-126265440D01*
X66964000Y-126265440D01*
X67211765Y-126216157D01*
X67421809Y-126075809D01*
X67562157Y-125865765D01*
X67564000Y-125856500D01*
X67565843Y-125865765D01*
X67706191Y-126075809D01*
X67916235Y-126216157D01*
X68164000Y-126265440D01*
X68864000Y-126265440D01*
X69111765Y-126216157D01*
X69321809Y-126075809D01*
X69462157Y-125865765D01*
X69487849Y-125736600D01*
X71035399Y-125736600D01*
X71113914Y-125926153D01*
X71573847Y-126386086D01*
X72174778Y-126635000D01*
X72825222Y-126635000D01*
X73426153Y-126386086D01*
X73886086Y-125926153D01*
X73964601Y-125736600D01*
X77535399Y-125736600D01*
X77613914Y-125926153D01*
X78073847Y-126386086D01*
X78674778Y-126635000D01*
X79325222Y-126635000D01*
X79926153Y-126386086D01*
X80386086Y-125926153D01*
X80635000Y-125325222D01*
X80635000Y-124674778D01*
X80386086Y-124073847D01*
X79926153Y-123613914D01*
X79325222Y-123365000D01*
X78674778Y-123365000D01*
X78073847Y-123613914D01*
X77613914Y-124073847D01*
X77535399Y-124263400D01*
X76627900Y-124263400D01*
X76627900Y-124105484D01*
X76479023Y-123746064D01*
X76203936Y-123470977D01*
X75844516Y-123322100D01*
X75713809Y-123322100D01*
X75472151Y-123080442D01*
X75431058Y-123018942D01*
X75187407Y-122856139D01*
X74972544Y-122813400D01*
X74972540Y-122813400D01*
X74900000Y-122798971D01*
X74827460Y-122813400D01*
X71922540Y-122813400D01*
X71850000Y-122798971D01*
X71777460Y-122813400D01*
X71777456Y-122813400D01*
X71562593Y-122856139D01*
X71327236Y-123013400D01*
X67972540Y-123013400D01*
X67899999Y-122998971D01*
X67827459Y-123013400D01*
X67827456Y-123013400D01*
X67642516Y-123050187D01*
X67612593Y-123056139D01*
X67430441Y-123177849D01*
X67430439Y-123177851D01*
X67368942Y-123218942D01*
X67327850Y-123280440D01*
X66937730Y-123670560D01*
X66264000Y-123670560D01*
X66016235Y-123719843D01*
X65806191Y-123860191D01*
X65665843Y-124070235D01*
X65616560Y-124318000D01*
X42349710Y-124318000D01*
X42147440Y-124115731D01*
X42147440Y-120000000D01*
X42098157Y-119752235D01*
X41957809Y-119542191D01*
X41747765Y-119401843D01*
X41500000Y-119352560D01*
X40000000Y-119352560D01*
X39752235Y-119401843D01*
X39738084Y-119411298D01*
X39626310Y-119365000D01*
X39035750Y-119365000D01*
X38877000Y-119523750D01*
X38623000Y-119523750D01*
X38464250Y-119365000D01*
X37873690Y-119365000D01*
X37761916Y-119411298D01*
X37747765Y-119401843D01*
X37500000Y-119352560D01*
X36000000Y-119352560D01*
X35956500Y-119361213D01*
X35956500Y-117895577D01*
X36006497Y-117820751D01*
X36100136Y-117350000D01*
X36006497Y-116879248D01*
X35739837Y-116480163D01*
X35340752Y-116213503D01*
X34870000Y-116119864D01*
X34399249Y-116213503D01*
X34100899Y-116412853D01*
X33980902Y-116532850D01*
X33880162Y-116600162D01*
X33613504Y-116999247D01*
X33613503Y-116999248D01*
X33519864Y-117470000D01*
X33543500Y-117588826D01*
X33543500Y-119541316D01*
X33542191Y-119542191D01*
X33401843Y-119752235D01*
X33352560Y-120000000D01*
X33352560Y-121941192D01*
X32740252Y-122553500D01*
X29418193Y-122553500D01*
X29786153Y-122401086D01*
X30246086Y-121941153D01*
X30495000Y-121340222D01*
X30495000Y-120689778D01*
X30246086Y-120088847D01*
X29786153Y-119628914D01*
X29185222Y-119380000D01*
X28536449Y-119380000D01*
X32573448Y-115343002D01*
X43599076Y-115343002D01*
X43671616Y-115357431D01*
X43744156Y-115343002D01*
X43744160Y-115343002D01*
X43959023Y-115300263D01*
X44202674Y-115137460D01*
X44243767Y-115075960D01*
X46175424Y-113144304D01*
X52452460Y-113144304D01*
X52525000Y-113158733D01*
X52597540Y-113144304D01*
X52597544Y-113144304D01*
X52812407Y-113101565D01*
X53056058Y-112938762D01*
X53097151Y-112877262D01*
X54337293Y-111637121D01*
X58344370Y-111637121D01*
X59588979Y-112881731D01*
X59630071Y-112943229D01*
X59691568Y-112984320D01*
X59691570Y-112984322D01*
X59867037Y-113101565D01*
X59873722Y-113106032D01*
X60088585Y-113148771D01*
X60088588Y-113148771D01*
X60161129Y-113163200D01*
X60233669Y-113148771D01*
X64257062Y-113148771D01*
X64677850Y-113569560D01*
X64718942Y-113631058D01*
X64780439Y-113672149D01*
X64780441Y-113672151D01*
X64867680Y-113730442D01*
X64962593Y-113793861D01*
X65177456Y-113836600D01*
X65177459Y-113836600D01*
X65249999Y-113851029D01*
X65322540Y-113836600D01*
X65727460Y-113836600D01*
X65800000Y-113851029D01*
X65872540Y-113836600D01*
X65872544Y-113836600D01*
X66087407Y-113793861D01*
X66331058Y-113631058D01*
X66372151Y-113569558D01*
X67203808Y-112737902D01*
X68580436Y-112737902D01*
X68652976Y-112752331D01*
X68725516Y-112737902D01*
X68725520Y-112737902D01*
X68940383Y-112695163D01*
X69184034Y-112532360D01*
X69225127Y-112470860D01*
X70472249Y-111223739D01*
X74832030Y-111223739D01*
X76127850Y-112519560D01*
X76168942Y-112581058D01*
X76230439Y-112622149D01*
X76230441Y-112622151D01*
X76403675Y-112737902D01*
X76412593Y-112743861D01*
X76627456Y-112786600D01*
X76627459Y-112786600D01*
X76699999Y-112801029D01*
X76772540Y-112786600D01*
X84266738Y-112786600D01*
X84339278Y-112801029D01*
X84411818Y-112786600D01*
X84411822Y-112786600D01*
X84626685Y-112743861D01*
X84870336Y-112581058D01*
X84911429Y-112519558D01*
X86144387Y-111286600D01*
X90163400Y-111286600D01*
X90163401Y-115977455D01*
X90148971Y-116050000D01*
X90206139Y-116337406D01*
X90327849Y-116519558D01*
X90327852Y-116519561D01*
X90368943Y-116581058D01*
X90430440Y-116622149D01*
X91159570Y-117351280D01*
X91200662Y-117412778D01*
X91262159Y-117453869D01*
X91262161Y-117453871D01*
X91428067Y-117564726D01*
X91444313Y-117575581D01*
X91659176Y-117618320D01*
X91659179Y-117618320D01*
X91731720Y-117632749D01*
X91804260Y-117618320D01*
X92113171Y-117618320D01*
X93179898Y-118685048D01*
X93179899Y-119378391D01*
X93061341Y-119496949D01*
X92886086Y-119073847D01*
X92426153Y-118613914D01*
X91825222Y-118365000D01*
X91174778Y-118365000D01*
X90573847Y-118613914D01*
X90113914Y-119073847D01*
X90035399Y-119263400D01*
X86464601Y-119263400D01*
X86386086Y-119073847D01*
X85926153Y-118613914D01*
X85325222Y-118365000D01*
X84674778Y-118365000D01*
X84073847Y-118613914D01*
X83613914Y-119073847D01*
X83535399Y-119263400D01*
X81930214Y-119263400D01*
X81898157Y-119102235D01*
X81757809Y-118892191D01*
X81547765Y-118751843D01*
X81300000Y-118702560D01*
X80600000Y-118702560D01*
X80352235Y-118751843D01*
X80142191Y-118892191D01*
X80001843Y-119102235D01*
X80000000Y-119111500D01*
X79998157Y-119102235D01*
X79857809Y-118892191D01*
X79647765Y-118751843D01*
X79400000Y-118702560D01*
X78700000Y-118702560D01*
X78452235Y-118751843D01*
X78242191Y-118892191D01*
X78101843Y-119102235D01*
X78052560Y-119350000D01*
X78052560Y-120650000D01*
X78101843Y-120897765D01*
X78242191Y-121107809D01*
X78452235Y-121248157D01*
X78700000Y-121297440D01*
X79400000Y-121297440D01*
X79647765Y-121248157D01*
X79652970Y-121244679D01*
X79877850Y-121469560D01*
X79918942Y-121531058D01*
X79980439Y-121572149D01*
X79980441Y-121572151D01*
X80152932Y-121687406D01*
X80162593Y-121693861D01*
X80377456Y-121736600D01*
X80377459Y-121736600D01*
X80450000Y-121751029D01*
X80522540Y-121736600D01*
X81194892Y-121736600D01*
X81327847Y-121869555D01*
X81368942Y-121931058D01*
X81612593Y-122093861D01*
X81827456Y-122136600D01*
X81827460Y-122136600D01*
X81899999Y-122151029D01*
X81972538Y-122136600D01*
X92127460Y-122136600D01*
X92199384Y-122150907D01*
X91985791Y-122364500D01*
X84514840Y-122364500D01*
X84442299Y-122350071D01*
X84369759Y-122364500D01*
X84369756Y-122364500D01*
X84163676Y-122405492D01*
X84154893Y-122407239D01*
X83972741Y-122528949D01*
X83972739Y-122528951D01*
X83911242Y-122570042D01*
X83870151Y-122631539D01*
X79807142Y-126694549D01*
X79745642Y-126735642D01*
X79582839Y-126979294D01*
X79540100Y-127194157D01*
X79540100Y-127194160D01*
X79537522Y-127207119D01*
X79447677Y-127296964D01*
X79298800Y-127656384D01*
X79298800Y-127866820D01*
X79264539Y-127854092D01*
X78614540Y-127878144D01*
X78125736Y-128080613D01*
X78027073Y-128347468D01*
X79000000Y-129320395D01*
X79014143Y-129306253D01*
X79193748Y-129485858D01*
X79179605Y-129500000D01*
X80152532Y-130472927D01*
X80419387Y-130374264D01*
X80645908Y-129764539D01*
X80621856Y-129114540D01*
X80498771Y-128817386D01*
X80830636Y-128679923D01*
X81105723Y-128404836D01*
X81254600Y-128045416D01*
X81254600Y-127656384D01*
X81159153Y-127425956D01*
X82932577Y-125652532D01*
X84027073Y-125652532D01*
X84125736Y-125919387D01*
X84735461Y-126145908D01*
X85385460Y-126121856D01*
X85874264Y-125919387D01*
X85972927Y-125652532D01*
X90527073Y-125652532D01*
X90625736Y-125919387D01*
X91235461Y-126145908D01*
X91885460Y-126121856D01*
X92374264Y-125919387D01*
X92472927Y-125652532D01*
X91500000Y-124679605D01*
X90527073Y-125652532D01*
X85972927Y-125652532D01*
X85000000Y-124679605D01*
X84027073Y-125652532D01*
X82932577Y-125652532D01*
X83472311Y-125112799D01*
X83580613Y-125374264D01*
X83847468Y-125472927D01*
X84820395Y-124500000D01*
X84806253Y-124485858D01*
X84985858Y-124306253D01*
X85000000Y-124320395D01*
X85014143Y-124306253D01*
X85193748Y-124485858D01*
X85179605Y-124500000D01*
X86152532Y-125472927D01*
X86419387Y-125374264D01*
X86645908Y-124764539D01*
X86621856Y-124114540D01*
X86507185Y-123837700D01*
X90001866Y-123837700D01*
X89854092Y-124235461D01*
X89878144Y-124885460D01*
X90080613Y-125374264D01*
X90347468Y-125472927D01*
X91320395Y-124500000D01*
X91306253Y-124485858D01*
X91485858Y-124306253D01*
X91500000Y-124320395D01*
X91514143Y-124306253D01*
X91693748Y-124485858D01*
X91679605Y-124500000D01*
X92652532Y-125472927D01*
X92919387Y-125374264D01*
X93145908Y-124764539D01*
X93121856Y-124114540D01*
X92919387Y-123625736D01*
X92844700Y-123598122D01*
X92863051Y-123570658D01*
X94792460Y-121641250D01*
X94853958Y-121600158D01*
X94895049Y-121538661D01*
X94895051Y-121538659D01*
X95016761Y-121356507D01*
X95038313Y-121248157D01*
X95059500Y-121141644D01*
X95059500Y-121141641D01*
X95073929Y-121069100D01*
X95059500Y-120996560D01*
X95059500Y-120652532D01*
X96527073Y-120652532D01*
X96625736Y-120919387D01*
X97235461Y-121145908D01*
X97885460Y-121121856D01*
X98374264Y-120919387D01*
X98472927Y-120652532D01*
X103027073Y-120652532D01*
X103125736Y-120919387D01*
X103735461Y-121145908D01*
X104385460Y-121121856D01*
X104874264Y-120919387D01*
X104972927Y-120652532D01*
X104000000Y-119679605D01*
X103027073Y-120652532D01*
X98472927Y-120652532D01*
X97500000Y-119679605D01*
X96527073Y-120652532D01*
X95059500Y-120652532D01*
X95059500Y-119235461D01*
X95854092Y-119235461D01*
X95878144Y-119885460D01*
X96080613Y-120374264D01*
X96347468Y-120472927D01*
X97320395Y-119500000D01*
X97679605Y-119500000D01*
X98652532Y-120472927D01*
X98919387Y-120374264D01*
X99145908Y-119764539D01*
X99126331Y-119235461D01*
X102354092Y-119235461D01*
X102378144Y-119885460D01*
X102580613Y-120374264D01*
X102847468Y-120472927D01*
X103820395Y-119500000D01*
X104179605Y-119500000D01*
X105152532Y-120472927D01*
X105419387Y-120374264D01*
X105645908Y-119764539D01*
X105621856Y-119114540D01*
X105419387Y-118625736D01*
X105152532Y-118527073D01*
X104179605Y-119500000D01*
X103820395Y-119500000D01*
X102847468Y-118527073D01*
X102580613Y-118625736D01*
X102354092Y-119235461D01*
X99126331Y-119235461D01*
X99121856Y-119114540D01*
X98919387Y-118625736D01*
X98652532Y-118527073D01*
X97679605Y-119500000D01*
X97320395Y-119500000D01*
X96347468Y-118527073D01*
X96080613Y-118625736D01*
X95854092Y-119235461D01*
X95059500Y-119235461D01*
X95059500Y-118347468D01*
X96527073Y-118347468D01*
X97500000Y-119320395D01*
X98472927Y-118347468D01*
X103027073Y-118347468D01*
X104000000Y-119320395D01*
X104972927Y-118347468D01*
X104874264Y-118080613D01*
X104264539Y-117854092D01*
X103614540Y-117878144D01*
X103125736Y-118080613D01*
X103027073Y-118347468D01*
X98472927Y-118347468D01*
X98374264Y-118080613D01*
X97764539Y-117854092D01*
X97114540Y-117878144D01*
X96625736Y-118080613D01*
X96527073Y-118347468D01*
X95059500Y-118347468D01*
X95059500Y-118284140D01*
X95073929Y-118211599D01*
X95059500Y-118139057D01*
X95059500Y-118139056D01*
X95016761Y-117924193D01*
X94947643Y-117820751D01*
X94895051Y-117742041D01*
X94895049Y-117742039D01*
X94853958Y-117680542D01*
X94792461Y-117639451D01*
X93450449Y-116297440D01*
X93850000Y-116297440D01*
X94097765Y-116248157D01*
X94307809Y-116107809D01*
X94448157Y-115897765D01*
X94480214Y-115736600D01*
X96035399Y-115736600D01*
X96113914Y-115926153D01*
X96573847Y-116386086D01*
X97174778Y-116635000D01*
X97825222Y-116635000D01*
X98426153Y-116386086D01*
X98886086Y-115926153D01*
X98964601Y-115736600D01*
X102535399Y-115736600D01*
X102613914Y-115926153D01*
X103073847Y-116386086D01*
X103674778Y-116635000D01*
X104325222Y-116635000D01*
X104926153Y-116386086D01*
X105386086Y-115926153D01*
X105635000Y-115325222D01*
X105635000Y-114674778D01*
X105386086Y-114073847D01*
X104926153Y-113613914D01*
X104325222Y-113365000D01*
X103674778Y-113365000D01*
X103073847Y-113613914D01*
X102613914Y-114073847D01*
X102535399Y-114263400D01*
X98964601Y-114263400D01*
X98886086Y-114073847D01*
X98426153Y-113613914D01*
X97825222Y-113365000D01*
X97174778Y-113365000D01*
X96573847Y-113613914D01*
X96113914Y-114073847D01*
X96035399Y-114263400D01*
X94480214Y-114263400D01*
X94448157Y-114102235D01*
X94307809Y-113892191D01*
X94097765Y-113751843D01*
X93850000Y-113702560D01*
X93150000Y-113702560D01*
X92902235Y-113751843D01*
X92692191Y-113892191D01*
X92551843Y-114102235D01*
X92550000Y-114111500D01*
X92548157Y-114102235D01*
X92407809Y-113892191D01*
X92197765Y-113751843D01*
X91950000Y-113702560D01*
X91636600Y-113702560D01*
X91636600Y-111628849D01*
X91901852Y-111894101D01*
X91969162Y-111994838D01*
X92368247Y-112261497D01*
X92720174Y-112331500D01*
X92720175Y-112331500D01*
X92839000Y-112355136D01*
X92957825Y-112331500D01*
X99696175Y-112331500D01*
X99815000Y-112355136D01*
X99933825Y-112331500D01*
X99933826Y-112331500D01*
X100285753Y-112261497D01*
X100684838Y-111994838D01*
X100752150Y-111894098D01*
X101898809Y-110747440D01*
X102140000Y-110747440D01*
X102387765Y-110698157D01*
X102597809Y-110557809D01*
X102738157Y-110347765D01*
X102787440Y-110100000D01*
X102787440Y-109105700D01*
X103017875Y-109105700D01*
X103136700Y-109129336D01*
X103255525Y-109105700D01*
X103255526Y-109105700D01*
X103607453Y-109035697D01*
X104006538Y-108769038D01*
X104073852Y-108668296D01*
X104124646Y-108617501D01*
X104323997Y-108319152D01*
X104417636Y-107848401D01*
X104323997Y-107377648D01*
X104057337Y-106978563D01*
X103658252Y-106711903D01*
X103187499Y-106618264D01*
X102813287Y-106692700D01*
X102787440Y-106692700D01*
X102787440Y-105900000D01*
X102738157Y-105652235D01*
X102597809Y-105442191D01*
X102387765Y-105301843D01*
X102140000Y-105252560D01*
X100540000Y-105252560D01*
X100292235Y-105301843D01*
X100082191Y-105442191D01*
X99941843Y-105652235D01*
X99892560Y-105900000D01*
X99892560Y-106692700D01*
X98338949Y-106692700D01*
X97787440Y-106141192D01*
X97787440Y-105900000D01*
X97738157Y-105652235D01*
X97597809Y-105442191D01*
X97546500Y-105407907D01*
X97546500Y-102278825D01*
X97570136Y-102160000D01*
X97540595Y-102011488D01*
X97476497Y-101689247D01*
X97209838Y-101290162D01*
X97109098Y-101222850D01*
X97059101Y-101172853D01*
X96760752Y-100973503D01*
X96290000Y-100879864D01*
X95819248Y-100973503D01*
X95420163Y-101240163D01*
X95153503Y-101639248D01*
X95059864Y-102110000D01*
X95133500Y-102480191D01*
X95133500Y-104225335D01*
X95089937Y-104234000D01*
X93533061Y-104234000D01*
X93375000Y-104202560D01*
X92625000Y-104202560D01*
X92466939Y-104234000D01*
X81800064Y-104234000D01*
X81700000Y-104214096D01*
X81599936Y-104234000D01*
X81599935Y-104234000D01*
X81303577Y-104292949D01*
X80967505Y-104517505D01*
X80910822Y-104602337D01*
X80550000Y-104963159D01*
X80189179Y-104602339D01*
X80132495Y-104517505D01*
X79796423Y-104292949D01*
X79500065Y-104234000D01*
X79500063Y-104234000D01*
X79400000Y-104214096D01*
X79299937Y-104234000D01*
X77533061Y-104234000D01*
X77375000Y-104202560D01*
X76625000Y-104202560D01*
X76466939Y-104234000D01*
X66065064Y-104234000D01*
X65965000Y-104214096D01*
X65864936Y-104234000D01*
X65864935Y-104234000D01*
X65568577Y-104292949D01*
X65232505Y-104517505D01*
X65175822Y-104602337D01*
X64815000Y-104963159D01*
X64454179Y-104602339D01*
X64397495Y-104517505D01*
X64061423Y-104292949D01*
X63765065Y-104234000D01*
X63765063Y-104234000D01*
X63665000Y-104214096D01*
X63564937Y-104234000D01*
X61533061Y-104234000D01*
X61375000Y-104202560D01*
X60625000Y-104202560D01*
X60466939Y-104234000D01*
X49725064Y-104234000D01*
X49625000Y-104214096D01*
X49524936Y-104234000D01*
X49524935Y-104234000D01*
X49228577Y-104292949D01*
X48892505Y-104517505D01*
X48835822Y-104602337D01*
X48475000Y-104963159D01*
X48114179Y-104602339D01*
X48057495Y-104517505D01*
X47721423Y-104292949D01*
X47425065Y-104234000D01*
X47425063Y-104234000D01*
X47325000Y-104214096D01*
X47224937Y-104234000D01*
X45533061Y-104234000D01*
X45375000Y-104202560D01*
X44625000Y-104202560D01*
X44466939Y-104234000D01*
X33390064Y-104234000D01*
X33346500Y-104225335D01*
X33346500Y-101528825D01*
X33370136Y-101409999D01*
X33276497Y-100939248D01*
X33276497Y-100939247D01*
X33009838Y-100540162D01*
X32909098Y-100472850D01*
X32899101Y-100462853D01*
X32600752Y-100263503D01*
X32130000Y-100169864D01*
X31659248Y-100263503D01*
X31260163Y-100530163D01*
X30993503Y-100929248D01*
X30899864Y-101400000D01*
X30933501Y-101569103D01*
X30933500Y-104354823D01*
X30902445Y-104361000D01*
X29889000Y-104361000D01*
X29889000Y-84967550D01*
X29906415Y-84879999D01*
X29889000Y-84792448D01*
X29889000Y-84792444D01*
X29837419Y-84533130D01*
X29640933Y-84239067D01*
X29566707Y-84189471D01*
X24118718Y-78741483D01*
X24248157Y-78547765D01*
X24297440Y-78300000D01*
X24297440Y-77600000D01*
X24248157Y-77352235D01*
X24107809Y-77142191D01*
X23897765Y-77001843D01*
X23888500Y-77000000D01*
X23897765Y-76998157D01*
X24107809Y-76857809D01*
X24248157Y-76647765D01*
X24297440Y-76400000D01*
X24297440Y-75700000D01*
X24248157Y-75452235D01*
X24107809Y-75242191D01*
X23897765Y-75101843D01*
X23736600Y-75069786D01*
X23736600Y-62188540D01*
X23751029Y-62116000D01*
X23736600Y-62043459D01*
X23736600Y-62043456D01*
X23693861Y-61828593D01*
X23625711Y-61726600D01*
X23572151Y-61646441D01*
X23572149Y-61646439D01*
X23531058Y-61584942D01*
X23469560Y-61543850D01*
X22646600Y-60720891D01*
X22646600Y-58208685D01*
X22692809Y-58177809D01*
X22833157Y-57967765D01*
X22882440Y-57720000D01*
X22882440Y-56420000D01*
X22833157Y-56172235D01*
X22692809Y-55962191D01*
X22646600Y-55931315D01*
X22646600Y-54058685D01*
X22692809Y-54027809D01*
X22833157Y-53817765D01*
X22882440Y-53570000D01*
X22882440Y-52270000D01*
X23087560Y-52270000D01*
X23087560Y-53570000D01*
X23136843Y-53817765D01*
X23277191Y-54027809D01*
X23323400Y-54058685D01*
X23323401Y-55931314D01*
X23277191Y-55962191D01*
X23136843Y-56172235D01*
X23087560Y-56420000D01*
X23087560Y-57720000D01*
X23136843Y-57967765D01*
X23277191Y-58177809D01*
X23487235Y-58318157D01*
X23735000Y-58367440D01*
X24385000Y-58367440D01*
X24632765Y-58318157D01*
X24842809Y-58177809D01*
X24983157Y-57967765D01*
X25032440Y-57720000D01*
X25032440Y-56420000D01*
X24983157Y-56172235D01*
X24842809Y-55962191D01*
X24796600Y-55931315D01*
X24796600Y-54774234D01*
X26365000Y-54774234D01*
X26365000Y-55225766D01*
X26537793Y-55642926D01*
X26857074Y-55962207D01*
X27274234Y-56135000D01*
X27725766Y-56135000D01*
X28142926Y-55962207D01*
X28462207Y-55642926D01*
X28635000Y-55225766D01*
X28635000Y-54774234D01*
X28462207Y-54357074D01*
X28142926Y-54037793D01*
X27725766Y-53865000D01*
X27274234Y-53865000D01*
X26857074Y-54037793D01*
X26537793Y-54357074D01*
X26365000Y-54774234D01*
X24796600Y-54774234D01*
X24796600Y-54058685D01*
X24842809Y-54027809D01*
X24983157Y-53817765D01*
X25032440Y-53570000D01*
X25032440Y-53209269D01*
X25603810Y-52637900D01*
X25734516Y-52637900D01*
X26093936Y-52489023D01*
X26369023Y-52213936D01*
X26517900Y-51854516D01*
X26517900Y-51465484D01*
X26369023Y-51106064D01*
X26093936Y-50830977D01*
X25734516Y-50682100D01*
X25345484Y-50682100D01*
X24986064Y-50830977D01*
X24710977Y-51106064D01*
X24562100Y-51465484D01*
X24562100Y-51596190D01*
X24510723Y-51647568D01*
X24385000Y-51622560D01*
X23735000Y-51622560D01*
X23487235Y-51671843D01*
X23277191Y-51812191D01*
X23136843Y-52022235D01*
X23087560Y-52270000D01*
X22882440Y-52270000D01*
X22833157Y-52022235D01*
X22692809Y-51812191D01*
X22482765Y-51671843D01*
X22235000Y-51622560D01*
X21585000Y-51622560D01*
X21337235Y-51671843D01*
X21127191Y-51812191D01*
X20986843Y-52022235D01*
X20937560Y-52270000D01*
X20937560Y-53570000D01*
X20986843Y-53817765D01*
X21127191Y-54027809D01*
X21173400Y-54058685D01*
X21173401Y-55931314D01*
X21127191Y-55962191D01*
X20986843Y-56172235D01*
X20937560Y-56420000D01*
X20937560Y-57720000D01*
X20986843Y-57967765D01*
X21127191Y-58177809D01*
X21173401Y-58208686D01*
X21173400Y-60953460D01*
X21158971Y-61026000D01*
X21173400Y-61098540D01*
X21173400Y-61098543D01*
X21216139Y-61313406D01*
X21378942Y-61557058D01*
X21440442Y-61598151D01*
X22263401Y-62421111D01*
X22263400Y-75069786D01*
X22102235Y-75101843D01*
X21892191Y-75242191D01*
X21751843Y-75452235D01*
X21702560Y-75700000D01*
X21702560Y-76400000D01*
X21751843Y-76647765D01*
X21892191Y-76857809D01*
X22102235Y-76998157D01*
X22111500Y-77000000D01*
X22102235Y-77001843D01*
X21892191Y-77142191D01*
X21751843Y-77352235D01*
X21702560Y-77600000D01*
X21702560Y-78300000D01*
X21751843Y-78547765D01*
X21892191Y-78757809D01*
X22096423Y-78894274D01*
X22128873Y-79057406D01*
X22162582Y-79226870D01*
X22359068Y-79520933D01*
X22433294Y-79570529D01*
X28111000Y-85248236D01*
X28111001Y-104476285D01*
X28026843Y-104602235D01*
X27977560Y-104850000D01*
X27977560Y-105650000D01*
X28026843Y-105897765D01*
X28095155Y-106000000D01*
X28026843Y-106102235D01*
X27977560Y-106350000D01*
X27977560Y-107150000D01*
X28026843Y-107397765D01*
X28167191Y-107607809D01*
X28377235Y-107748157D01*
X28625000Y-107797440D01*
X29375000Y-107797440D01*
X29622765Y-107748157D01*
X29642641Y-107734876D01*
X30424471Y-108516706D01*
X30474067Y-108590933D01*
X30768130Y-108787419D01*
X30783155Y-108790408D01*
X30741843Y-108852235D01*
X30692560Y-109100000D01*
X30692560Y-110100000D01*
X30741843Y-110347765D01*
X30882191Y-110557809D01*
X31092235Y-110698157D01*
X31340000Y-110747440D01*
X32940000Y-110747440D01*
X33187765Y-110698157D01*
X33397809Y-110557809D01*
X33538157Y-110347765D01*
X33540378Y-110336600D01*
X34110891Y-110336600D01*
X34836100Y-111061810D01*
X34836100Y-111125000D01*
X31329554Y-111125000D01*
X31241999Y-111107584D01*
X31154444Y-111125000D01*
X30895130Y-111176581D01*
X30601067Y-111373067D01*
X30551471Y-111447293D01*
X21277294Y-120721471D01*
X21203068Y-120771067D01*
X21153472Y-120845293D01*
X21153471Y-120845294D01*
X21006582Y-121065130D01*
X20937584Y-121412000D01*
X20955001Y-121499560D01*
X20955000Y-148756445D01*
X20937584Y-148844000D01*
X20955000Y-148931555D01*
X21006581Y-149190869D01*
X21203067Y-149484933D01*
X21277296Y-149534531D01*
X38334229Y-166591465D01*
X38312191Y-166606191D01*
X38171843Y-166816235D01*
X38122560Y-167064000D01*
X38122560Y-167964000D01*
X38171843Y-168211765D01*
X38312191Y-168421809D01*
X38522235Y-168562157D01*
X38770000Y-168611440D01*
X39970000Y-168611440D01*
X40217765Y-168562157D01*
X40427809Y-168421809D01*
X40568157Y-168211765D01*
X40617440Y-167964000D01*
X40617440Y-167799688D01*
X41227500Y-168409748D01*
X41227500Y-168815175D01*
X41203864Y-168934000D01*
X41227500Y-169052825D01*
X41227500Y-169052826D01*
X41297503Y-169404753D01*
X41564163Y-169803838D01*
X41664900Y-169871148D01*
X41718752Y-169925000D01*
X40440377Y-169925000D01*
X40427809Y-169906191D01*
X40217765Y-169765843D01*
X39970000Y-169716560D01*
X38770000Y-169716560D01*
X38522235Y-169765843D01*
X38312191Y-169906191D01*
X38171843Y-170116235D01*
X38122560Y-170364000D01*
X38122560Y-171264000D01*
X38171843Y-171511765D01*
X38312191Y-171721809D01*
X38522235Y-171862157D01*
X38770000Y-171911440D01*
X39970000Y-171911440D01*
X40217765Y-171862157D01*
X40427809Y-171721809D01*
X40440377Y-171703000D01*
X42418445Y-171703000D01*
X42506000Y-171720416D01*
X42593555Y-171703000D01*
X42593556Y-171703000D01*
X42852870Y-171651419D01*
X43146933Y-171454933D01*
X43196531Y-171380704D01*
X43443829Y-171133407D01*
X43528824Y-171116500D01*
X51934826Y-171116500D01*
X52286753Y-171046497D01*
X52399974Y-170970846D01*
X52463765Y-170958157D01*
X52673809Y-170817809D01*
X52814157Y-170607765D01*
X52819813Y-170579329D01*
X52952497Y-170380753D01*
X53046136Y-169910000D01*
X52952497Y-169439247D01*
X52819813Y-169240671D01*
X52814157Y-169212235D01*
X52690516Y-169027194D01*
X52710269Y-169007440D01*
X53166000Y-169007440D01*
X53413765Y-168958157D01*
X53623809Y-168817809D01*
X53738208Y-168646600D01*
X53833641Y-168646600D01*
X53956064Y-168769023D01*
X54315484Y-168917900D01*
X54704516Y-168917900D01*
X55063936Y-168769023D01*
X55339023Y-168493936D01*
X55487900Y-168134516D01*
X55487900Y-167745484D01*
X55339023Y-167386064D01*
X55159459Y-167206500D01*
X57072974Y-167206500D01*
X67135572Y-177269098D01*
X67202884Y-177369838D01*
X67601969Y-177636497D01*
X68072721Y-177730136D01*
X68191546Y-177706500D01*
X87881175Y-177706500D01*
X88000000Y-177730136D01*
X88118825Y-177706500D01*
X88118826Y-177706500D01*
X88470753Y-177636497D01*
X88869838Y-177369838D01*
X88933718Y-177274234D01*
X96365000Y-177274234D01*
X96365000Y-177725766D01*
X96537793Y-178142926D01*
X96857074Y-178462207D01*
X97274234Y-178635000D01*
X97725766Y-178635000D01*
X98142926Y-178462207D01*
X98462207Y-178142926D01*
X98635000Y-177725766D01*
X98635000Y-177274234D01*
X98462207Y-176857074D01*
X98142926Y-176537793D01*
X97725766Y-176365000D01*
X97274234Y-176365000D01*
X96857074Y-176537793D01*
X96537793Y-176857074D01*
X96365000Y-177274234D01*
X88933718Y-177274234D01*
X88937150Y-177269098D01*
X91499749Y-174706500D01*
X96371175Y-174706500D01*
X96490000Y-174730136D01*
X96608825Y-174706500D01*
X96608826Y-174706500D01*
X96960753Y-174636497D01*
X97359838Y-174369838D01*
X97427150Y-174269098D01*
X100559101Y-171137148D01*
X100659838Y-171069838D01*
X100926497Y-170670753D01*
X100996500Y-170318826D01*
X100996500Y-170318825D01*
X101020136Y-170200000D01*
X100996500Y-170081175D01*
X100996500Y-168149748D01*
X103229749Y-165916500D01*
X106769457Y-165916500D01*
X106859249Y-165976497D01*
X107330000Y-166070136D01*
X107800752Y-165976497D01*
X108199837Y-165709837D01*
X108466497Y-165310752D01*
X108560136Y-164840000D01*
X108505753Y-164566600D01*
X108893460Y-164566600D01*
X108966000Y-164581029D01*
X109038540Y-164566600D01*
X109038544Y-164566600D01*
X109253407Y-164523861D01*
X109497058Y-164361058D01*
X109538151Y-164299558D01*
X112483561Y-161354149D01*
X112545058Y-161313058D01*
X112586149Y-161251561D01*
X112586151Y-161251559D01*
X112707861Y-161069407D01*
X112711764Y-161049785D01*
X112750600Y-160854544D01*
X112750600Y-160854541D01*
X112765001Y-160782142D01*
X112765001Y-184869484D01*
X112694125Y-185663637D01*
X112491820Y-186403140D01*
X112161758Y-187095128D01*
X111714371Y-187717733D01*
X111163808Y-188251266D01*
X110527456Y-188678876D01*
X109825437Y-188987042D01*
X109074681Y-189167282D01*
X108424888Y-189215000D01*
X25030505Y-189215000D01*
X24236363Y-189144125D01*
X23496860Y-188941820D01*
X22804872Y-188611758D01*
X22182267Y-188164371D01*
X21648734Y-187613808D01*
X21221124Y-186977456D01*
X20912958Y-186275437D01*
X20732718Y-185524681D01*
X20685000Y-184874888D01*
X20685000Y-47830000D01*
X91272560Y-47830000D01*
X91272560Y-51230000D01*
X91321843Y-51477765D01*
X91462191Y-51687809D01*
X91672235Y-51828157D01*
X91688401Y-51831372D01*
X91688400Y-54394359D01*
X91579700Y-54656784D01*
X91579700Y-55045816D01*
X91728577Y-55405236D01*
X92003664Y-55680323D01*
X92363084Y-55829200D01*
X92752116Y-55829200D01*
X93111536Y-55680323D01*
X93386623Y-55405236D01*
X93505291Y-55118747D01*
X93608177Y-55367136D01*
X93883264Y-55642223D01*
X94242684Y-55791100D01*
X94631716Y-55791100D01*
X94991136Y-55642223D01*
X95266223Y-55367136D01*
X95415100Y-55007716D01*
X95415100Y-54774234D01*
X108865000Y-54774234D01*
X108865000Y-55225766D01*
X109037793Y-55642926D01*
X109357074Y-55962207D01*
X109774234Y-56135000D01*
X110225766Y-56135000D01*
X110642926Y-55962207D01*
X110962207Y-55642926D01*
X111135000Y-55225766D01*
X111135000Y-54774234D01*
X110962207Y-54357074D01*
X110642926Y-54037793D01*
X110225766Y-53865000D01*
X109774234Y-53865000D01*
X109357074Y-54037793D01*
X109037793Y-54357074D01*
X108865000Y-54774234D01*
X95415100Y-54774234D01*
X95415100Y-54618684D01*
X95266223Y-54259264D01*
X95161600Y-54154641D01*
X95161600Y-51831372D01*
X95177765Y-51828157D01*
X95387809Y-51687809D01*
X95424649Y-51632675D01*
X95560302Y-51768327D01*
X95793691Y-51865000D01*
X96139250Y-51865000D01*
X96298000Y-51706250D01*
X96298000Y-49657000D01*
X96278000Y-49657000D01*
X96278000Y-49403000D01*
X96298000Y-49403000D01*
X96298000Y-47353750D01*
X96552000Y-47353750D01*
X96552000Y-49403000D01*
X96572000Y-49403000D01*
X96572000Y-49657000D01*
X96552000Y-49657000D01*
X96552000Y-51706250D01*
X96710750Y-51865000D01*
X97056309Y-51865000D01*
X97289698Y-51768327D01*
X97425351Y-51632675D01*
X97462191Y-51687809D01*
X97672235Y-51828157D01*
X97920000Y-51877440D01*
X98930000Y-51877440D01*
X99177765Y-51828157D01*
X99387809Y-51687809D01*
X99528157Y-51477765D01*
X99577440Y-51230000D01*
X99577440Y-47830000D01*
X99528157Y-47582235D01*
X99387809Y-47372191D01*
X99314000Y-47322873D01*
X99314000Y-47180500D01*
X101956945Y-47180500D01*
X102044500Y-47197916D01*
X102132055Y-47180500D01*
X102132056Y-47180500D01*
X102391370Y-47128919D01*
X102685433Y-46932433D01*
X102735031Y-46858204D01*
X102835138Y-46758097D01*
X103026064Y-46949023D01*
X103385484Y-47097900D01*
X103774516Y-47097900D01*
X104133936Y-46949023D01*
X104226359Y-46856600D01*
X104924891Y-46856600D01*
X106017849Y-47949558D01*
X106058942Y-48011058D01*
X106302593Y-48173861D01*
X106517456Y-48216600D01*
X106517460Y-48216600D01*
X106589999Y-48231029D01*
X106662538Y-48216600D01*
X109607460Y-48216600D01*
X109680000Y-48231029D01*
X109752540Y-48216600D01*
X109752544Y-48216600D01*
X109967407Y-48173861D01*
X110211058Y-48011058D01*
X110252151Y-47949558D01*
X111376662Y-46825048D01*
X111438160Y-46783956D01*
X111479251Y-46722459D01*
X111479253Y-46722457D01*
X111600963Y-46540305D01*
X111618402Y-46452631D01*
X111643702Y-46325442D01*
X111643702Y-46325439D01*
X111658131Y-46252899D01*
X111643702Y-46180358D01*
X111643702Y-45743813D01*
X111977727Y-45520625D01*
X112305941Y-45029418D01*
X112421194Y-44450000D01*
X112305941Y-43870582D01*
X111977727Y-43379375D01*
X111486520Y-43051161D01*
X111053358Y-42965000D01*
X110760846Y-42965000D01*
X110555132Y-43005919D01*
X110625143Y-42653949D01*
X110509890Y-42074531D01*
X110181676Y-41583324D01*
X109690469Y-41255110D01*
X109257307Y-41168949D01*
X108964795Y-41168949D01*
X108531633Y-41255110D01*
X108040426Y-41583324D01*
X107712212Y-42074531D01*
X107596959Y-42653949D01*
X107663120Y-42986565D01*
X107442000Y-43100620D01*
X107442000Y-44143392D01*
X107329141Y-44256251D01*
X107508749Y-44435859D01*
X107621608Y-44323000D01*
X108664380Y-44323000D01*
X108778435Y-44101880D01*
X108964795Y-44138949D01*
X109257307Y-44138949D01*
X109463021Y-44098030D01*
X109393010Y-44450000D01*
X109463021Y-44801970D01*
X109257307Y-44761051D01*
X108964795Y-44761051D01*
X108778435Y-44798120D01*
X108664380Y-44577000D01*
X107621608Y-44577000D01*
X107508749Y-44464141D01*
X107329141Y-44643749D01*
X107442000Y-44756608D01*
X107442000Y-45351764D01*
X107188000Y-45097764D01*
X107188000Y-44756608D01*
X107300859Y-44643749D01*
X107121251Y-44464141D01*
X107008392Y-44577000D01*
X106667235Y-44577000D01*
X106413235Y-44323000D01*
X107188000Y-44323000D01*
X107188000Y-43100620D01*
X106953542Y-42979685D01*
X106418391Y-43229930D01*
X106019741Y-43665920D01*
X105934471Y-43871781D01*
X105797649Y-43780360D01*
X105538335Y-43728779D01*
X105538334Y-43728779D01*
X105450779Y-43711363D01*
X105363224Y-43728779D01*
X103805776Y-43728779D01*
X103718221Y-43711363D01*
X103630666Y-43728779D01*
X103630665Y-43728779D01*
X103371351Y-43780360D01*
X103077288Y-43976846D01*
X103027692Y-44051072D01*
X101676265Y-45402500D01*
X99020550Y-45402500D01*
X98932999Y-45385085D01*
X98845448Y-45402500D01*
X98845444Y-45402500D01*
X98586130Y-45454081D01*
X98292067Y-45650567D01*
X98242469Y-45724796D01*
X97858296Y-46108969D01*
X97784067Y-46158567D01*
X97587581Y-46452631D01*
X97536000Y-46711944D01*
X97518584Y-46799500D01*
X97536000Y-46887055D01*
X97536000Y-47322873D01*
X97462191Y-47372191D01*
X97425351Y-47427325D01*
X97289698Y-47291673D01*
X97056309Y-47195000D01*
X96710750Y-47195000D01*
X96552000Y-47353750D01*
X96298000Y-47353750D01*
X96139250Y-47195000D01*
X95793691Y-47195000D01*
X95560302Y-47291673D01*
X95424649Y-47427325D01*
X95387809Y-47372191D01*
X95177765Y-47231843D01*
X94930000Y-47182560D01*
X93920000Y-47182560D01*
X93672235Y-47231843D01*
X93462191Y-47372191D01*
X93425000Y-47427851D01*
X93387809Y-47372191D01*
X93177765Y-47231843D01*
X92930000Y-47182560D01*
X91920000Y-47182560D01*
X91672235Y-47231843D01*
X91462191Y-47372191D01*
X91321843Y-47582235D01*
X91272560Y-47830000D01*
X20685000Y-47830000D01*
X20685000Y-45030506D01*
X20755875Y-44236363D01*
X20958180Y-43496860D01*
X21288242Y-42804872D01*
X21735629Y-42182267D01*
X22286195Y-41648732D01*
X22922544Y-41221124D01*
X23624561Y-40912959D01*
X24375320Y-40732717D01*
X25025112Y-40685000D01*
X89127560Y-40685000D01*
X89127560Y-43830000D01*
X89127560Y-43830000D01*
G37*
X89127560Y-43830000D02*
X89176843Y-44077765D01*
X89317191Y-44287809D01*
X89527235Y-44428157D01*
X89775000Y-44477440D01*
X91275000Y-44477440D01*
X91522765Y-44428157D01*
X91732809Y-44287809D01*
X91873157Y-44077765D01*
X91922440Y-43830000D01*
X91922440Y-40685000D01*
X98927560Y-40685000D01*
X98927560Y-43830000D01*
X98976843Y-44077765D01*
X99117191Y-44287809D01*
X99327235Y-44428157D01*
X99575000Y-44477440D01*
X101075000Y-44477440D01*
X101322765Y-44428157D01*
X101532809Y-44287809D01*
X101673157Y-44077765D01*
X101722440Y-43830000D01*
X101722440Y-40685000D01*
X108419494Y-40685000D01*
X109213637Y-40755875D01*
X109953140Y-40958180D01*
X110645128Y-41288242D01*
X111267733Y-41735629D01*
X111801268Y-42286195D01*
X112228876Y-42922544D01*
X112537041Y-43624561D01*
X112717283Y-44375320D01*
X112765000Y-45025112D01*
X112765000Y-81053856D01*
X112750600Y-80981459D01*
X112750600Y-80981456D01*
X112707861Y-80766593D01*
X112586151Y-80584441D01*
X112586149Y-80584439D01*
X112545058Y-80522942D01*
X112483560Y-80481851D01*
X111201529Y-79199819D01*
X111254000Y-79073142D01*
X111254000Y-78466858D01*
X111021985Y-77906723D01*
X110615262Y-77500000D01*
X111021985Y-77093277D01*
X111254000Y-76533142D01*
X111254000Y-75926858D01*
X111021985Y-75366723D01*
X110615262Y-74960000D01*
X111021985Y-74553277D01*
X111254000Y-73993142D01*
X111254000Y-73386858D01*
X111021985Y-72826723D01*
X110615262Y-72420000D01*
X111021985Y-72013277D01*
X111254000Y-71453142D01*
X111254000Y-70846858D01*
X111021985Y-70286723D01*
X110615262Y-69880000D01*
X111021985Y-69473277D01*
X111254000Y-68913142D01*
X111254000Y-68306858D01*
X111021985Y-67746723D01*
X110615262Y-67340000D01*
X111021985Y-66933277D01*
X111254000Y-66373142D01*
X111254000Y-65766858D01*
X111021985Y-65206723D01*
X110615262Y-64800000D01*
X111021985Y-64393277D01*
X111254000Y-63833142D01*
X111254000Y-63226858D01*
X111021985Y-62666723D01*
X110615262Y-62260000D01*
X111021985Y-61853277D01*
X111254000Y-61293142D01*
X111254000Y-60686858D01*
X111021985Y-60126723D01*
X110593277Y-59698015D01*
X110033142Y-59466000D01*
X109426858Y-59466000D01*
X108866723Y-59698015D01*
X108438015Y-60126723D01*
X108206000Y-60686858D01*
X108206000Y-60995790D01*
X105613540Y-63588251D01*
X105552040Y-63629344D01*
X105389237Y-63872996D01*
X105346498Y-64087859D01*
X105346498Y-64087862D01*
X105332069Y-64160402D01*
X105346498Y-64232942D01*
X105346499Y-95660053D01*
X105332069Y-95732598D01*
X105389237Y-96020004D01*
X105510947Y-96202156D01*
X105510950Y-96202159D01*
X105552041Y-96263656D01*
X105613538Y-96304747D01*
X106679998Y-97371208D01*
X106679999Y-158398819D01*
X106565391Y-158513428D01*
X104627638Y-158513428D01*
X101257100Y-155142891D01*
X101257100Y-154568040D01*
X101271529Y-154495500D01*
X101257100Y-154422959D01*
X101257100Y-154422956D01*
X101214361Y-154208093D01*
X101202924Y-154190977D01*
X101092651Y-154025941D01*
X101092649Y-154025939D01*
X101051558Y-153964442D01*
X100990060Y-153923350D01*
X100457651Y-153390942D01*
X100416558Y-153329442D01*
X100172907Y-153166639D01*
X99958044Y-153123900D01*
X99958040Y-153123900D01*
X99885500Y-153109471D01*
X99882939Y-153109980D01*
X99804436Y-153031477D01*
X99445016Y-152882600D01*
X99055984Y-152882600D01*
X98696564Y-153031477D01*
X98433478Y-153294563D01*
X98498157Y-153197765D01*
X98547440Y-152950000D01*
X98547440Y-150800000D01*
X98498157Y-150552235D01*
X98357809Y-150342191D01*
X98147765Y-150201843D01*
X97900000Y-150152560D01*
X97774230Y-150152560D01*
X97640933Y-149953067D01*
X97566707Y-149903471D01*
X96856531Y-149193296D01*
X96806933Y-149119067D01*
X96512870Y-148922581D01*
X96253556Y-148871000D01*
X96253555Y-148871000D01*
X96166000Y-148853584D01*
X96078445Y-148871000D01*
X92031500Y-148871000D01*
X92031500Y-148484748D01*
X93957147Y-146559102D01*
X94156497Y-146260752D01*
X94250136Y-145790000D01*
X94156497Y-145319248D01*
X93889837Y-144920163D01*
X93490752Y-144653503D01*
X93020000Y-144559864D01*
X92549248Y-144653503D01*
X92250898Y-144852853D01*
X90477656Y-146626096D01*
X90262870Y-146482581D01*
X90003556Y-146431000D01*
X90003555Y-146431000D01*
X89916000Y-146413584D01*
X89828445Y-146431000D01*
X89241556Y-146431000D01*
X89154000Y-146413584D01*
X88807129Y-146482581D01*
X88668339Y-146575318D01*
X88513067Y-146679067D01*
X88463471Y-146753294D01*
X88326500Y-146890264D01*
X88326500Y-143388825D01*
X88350136Y-143269999D01*
X88256497Y-142799248D01*
X88256497Y-142799247D01*
X87989838Y-142400162D01*
X87889098Y-142332850D01*
X87879101Y-142322853D01*
X87580752Y-142123503D01*
X87110000Y-142029864D01*
X86639248Y-142123503D01*
X86240163Y-142390163D01*
X85973503Y-142789248D01*
X85903395Y-143141700D01*
X84493409Y-143141700D01*
X89482577Y-138152532D01*
X90527073Y-138152532D01*
X90625736Y-138419387D01*
X91235461Y-138645908D01*
X91885460Y-138621856D01*
X92374264Y-138419387D01*
X92472927Y-138152532D01*
X91500000Y-137179605D01*
X90527073Y-138152532D01*
X89482577Y-138152532D01*
X89986955Y-137648154D01*
X90080613Y-137874264D01*
X90347468Y-137972927D01*
X91320395Y-137000000D01*
X91306253Y-136985858D01*
X91485858Y-136806253D01*
X91500000Y-136820395D01*
X91514143Y-136806253D01*
X91693748Y-136985858D01*
X91679605Y-137000000D01*
X92652532Y-137972927D01*
X92919387Y-137874264D01*
X93145908Y-137264539D01*
X93121856Y-136614540D01*
X93038322Y-136412872D01*
X93049240Y-136410700D01*
X93049244Y-136410700D01*
X93264107Y-136367961D01*
X93507758Y-136205158D01*
X93548851Y-136143658D01*
X95605260Y-134087249D01*
X95666758Y-134046158D01*
X95707849Y-133984661D01*
X95707851Y-133984659D01*
X95829561Y-133802507D01*
X95831384Y-133793344D01*
X95872300Y-133587644D01*
X95872300Y-133587641D01*
X95886729Y-133515101D01*
X95872300Y-133442560D01*
X95872300Y-133152532D01*
X96527073Y-133152532D01*
X96625736Y-133419387D01*
X97235461Y-133645908D01*
X97885460Y-133621856D01*
X98374264Y-133419387D01*
X98472927Y-133152532D01*
X103027073Y-133152532D01*
X103125736Y-133419387D01*
X103735461Y-133645908D01*
X104385460Y-133621856D01*
X104874264Y-133419387D01*
X104972927Y-133152532D01*
X104000000Y-132179605D01*
X103027073Y-133152532D01*
X98472927Y-133152532D01*
X97500000Y-132179605D01*
X96527073Y-133152532D01*
X95872300Y-133152532D01*
X95872300Y-132227527D01*
X95878144Y-132385460D01*
X96080613Y-132874264D01*
X96347468Y-132972927D01*
X97320395Y-132000000D01*
X97679605Y-132000000D01*
X98652532Y-132972927D01*
X98919387Y-132874264D01*
X99145908Y-132264539D01*
X99126331Y-131735461D01*
X102354092Y-131735461D01*
X102378144Y-132385460D01*
X102580613Y-132874264D01*
X102847468Y-132972927D01*
X103820395Y-132000000D01*
X104179605Y-132000000D01*
X105152532Y-132972927D01*
X105419387Y-132874264D01*
X105645908Y-132264539D01*
X105621856Y-131614540D01*
X105419387Y-131125736D01*
X105152532Y-131027073D01*
X104179605Y-132000000D01*
X103820395Y-132000000D01*
X102847468Y-131027073D01*
X102580613Y-131125736D01*
X102354092Y-131735461D01*
X99126331Y-131735461D01*
X99121856Y-131614540D01*
X98919387Y-131125736D01*
X98652532Y-131027073D01*
X97679605Y-132000000D01*
X97320395Y-132000000D01*
X96347468Y-131027073D01*
X96080613Y-131125736D01*
X95854092Y-131735461D01*
X95858254Y-131847943D01*
X95829561Y-131703693D01*
X95666758Y-131460042D01*
X95605258Y-131418949D01*
X95033777Y-130847468D01*
X96527073Y-130847468D01*
X97500000Y-131820395D01*
X98472927Y-130847468D01*
X103027073Y-130847468D01*
X104000000Y-131820395D01*
X104972927Y-130847468D01*
X104874264Y-130580613D01*
X104264539Y-130354092D01*
X103614540Y-130378144D01*
X103125736Y-130580613D01*
X103027073Y-130847468D01*
X98472927Y-130847468D01*
X98374264Y-130580613D01*
X97764539Y-130354092D01*
X97114540Y-130378144D01*
X96625736Y-130580613D01*
X96527073Y-130847468D01*
X95033777Y-130847468D01*
X92810005Y-128623696D01*
X92821809Y-128615809D01*
X92962157Y-128405765D01*
X92964000Y-128396500D01*
X92965843Y-128405765D01*
X93106191Y-128615809D01*
X93316235Y-128756157D01*
X93564000Y-128805440D01*
X94264000Y-128805440D01*
X94511765Y-128756157D01*
X94721809Y-128615809D01*
X94862157Y-128405765D01*
X94894214Y-128244600D01*
X96038712Y-128244600D01*
X96113914Y-128426153D01*
X96573847Y-128886086D01*
X97174778Y-129135000D01*
X97825222Y-129135000D01*
X98426153Y-128886086D01*
X98886086Y-128426153D01*
X98961288Y-128244600D01*
X102538712Y-128244600D01*
X102613914Y-128426153D01*
X103073847Y-128886086D01*
X103674778Y-129135000D01*
X104325222Y-129135000D01*
X104926153Y-128886086D01*
X105386086Y-128426153D01*
X105635000Y-127825222D01*
X105635000Y-127174778D01*
X105386086Y-126573847D01*
X104926153Y-126113914D01*
X104325222Y-125865000D01*
X103674778Y-125865000D01*
X103073847Y-126113914D01*
X102613914Y-126573847D01*
X102532085Y-126771400D01*
X98967915Y-126771400D01*
X98886086Y-126573847D01*
X98426153Y-126113914D01*
X97825222Y-125865000D01*
X97174778Y-125865000D01*
X96573847Y-126113914D01*
X96113914Y-126573847D01*
X96032085Y-126771400D01*
X94894214Y-126771400D01*
X94862157Y-126610235D01*
X94721809Y-126400191D01*
X94511765Y-126259843D01*
X94264000Y-126210560D01*
X93564000Y-126210560D01*
X93316235Y-126259843D01*
X93106191Y-126400191D01*
X92965843Y-126610235D01*
X92964000Y-126619500D01*
X92962157Y-126610235D01*
X92821809Y-126400191D01*
X92611765Y-126259843D01*
X92364000Y-126210560D01*
X91664000Y-126210560D01*
X91416235Y-126259843D01*
X91206191Y-126400191D01*
X91065843Y-126610235D01*
X91016560Y-126858000D01*
X91016560Y-128158000D01*
X91065843Y-128405765D01*
X91206191Y-128615809D01*
X91277401Y-128663390D01*
X91277401Y-128796855D01*
X91262971Y-128869400D01*
X91320139Y-129156806D01*
X91441849Y-129338958D01*
X91441852Y-129338961D01*
X91482943Y-129400458D01*
X91544440Y-129441549D01*
X94399100Y-132296209D01*
X94399101Y-133209989D01*
X92671591Y-134937500D01*
X90991838Y-134937500D01*
X90919299Y-134923071D01*
X90846760Y-134937500D01*
X90846756Y-134937500D01*
X90631893Y-134980239D01*
X90388242Y-135143042D01*
X90347149Y-135204542D01*
X82943391Y-142608300D01*
X80518196Y-142608300D01*
X80645908Y-142264539D01*
X80621856Y-141614540D01*
X80512694Y-141351000D01*
X80522794Y-141351000D01*
X80595334Y-141365429D01*
X80667874Y-141351000D01*
X80667878Y-141351000D01*
X80882741Y-141308261D01*
X81126392Y-141145458D01*
X81167485Y-141083958D01*
X83255077Y-138996366D01*
X83316575Y-138955275D01*
X83357666Y-138893778D01*
X83357668Y-138893776D01*
X83479378Y-138711624D01*
X83488333Y-138666606D01*
X83522117Y-138496761D01*
X83522117Y-138496758D01*
X83536546Y-138424217D01*
X83522117Y-138351677D01*
X83522117Y-138152532D01*
X84027073Y-138152532D01*
X84125736Y-138419387D01*
X84735461Y-138645908D01*
X85385460Y-138621856D01*
X85874264Y-138419387D01*
X85972927Y-138152532D01*
X85000000Y-137179605D01*
X84027073Y-138152532D01*
X83522117Y-138152532D01*
X83522117Y-137733042D01*
X83580613Y-137874264D01*
X83847468Y-137972927D01*
X84820395Y-137000000D01*
X85179605Y-137000000D01*
X86152532Y-137972927D01*
X86419387Y-137874264D01*
X86645908Y-137264539D01*
X86621856Y-136614540D01*
X86419387Y-136125736D01*
X86152532Y-136027073D01*
X85179605Y-137000000D01*
X84820395Y-137000000D01*
X83847468Y-136027073D01*
X83580613Y-136125736D01*
X83419048Y-136560620D01*
X83357668Y-136468758D01*
X83357666Y-136468756D01*
X83316575Y-136407259D01*
X83255078Y-136366168D01*
X82736378Y-135847468D01*
X84027073Y-135847468D01*
X85000000Y-136820395D01*
X85972927Y-135847468D01*
X85874264Y-135580613D01*
X85264539Y-135354092D01*
X84614540Y-135378144D01*
X84125736Y-135580613D01*
X84027073Y-135847468D01*
X82736378Y-135847468D01*
X80459487Y-133570578D01*
X80516157Y-133485765D01*
X80518000Y-133476500D01*
X80519843Y-133485765D01*
X80660191Y-133695809D01*
X80870235Y-133836157D01*
X81118000Y-133885440D01*
X81818000Y-133885440D01*
X82065765Y-133836157D01*
X82275809Y-133695809D01*
X82416157Y-133485765D01*
X82448214Y-133324600D01*
X83571849Y-133324600D01*
X83613914Y-133426153D01*
X84073847Y-133886086D01*
X84674778Y-134135000D01*
X85325222Y-134135000D01*
X85926153Y-133886086D01*
X86386086Y-133426153D01*
X86428151Y-133324600D01*
X90071849Y-133324600D01*
X90113914Y-133426153D01*
X90573847Y-133886086D01*
X91174778Y-134135000D01*
X91825222Y-134135000D01*
X92426153Y-133886086D01*
X92886086Y-133426153D01*
X93135000Y-132825222D01*
X93135000Y-132174778D01*
X92886086Y-131573847D01*
X92426153Y-131113914D01*
X91825222Y-130865000D01*
X91174778Y-130865000D01*
X90573847Y-131113914D01*
X90113914Y-131573847D01*
X89998948Y-131851400D01*
X86501052Y-131851400D01*
X86386086Y-131573847D01*
X85926153Y-131113914D01*
X85325222Y-130865000D01*
X84674778Y-130865000D01*
X84073847Y-131113914D01*
X83613914Y-131573847D01*
X83498948Y-131851400D01*
X82448214Y-131851400D01*
X82416157Y-131690235D01*
X82275809Y-131480191D01*
X82065765Y-131339843D01*
X81818000Y-131290560D01*
X81118000Y-131290560D01*
X80870235Y-131339843D01*
X80660191Y-131480191D01*
X80519843Y-131690235D01*
X80518000Y-131699500D01*
X80516157Y-131690235D01*
X80375809Y-131480191D01*
X80165765Y-131339843D01*
X79918000Y-131290560D01*
X79218000Y-131290560D01*
X78970235Y-131339843D01*
X78760191Y-131480191D01*
X78619843Y-131690235D01*
X78570560Y-131938000D01*
X78570560Y-133238000D01*
X78619843Y-133485765D01*
X78760191Y-133695809D01*
X78819941Y-133735733D01*
X78874139Y-134008206D01*
X78995849Y-134190358D01*
X78995852Y-134190361D01*
X79036943Y-134251858D01*
X79098440Y-134292949D01*
X82048917Y-137243427D01*
X82048918Y-138119106D01*
X80290225Y-139877800D01*
X78571240Y-139877800D01*
X78498699Y-139863371D01*
X78426159Y-139877800D01*
X78426156Y-139877800D01*
X78211293Y-139920539D01*
X78029141Y-140042249D01*
X78029139Y-140042251D01*
X77967642Y-140083342D01*
X77926551Y-140144839D01*
X77734108Y-140337282D01*
X77732061Y-140326993D01*
X77643838Y-140194958D01*
X77610351Y-140144841D01*
X77610349Y-140144839D01*
X77569258Y-140083342D01*
X77507761Y-140042251D01*
X76721350Y-139255841D01*
X76680258Y-139194342D01*
X76436607Y-139031539D01*
X76221744Y-138988800D01*
X76221740Y-138988800D01*
X76149200Y-138974371D01*
X76076660Y-138988800D01*
X73178180Y-138988800D01*
X73426153Y-138886086D01*
X73886086Y-138426153D01*
X74000224Y-138150600D01*
X77499776Y-138150600D01*
X77613914Y-138426153D01*
X78073847Y-138886086D01*
X78674778Y-139135000D01*
X79325222Y-139135000D01*
X79926153Y-138886086D01*
X80386086Y-138426153D01*
X80635000Y-137825222D01*
X80635000Y-137174778D01*
X80386086Y-136573847D01*
X79926153Y-136113914D01*
X79325222Y-135865000D01*
X78674778Y-135865000D01*
X78073847Y-136113914D01*
X77613914Y-136573847D01*
X77571021Y-136677400D01*
X73928979Y-136677400D01*
X73886086Y-136573847D01*
X73426153Y-136113914D01*
X72825222Y-135865000D01*
X72174778Y-135865000D01*
X71573847Y-136113914D01*
X71113914Y-136573847D01*
X71071021Y-136677400D01*
X69494214Y-136677400D01*
X69462157Y-136516235D01*
X69321809Y-136306191D01*
X69111765Y-136165843D01*
X68864000Y-136116560D01*
X68164000Y-136116560D01*
X67916235Y-136165843D01*
X67706191Y-136306191D01*
X67565843Y-136516235D01*
X67564000Y-136525500D01*
X67562157Y-136516235D01*
X67421809Y-136306191D01*
X67211765Y-136165843D01*
X66964000Y-136116560D01*
X66264000Y-136116560D01*
X66016235Y-136165843D01*
X65806191Y-136306191D01*
X65665843Y-136516235D01*
X65616560Y-136764000D01*
X65616560Y-138064000D01*
X65665843Y-138311765D01*
X65806191Y-138521809D01*
X66016235Y-138662157D01*
X66264000Y-138711440D01*
X66964000Y-138711440D01*
X67211765Y-138662157D01*
X67249760Y-138636769D01*
X67461750Y-138848760D01*
X67502842Y-138910258D01*
X67564339Y-138951349D01*
X67564341Y-138951351D01*
X67684351Y-139031539D01*
X67746493Y-139073061D01*
X67961356Y-139115800D01*
X67961359Y-139115800D01*
X68033900Y-139130229D01*
X68106440Y-139115800D01*
X71018091Y-139115800D01*
X72097249Y-140194958D01*
X72138342Y-140256458D01*
X72309652Y-140370924D01*
X72114540Y-140378144D01*
X71625736Y-140580613D01*
X71527073Y-140847468D01*
X72500000Y-141820395D01*
X73472927Y-140847468D01*
X73374264Y-140580613D01*
X73054994Y-140462000D01*
X75844091Y-140462000D01*
X76301600Y-140919510D01*
X76301600Y-141096690D01*
X71653091Y-145745200D01*
X63823300Y-145745200D01*
X63750759Y-145730771D01*
X63678219Y-145745200D01*
X63678216Y-145745200D01*
X63463353Y-145787939D01*
X63281201Y-145909649D01*
X63281199Y-145909651D01*
X63219702Y-145950742D01*
X63178611Y-146012240D01*
X61074642Y-148116209D01*
X61013142Y-148157302D01*
X60956101Y-148242670D01*
X60855000Y-148222560D01*
X59835000Y-148222560D01*
X59587235Y-148271843D01*
X59377191Y-148412191D01*
X59236843Y-148622235D01*
X59187560Y-148870000D01*
X59187560Y-150650000D01*
X59236843Y-150897765D01*
X59284284Y-150968765D01*
X59200000Y-151172245D01*
X59200000Y-151627755D01*
X59319975Y-151917400D01*
X58830025Y-151917400D01*
X58950000Y-151627755D01*
X58950000Y-151172245D01*
X58865716Y-150968765D01*
X58913157Y-150897765D01*
X58962440Y-150650000D01*
X58962440Y-148870000D01*
X58913157Y-148622235D01*
X58772809Y-148412191D01*
X58562765Y-148271843D01*
X58315000Y-148222560D01*
X57295000Y-148222560D01*
X57047235Y-148271843D01*
X56837191Y-148412191D01*
X56696843Y-148622235D01*
X56647560Y-148870000D01*
X56647560Y-150650000D01*
X56696843Y-150897765D01*
X56744284Y-150968765D01*
X56660000Y-151172245D01*
X56660000Y-151627755D01*
X56779975Y-151917400D01*
X56290025Y-151917400D01*
X56410000Y-151627755D01*
X56410000Y-151172245D01*
X56325716Y-150968765D01*
X56373157Y-150897765D01*
X56422440Y-150650000D01*
X56422440Y-150125466D01*
X56471500Y-149878826D01*
X56471500Y-147463824D01*
X56495136Y-147344999D01*
X56401497Y-146874247D01*
X56398325Y-146869500D01*
X56134838Y-146475162D01*
X56034098Y-146407850D01*
X55067150Y-145440902D01*
X54999838Y-145340162D01*
X54600753Y-145073503D01*
X54248826Y-145003500D01*
X54248825Y-145003500D01*
X54130000Y-144979864D01*
X54011175Y-145003500D01*
X51698825Y-145003500D01*
X51580000Y-144979864D01*
X51461174Y-145003500D01*
X51109247Y-145073503D01*
X50710162Y-145340162D01*
X50642852Y-145440899D01*
X49904293Y-146179458D01*
X49730753Y-146063503D01*
X49378826Y-145993500D01*
X49378825Y-145993500D01*
X49260000Y-145969864D01*
X49141175Y-145993500D01*
X39204807Y-145993500D01*
X39085982Y-145969864D01*
X38967157Y-145993500D01*
X38967156Y-145993500D01*
X38615229Y-146063503D01*
X38216144Y-146330162D01*
X38148834Y-146430899D01*
X34342230Y-150237504D01*
X34241490Y-150304816D01*
X34044963Y-150598942D01*
X33974831Y-150703902D01*
X33881192Y-151174654D01*
X33904828Y-151293480D01*
X33904829Y-154612598D01*
X26479506Y-147187276D01*
X26479506Y-143152532D01*
X71527073Y-143152532D01*
X71625736Y-143419387D01*
X72235461Y-143645908D01*
X72885460Y-143621856D01*
X73374264Y-143419387D01*
X73472927Y-143152532D01*
X72500000Y-142179605D01*
X71527073Y-143152532D01*
X26479506Y-143152532D01*
X26479506Y-141735461D01*
X70854092Y-141735461D01*
X70878144Y-142385460D01*
X71080613Y-142874264D01*
X71347468Y-142972927D01*
X72320395Y-142000000D01*
X72679605Y-142000000D01*
X73652532Y-142972927D01*
X73919387Y-142874264D01*
X74145908Y-142264539D01*
X74121856Y-141614540D01*
X73919387Y-141125736D01*
X73652532Y-141027073D01*
X72679605Y-142000000D01*
X72320395Y-142000000D01*
X71347468Y-141027073D01*
X71080613Y-141125736D01*
X70854092Y-141735461D01*
X26479506Y-141735461D01*
X26479506Y-139734778D01*
X28740000Y-139734778D01*
X28740000Y-140385222D01*
X28988914Y-140986153D01*
X29448847Y-141446086D01*
X30049778Y-141695000D01*
X30700222Y-141695000D01*
X31301153Y-141446086D01*
X31761086Y-140986153D01*
X32010000Y-140385222D01*
X32010000Y-139734778D01*
X31761086Y-139133847D01*
X31301153Y-138673914D01*
X30700222Y-138425000D01*
X30049778Y-138425000D01*
X29448847Y-138673914D01*
X28988914Y-139133847D01*
X28740000Y-139734778D01*
X26479506Y-139734778D01*
X26479506Y-125606742D01*
X27119748Y-124966500D01*
X33121175Y-124966500D01*
X33240000Y-124990136D01*
X33358825Y-124966500D01*
X33358826Y-124966500D01*
X33525805Y-124933286D01*
X33542191Y-124957809D01*
X33752235Y-125098157D01*
X34000000Y-125147440D01*
X35500000Y-125147440D01*
X35747765Y-125098157D01*
X35750000Y-125096664D01*
X35752235Y-125098157D01*
X36000000Y-125147440D01*
X36013401Y-125147440D01*
X36013401Y-125412352D01*
X36013400Y-125412357D01*
X36013400Y-125737460D01*
X35998971Y-125810000D01*
X36013400Y-125882540D01*
X36013400Y-125882544D01*
X36056139Y-126097407D01*
X36218942Y-126341058D01*
X36280442Y-126382151D01*
X46192100Y-136293809D01*
X46192100Y-136424516D01*
X46340977Y-136783936D01*
X46616064Y-137059023D01*
X46975484Y-137207900D01*
X47364516Y-137207900D01*
X47723936Y-137059023D01*
X47999023Y-136783936D01*
X48147900Y-136424516D01*
X48147900Y-136035484D01*
X47999023Y-135676064D01*
X47723936Y-135400977D01*
X47364516Y-135252100D01*
X47233809Y-135252100D01*
X37486600Y-125504891D01*
X37486600Y-125147440D01*
X37500000Y-125147440D01*
X37747765Y-125098157D01*
X37761916Y-125088702D01*
X37873690Y-125135000D01*
X38464250Y-125135000D01*
X38623000Y-124976250D01*
X38623000Y-122377000D01*
X38603000Y-122377000D01*
X38603000Y-122123000D01*
X38623000Y-122123000D01*
X38623000Y-119523750D01*
X38877000Y-119523750D01*
X38877000Y-122123000D01*
X38897000Y-122123000D01*
X38897000Y-122377000D01*
X38877000Y-122377000D01*
X38877000Y-124976250D01*
X39035750Y-125135000D01*
X39626310Y-125135000D01*
X39738084Y-125088702D01*
X39752235Y-125098157D01*
X40000000Y-125147440D01*
X41095731Y-125147440D01*
X46932100Y-130983810D01*
X46932100Y-131114516D01*
X47080977Y-131473936D01*
X47356064Y-131749023D01*
X47715484Y-131897900D01*
X48104516Y-131897900D01*
X48463936Y-131749023D01*
X48739023Y-131473936D01*
X48887900Y-131114516D01*
X48887900Y-130725484D01*
X48857683Y-130652532D01*
X71527073Y-130652532D01*
X71625736Y-130919387D01*
X72235461Y-131145908D01*
X72885460Y-131121856D01*
X73374264Y-130919387D01*
X73472927Y-130652532D01*
X78027073Y-130652532D01*
X78125736Y-130919387D01*
X78735461Y-131145908D01*
X79385460Y-131121856D01*
X79874264Y-130919387D01*
X79972927Y-130652532D01*
X79000000Y-129679605D01*
X78027073Y-130652532D01*
X73472927Y-130652532D01*
X72500000Y-129679605D01*
X71527073Y-130652532D01*
X48857683Y-130652532D01*
X48739023Y-130366064D01*
X48463936Y-130090977D01*
X48104516Y-129942100D01*
X47973810Y-129942100D01*
X47267171Y-129235461D01*
X70854092Y-129235461D01*
X70878144Y-129885460D01*
X71080613Y-130374264D01*
X71347468Y-130472927D01*
X72320395Y-129500000D01*
X72679605Y-129500000D01*
X73652532Y-130472927D01*
X73919387Y-130374264D01*
X74145908Y-129764539D01*
X74126331Y-129235461D01*
X77354092Y-129235461D01*
X77378144Y-129885460D01*
X77580613Y-130374264D01*
X77847468Y-130472927D01*
X78820395Y-129500000D01*
X77847468Y-128527073D01*
X77580613Y-128625736D01*
X77354092Y-129235461D01*
X74126331Y-129235461D01*
X74121856Y-129114540D01*
X73919387Y-128625736D01*
X73652532Y-128527073D01*
X72679605Y-129500000D01*
X72320395Y-129500000D01*
X71347468Y-128527073D01*
X71080613Y-128625736D01*
X70854092Y-129235461D01*
X47267171Y-129235461D01*
X46379178Y-128347468D01*
X71527073Y-128347468D01*
X72500000Y-129320395D01*
X73472927Y-128347468D01*
X73374264Y-128080613D01*
X72764539Y-127854092D01*
X72114540Y-127878144D01*
X71625736Y-128080613D01*
X71527073Y-128347468D01*
X46379178Y-128347468D01*
X42349710Y-124318000D01*
X65616560Y-124318000D01*
X65616560Y-125618000D01*
X65665843Y-125865765D01*
X65806191Y-126075809D01*
X66016235Y-126216157D01*
X66264000Y-126265440D01*
X66964000Y-126265440D01*
X67211765Y-126216157D01*
X67421809Y-126075809D01*
X67562157Y-125865765D01*
X67564000Y-125856500D01*
X67565843Y-125865765D01*
X67706191Y-126075809D01*
X67916235Y-126216157D01*
X68164000Y-126265440D01*
X68864000Y-126265440D01*
X69111765Y-126216157D01*
X69321809Y-126075809D01*
X69462157Y-125865765D01*
X69487849Y-125736600D01*
X71035399Y-125736600D01*
X71113914Y-125926153D01*
X71573847Y-126386086D01*
X72174778Y-126635000D01*
X72825222Y-126635000D01*
X73426153Y-126386086D01*
X73886086Y-125926153D01*
X73964601Y-125736600D01*
X77535399Y-125736600D01*
X77613914Y-125926153D01*
X78073847Y-126386086D01*
X78674778Y-126635000D01*
X79325222Y-126635000D01*
X79926153Y-126386086D01*
X80386086Y-125926153D01*
X80635000Y-125325222D01*
X80635000Y-124674778D01*
X80386086Y-124073847D01*
X79926153Y-123613914D01*
X79325222Y-123365000D01*
X78674778Y-123365000D01*
X78073847Y-123613914D01*
X77613914Y-124073847D01*
X77535399Y-124263400D01*
X76627900Y-124263400D01*
X76627900Y-124105484D01*
X76479023Y-123746064D01*
X76203936Y-123470977D01*
X75844516Y-123322100D01*
X75713809Y-123322100D01*
X75472151Y-123080442D01*
X75431058Y-123018942D01*
X75187407Y-122856139D01*
X74972544Y-122813400D01*
X74972540Y-122813400D01*
X74900000Y-122798971D01*
X74827460Y-122813400D01*
X71922540Y-122813400D01*
X71850000Y-122798971D01*
X71777460Y-122813400D01*
X71777456Y-122813400D01*
X71562593Y-122856139D01*
X71327236Y-123013400D01*
X67972540Y-123013400D01*
X67899999Y-122998971D01*
X67827459Y-123013400D01*
X67827456Y-123013400D01*
X67642516Y-123050187D01*
X67612593Y-123056139D01*
X67430441Y-123177849D01*
X67430439Y-123177851D01*
X67368942Y-123218942D01*
X67327850Y-123280440D01*
X66937730Y-123670560D01*
X66264000Y-123670560D01*
X66016235Y-123719843D01*
X65806191Y-123860191D01*
X65665843Y-124070235D01*
X65616560Y-124318000D01*
X42349710Y-124318000D01*
X42147440Y-124115731D01*
X42147440Y-120000000D01*
X42098157Y-119752235D01*
X41957809Y-119542191D01*
X41747765Y-119401843D01*
X41500000Y-119352560D01*
X40000000Y-119352560D01*
X39752235Y-119401843D01*
X39738084Y-119411298D01*
X39626310Y-119365000D01*
X39035750Y-119365000D01*
X38877000Y-119523750D01*
X38623000Y-119523750D01*
X38464250Y-119365000D01*
X37873690Y-119365000D01*
X37761916Y-119411298D01*
X37747765Y-119401843D01*
X37500000Y-119352560D01*
X36000000Y-119352560D01*
X35956500Y-119361213D01*
X35956500Y-117895577D01*
X36006497Y-117820751D01*
X36100136Y-117350000D01*
X36006497Y-116879248D01*
X35739837Y-116480163D01*
X35340752Y-116213503D01*
X34870000Y-116119864D01*
X34399249Y-116213503D01*
X34100899Y-116412853D01*
X33980902Y-116532850D01*
X33880162Y-116600162D01*
X33613504Y-116999247D01*
X33613503Y-116999248D01*
X33519864Y-117470000D01*
X33543500Y-117588826D01*
X33543500Y-119541316D01*
X33542191Y-119542191D01*
X33401843Y-119752235D01*
X33352560Y-120000000D01*
X33352560Y-121941192D01*
X32740252Y-122553500D01*
X29418193Y-122553500D01*
X29786153Y-122401086D01*
X30246086Y-121941153D01*
X30495000Y-121340222D01*
X30495000Y-120689778D01*
X30246086Y-120088847D01*
X29786153Y-119628914D01*
X29185222Y-119380000D01*
X28536449Y-119380000D01*
X32573448Y-115343002D01*
X43599076Y-115343002D01*
X43671616Y-115357431D01*
X43744156Y-115343002D01*
X43744160Y-115343002D01*
X43959023Y-115300263D01*
X44202674Y-115137460D01*
X44243767Y-115075960D01*
X46175424Y-113144304D01*
X52452460Y-113144304D01*
X52525000Y-113158733D01*
X52597540Y-113144304D01*
X52597544Y-113144304D01*
X52812407Y-113101565D01*
X53056058Y-112938762D01*
X53097151Y-112877262D01*
X54337293Y-111637121D01*
X58344370Y-111637121D01*
X59588979Y-112881731D01*
X59630071Y-112943229D01*
X59691568Y-112984320D01*
X59691570Y-112984322D01*
X59867037Y-113101565D01*
X59873722Y-113106032D01*
X60088585Y-113148771D01*
X60088588Y-113148771D01*
X60161129Y-113163200D01*
X60233669Y-113148771D01*
X64257062Y-113148771D01*
X64677850Y-113569560D01*
X64718942Y-113631058D01*
X64780439Y-113672149D01*
X64780441Y-113672151D01*
X64867680Y-113730442D01*
X64962593Y-113793861D01*
X65177456Y-113836600D01*
X65177459Y-113836600D01*
X65249999Y-113851029D01*
X65322540Y-113836600D01*
X65727460Y-113836600D01*
X65800000Y-113851029D01*
X65872540Y-113836600D01*
X65872544Y-113836600D01*
X66087407Y-113793861D01*
X66331058Y-113631058D01*
X66372151Y-113569558D01*
X67203808Y-112737902D01*
X68580436Y-112737902D01*
X68652976Y-112752331D01*
X68725516Y-112737902D01*
X68725520Y-112737902D01*
X68940383Y-112695163D01*
X69184034Y-112532360D01*
X69225127Y-112470860D01*
X70472249Y-111223739D01*
X74832030Y-111223739D01*
X76127850Y-112519560D01*
X76168942Y-112581058D01*
X76230439Y-112622149D01*
X76230441Y-112622151D01*
X76403675Y-112737902D01*
X76412593Y-112743861D01*
X76627456Y-112786600D01*
X76627459Y-112786600D01*
X76699999Y-112801029D01*
X76772540Y-112786600D01*
X84266738Y-112786600D01*
X84339278Y-112801029D01*
X84411818Y-112786600D01*
X84411822Y-112786600D01*
X84626685Y-112743861D01*
X84870336Y-112581058D01*
X84911429Y-112519558D01*
X86144387Y-111286600D01*
X90163400Y-111286600D01*
X90163401Y-115977455D01*
X90148971Y-116050000D01*
X90206139Y-116337406D01*
X90327849Y-116519558D01*
X90327852Y-116519561D01*
X90368943Y-116581058D01*
X90430440Y-116622149D01*
X91159570Y-117351280D01*
X91200662Y-117412778D01*
X91262159Y-117453869D01*
X91262161Y-117453871D01*
X91428067Y-117564726D01*
X91444313Y-117575581D01*
X91659176Y-117618320D01*
X91659179Y-117618320D01*
X91731720Y-117632749D01*
X91804260Y-117618320D01*
X92113171Y-117618320D01*
X93179898Y-118685048D01*
X93179899Y-119378391D01*
X93061341Y-119496949D01*
X92886086Y-119073847D01*
X92426153Y-118613914D01*
X91825222Y-118365000D01*
X91174778Y-118365000D01*
X90573847Y-118613914D01*
X90113914Y-119073847D01*
X90035399Y-119263400D01*
X86464601Y-119263400D01*
X86386086Y-119073847D01*
X85926153Y-118613914D01*
X85325222Y-118365000D01*
X84674778Y-118365000D01*
X84073847Y-118613914D01*
X83613914Y-119073847D01*
X83535399Y-119263400D01*
X81930214Y-119263400D01*
X81898157Y-119102235D01*
X81757809Y-118892191D01*
X81547765Y-118751843D01*
X81300000Y-118702560D01*
X80600000Y-118702560D01*
X80352235Y-118751843D01*
X80142191Y-118892191D01*
X80001843Y-119102235D01*
X80000000Y-119111500D01*
X79998157Y-119102235D01*
X79857809Y-118892191D01*
X79647765Y-118751843D01*
X79400000Y-118702560D01*
X78700000Y-118702560D01*
X78452235Y-118751843D01*
X78242191Y-118892191D01*
X78101843Y-119102235D01*
X78052560Y-119350000D01*
X78052560Y-120650000D01*
X78101843Y-120897765D01*
X78242191Y-121107809D01*
X78452235Y-121248157D01*
X78700000Y-121297440D01*
X79400000Y-121297440D01*
X79647765Y-121248157D01*
X79652970Y-121244679D01*
X79877850Y-121469560D01*
X79918942Y-121531058D01*
X79980439Y-121572149D01*
X79980441Y-121572151D01*
X80152932Y-121687406D01*
X80162593Y-121693861D01*
X80377456Y-121736600D01*
X80377459Y-121736600D01*
X80450000Y-121751029D01*
X80522540Y-121736600D01*
X81194892Y-121736600D01*
X81327847Y-121869555D01*
X81368942Y-121931058D01*
X81612593Y-122093861D01*
X81827456Y-122136600D01*
X81827460Y-122136600D01*
X81899999Y-122151029D01*
X81972538Y-122136600D01*
X92127460Y-122136600D01*
X92199384Y-122150907D01*
X91985791Y-122364500D01*
X84514840Y-122364500D01*
X84442299Y-122350071D01*
X84369759Y-122364500D01*
X84369756Y-122364500D01*
X84163676Y-122405492D01*
X84154893Y-122407239D01*
X83972741Y-122528949D01*
X83972739Y-122528951D01*
X83911242Y-122570042D01*
X83870151Y-122631539D01*
X79807142Y-126694549D01*
X79745642Y-126735642D01*
X79582839Y-126979294D01*
X79540100Y-127194157D01*
X79540100Y-127194160D01*
X79537522Y-127207119D01*
X79447677Y-127296964D01*
X79298800Y-127656384D01*
X79298800Y-127866820D01*
X79264539Y-127854092D01*
X78614540Y-127878144D01*
X78125736Y-128080613D01*
X78027073Y-128347468D01*
X79000000Y-129320395D01*
X79014143Y-129306253D01*
X79193748Y-129485858D01*
X79179605Y-129500000D01*
X80152532Y-130472927D01*
X80419387Y-130374264D01*
X80645908Y-129764539D01*
X80621856Y-129114540D01*
X80498771Y-128817386D01*
X80830636Y-128679923D01*
X81105723Y-128404836D01*
X81254600Y-128045416D01*
X81254600Y-127656384D01*
X81159153Y-127425956D01*
X82932577Y-125652532D01*
X84027073Y-125652532D01*
X84125736Y-125919387D01*
X84735461Y-126145908D01*
X85385460Y-126121856D01*
X85874264Y-125919387D01*
X85972927Y-125652532D01*
X90527073Y-125652532D01*
X90625736Y-125919387D01*
X91235461Y-126145908D01*
X91885460Y-126121856D01*
X92374264Y-125919387D01*
X92472927Y-125652532D01*
X91500000Y-124679605D01*
X90527073Y-125652532D01*
X85972927Y-125652532D01*
X85000000Y-124679605D01*
X84027073Y-125652532D01*
X82932577Y-125652532D01*
X83472311Y-125112799D01*
X83580613Y-125374264D01*
X83847468Y-125472927D01*
X84820395Y-124500000D01*
X84806253Y-124485858D01*
X84985858Y-124306253D01*
X85000000Y-124320395D01*
X85014143Y-124306253D01*
X85193748Y-124485858D01*
X85179605Y-124500000D01*
X86152532Y-125472927D01*
X86419387Y-125374264D01*
X86645908Y-124764539D01*
X86621856Y-124114540D01*
X86507185Y-123837700D01*
X90001866Y-123837700D01*
X89854092Y-124235461D01*
X89878144Y-124885460D01*
X90080613Y-125374264D01*
X90347468Y-125472927D01*
X91320395Y-124500000D01*
X91306253Y-124485858D01*
X91485858Y-124306253D01*
X91500000Y-124320395D01*
X91514143Y-124306253D01*
X91693748Y-124485858D01*
X91679605Y-124500000D01*
X92652532Y-125472927D01*
X92919387Y-125374264D01*
X93145908Y-124764539D01*
X93121856Y-124114540D01*
X92919387Y-123625736D01*
X92844700Y-123598122D01*
X92863051Y-123570658D01*
X94792460Y-121641250D01*
X94853958Y-121600158D01*
X94895049Y-121538661D01*
X94895051Y-121538659D01*
X95016761Y-121356507D01*
X95038313Y-121248157D01*
X95059500Y-121141644D01*
X95059500Y-121141641D01*
X95073929Y-121069100D01*
X95059500Y-120996560D01*
X95059500Y-120652532D01*
X96527073Y-120652532D01*
X96625736Y-120919387D01*
X97235461Y-121145908D01*
X97885460Y-121121856D01*
X98374264Y-120919387D01*
X98472927Y-120652532D01*
X103027073Y-120652532D01*
X103125736Y-120919387D01*
X103735461Y-121145908D01*
X104385460Y-121121856D01*
X104874264Y-120919387D01*
X104972927Y-120652532D01*
X104000000Y-119679605D01*
X103027073Y-120652532D01*
X98472927Y-120652532D01*
X97500000Y-119679605D01*
X96527073Y-120652532D01*
X95059500Y-120652532D01*
X95059500Y-119235461D01*
X95854092Y-119235461D01*
X95878144Y-119885460D01*
X96080613Y-120374264D01*
X96347468Y-120472927D01*
X97320395Y-119500000D01*
X97679605Y-119500000D01*
X98652532Y-120472927D01*
X98919387Y-120374264D01*
X99145908Y-119764539D01*
X99126331Y-119235461D01*
X102354092Y-119235461D01*
X102378144Y-119885460D01*
X102580613Y-120374264D01*
X102847468Y-120472927D01*
X103820395Y-119500000D01*
X104179605Y-119500000D01*
X105152532Y-120472927D01*
X105419387Y-120374264D01*
X105645908Y-119764539D01*
X105621856Y-119114540D01*
X105419387Y-118625736D01*
X105152532Y-118527073D01*
X104179605Y-119500000D01*
X103820395Y-119500000D01*
X102847468Y-118527073D01*
X102580613Y-118625736D01*
X102354092Y-119235461D01*
X99126331Y-119235461D01*
X99121856Y-119114540D01*
X98919387Y-118625736D01*
X98652532Y-118527073D01*
X97679605Y-119500000D01*
X97320395Y-119500000D01*
X96347468Y-118527073D01*
X96080613Y-118625736D01*
X95854092Y-119235461D01*
X95059500Y-119235461D01*
X95059500Y-118347468D01*
X96527073Y-118347468D01*
X97500000Y-119320395D01*
X98472927Y-118347468D01*
X103027073Y-118347468D01*
X104000000Y-119320395D01*
X104972927Y-118347468D01*
X104874264Y-118080613D01*
X104264539Y-117854092D01*
X103614540Y-117878144D01*
X103125736Y-118080613D01*
X103027073Y-118347468D01*
X98472927Y-118347468D01*
X98374264Y-118080613D01*
X97764539Y-117854092D01*
X97114540Y-117878144D01*
X96625736Y-118080613D01*
X96527073Y-118347468D01*
X95059500Y-118347468D01*
X95059500Y-118284140D01*
X95073929Y-118211599D01*
X95059500Y-118139057D01*
X95059500Y-118139056D01*
X95016761Y-117924193D01*
X94947643Y-117820751D01*
X94895051Y-117742041D01*
X94895049Y-117742039D01*
X94853958Y-117680542D01*
X94792461Y-117639451D01*
X93450449Y-116297440D01*
X93850000Y-116297440D01*
X94097765Y-116248157D01*
X94307809Y-116107809D01*
X94448157Y-115897765D01*
X94480214Y-115736600D01*
X96035399Y-115736600D01*
X96113914Y-115926153D01*
X96573847Y-116386086D01*
X97174778Y-116635000D01*
X97825222Y-116635000D01*
X98426153Y-116386086D01*
X98886086Y-115926153D01*
X98964601Y-115736600D01*
X102535399Y-115736600D01*
X102613914Y-115926153D01*
X103073847Y-116386086D01*
X103674778Y-116635000D01*
X104325222Y-116635000D01*
X104926153Y-116386086D01*
X105386086Y-115926153D01*
X105635000Y-115325222D01*
X105635000Y-114674778D01*
X105386086Y-114073847D01*
X104926153Y-113613914D01*
X104325222Y-113365000D01*
X103674778Y-113365000D01*
X103073847Y-113613914D01*
X102613914Y-114073847D01*
X102535399Y-114263400D01*
X98964601Y-114263400D01*
X98886086Y-114073847D01*
X98426153Y-113613914D01*
X97825222Y-113365000D01*
X97174778Y-113365000D01*
X96573847Y-113613914D01*
X96113914Y-114073847D01*
X96035399Y-114263400D01*
X94480214Y-114263400D01*
X94448157Y-114102235D01*
X94307809Y-113892191D01*
X94097765Y-113751843D01*
X93850000Y-113702560D01*
X93150000Y-113702560D01*
X92902235Y-113751843D01*
X92692191Y-113892191D01*
X92551843Y-114102235D01*
X92550000Y-114111500D01*
X92548157Y-114102235D01*
X92407809Y-113892191D01*
X92197765Y-113751843D01*
X91950000Y-113702560D01*
X91636600Y-113702560D01*
X91636600Y-111628849D01*
X91901852Y-111894101D01*
X91969162Y-111994838D01*
X92368247Y-112261497D01*
X92720174Y-112331500D01*
X92720175Y-112331500D01*
X92839000Y-112355136D01*
X92957825Y-112331500D01*
X99696175Y-112331500D01*
X99815000Y-112355136D01*
X99933825Y-112331500D01*
X99933826Y-112331500D01*
X100285753Y-112261497D01*
X100684838Y-111994838D01*
X100752150Y-111894098D01*
X101898809Y-110747440D01*
X102140000Y-110747440D01*
X102387765Y-110698157D01*
X102597809Y-110557809D01*
X102738157Y-110347765D01*
X102787440Y-110100000D01*
X102787440Y-109105700D01*
X103017875Y-109105700D01*
X103136700Y-109129336D01*
X103255525Y-109105700D01*
X103255526Y-109105700D01*
X103607453Y-109035697D01*
X104006538Y-108769038D01*
X104073852Y-108668296D01*
X104124646Y-108617501D01*
X104323997Y-108319152D01*
X104417636Y-107848401D01*
X104323997Y-107377648D01*
X104057337Y-106978563D01*
X103658252Y-106711903D01*
X103187499Y-106618264D01*
X102813287Y-106692700D01*
X102787440Y-106692700D01*
X102787440Y-105900000D01*
X102738157Y-105652235D01*
X102597809Y-105442191D01*
X102387765Y-105301843D01*
X102140000Y-105252560D01*
X100540000Y-105252560D01*
X100292235Y-105301843D01*
X100082191Y-105442191D01*
X99941843Y-105652235D01*
X99892560Y-105900000D01*
X99892560Y-106692700D01*
X98338949Y-106692700D01*
X97787440Y-106141192D01*
X97787440Y-105900000D01*
X97738157Y-105652235D01*
X97597809Y-105442191D01*
X97546500Y-105407907D01*
X97546500Y-102278825D01*
X97570136Y-102160000D01*
X97540595Y-102011488D01*
X97476497Y-101689247D01*
X97209838Y-101290162D01*
X97109098Y-101222850D01*
X97059101Y-101172853D01*
X96760752Y-100973503D01*
X96290000Y-100879864D01*
X95819248Y-100973503D01*
X95420163Y-101240163D01*
X95153503Y-101639248D01*
X95059864Y-102110000D01*
X95133500Y-102480191D01*
X95133500Y-104225335D01*
X95089937Y-104234000D01*
X93533061Y-104234000D01*
X93375000Y-104202560D01*
X92625000Y-104202560D01*
X92466939Y-104234000D01*
X81800064Y-104234000D01*
X81700000Y-104214096D01*
X81599936Y-104234000D01*
X81599935Y-104234000D01*
X81303577Y-104292949D01*
X80967505Y-104517505D01*
X80910822Y-104602337D01*
X80550000Y-104963159D01*
X80189179Y-104602339D01*
X80132495Y-104517505D01*
X79796423Y-104292949D01*
X79500065Y-104234000D01*
X79500063Y-104234000D01*
X79400000Y-104214096D01*
X79299937Y-104234000D01*
X77533061Y-104234000D01*
X77375000Y-104202560D01*
X76625000Y-104202560D01*
X76466939Y-104234000D01*
X66065064Y-104234000D01*
X65965000Y-104214096D01*
X65864936Y-104234000D01*
X65864935Y-104234000D01*
X65568577Y-104292949D01*
X65232505Y-104517505D01*
X65175822Y-104602337D01*
X64815000Y-104963159D01*
X64454179Y-104602339D01*
X64397495Y-104517505D01*
X64061423Y-104292949D01*
X63765065Y-104234000D01*
X63765063Y-104234000D01*
X63665000Y-104214096D01*
X63564937Y-104234000D01*
X61533061Y-104234000D01*
X61375000Y-104202560D01*
X60625000Y-104202560D01*
X60466939Y-104234000D01*
X49725064Y-104234000D01*
X49625000Y-104214096D01*
X49524936Y-104234000D01*
X49524935Y-104234000D01*
X49228577Y-104292949D01*
X48892505Y-104517505D01*
X48835822Y-104602337D01*
X48475000Y-104963159D01*
X48114179Y-104602339D01*
X48057495Y-104517505D01*
X47721423Y-104292949D01*
X47425065Y-104234000D01*
X47425063Y-104234000D01*
X47325000Y-104214096D01*
X47224937Y-104234000D01*
X45533061Y-104234000D01*
X45375000Y-104202560D01*
X44625000Y-104202560D01*
X44466939Y-104234000D01*
X33390064Y-104234000D01*
X33346500Y-104225335D01*
X33346500Y-101528825D01*
X33370136Y-101409999D01*
X33276497Y-100939248D01*
X33276497Y-100939247D01*
X33009838Y-100540162D01*
X32909098Y-100472850D01*
X32899101Y-100462853D01*
X32600752Y-100263503D01*
X32130000Y-100169864D01*
X31659248Y-100263503D01*
X31260163Y-100530163D01*
X30993503Y-100929248D01*
X30899864Y-101400000D01*
X30933501Y-101569103D01*
X30933500Y-104354823D01*
X30902445Y-104361000D01*
X29889000Y-104361000D01*
X29889000Y-84967550D01*
X29906415Y-84879999D01*
X29889000Y-84792448D01*
X29889000Y-84792444D01*
X29837419Y-84533130D01*
X29640933Y-84239067D01*
X29566707Y-84189471D01*
X24118718Y-78741483D01*
X24248157Y-78547765D01*
X24297440Y-78300000D01*
X24297440Y-77600000D01*
X24248157Y-77352235D01*
X24107809Y-77142191D01*
X23897765Y-77001843D01*
X23888500Y-77000000D01*
X23897765Y-76998157D01*
X24107809Y-76857809D01*
X24248157Y-76647765D01*
X24297440Y-76400000D01*
X24297440Y-75700000D01*
X24248157Y-75452235D01*
X24107809Y-75242191D01*
X23897765Y-75101843D01*
X23736600Y-75069786D01*
X23736600Y-62188540D01*
X23751029Y-62116000D01*
X23736600Y-62043459D01*
X23736600Y-62043456D01*
X23693861Y-61828593D01*
X23625711Y-61726600D01*
X23572151Y-61646441D01*
X23572149Y-61646439D01*
X23531058Y-61584942D01*
X23469560Y-61543850D01*
X22646600Y-60720891D01*
X22646600Y-58208685D01*
X22692809Y-58177809D01*
X22833157Y-57967765D01*
X22882440Y-57720000D01*
X22882440Y-56420000D01*
X22833157Y-56172235D01*
X22692809Y-55962191D01*
X22646600Y-55931315D01*
X22646600Y-54058685D01*
X22692809Y-54027809D01*
X22833157Y-53817765D01*
X22882440Y-53570000D01*
X22882440Y-52270000D01*
X23087560Y-52270000D01*
X23087560Y-53570000D01*
X23136843Y-53817765D01*
X23277191Y-54027809D01*
X23323400Y-54058685D01*
X23323401Y-55931314D01*
X23277191Y-55962191D01*
X23136843Y-56172235D01*
X23087560Y-56420000D01*
X23087560Y-57720000D01*
X23136843Y-57967765D01*
X23277191Y-58177809D01*
X23487235Y-58318157D01*
X23735000Y-58367440D01*
X24385000Y-58367440D01*
X24632765Y-58318157D01*
X24842809Y-58177809D01*
X24983157Y-57967765D01*
X25032440Y-57720000D01*
X25032440Y-56420000D01*
X24983157Y-56172235D01*
X24842809Y-55962191D01*
X24796600Y-55931315D01*
X24796600Y-54774234D01*
X26365000Y-54774234D01*
X26365000Y-55225766D01*
X26537793Y-55642926D01*
X26857074Y-55962207D01*
X27274234Y-56135000D01*
X27725766Y-56135000D01*
X28142926Y-55962207D01*
X28462207Y-55642926D01*
X28635000Y-55225766D01*
X28635000Y-54774234D01*
X28462207Y-54357074D01*
X28142926Y-54037793D01*
X27725766Y-53865000D01*
X27274234Y-53865000D01*
X26857074Y-54037793D01*
X26537793Y-54357074D01*
X26365000Y-54774234D01*
X24796600Y-54774234D01*
X24796600Y-54058685D01*
X24842809Y-54027809D01*
X24983157Y-53817765D01*
X25032440Y-53570000D01*
X25032440Y-53209269D01*
X25603810Y-52637900D01*
X25734516Y-52637900D01*
X26093936Y-52489023D01*
X26369023Y-52213936D01*
X26517900Y-51854516D01*
X26517900Y-51465484D01*
X26369023Y-51106064D01*
X26093936Y-50830977D01*
X25734516Y-50682100D01*
X25345484Y-50682100D01*
X24986064Y-50830977D01*
X24710977Y-51106064D01*
X24562100Y-51465484D01*
X24562100Y-51596190D01*
X24510723Y-51647568D01*
X24385000Y-51622560D01*
X23735000Y-51622560D01*
X23487235Y-51671843D01*
X23277191Y-51812191D01*
X23136843Y-52022235D01*
X23087560Y-52270000D01*
X22882440Y-52270000D01*
X22833157Y-52022235D01*
X22692809Y-51812191D01*
X22482765Y-51671843D01*
X22235000Y-51622560D01*
X21585000Y-51622560D01*
X21337235Y-51671843D01*
X21127191Y-51812191D01*
X20986843Y-52022235D01*
X20937560Y-52270000D01*
X20937560Y-53570000D01*
X20986843Y-53817765D01*
X21127191Y-54027809D01*
X21173400Y-54058685D01*
X21173401Y-55931314D01*
X21127191Y-55962191D01*
X20986843Y-56172235D01*
X20937560Y-56420000D01*
X20937560Y-57720000D01*
X20986843Y-57967765D01*
X21127191Y-58177809D01*
X21173401Y-58208686D01*
X21173400Y-60953460D01*
X21158971Y-61026000D01*
X21173400Y-61098540D01*
X21173400Y-61098543D01*
X21216139Y-61313406D01*
X21378942Y-61557058D01*
X21440442Y-61598151D01*
X22263401Y-62421111D01*
X22263400Y-75069786D01*
X22102235Y-75101843D01*
X21892191Y-75242191D01*
X21751843Y-75452235D01*
X21702560Y-75700000D01*
X21702560Y-76400000D01*
X21751843Y-76647765D01*
X21892191Y-76857809D01*
X22102235Y-76998157D01*
X22111500Y-77000000D01*
X22102235Y-77001843D01*
X21892191Y-77142191D01*
X21751843Y-77352235D01*
X21702560Y-77600000D01*
X21702560Y-78300000D01*
X21751843Y-78547765D01*
X21892191Y-78757809D01*
X22096423Y-78894274D01*
X22128873Y-79057406D01*
X22162582Y-79226870D01*
X22359068Y-79520933D01*
X22433294Y-79570529D01*
X28111000Y-85248236D01*
X28111001Y-104476285D01*
X28026843Y-104602235D01*
X27977560Y-104850000D01*
X27977560Y-105650000D01*
X28026843Y-105897765D01*
X28095155Y-106000000D01*
X28026843Y-106102235D01*
X27977560Y-106350000D01*
X27977560Y-107150000D01*
X28026843Y-107397765D01*
X28167191Y-107607809D01*
X28377235Y-107748157D01*
X28625000Y-107797440D01*
X29375000Y-107797440D01*
X29622765Y-107748157D01*
X29642641Y-107734876D01*
X30424471Y-108516706D01*
X30474067Y-108590933D01*
X30768130Y-108787419D01*
X30783155Y-108790408D01*
X30741843Y-108852235D01*
X30692560Y-109100000D01*
X30692560Y-110100000D01*
X30741843Y-110347765D01*
X30882191Y-110557809D01*
X31092235Y-110698157D01*
X31340000Y-110747440D01*
X32940000Y-110747440D01*
X33187765Y-110698157D01*
X33397809Y-110557809D01*
X33538157Y-110347765D01*
X33540378Y-110336600D01*
X34110891Y-110336600D01*
X34836100Y-111061810D01*
X34836100Y-111125000D01*
X31329554Y-111125000D01*
X31241999Y-111107584D01*
X31154444Y-111125000D01*
X30895130Y-111176581D01*
X30601067Y-111373067D01*
X30551471Y-111447293D01*
X21277294Y-120721471D01*
X21203068Y-120771067D01*
X21153472Y-120845293D01*
X21153471Y-120845294D01*
X21006582Y-121065130D01*
X20937584Y-121412000D01*
X20955001Y-121499560D01*
X20955000Y-148756445D01*
X20937584Y-148844000D01*
X20955000Y-148931555D01*
X21006581Y-149190869D01*
X21203067Y-149484933D01*
X21277296Y-149534531D01*
X38334229Y-166591465D01*
X38312191Y-166606191D01*
X38171843Y-166816235D01*
X38122560Y-167064000D01*
X38122560Y-167964000D01*
X38171843Y-168211765D01*
X38312191Y-168421809D01*
X38522235Y-168562157D01*
X38770000Y-168611440D01*
X39970000Y-168611440D01*
X40217765Y-168562157D01*
X40427809Y-168421809D01*
X40568157Y-168211765D01*
X40617440Y-167964000D01*
X40617440Y-167799688D01*
X41227500Y-168409748D01*
X41227500Y-168815175D01*
X41203864Y-168934000D01*
X41227500Y-169052825D01*
X41227500Y-169052826D01*
X41297503Y-169404753D01*
X41564163Y-169803838D01*
X41664900Y-169871148D01*
X41718752Y-169925000D01*
X40440377Y-169925000D01*
X40427809Y-169906191D01*
X40217765Y-169765843D01*
X39970000Y-169716560D01*
X38770000Y-169716560D01*
X38522235Y-169765843D01*
X38312191Y-169906191D01*
X38171843Y-170116235D01*
X38122560Y-170364000D01*
X38122560Y-171264000D01*
X38171843Y-171511765D01*
X38312191Y-171721809D01*
X38522235Y-171862157D01*
X38770000Y-171911440D01*
X39970000Y-171911440D01*
X40217765Y-171862157D01*
X40427809Y-171721809D01*
X40440377Y-171703000D01*
X42418445Y-171703000D01*
X42506000Y-171720416D01*
X42593555Y-171703000D01*
X42593556Y-171703000D01*
X42852870Y-171651419D01*
X43146933Y-171454933D01*
X43196531Y-171380704D01*
X43443829Y-171133407D01*
X43528824Y-171116500D01*
X51934826Y-171116500D01*
X52286753Y-171046497D01*
X52399974Y-170970846D01*
X52463765Y-170958157D01*
X52673809Y-170817809D01*
X52814157Y-170607765D01*
X52819813Y-170579329D01*
X52952497Y-170380753D01*
X53046136Y-169910000D01*
X52952497Y-169439247D01*
X52819813Y-169240671D01*
X52814157Y-169212235D01*
X52690516Y-169027194D01*
X52710269Y-169007440D01*
X53166000Y-169007440D01*
X53413765Y-168958157D01*
X53623809Y-168817809D01*
X53738208Y-168646600D01*
X53833641Y-168646600D01*
X53956064Y-168769023D01*
X54315484Y-168917900D01*
X54704516Y-168917900D01*
X55063936Y-168769023D01*
X55339023Y-168493936D01*
X55487900Y-168134516D01*
X55487900Y-167745484D01*
X55339023Y-167386064D01*
X55159459Y-167206500D01*
X57072974Y-167206500D01*
X67135572Y-177269098D01*
X67202884Y-177369838D01*
X67601969Y-177636497D01*
X68072721Y-177730136D01*
X68191546Y-177706500D01*
X87881175Y-177706500D01*
X88000000Y-177730136D01*
X88118825Y-177706500D01*
X88118826Y-177706500D01*
X88470753Y-177636497D01*
X88869838Y-177369838D01*
X88933718Y-177274234D01*
X96365000Y-177274234D01*
X96365000Y-177725766D01*
X96537793Y-178142926D01*
X96857074Y-178462207D01*
X97274234Y-178635000D01*
X97725766Y-178635000D01*
X98142926Y-178462207D01*
X98462207Y-178142926D01*
X98635000Y-177725766D01*
X98635000Y-177274234D01*
X98462207Y-176857074D01*
X98142926Y-176537793D01*
X97725766Y-176365000D01*
X97274234Y-176365000D01*
X96857074Y-176537793D01*
X96537793Y-176857074D01*
X96365000Y-177274234D01*
X88933718Y-177274234D01*
X88937150Y-177269098D01*
X91499749Y-174706500D01*
X96371175Y-174706500D01*
X96490000Y-174730136D01*
X96608825Y-174706500D01*
X96608826Y-174706500D01*
X96960753Y-174636497D01*
X97359838Y-174369838D01*
X97427150Y-174269098D01*
X100559101Y-171137148D01*
X100659838Y-171069838D01*
X100926497Y-170670753D01*
X100996500Y-170318826D01*
X100996500Y-170318825D01*
X101020136Y-170200000D01*
X100996500Y-170081175D01*
X100996500Y-168149748D01*
X103229749Y-165916500D01*
X106769457Y-165916500D01*
X106859249Y-165976497D01*
X107330000Y-166070136D01*
X107800752Y-165976497D01*
X108199837Y-165709837D01*
X108466497Y-165310752D01*
X108560136Y-164840000D01*
X108505753Y-164566600D01*
X108893460Y-164566600D01*
X108966000Y-164581029D01*
X109038540Y-164566600D01*
X109038544Y-164566600D01*
X109253407Y-164523861D01*
X109497058Y-164361058D01*
X109538151Y-164299558D01*
X112483561Y-161354149D01*
X112545058Y-161313058D01*
X112586149Y-161251561D01*
X112586151Y-161251559D01*
X112707861Y-161069407D01*
X112711764Y-161049785D01*
X112750600Y-160854544D01*
X112750600Y-160854541D01*
X112765001Y-160782142D01*
X112765001Y-184869484D01*
X112694125Y-185663637D01*
X112491820Y-186403140D01*
X112161758Y-187095128D01*
X111714371Y-187717733D01*
X111163808Y-188251266D01*
X110527456Y-188678876D01*
X109825437Y-188987042D01*
X109074681Y-189167282D01*
X108424888Y-189215000D01*
X25030505Y-189215000D01*
X24236363Y-189144125D01*
X23496860Y-188941820D01*
X22804872Y-188611758D01*
X22182267Y-188164371D01*
X21648734Y-187613808D01*
X21221124Y-186977456D01*
X20912958Y-186275437D01*
X20732718Y-185524681D01*
X20685000Y-184874888D01*
X20685000Y-47830000D01*
X91272560Y-47830000D01*
X91272560Y-51230000D01*
X91321843Y-51477765D01*
X91462191Y-51687809D01*
X91672235Y-51828157D01*
X91688401Y-51831372D01*
X91688400Y-54394359D01*
X91579700Y-54656784D01*
X91579700Y-55045816D01*
X91728577Y-55405236D01*
X92003664Y-55680323D01*
X92363084Y-55829200D01*
X92752116Y-55829200D01*
X93111536Y-55680323D01*
X93386623Y-55405236D01*
X93505291Y-55118747D01*
X93608177Y-55367136D01*
X93883264Y-55642223D01*
X94242684Y-55791100D01*
X94631716Y-55791100D01*
X94991136Y-55642223D01*
X95266223Y-55367136D01*
X95415100Y-55007716D01*
X95415100Y-54774234D01*
X108865000Y-54774234D01*
X108865000Y-55225766D01*
X109037793Y-55642926D01*
X109357074Y-55962207D01*
X109774234Y-56135000D01*
X110225766Y-56135000D01*
X110642926Y-55962207D01*
X110962207Y-55642926D01*
X111135000Y-55225766D01*
X111135000Y-54774234D01*
X110962207Y-54357074D01*
X110642926Y-54037793D01*
X110225766Y-53865000D01*
X109774234Y-53865000D01*
X109357074Y-54037793D01*
X109037793Y-54357074D01*
X108865000Y-54774234D01*
X95415100Y-54774234D01*
X95415100Y-54618684D01*
X95266223Y-54259264D01*
X95161600Y-54154641D01*
X95161600Y-51831372D01*
X95177765Y-51828157D01*
X95387809Y-51687809D01*
X95424649Y-51632675D01*
X95560302Y-51768327D01*
X95793691Y-51865000D01*
X96139250Y-51865000D01*
X96298000Y-51706250D01*
X96298000Y-49657000D01*
X96278000Y-49657000D01*
X96278000Y-49403000D01*
X96298000Y-49403000D01*
X96298000Y-47353750D01*
X96552000Y-47353750D01*
X96552000Y-49403000D01*
X96572000Y-49403000D01*
X96572000Y-49657000D01*
X96552000Y-49657000D01*
X96552000Y-51706250D01*
X96710750Y-51865000D01*
X97056309Y-51865000D01*
X97289698Y-51768327D01*
X97425351Y-51632675D01*
X97462191Y-51687809D01*
X97672235Y-51828157D01*
X97920000Y-51877440D01*
X98930000Y-51877440D01*
X99177765Y-51828157D01*
X99387809Y-51687809D01*
X99528157Y-51477765D01*
X99577440Y-51230000D01*
X99577440Y-47830000D01*
X99528157Y-47582235D01*
X99387809Y-47372191D01*
X99314000Y-47322873D01*
X99314000Y-47180500D01*
X101956945Y-47180500D01*
X102044500Y-47197916D01*
X102132055Y-47180500D01*
X102132056Y-47180500D01*
X102391370Y-47128919D01*
X102685433Y-46932433D01*
X102735031Y-46858204D01*
X102835138Y-46758097D01*
X103026064Y-46949023D01*
X103385484Y-47097900D01*
X103774516Y-47097900D01*
X104133936Y-46949023D01*
X104226359Y-46856600D01*
X104924891Y-46856600D01*
X106017849Y-47949558D01*
X106058942Y-48011058D01*
X106302593Y-48173861D01*
X106517456Y-48216600D01*
X106517460Y-48216600D01*
X106589999Y-48231029D01*
X106662538Y-48216600D01*
X109607460Y-48216600D01*
X109680000Y-48231029D01*
X109752540Y-48216600D01*
X109752544Y-48216600D01*
X109967407Y-48173861D01*
X110211058Y-48011058D01*
X110252151Y-47949558D01*
X111376662Y-46825048D01*
X111438160Y-46783956D01*
X111479251Y-46722459D01*
X111479253Y-46722457D01*
X111600963Y-46540305D01*
X111618402Y-46452631D01*
X111643702Y-46325442D01*
X111643702Y-46325439D01*
X111658131Y-46252899D01*
X111643702Y-46180358D01*
X111643702Y-45743813D01*
X111977727Y-45520625D01*
X112305941Y-45029418D01*
X112421194Y-44450000D01*
X112305941Y-43870582D01*
X111977727Y-43379375D01*
X111486520Y-43051161D01*
X111053358Y-42965000D01*
X110760846Y-42965000D01*
X110555132Y-43005919D01*
X110625143Y-42653949D01*
X110509890Y-42074531D01*
X110181676Y-41583324D01*
X109690469Y-41255110D01*
X109257307Y-41168949D01*
X108964795Y-41168949D01*
X108531633Y-41255110D01*
X108040426Y-41583324D01*
X107712212Y-42074531D01*
X107596959Y-42653949D01*
X107663120Y-42986565D01*
X107442000Y-43100620D01*
X107442000Y-44143392D01*
X107329141Y-44256251D01*
X107508749Y-44435859D01*
X107621608Y-44323000D01*
X108664380Y-44323000D01*
X108778435Y-44101880D01*
X108964795Y-44138949D01*
X109257307Y-44138949D01*
X109463021Y-44098030D01*
X109393010Y-44450000D01*
X109463021Y-44801970D01*
X109257307Y-44761051D01*
X108964795Y-44761051D01*
X108778435Y-44798120D01*
X108664380Y-44577000D01*
X107621608Y-44577000D01*
X107508749Y-44464141D01*
X107329141Y-44643749D01*
X107442000Y-44756608D01*
X107442000Y-45351764D01*
X107188000Y-45097764D01*
X107188000Y-44756608D01*
X107300859Y-44643749D01*
X107121251Y-44464141D01*
X107008392Y-44577000D01*
X106667235Y-44577000D01*
X106413235Y-44323000D01*
X107188000Y-44323000D01*
X107188000Y-43100620D01*
X106953542Y-42979685D01*
X106418391Y-43229930D01*
X106019741Y-43665920D01*
X105934471Y-43871781D01*
X105797649Y-43780360D01*
X105538335Y-43728779D01*
X105538334Y-43728779D01*
X105450779Y-43711363D01*
X105363224Y-43728779D01*
X103805776Y-43728779D01*
X103718221Y-43711363D01*
X103630666Y-43728779D01*
X103630665Y-43728779D01*
X103371351Y-43780360D01*
X103077288Y-43976846D01*
X103027692Y-44051072D01*
X101676265Y-45402500D01*
X99020550Y-45402500D01*
X98932999Y-45385085D01*
X98845448Y-45402500D01*
X98845444Y-45402500D01*
X98586130Y-45454081D01*
X98292067Y-45650567D01*
X98242469Y-45724796D01*
X97858296Y-46108969D01*
X97784067Y-46158567D01*
X97587581Y-46452631D01*
X97536000Y-46711944D01*
X97518584Y-46799500D01*
X97536000Y-46887055D01*
X97536000Y-47322873D01*
X97462191Y-47372191D01*
X97425351Y-47427325D01*
X97289698Y-47291673D01*
X97056309Y-47195000D01*
X96710750Y-47195000D01*
X96552000Y-47353750D01*
X96298000Y-47353750D01*
X96139250Y-47195000D01*
X95793691Y-47195000D01*
X95560302Y-47291673D01*
X95424649Y-47427325D01*
X95387809Y-47372191D01*
X95177765Y-47231843D01*
X94930000Y-47182560D01*
X93920000Y-47182560D01*
X93672235Y-47231843D01*
X93462191Y-47372191D01*
X93425000Y-47427851D01*
X93387809Y-47372191D01*
X93177765Y-47231843D01*
X92930000Y-47182560D01*
X91920000Y-47182560D01*
X91672235Y-47231843D01*
X91462191Y-47372191D01*
X91321843Y-47582235D01*
X91272560Y-47830000D01*
X20685000Y-47830000D01*
X20685000Y-45030506D01*
X20755875Y-44236363D01*
X20958180Y-43496860D01*
X21288242Y-42804872D01*
X21735629Y-42182267D01*
X22286195Y-41648732D01*
X22922544Y-41221124D01*
X23624561Y-40912959D01*
X24375320Y-40732717D01*
X25025112Y-40685000D01*
X89127560Y-40685000D01*
X89127560Y-43830000D01*
G36*
X82308350Y-164832600D02*
X83032600Y-164832600D01*
X83032600Y-164812600D01*
X83286600Y-164812600D01*
X83286600Y-164832600D01*
X83306600Y-164832600D01*
X83306600Y-165086600D01*
X83286600Y-165086600D01*
X83286600Y-165106600D01*
X83032600Y-165106600D01*
X83032600Y-165086600D01*
X82308350Y-165086600D01*
X82149600Y-165245350D01*
X82149600Y-165485909D01*
X82246273Y-165719298D01*
X82247473Y-165720498D01*
X82186443Y-165811835D01*
X82137160Y-166059600D01*
X82137160Y-166859600D01*
X82186443Y-167107365D01*
X82270600Y-167233315D01*
X82270600Y-167361615D01*
X82090912Y-167436044D01*
X81787244Y-167739712D01*
X81622900Y-168136474D01*
X81622900Y-168565926D01*
X81787244Y-168962688D01*
X82090912Y-169266356D01*
X82487674Y-169430700D01*
X82917126Y-169430700D01*
X83313888Y-169266356D01*
X83617556Y-168962688D01*
X83781900Y-168565926D01*
X83781900Y-168547383D01*
X83800533Y-168534933D01*
X83997019Y-168240870D01*
X84048600Y-167981556D01*
X84048600Y-167981552D01*
X84066015Y-167894001D01*
X84048600Y-167806450D01*
X84048600Y-167348600D01*
X84557245Y-167348600D01*
X84644800Y-167366016D01*
X84732355Y-167348600D01*
X84732356Y-167348600D01*
X84991670Y-167297019D01*
X85283400Y-167102092D01*
X85283400Y-170586400D01*
X80181600Y-170586400D01*
X80181600Y-170421981D01*
X80202809Y-170407809D01*
X80343157Y-170197765D01*
X80392440Y-169950000D01*
X80392440Y-168450000D01*
X80343157Y-168202235D01*
X80202809Y-167992191D01*
X79992765Y-167851843D01*
X79745000Y-167802560D01*
X79145000Y-167802560D01*
X78897235Y-167851843D01*
X78810000Y-167910132D01*
X78722765Y-167851843D01*
X78475000Y-167802560D01*
X77875000Y-167802560D01*
X77627235Y-167851843D01*
X77540000Y-167910132D01*
X77452765Y-167851843D01*
X77205000Y-167802560D01*
X76605000Y-167802560D01*
X76357235Y-167851843D01*
X76270000Y-167910132D01*
X76233779Y-167885930D01*
X77374561Y-166745149D01*
X77436058Y-166704058D01*
X77477149Y-166642561D01*
X77477151Y-166642559D01*
X77598861Y-166460407D01*
X77605136Y-166428861D01*
X77641600Y-166245544D01*
X77641600Y-166245541D01*
X77656029Y-166173000D01*
X77641600Y-166100460D01*
X77641600Y-165737541D01*
X77656029Y-165665001D01*
X77641600Y-165592460D01*
X77641600Y-165151014D01*
X77875000Y-165197440D01*
X78475000Y-165197440D01*
X78722765Y-165148157D01*
X78810000Y-165089868D01*
X78897235Y-165148157D01*
X79145000Y-165197440D01*
X79745000Y-165197440D01*
X79992765Y-165148157D01*
X80202809Y-165007809D01*
X80343157Y-164797765D01*
X80364791Y-164689000D01*
X82164750Y-164689000D01*
X82308350Y-164832600D01*
X82308350Y-164832600D01*
G37*
X82308350Y-164832600D02*
X83032600Y-164832600D01*
X83032600Y-164812600D01*
X83286600Y-164812600D01*
X83286600Y-164832600D01*
X83306600Y-164832600D01*
X83306600Y-165086600D01*
X83286600Y-165086600D01*
X83286600Y-165106600D01*
X83032600Y-165106600D01*
X83032600Y-165086600D01*
X82308350Y-165086600D01*
X82149600Y-165245350D01*
X82149600Y-165485909D01*
X82246273Y-165719298D01*
X82247473Y-165720498D01*
X82186443Y-165811835D01*
X82137160Y-166059600D01*
X82137160Y-166859600D01*
X82186443Y-167107365D01*
X82270600Y-167233315D01*
X82270600Y-167361615D01*
X82090912Y-167436044D01*
X81787244Y-167739712D01*
X81622900Y-168136474D01*
X81622900Y-168565926D01*
X81787244Y-168962688D01*
X82090912Y-169266356D01*
X82487674Y-169430700D01*
X82917126Y-169430700D01*
X83313888Y-169266356D01*
X83617556Y-168962688D01*
X83781900Y-168565926D01*
X83781900Y-168547383D01*
X83800533Y-168534933D01*
X83997019Y-168240870D01*
X84048600Y-167981556D01*
X84048600Y-167981552D01*
X84066015Y-167894001D01*
X84048600Y-167806450D01*
X84048600Y-167348600D01*
X84557245Y-167348600D01*
X84644800Y-167366016D01*
X84732355Y-167348600D01*
X84732356Y-167348600D01*
X84991670Y-167297019D01*
X85283400Y-167102092D01*
X85283400Y-170586400D01*
X80181600Y-170586400D01*
X80181600Y-170421981D01*
X80202809Y-170407809D01*
X80343157Y-170197765D01*
X80392440Y-169950000D01*
X80392440Y-168450000D01*
X80343157Y-168202235D01*
X80202809Y-167992191D01*
X79992765Y-167851843D01*
X79745000Y-167802560D01*
X79145000Y-167802560D01*
X78897235Y-167851843D01*
X78810000Y-167910132D01*
X78722765Y-167851843D01*
X78475000Y-167802560D01*
X77875000Y-167802560D01*
X77627235Y-167851843D01*
X77540000Y-167910132D01*
X77452765Y-167851843D01*
X77205000Y-167802560D01*
X76605000Y-167802560D01*
X76357235Y-167851843D01*
X76270000Y-167910132D01*
X76233779Y-167885930D01*
X77374561Y-166745149D01*
X77436058Y-166704058D01*
X77477149Y-166642561D01*
X77477151Y-166642559D01*
X77598861Y-166460407D01*
X77605136Y-166428861D01*
X77641600Y-166245544D01*
X77641600Y-166245541D01*
X77656029Y-166173000D01*
X77641600Y-166100460D01*
X77641600Y-165737541D01*
X77656029Y-165665001D01*
X77641600Y-165592460D01*
X77641600Y-165151014D01*
X77875000Y-165197440D01*
X78475000Y-165197440D01*
X78722765Y-165148157D01*
X78810000Y-165089868D01*
X78897235Y-165148157D01*
X79145000Y-165197440D01*
X79745000Y-165197440D01*
X79992765Y-165148157D01*
X80202809Y-165007809D01*
X80343157Y-164797765D01*
X80364791Y-164689000D01*
X82164750Y-164689000D01*
X82308350Y-164832600D01*
G36*
X71005700Y-148170590D02*
X70953730Y-148222560D01*
X69995000Y-148222560D01*
X69747235Y-148271843D01*
X69537191Y-148412191D01*
X69396843Y-148622235D01*
X69347560Y-148870000D01*
X69347560Y-150650000D01*
X69396843Y-150897765D01*
X69444284Y-150968765D01*
X69360000Y-151172245D01*
X69360000Y-151627755D01*
X69534316Y-152048590D01*
X69856410Y-152370684D01*
X70277245Y-152545000D01*
X70732755Y-152545000D01*
X71153590Y-152370684D01*
X71475684Y-152048590D01*
X71488301Y-152018131D01*
X71488301Y-153321869D01*
X71475684Y-153291410D01*
X71153590Y-152969316D01*
X70732755Y-152795000D01*
X70277245Y-152795000D01*
X69856410Y-152969316D01*
X69534316Y-153291410D01*
X69360000Y-153712245D01*
X69360000Y-154167755D01*
X69442001Y-154365722D01*
X69360000Y-154563690D01*
X69360000Y-155294250D01*
X69518750Y-155453000D01*
X70378000Y-155453000D01*
X70378000Y-155433000D01*
X70632000Y-155433000D01*
X70632000Y-155453000D01*
X70652000Y-155453000D01*
X70652000Y-155707000D01*
X70632000Y-155707000D01*
X70632000Y-156946250D01*
X70790750Y-157105000D01*
X71141309Y-157105000D01*
X71374698Y-157008327D01*
X71522442Y-156860584D01*
X71531039Y-156903806D01*
X71653401Y-157086933D01*
X71653400Y-158169455D01*
X71653400Y-158931460D01*
X71638971Y-159004000D01*
X71653400Y-159076540D01*
X71653400Y-159076543D01*
X71666100Y-159140390D01*
X71666100Y-159452516D01*
X71814977Y-159811936D01*
X72090064Y-160087023D01*
X72449484Y-160235900D01*
X72838516Y-160235900D01*
X73197936Y-160087023D01*
X73473023Y-159811936D01*
X73621900Y-159452516D01*
X73621900Y-159063484D01*
X73581479Y-158965900D01*
X73600516Y-158965900D01*
X73959936Y-158817023D01*
X74235023Y-158541936D01*
X74383900Y-158182516D01*
X74383900Y-157793484D01*
X74235023Y-157434064D01*
X73959936Y-157158977D01*
X73781600Y-157085108D01*
X73781600Y-157072367D01*
X73802765Y-157068157D01*
X74012809Y-156927809D01*
X74153157Y-156717765D01*
X74202440Y-156470000D01*
X74202440Y-154690000D01*
X74153157Y-154442235D01*
X74105716Y-154371235D01*
X74190000Y-154167755D01*
X74190000Y-153771884D01*
X74219974Y-153784300D01*
X74440000Y-153784300D01*
X74440000Y-154167755D01*
X74524284Y-154371235D01*
X74476843Y-154442235D01*
X74427560Y-154690000D01*
X74427560Y-156470000D01*
X74476843Y-156717765D01*
X74617191Y-156927809D01*
X74827235Y-157068157D01*
X74848401Y-157072367D01*
X74848400Y-159501256D01*
X74714100Y-159825484D01*
X74714100Y-160214516D01*
X74862977Y-160573936D01*
X75138064Y-160849023D01*
X75497484Y-160997900D01*
X75886516Y-160997900D01*
X76245936Y-160849023D01*
X76521023Y-160573936D01*
X76669900Y-160214516D01*
X76669900Y-159825484D01*
X76521023Y-159466064D01*
X76321600Y-159266641D01*
X76321600Y-157072367D01*
X76342765Y-157068157D01*
X76552809Y-156927809D01*
X76693157Y-156717765D01*
X76742440Y-156470000D01*
X76742440Y-154690000D01*
X76693157Y-154442235D01*
X76645716Y-154371235D01*
X76730000Y-154167755D01*
X76730000Y-153733500D01*
X76980000Y-153733500D01*
X76980000Y-154167755D01*
X77064284Y-154371235D01*
X77016843Y-154442235D01*
X76967560Y-154690000D01*
X76967560Y-156470000D01*
X77016843Y-156717765D01*
X77157191Y-156927809D01*
X77367235Y-157068157D01*
X77438401Y-157082313D01*
X77438400Y-162448986D01*
X77205000Y-162402560D01*
X76605000Y-162402560D01*
X76357235Y-162451843D01*
X76270000Y-162510132D01*
X76182765Y-162451843D01*
X75935000Y-162402560D01*
X75335000Y-162402560D01*
X75087235Y-162451843D01*
X75059073Y-162470660D01*
X75058861Y-162469593D01*
X74998024Y-162378544D01*
X74937151Y-162287441D01*
X74937149Y-162287439D01*
X74896058Y-162225942D01*
X74834560Y-162184850D01*
X74637900Y-161988190D01*
X74637900Y-161857484D01*
X74489023Y-161498064D01*
X74213936Y-161222977D01*
X73854516Y-161074100D01*
X73465484Y-161074100D01*
X73106064Y-161222977D01*
X72830977Y-161498064D01*
X72682100Y-161857484D01*
X72682100Y-162246516D01*
X72750410Y-162411429D01*
X72547235Y-162451843D01*
X72468028Y-162504768D01*
X72251310Y-162415000D01*
X72110750Y-162415000D01*
X71952000Y-162573750D01*
X71952000Y-163673000D01*
X71972000Y-163673000D01*
X71972000Y-163927000D01*
X71952000Y-163927000D01*
X71952000Y-165026250D01*
X72110750Y-165185000D01*
X72206000Y-165185000D01*
X72206001Y-166650275D01*
X71842012Y-166801044D01*
X71538344Y-167104712D01*
X71445110Y-167329800D01*
X69392800Y-165277491D01*
X69392800Y-164085750D01*
X69620000Y-164085750D01*
X69620000Y-164676309D01*
X69716673Y-164909698D01*
X69895301Y-165088327D01*
X70128690Y-165185000D01*
X70269250Y-165185000D01*
X70428000Y-165026250D01*
X70428000Y-163927000D01*
X70682000Y-163927000D01*
X70682000Y-165026250D01*
X70840750Y-165185000D01*
X70981310Y-165185000D01*
X71190000Y-165098558D01*
X71398690Y-165185000D01*
X71539250Y-165185000D01*
X71698000Y-165026250D01*
X71698000Y-163927000D01*
X70682000Y-163927000D01*
X70428000Y-163927000D01*
X69778750Y-163927000D01*
X69620000Y-164085750D01*
X69392800Y-164085750D01*
X69392800Y-163585040D01*
X69407229Y-163512500D01*
X69392800Y-163439959D01*
X69392800Y-163439956D01*
X69350061Y-163225093D01*
X69343134Y-163214726D01*
X69228351Y-163042941D01*
X69228349Y-163042939D01*
X69187258Y-162981442D01*
X69125760Y-162940350D01*
X69109101Y-162923691D01*
X69620000Y-162923691D01*
X69620000Y-163514250D01*
X69778750Y-163673000D01*
X70428000Y-163673000D01*
X70428000Y-162573750D01*
X70682000Y-162573750D01*
X70682000Y-163673000D01*
X71698000Y-163673000D01*
X71698000Y-162573750D01*
X71539250Y-162415000D01*
X71398690Y-162415000D01*
X71190000Y-162501442D01*
X70981310Y-162415000D01*
X70840750Y-162415000D01*
X70682000Y-162573750D01*
X70428000Y-162573750D01*
X70269250Y-162415000D01*
X70128690Y-162415000D01*
X69895301Y-162511673D01*
X69716673Y-162690302D01*
X69620000Y-162923691D01*
X69109101Y-162923691D01*
X68707000Y-162521591D01*
X68707000Y-161176009D01*
X69507409Y-160375600D01*
X69638116Y-160375600D01*
X69997536Y-160226723D01*
X70272623Y-159951636D01*
X70421500Y-159592216D01*
X70421500Y-159203184D01*
X70272623Y-158843764D01*
X69997536Y-158568677D01*
X69638116Y-158419800D01*
X69569259Y-158419800D01*
X69713823Y-158275236D01*
X69862700Y-157915816D01*
X69862700Y-157526784D01*
X69713823Y-157167364D01*
X69438736Y-156892277D01*
X69079316Y-156743400D01*
X69056028Y-156743400D01*
X69073157Y-156717765D01*
X69122440Y-156470000D01*
X69122440Y-155865750D01*
X69360000Y-155865750D01*
X69360000Y-156596310D01*
X69456673Y-156829699D01*
X69635302Y-157008327D01*
X69868691Y-157105000D01*
X70219250Y-157105000D01*
X70378000Y-156946250D01*
X70378000Y-155707000D01*
X69518750Y-155707000D01*
X69360000Y-155865750D01*
X69122440Y-155865750D01*
X69122440Y-154690000D01*
X69073157Y-154442235D01*
X69025716Y-154371235D01*
X69110000Y-154167755D01*
X69110000Y-153712245D01*
X68935684Y-153291410D01*
X68613590Y-152969316D01*
X68192755Y-152795000D01*
X67737245Y-152795000D01*
X67316410Y-152969316D01*
X66994316Y-153291410D01*
X66820000Y-153712245D01*
X66820000Y-154167755D01*
X66904284Y-154371235D01*
X66856843Y-154442235D01*
X66807560Y-154690000D01*
X66807560Y-156470000D01*
X66856843Y-156717765D01*
X66997191Y-156927809D01*
X67207235Y-157068157D01*
X67228401Y-157072367D01*
X67228400Y-159059890D01*
X63703199Y-162585092D01*
X63621600Y-162503493D01*
X63621600Y-161680419D01*
X63813484Y-161759900D01*
X64202516Y-161759900D01*
X64561936Y-161611023D01*
X64837023Y-161335936D01*
X64985900Y-160976516D01*
X64985900Y-160587484D01*
X64837023Y-160228064D01*
X64744600Y-160135641D01*
X64744600Y-157083546D01*
X64915000Y-157117440D01*
X65935000Y-157117440D01*
X66182765Y-157068157D01*
X66392809Y-156927809D01*
X66533157Y-156717765D01*
X66582440Y-156470000D01*
X66582440Y-154690000D01*
X66533157Y-154442235D01*
X66485716Y-154371235D01*
X66570000Y-154167755D01*
X66570000Y-153712245D01*
X66395684Y-153291410D01*
X66073590Y-152969316D01*
X65652755Y-152795000D01*
X65197245Y-152795000D01*
X64776410Y-152969316D01*
X64744600Y-153001126D01*
X64744600Y-152338874D01*
X64776410Y-152370684D01*
X65197245Y-152545000D01*
X65652755Y-152545000D01*
X66073590Y-152370684D01*
X66395684Y-152048590D01*
X66570000Y-151627755D01*
X66570000Y-151172245D01*
X66485716Y-150968765D01*
X66533157Y-150897765D01*
X66582440Y-150650000D01*
X66582440Y-149477080D01*
X66807560Y-149702201D01*
X66807560Y-150650000D01*
X66856843Y-150897765D01*
X66904284Y-150968765D01*
X66820000Y-151172245D01*
X66820000Y-151627755D01*
X66994316Y-152048590D01*
X67316410Y-152370684D01*
X67737245Y-152545000D01*
X68192755Y-152545000D01*
X68613590Y-152370684D01*
X68935684Y-152048590D01*
X69110000Y-151627755D01*
X69110000Y-151172245D01*
X69025716Y-150968765D01*
X69073157Y-150897765D01*
X69122440Y-150650000D01*
X69122440Y-148870000D01*
X69073157Y-148622235D01*
X68932809Y-148412191D01*
X68722765Y-148271843D01*
X68475000Y-148222560D01*
X68201601Y-148222560D01*
X68073740Y-148094700D01*
X71005700Y-148094700D01*
X71005700Y-148170590D01*
X71005700Y-148170590D01*
G37*
X71005700Y-148170590D02*
X70953730Y-148222560D01*
X69995000Y-148222560D01*
X69747235Y-148271843D01*
X69537191Y-148412191D01*
X69396843Y-148622235D01*
X69347560Y-148870000D01*
X69347560Y-150650000D01*
X69396843Y-150897765D01*
X69444284Y-150968765D01*
X69360000Y-151172245D01*
X69360000Y-151627755D01*
X69534316Y-152048590D01*
X69856410Y-152370684D01*
X70277245Y-152545000D01*
X70732755Y-152545000D01*
X71153590Y-152370684D01*
X71475684Y-152048590D01*
X71488301Y-152018131D01*
X71488301Y-153321869D01*
X71475684Y-153291410D01*
X71153590Y-152969316D01*
X70732755Y-152795000D01*
X70277245Y-152795000D01*
X69856410Y-152969316D01*
X69534316Y-153291410D01*
X69360000Y-153712245D01*
X69360000Y-154167755D01*
X69442001Y-154365722D01*
X69360000Y-154563690D01*
X69360000Y-155294250D01*
X69518750Y-155453000D01*
X70378000Y-155453000D01*
X70378000Y-155433000D01*
X70632000Y-155433000D01*
X70632000Y-155453000D01*
X70652000Y-155453000D01*
X70652000Y-155707000D01*
X70632000Y-155707000D01*
X70632000Y-156946250D01*
X70790750Y-157105000D01*
X71141309Y-157105000D01*
X71374698Y-157008327D01*
X71522442Y-156860584D01*
X71531039Y-156903806D01*
X71653401Y-157086933D01*
X71653400Y-158169455D01*
X71653400Y-158931460D01*
X71638971Y-159004000D01*
X71653400Y-159076540D01*
X71653400Y-159076543D01*
X71666100Y-159140390D01*
X71666100Y-159452516D01*
X71814977Y-159811936D01*
X72090064Y-160087023D01*
X72449484Y-160235900D01*
X72838516Y-160235900D01*
X73197936Y-160087023D01*
X73473023Y-159811936D01*
X73621900Y-159452516D01*
X73621900Y-159063484D01*
X73581479Y-158965900D01*
X73600516Y-158965900D01*
X73959936Y-158817023D01*
X74235023Y-158541936D01*
X74383900Y-158182516D01*
X74383900Y-157793484D01*
X74235023Y-157434064D01*
X73959936Y-157158977D01*
X73781600Y-157085108D01*
X73781600Y-157072367D01*
X73802765Y-157068157D01*
X74012809Y-156927809D01*
X74153157Y-156717765D01*
X74202440Y-156470000D01*
X74202440Y-154690000D01*
X74153157Y-154442235D01*
X74105716Y-154371235D01*
X74190000Y-154167755D01*
X74190000Y-153771884D01*
X74219974Y-153784300D01*
X74440000Y-153784300D01*
X74440000Y-154167755D01*
X74524284Y-154371235D01*
X74476843Y-154442235D01*
X74427560Y-154690000D01*
X74427560Y-156470000D01*
X74476843Y-156717765D01*
X74617191Y-156927809D01*
X74827235Y-157068157D01*
X74848401Y-157072367D01*
X74848400Y-159501256D01*
X74714100Y-159825484D01*
X74714100Y-160214516D01*
X74862977Y-160573936D01*
X75138064Y-160849023D01*
X75497484Y-160997900D01*
X75886516Y-160997900D01*
X76245936Y-160849023D01*
X76521023Y-160573936D01*
X76669900Y-160214516D01*
X76669900Y-159825484D01*
X76521023Y-159466064D01*
X76321600Y-159266641D01*
X76321600Y-157072367D01*
X76342765Y-157068157D01*
X76552809Y-156927809D01*
X76693157Y-156717765D01*
X76742440Y-156470000D01*
X76742440Y-154690000D01*
X76693157Y-154442235D01*
X76645716Y-154371235D01*
X76730000Y-154167755D01*
X76730000Y-153733500D01*
X76980000Y-153733500D01*
X76980000Y-154167755D01*
X77064284Y-154371235D01*
X77016843Y-154442235D01*
X76967560Y-154690000D01*
X76967560Y-156470000D01*
X77016843Y-156717765D01*
X77157191Y-156927809D01*
X77367235Y-157068157D01*
X77438401Y-157082313D01*
X77438400Y-162448986D01*
X77205000Y-162402560D01*
X76605000Y-162402560D01*
X76357235Y-162451843D01*
X76270000Y-162510132D01*
X76182765Y-162451843D01*
X75935000Y-162402560D01*
X75335000Y-162402560D01*
X75087235Y-162451843D01*
X75059073Y-162470660D01*
X75058861Y-162469593D01*
X74998024Y-162378544D01*
X74937151Y-162287441D01*
X74937149Y-162287439D01*
X74896058Y-162225942D01*
X74834560Y-162184850D01*
X74637900Y-161988190D01*
X74637900Y-161857484D01*
X74489023Y-161498064D01*
X74213936Y-161222977D01*
X73854516Y-161074100D01*
X73465484Y-161074100D01*
X73106064Y-161222977D01*
X72830977Y-161498064D01*
X72682100Y-161857484D01*
X72682100Y-162246516D01*
X72750410Y-162411429D01*
X72547235Y-162451843D01*
X72468028Y-162504768D01*
X72251310Y-162415000D01*
X72110750Y-162415000D01*
X71952000Y-162573750D01*
X71952000Y-163673000D01*
X71972000Y-163673000D01*
X71972000Y-163927000D01*
X71952000Y-163927000D01*
X71952000Y-165026250D01*
X72110750Y-165185000D01*
X72206000Y-165185000D01*
X72206001Y-166650275D01*
X71842012Y-166801044D01*
X71538344Y-167104712D01*
X71445110Y-167329800D01*
X69392800Y-165277491D01*
X69392800Y-164085750D01*
X69620000Y-164085750D01*
X69620000Y-164676309D01*
X69716673Y-164909698D01*
X69895301Y-165088327D01*
X70128690Y-165185000D01*
X70269250Y-165185000D01*
X70428000Y-165026250D01*
X70428000Y-163927000D01*
X70682000Y-163927000D01*
X70682000Y-165026250D01*
X70840750Y-165185000D01*
X70981310Y-165185000D01*
X71190000Y-165098558D01*
X71398690Y-165185000D01*
X71539250Y-165185000D01*
X71698000Y-165026250D01*
X71698000Y-163927000D01*
X70682000Y-163927000D01*
X70428000Y-163927000D01*
X69778750Y-163927000D01*
X69620000Y-164085750D01*
X69392800Y-164085750D01*
X69392800Y-163585040D01*
X69407229Y-163512500D01*
X69392800Y-163439959D01*
X69392800Y-163439956D01*
X69350061Y-163225093D01*
X69343134Y-163214726D01*
X69228351Y-163042941D01*
X69228349Y-163042939D01*
X69187258Y-162981442D01*
X69125760Y-162940350D01*
X69109101Y-162923691D01*
X69620000Y-162923691D01*
X69620000Y-163514250D01*
X69778750Y-163673000D01*
X70428000Y-163673000D01*
X70428000Y-162573750D01*
X70682000Y-162573750D01*
X70682000Y-163673000D01*
X71698000Y-163673000D01*
X71698000Y-162573750D01*
X71539250Y-162415000D01*
X71398690Y-162415000D01*
X71190000Y-162501442D01*
X70981310Y-162415000D01*
X70840750Y-162415000D01*
X70682000Y-162573750D01*
X70428000Y-162573750D01*
X70269250Y-162415000D01*
X70128690Y-162415000D01*
X69895301Y-162511673D01*
X69716673Y-162690302D01*
X69620000Y-162923691D01*
X69109101Y-162923691D01*
X68707000Y-162521591D01*
X68707000Y-161176009D01*
X69507409Y-160375600D01*
X69638116Y-160375600D01*
X69997536Y-160226723D01*
X70272623Y-159951636D01*
X70421500Y-159592216D01*
X70421500Y-159203184D01*
X70272623Y-158843764D01*
X69997536Y-158568677D01*
X69638116Y-158419800D01*
X69569259Y-158419800D01*
X69713823Y-158275236D01*
X69862700Y-157915816D01*
X69862700Y-157526784D01*
X69713823Y-157167364D01*
X69438736Y-156892277D01*
X69079316Y-156743400D01*
X69056028Y-156743400D01*
X69073157Y-156717765D01*
X69122440Y-156470000D01*
X69122440Y-155865750D01*
X69360000Y-155865750D01*
X69360000Y-156596310D01*
X69456673Y-156829699D01*
X69635302Y-157008327D01*
X69868691Y-157105000D01*
X70219250Y-157105000D01*
X70378000Y-156946250D01*
X70378000Y-155707000D01*
X69518750Y-155707000D01*
X69360000Y-155865750D01*
X69122440Y-155865750D01*
X69122440Y-154690000D01*
X69073157Y-154442235D01*
X69025716Y-154371235D01*
X69110000Y-154167755D01*
X69110000Y-153712245D01*
X68935684Y-153291410D01*
X68613590Y-152969316D01*
X68192755Y-152795000D01*
X67737245Y-152795000D01*
X67316410Y-152969316D01*
X66994316Y-153291410D01*
X66820000Y-153712245D01*
X66820000Y-154167755D01*
X66904284Y-154371235D01*
X66856843Y-154442235D01*
X66807560Y-154690000D01*
X66807560Y-156470000D01*
X66856843Y-156717765D01*
X66997191Y-156927809D01*
X67207235Y-157068157D01*
X67228401Y-157072367D01*
X67228400Y-159059890D01*
X63703199Y-162585092D01*
X63621600Y-162503493D01*
X63621600Y-161680419D01*
X63813484Y-161759900D01*
X64202516Y-161759900D01*
X64561936Y-161611023D01*
X64837023Y-161335936D01*
X64985900Y-160976516D01*
X64985900Y-160587484D01*
X64837023Y-160228064D01*
X64744600Y-160135641D01*
X64744600Y-157083546D01*
X64915000Y-157117440D01*
X65935000Y-157117440D01*
X66182765Y-157068157D01*
X66392809Y-156927809D01*
X66533157Y-156717765D01*
X66582440Y-156470000D01*
X66582440Y-154690000D01*
X66533157Y-154442235D01*
X66485716Y-154371235D01*
X66570000Y-154167755D01*
X66570000Y-153712245D01*
X66395684Y-153291410D01*
X66073590Y-152969316D01*
X65652755Y-152795000D01*
X65197245Y-152795000D01*
X64776410Y-152969316D01*
X64744600Y-153001126D01*
X64744600Y-152338874D01*
X64776410Y-152370684D01*
X65197245Y-152545000D01*
X65652755Y-152545000D01*
X66073590Y-152370684D01*
X66395684Y-152048590D01*
X66570000Y-151627755D01*
X66570000Y-151172245D01*
X66485716Y-150968765D01*
X66533157Y-150897765D01*
X66582440Y-150650000D01*
X66582440Y-149477080D01*
X66807560Y-149702201D01*
X66807560Y-150650000D01*
X66856843Y-150897765D01*
X66904284Y-150968765D01*
X66820000Y-151172245D01*
X66820000Y-151627755D01*
X66994316Y-152048590D01*
X67316410Y-152370684D01*
X67737245Y-152545000D01*
X68192755Y-152545000D01*
X68613590Y-152370684D01*
X68935684Y-152048590D01*
X69110000Y-151627755D01*
X69110000Y-151172245D01*
X69025716Y-150968765D01*
X69073157Y-150897765D01*
X69122440Y-150650000D01*
X69122440Y-148870000D01*
X69073157Y-148622235D01*
X68932809Y-148412191D01*
X68722765Y-148271843D01*
X68475000Y-148222560D01*
X68201601Y-148222560D01*
X68073740Y-148094700D01*
X71005700Y-148094700D01*
X71005700Y-148170590D01*
G36*
X95452560Y-150800000D02*
X95452560Y-152950000D01*
X95501843Y-153197765D01*
X95642191Y-153407809D01*
X95780164Y-153500000D01*
X95642191Y-153592191D01*
X95501843Y-153802235D01*
X95452560Y-154050000D01*
X95452560Y-154109000D01*
X95235644Y-154109000D01*
X95081488Y-153954844D01*
X94684726Y-153790500D01*
X94255274Y-153790500D01*
X93858512Y-153954844D01*
X93554844Y-154258512D01*
X93390500Y-154655274D01*
X93390500Y-155084726D01*
X93554844Y-155481488D01*
X93760199Y-155686843D01*
X93730977Y-155716064D01*
X93582100Y-156075484D01*
X93582100Y-156206190D01*
X92282891Y-157505400D01*
X89800359Y-157505400D01*
X89707936Y-157412977D01*
X89471158Y-157314900D01*
X89678716Y-157314900D01*
X90038136Y-157166023D01*
X90125382Y-157078777D01*
X90188691Y-157105000D01*
X90539250Y-157105000D01*
X90698000Y-156946250D01*
X90698000Y-155707000D01*
X90952000Y-155707000D01*
X90952000Y-156946250D01*
X91110750Y-157105000D01*
X91461309Y-157105000D01*
X91694698Y-157008327D01*
X91873327Y-156829699D01*
X91970000Y-156596310D01*
X91970000Y-155865750D01*
X91811250Y-155707000D01*
X90952000Y-155707000D01*
X90698000Y-155707000D01*
X90678000Y-155707000D01*
X90678000Y-155453000D01*
X90698000Y-155453000D01*
X90698000Y-155433000D01*
X90952000Y-155433000D01*
X90952000Y-155453000D01*
X91811250Y-155453000D01*
X91970000Y-155294250D01*
X91970000Y-154563690D01*
X91887999Y-154365722D01*
X91970000Y-154167755D01*
X91970000Y-153712245D01*
X91795684Y-153291410D01*
X91473590Y-152969316D01*
X91090000Y-152810427D01*
X91090000Y-152529573D01*
X91473590Y-152370684D01*
X91795684Y-152048590D01*
X91970000Y-151627755D01*
X91970000Y-151172245D01*
X91885716Y-150968765D01*
X91933157Y-150897765D01*
X91982440Y-150650000D01*
X91982440Y-150649000D01*
X95482595Y-150649000D01*
X95452560Y-150800000D01*
X95452560Y-150800000D01*
G37*
X95452560Y-150800000D02*
X95452560Y-152950000D01*
X95501843Y-153197765D01*
X95642191Y-153407809D01*
X95780164Y-153500000D01*
X95642191Y-153592191D01*
X95501843Y-153802235D01*
X95452560Y-154050000D01*
X95452560Y-154109000D01*
X95235644Y-154109000D01*
X95081488Y-153954844D01*
X94684726Y-153790500D01*
X94255274Y-153790500D01*
X93858512Y-153954844D01*
X93554844Y-154258512D01*
X93390500Y-154655274D01*
X93390500Y-155084726D01*
X93554844Y-155481488D01*
X93760199Y-155686843D01*
X93730977Y-155716064D01*
X93582100Y-156075484D01*
X93582100Y-156206190D01*
X92282891Y-157505400D01*
X89800359Y-157505400D01*
X89707936Y-157412977D01*
X89471158Y-157314900D01*
X89678716Y-157314900D01*
X90038136Y-157166023D01*
X90125382Y-157078777D01*
X90188691Y-157105000D01*
X90539250Y-157105000D01*
X90698000Y-156946250D01*
X90698000Y-155707000D01*
X90952000Y-155707000D01*
X90952000Y-156946250D01*
X91110750Y-157105000D01*
X91461309Y-157105000D01*
X91694698Y-157008327D01*
X91873327Y-156829699D01*
X91970000Y-156596310D01*
X91970000Y-155865750D01*
X91811250Y-155707000D01*
X90952000Y-155707000D01*
X90698000Y-155707000D01*
X90678000Y-155707000D01*
X90678000Y-155453000D01*
X90698000Y-155453000D01*
X90698000Y-155433000D01*
X90952000Y-155433000D01*
X90952000Y-155453000D01*
X91811250Y-155453000D01*
X91970000Y-155294250D01*
X91970000Y-154563690D01*
X91887999Y-154365722D01*
X91970000Y-154167755D01*
X91970000Y-153712245D01*
X91795684Y-153291410D01*
X91473590Y-152969316D01*
X91090000Y-152810427D01*
X91090000Y-152529573D01*
X91473590Y-152370684D01*
X91795684Y-152048590D01*
X91970000Y-151627755D01*
X91970000Y-151172245D01*
X91885716Y-150968765D01*
X91933157Y-150897765D01*
X91982440Y-150650000D01*
X91982440Y-150649000D01*
X95482595Y-150649000D01*
X95452560Y-150800000D01*
G36*
X98315011Y-153563594D02*
X98219836Y-153500000D01*
X98357809Y-153407809D01*
X98414982Y-153322244D01*
X98315011Y-153563594D01*
X98315011Y-153563594D01*
G37*
X98315011Y-153563594D02*
X98219836Y-153500000D01*
X98357809Y-153407809D01*
X98414982Y-153322244D01*
X98315011Y-153563594D01*
G36*
X79193748Y-141985858D02*
X79179605Y-142000000D01*
X79193748Y-142014143D01*
X79014143Y-142193748D01*
X79000000Y-142179605D01*
X78985858Y-142193748D01*
X78806253Y-142014143D01*
X78820395Y-142000000D01*
X78806253Y-141985858D01*
X78985858Y-141806253D01*
X79000000Y-141820395D01*
X79014143Y-141806253D01*
X79193748Y-141985858D01*
X79193748Y-141985858D01*
G37*
X79193748Y-141985858D02*
X79179605Y-142000000D01*
X79193748Y-142014143D01*
X79014143Y-142193748D01*
X79000000Y-142179605D01*
X78985858Y-142193748D01*
X78806253Y-142014143D01*
X78820395Y-142000000D01*
X78806253Y-141985858D01*
X78985858Y-141806253D01*
X79000000Y-141820395D01*
X79014143Y-141806253D01*
X79193748Y-141985858D01*
G04 #@! TD*
M02*
