G04 #@! TF.GenerationSoftware,KiCad,Pcbnew,(5.0.0-3-g5ebb6b6)*
G04 #@! TF.CreationDate,2018-10-24T08:18:16-07:00*
G04 #@! TF.ProjectId,HackPackv4,4861636B5061636B76342E6B69636164,rev?*
G04 #@! TF.SameCoordinates,Original*
G04 #@! TF.FileFunction,Soldermask,Top*
G04 #@! TF.FilePolarity,Negative*
%FSLAX46Y46*%
G04 Gerber Fmt 4.6, Leading zero omitted, Abs format (unit mm)*
G04 Created by KiCad (PCBNEW (5.0.0-3-g5ebb6b6)) date Wednesday, October 24, 2018 at 08:18:16 AM*
%MOMM*%
%LPD*%
G01*
G04 APERTURE LIST*
%ADD10C,2.000000*%
%ADD11R,1.600000X1.000000*%
%ADD12C,1.778000*%
%ADD13R,1.200000X0.900000*%
%ADD14R,1.020000X1.780000*%
%ADD15C,1.020000*%
%ADD16C,1.800000*%
%ADD17R,2.150000X1.800000*%
%ADD18R,1.800000X2.150000*%
%ADD19R,0.650000X1.300000*%
%ADD20C,1.700000*%
%ADD21C,1.700000*%
%ADD22R,0.800000X0.900000*%
%ADD23R,0.600000X1.500000*%
%ADD24R,0.750000X0.800000*%
%ADD25R,0.700000X1.300000*%
%ADD26R,1.300000X0.700000*%
%ADD27R,1.500000X3.600000*%
%ADD28R,1.010000X3.400000*%
%ADD29R,1.500000X4.500000*%
G04 APERTURE END LIST*
D10*
G04 #@! TO.C,SW1*
X79000000Y-125000000D03*
X79000000Y-129500000D03*
X72500000Y-125000000D03*
X72500000Y-129500000D03*
G04 #@! TD*
G04 #@! TO.C,SW3*
X91500000Y-120000000D03*
X91500000Y-124500000D03*
X85000000Y-120000000D03*
X85000000Y-124500000D03*
G04 #@! TD*
G04 #@! TO.C,SW2*
X79000000Y-137500000D03*
X79000000Y-142000000D03*
X72500000Y-137500000D03*
X72500000Y-142000000D03*
G04 #@! TD*
G04 #@! TO.C,SW4*
X91500000Y-132500000D03*
X91500000Y-137000000D03*
X85000000Y-132500000D03*
X85000000Y-137000000D03*
G04 #@! TD*
G04 #@! TO.C,SW6*
X104000000Y-115000000D03*
X104000000Y-119500000D03*
X97500000Y-115000000D03*
X97500000Y-119500000D03*
G04 #@! TD*
G04 #@! TO.C,SW7*
X104000000Y-127500000D03*
X104000000Y-132000000D03*
X97500000Y-127500000D03*
X97500000Y-132000000D03*
G04 #@! TD*
D11*
G04 #@! TO.C,U1*
X53475000Y-109600000D03*
X53475000Y-106400000D03*
X48475000Y-109600000D03*
X48475000Y-106400000D03*
G04 #@! TD*
G04 #@! TO.C,U2*
X85550000Y-109600000D03*
X85550000Y-106400000D03*
X80550000Y-109600000D03*
X80550000Y-106400000D03*
G04 #@! TD*
G04 #@! TO.C,U3*
X101340000Y-109600000D03*
X101340000Y-106400000D03*
X96340000Y-109600000D03*
X96340000Y-106400000D03*
G04 #@! TD*
G04 #@! TO.C,U4*
X37140000Y-109600000D03*
X37140000Y-106400000D03*
X32140000Y-109600000D03*
X32140000Y-106400000D03*
G04 #@! TD*
G04 #@! TO.C,U5*
X69815000Y-109600000D03*
X69815000Y-106400000D03*
X64815000Y-109600000D03*
X64815000Y-106400000D03*
G04 #@! TD*
D12*
G04 #@! TO.C,U7*
X109730000Y-60990000D03*
X109730000Y-63530000D03*
X109730000Y-66070000D03*
X109730000Y-68610000D03*
X109730000Y-71150000D03*
X109730000Y-73690000D03*
X109730000Y-76230000D03*
X109730000Y-78770000D03*
X109730000Y-81310000D03*
X109730000Y-83850000D03*
X109730000Y-86390000D03*
X109730000Y-88930000D03*
X109730000Y-91470000D03*
X109730000Y-94010000D03*
G04 #@! TD*
D13*
G04 #@! TO.C,D1*
X39370000Y-167514000D03*
X39370000Y-170814000D03*
G04 #@! TD*
D14*
G04 #@! TO.C,J1*
X42565000Y-149760000D03*
X42565000Y-155580000D03*
X45105000Y-149760000D03*
X45105000Y-155580000D03*
X47645000Y-149760000D03*
X47645000Y-155580000D03*
X50185000Y-149760000D03*
X50185000Y-155580000D03*
X52725000Y-149760000D03*
X52725000Y-155580000D03*
X55265000Y-149760000D03*
X55265000Y-155580000D03*
X57805000Y-149760000D03*
X57805000Y-155580000D03*
X60345000Y-149760000D03*
X60345000Y-155580000D03*
X62885000Y-149760000D03*
X62885000Y-155580000D03*
X65425000Y-149760000D03*
X65425000Y-155580000D03*
X67965000Y-149760000D03*
X67965000Y-155580000D03*
X70505000Y-149760000D03*
X70505000Y-155580000D03*
X73045000Y-149760000D03*
X73045000Y-155580000D03*
X75585000Y-149760000D03*
X75585000Y-155580000D03*
X78125000Y-149760000D03*
X78125000Y-155580000D03*
X80665000Y-149760000D03*
X80665000Y-155580000D03*
X83205000Y-149760000D03*
X83205000Y-155580000D03*
X85745000Y-149760000D03*
X85745000Y-155580000D03*
X88285000Y-149760000D03*
X88285000Y-155580000D03*
X90825000Y-149760000D03*
X90825000Y-155580000D03*
D15*
X90825000Y-153940000D03*
X88285000Y-153940000D03*
X85745000Y-153940000D03*
X83205000Y-153940000D03*
X80665000Y-153940000D03*
X78125000Y-153940000D03*
X75585000Y-153940000D03*
X73045000Y-153940000D03*
X70505000Y-153940000D03*
X67965000Y-153940000D03*
X65425000Y-153940000D03*
X62885000Y-153940000D03*
X60345000Y-153940000D03*
X57805000Y-153940000D03*
X55265000Y-153940000D03*
X52725000Y-153940000D03*
X50185000Y-153940000D03*
X47645000Y-153940000D03*
X45105000Y-153940000D03*
X42565000Y-153940000D03*
X90825000Y-151400000D03*
X88285000Y-151400000D03*
X85745000Y-151400000D03*
X83205000Y-151400000D03*
X80665000Y-151400000D03*
X78125000Y-151400000D03*
X75585000Y-151400000D03*
X73045000Y-151400000D03*
X70505000Y-151400000D03*
X67965000Y-151400000D03*
X65425000Y-151400000D03*
X62885000Y-151400000D03*
X60345000Y-151400000D03*
X57805000Y-151400000D03*
X55265000Y-151400000D03*
X52725000Y-151400000D03*
X50185000Y-151400000D03*
X47645000Y-151400000D03*
X45105000Y-151400000D03*
D16*
X89555000Y-152670000D03*
D15*
X42565000Y-151400000D03*
D16*
X43835000Y-152670000D03*
G04 #@! TD*
D17*
G04 #@! TO.C,C8*
X88239000Y-161290000D03*
X84989000Y-161290000D03*
G04 #@! TD*
D18*
G04 #@! TO.C,C1*
X97000000Y-151875000D03*
X97000000Y-155125000D03*
G04 #@! TD*
D19*
G04 #@! TO.C,SW5*
X21910000Y-52920000D03*
X21910000Y-57070000D03*
X24060000Y-52920000D03*
X24060000Y-57070000D03*
G04 #@! TD*
D20*
G04 #@! TO.C,J2*
X107315000Y-44450000D03*
X109111051Y-42653949D03*
D21*
X109111051Y-42653949D02*
X109111051Y-42653949D01*
D20*
X109111051Y-46246051D03*
D21*
X109111051Y-46246051D02*
X109111051Y-46246051D01*
D20*
X110907102Y-44450000D03*
D21*
X110907102Y-44450000D02*
X110907102Y-44450000D01*
G04 #@! TD*
D22*
G04 #@! TO.C,Q2*
X98460000Y-158420000D03*
X96560000Y-158420000D03*
X97510000Y-160420000D03*
G04 #@! TD*
D23*
G04 #@! TO.C,U6*
X70555000Y-163800000D03*
X71825000Y-163800000D03*
X73095000Y-163800000D03*
X74365000Y-163800000D03*
X75635000Y-163800000D03*
X76905000Y-163800000D03*
X78175000Y-163800000D03*
X79445000Y-163800000D03*
X79445000Y-169200000D03*
X78175000Y-169200000D03*
X76905000Y-169200000D03*
X75635000Y-169200000D03*
X74365000Y-169200000D03*
X73095000Y-169200000D03*
X71825000Y-169200000D03*
X70555000Y-169200000D03*
G04 #@! TD*
D24*
G04 #@! TO.C,C2*
X61000000Y-106750000D03*
X61000000Y-105250000D03*
G04 #@! TD*
G04 #@! TO.C,C3*
X93000000Y-106750000D03*
X93000000Y-105250000D03*
G04 #@! TD*
G04 #@! TO.C,C4*
X77000000Y-106750000D03*
X77000000Y-105250000D03*
G04 #@! TD*
G04 #@! TO.C,C5*
X45000000Y-106750000D03*
X45000000Y-105250000D03*
G04 #@! TD*
G04 #@! TO.C,C6*
X29000000Y-106750000D03*
X29000000Y-105250000D03*
G04 #@! TD*
G04 #@! TO.C,C7*
X83159600Y-164959600D03*
X83159600Y-166459600D03*
G04 #@! TD*
D22*
G04 #@! TO.C,Q1*
X52766000Y-167910000D03*
X50866000Y-167910000D03*
X51816000Y-169910000D03*
G04 #@! TD*
D25*
G04 #@! TO.C,R1*
X68514000Y-124968000D03*
X66614000Y-124968000D03*
G04 #@! TD*
G04 #@! TO.C,R2*
X68514000Y-137414000D03*
X66614000Y-137414000D03*
G04 #@! TD*
G04 #@! TO.C,R3*
X80950000Y-120000000D03*
X79050000Y-120000000D03*
G04 #@! TD*
G04 #@! TO.C,R4*
X81468000Y-132588000D03*
X79568000Y-132588000D03*
G04 #@! TD*
D26*
G04 #@! TO.C,R5*
X23000000Y-76050000D03*
X23000000Y-77950000D03*
G04 #@! TD*
D25*
G04 #@! TO.C,R6*
X93500000Y-115000000D03*
X91600000Y-115000000D03*
G04 #@! TD*
G04 #@! TO.C,R7*
X93914000Y-127508000D03*
X92014000Y-127508000D03*
G04 #@! TD*
D26*
G04 #@! TO.C,R8*
X52832000Y-164272000D03*
X52832000Y-162372000D03*
G04 #@! TD*
G04 #@! TO.C,R9*
X88138000Y-167198000D03*
X88138000Y-169098000D03*
G04 #@! TD*
G04 #@! TO.C,R10*
X98044000Y-167198000D03*
X98044000Y-169098000D03*
G04 #@! TD*
D25*
G04 #@! TO.C,R11*
X94300000Y-162306000D03*
X96200000Y-162306000D03*
G04 #@! TD*
D27*
G04 #@! TO.C,J3*
X90525000Y-42030000D03*
X100325000Y-42030000D03*
D28*
X92425000Y-49530000D03*
X94425000Y-49530000D03*
X96425000Y-49530000D03*
X98425000Y-49530000D03*
G04 #@! TD*
D10*
G04 #@! TO.C,U8*
X30375000Y-140060000D03*
X28860000Y-121015000D03*
D29*
X38750000Y-122250000D03*
X36750000Y-122250000D03*
X40750000Y-122250000D03*
X34750000Y-122250000D03*
G04 #@! TD*
D10*
G04 #@! TO.C,F1*
X27500000Y-55000000D03*
G04 #@! TD*
G04 #@! TO.C,F2*
X110000000Y-55000000D03*
G04 #@! TD*
G04 #@! TO.C,F3*
X97500000Y-177500000D03*
G04 #@! TD*
M02*
