G04 #@! TF.GenerationSoftware,KiCad,Pcbnew,(5.0.0-3-g5ebb6b6)*
G04 #@! TF.CreationDate,2018-10-24T08:18:16-07:00*
G04 #@! TF.ProjectId,HackPackv4,4861636B5061636B76342E6B69636164,rev?*
G04 #@! TF.SameCoordinates,Original*
G04 #@! TF.FileFunction,Copper,L2,Bot,Signal*
G04 #@! TF.FilePolarity,Positive*
%FSLAX46Y46*%
G04 Gerber Fmt 4.6, Leading zero omitted, Abs format (unit mm)*
G04 Created by KiCad (PCBNEW (5.0.0-3-g5ebb6b6)) date Wednesday, October 24, 2018 at 08:18:16 AM*
%MOMM*%
%LPD*%
G01*
G04 APERTURE LIST*
G04 #@! TA.AperFunction,ComponentPad*
%ADD10C,2.000000*%
G04 #@! TD*
G04 #@! TA.AperFunction,ComponentPad*
%ADD11C,1.778000*%
G04 #@! TD*
G04 #@! TA.AperFunction,ComponentPad*
%ADD12C,1.700000*%
G04 #@! TD*
G04 #@! TA.AperFunction,Conductor*
%ADD13C,1.700000*%
G04 #@! TD*
G04 #@! TA.AperFunction,ViaPad*
%ADD14C,0.889000*%
G04 #@! TD*
G04 #@! TA.AperFunction,ViaPad*
%ADD15C,0.685800*%
G04 #@! TD*
G04 #@! TA.AperFunction,Conductor*
%ADD16C,1.143000*%
G04 #@! TD*
G04 #@! TA.AperFunction,Conductor*
%ADD17C,0.508000*%
G04 #@! TD*
G04 #@! TA.AperFunction,Conductor*
%ADD18C,0.762000*%
G04 #@! TD*
G04 #@! TA.AperFunction,Conductor*
%ADD19C,0.203200*%
G04 #@! TD*
G04 #@! TA.AperFunction,Conductor*
%ADD20C,0.254000*%
G04 #@! TD*
G04 APERTURE END LIST*
D10*
G04 #@! TO.P,SW1,1*
G04 #@! TO.N,Net-(R1-Pad1)*
X79000000Y-125000000D03*
G04 #@! TO.P,SW1,2*
G04 #@! TO.N,+3V3*
X79000000Y-129500000D03*
G04 #@! TO.P,SW1,1*
G04 #@! TO.N,Net-(R1-Pad1)*
X72500000Y-125000000D03*
G04 #@! TO.P,SW1,2*
G04 #@! TO.N,+3V3*
X72500000Y-129500000D03*
G04 #@! TD*
G04 #@! TO.P,SW3,1*
G04 #@! TO.N,Net-(R3-Pad1)*
X91500000Y-120000000D03*
G04 #@! TO.P,SW3,2*
G04 #@! TO.N,+3V3*
X91500000Y-124500000D03*
G04 #@! TO.P,SW3,1*
G04 #@! TO.N,Net-(R3-Pad1)*
X85000000Y-120000000D03*
G04 #@! TO.P,SW3,2*
G04 #@! TO.N,+3V3*
X85000000Y-124500000D03*
G04 #@! TD*
G04 #@! TO.P,SW2,1*
G04 #@! TO.N,Net-(R2-Pad1)*
X79000000Y-137500000D03*
G04 #@! TO.P,SW2,2*
G04 #@! TO.N,+3V3*
X79000000Y-142000000D03*
G04 #@! TO.P,SW2,1*
G04 #@! TO.N,Net-(R2-Pad1)*
X72500000Y-137500000D03*
G04 #@! TO.P,SW2,2*
G04 #@! TO.N,+3V3*
X72500000Y-142000000D03*
G04 #@! TD*
G04 #@! TO.P,SW4,1*
G04 #@! TO.N,Net-(R4-Pad1)*
X91500000Y-132500000D03*
G04 #@! TO.P,SW4,2*
G04 #@! TO.N,+3V3*
X91500000Y-137000000D03*
G04 #@! TO.P,SW4,1*
G04 #@! TO.N,Net-(R4-Pad1)*
X85000000Y-132500000D03*
G04 #@! TO.P,SW4,2*
G04 #@! TO.N,+3V3*
X85000000Y-137000000D03*
G04 #@! TD*
G04 #@! TO.P,SW6,1*
G04 #@! TO.N,Net-(R6-Pad1)*
X104000000Y-115000000D03*
G04 #@! TO.P,SW6,2*
G04 #@! TO.N,+3V3*
X104000000Y-119500000D03*
G04 #@! TO.P,SW6,1*
G04 #@! TO.N,Net-(R6-Pad1)*
X97500000Y-115000000D03*
G04 #@! TO.P,SW6,2*
G04 #@! TO.N,+3V3*
X97500000Y-119500000D03*
G04 #@! TD*
G04 #@! TO.P,SW7,1*
G04 #@! TO.N,Net-(R7-Pad1)*
X104000000Y-127500000D03*
G04 #@! TO.P,SW7,2*
G04 #@! TO.N,+3V3*
X104000000Y-132000000D03*
G04 #@! TO.P,SW7,1*
G04 #@! TO.N,Net-(R7-Pad1)*
X97500000Y-127500000D03*
G04 #@! TO.P,SW7,2*
G04 #@! TO.N,+3V3*
X97500000Y-132000000D03*
G04 #@! TD*
D11*
G04 #@! TO.P,U7,14*
G04 #@! TO.N,/IRQ_TOUCH*
X109730000Y-60990000D03*
G04 #@! TO.P,U7,13*
G04 #@! TO.N,/SPI1_MISO*
X109730000Y-63530000D03*
G04 #@! TO.P,U7,12*
G04 #@! TO.N,/SPI1_MOSI*
X109730000Y-66070000D03*
G04 #@! TO.P,U7,11*
G04 #@! TO.N,/CS_TOUCH*
X109730000Y-68610000D03*
G04 #@! TO.P,U7,10*
G04 #@! TO.N,/SPI1_SCK*
X109730000Y-71150000D03*
G04 #@! TO.P,U7,9*
G04 #@! TO.N,N/C*
X109730000Y-73690000D03*
G04 #@! TO.P,U7,8*
G04 #@! TO.N,/LCD_BKLT*
X109730000Y-76230000D03*
G04 #@! TO.P,U7,7*
G04 #@! TO.N,/SPI0_SCK*
X109730000Y-78770000D03*
G04 #@! TO.P,U7,6*
G04 #@! TO.N,/SPI0_MOSI*
X109730000Y-81310000D03*
G04 #@! TO.P,U7,5*
G04 #@! TO.N,/LCD_DC*
X109730000Y-83850000D03*
G04 #@! TO.P,U7,4*
G04 #@! TO.N,/LCD_RESET*
X109730000Y-86390000D03*
G04 #@! TO.P,U7,3*
G04 #@! TO.N,/SPI0_CE0*
X109730000Y-88930000D03*
G04 #@! TO.P,U7,2*
G04 #@! TO.N,GND*
X109730000Y-91470000D03*
G04 #@! TO.P,U7,1*
G04 #@! TO.N,+5V_LCD*
X109730000Y-94010000D03*
G04 #@! TD*
D12*
G04 #@! TO.P,J2,1*
G04 #@! TO.N,+3V3*
X107315000Y-44450000D03*
G04 #@! TO.P,J2,2*
G04 #@! TO.N,/SDA*
X109111051Y-42653949D03*
D13*
G04 #@! TD*
G04 #@! TO.N,/SDA*
G04 #@! TO.C,J2*
X109111051Y-42653949D02*
X109111051Y-42653949D01*
D12*
G04 #@! TO.P,J2,3*
G04 #@! TO.N,GND*
X109111051Y-46246051D03*
D13*
G04 #@! TD*
G04 #@! TO.N,GND*
G04 #@! TO.C,J2*
X109111051Y-46246051D02*
X109111051Y-46246051D01*
D12*
G04 #@! TO.P,J2,4*
G04 #@! TO.N,/PWR_ON_OFF*
X110907102Y-44450000D03*
D13*
G04 #@! TD*
G04 #@! TO.N,/PWR_ON_OFF*
G04 #@! TO.C,J2*
X110907102Y-44450000D02*
X110907102Y-44450000D01*
D14*
G04 #@! TO.N,+5V*
X90500000Y-163000000D03*
X91000000Y-173500000D03*
X107330000Y-164840000D03*
X93020000Y-145790000D03*
G04 #@! TO.N,GND*
X103187500Y-107848400D03*
X43713400Y-159156400D03*
X50114200Y-147967700D03*
X56489600Y-160553400D03*
X66840100Y-148297900D03*
X74434700Y-152704800D03*
X82702400Y-168351200D03*
X72453500Y-167716200D03*
X86010000Y-152670000D03*
X94470000Y-154870000D03*
X87110000Y-143260000D03*
X96290000Y-102110000D03*
X32130000Y-101400000D03*
X34870000Y-117350000D03*
G04 #@! TO.N,+3V3*
X38862000Y-118618000D03*
X96380300Y-46189900D03*
X68922900Y-145491200D03*
X69405500Y-148145500D03*
X71970900Y-165544500D03*
X77952600Y-165557200D03*
D15*
G04 #@! TO.N,/SDA*
X89484200Y-156337000D03*
X85750400Y-157187900D03*
X85483700Y-147828000D03*
G04 #@! TO.N,/PWR_ON_OFF*
X82994500Y-157607000D03*
X25540000Y-51660000D03*
X103580000Y-46120000D03*
G04 #@! TO.N,/CS_TOUCH*
X81610200Y-152666700D03*
G04 #@! TO.N,/LED_DATA*
X77978000Y-146558000D03*
X35814000Y-110998000D03*
G04 #@! TO.N,/LCD_RESET*
X75692000Y-160020000D03*
X89154000Y-159258000D03*
G04 #@! TO.N,/LCD_DC*
X73406000Y-157988000D03*
G04 #@! TO.N,/LCD_BKLT*
X94560000Y-156270000D03*
X98460000Y-155020000D03*
X72644000Y-159258000D03*
X89154000Y-158242000D03*
G04 #@! TO.N,/Y_B*
X71983600Y-148234400D03*
X80276700Y-127850900D03*
G04 #@! TO.N,/SPI0_CE0*
X92540000Y-160470000D03*
X64008000Y-160782000D03*
G04 #@! TO.N,/SPI1_MISO*
X74930000Y-166878000D03*
X47498000Y-166116000D03*
X99750000Y-154750000D03*
X75819000Y-170815000D03*
X85280500Y-158051500D03*
G04 #@! TO.N,/SELECT_B*
X65500000Y-112400000D03*
X75650000Y-124300000D03*
G04 #@! TO.N,/SPI1_MOSI*
X76454000Y-166116000D03*
X46736000Y-165354000D03*
X99180000Y-155550000D03*
X86258400Y-157988000D03*
G04 #@! TO.N,/SPI1_SCK*
X37084000Y-154940000D03*
X73660000Y-162052000D03*
G04 #@! TO.N,Net-(Q1-Pad1)*
X54510000Y-167940000D03*
X87770000Y-171560000D03*
G04 #@! TO.N,Net-(Q2-Pad1)*
X98298000Y-164846000D03*
X98180000Y-162010000D03*
G04 #@! TO.N,/IRQ_TOUCH*
X79880000Y-161980000D03*
X82050000Y-162550000D03*
X99250500Y-153860500D03*
X84328000Y-158051500D03*
G04 #@! TO.N,Net-(U6-Pad2)*
X69443600Y-159397700D03*
X47910000Y-130920000D03*
G04 #@! TO.N,Net-(U6-Pad1)*
X47170000Y-136230000D03*
X68884800Y-157721300D03*
G04 #@! TO.N,/Tx*
X82423000Y-145605500D03*
X94437200Y-54813200D03*
G04 #@! TO.N,/Rx*
X92557600Y-54851300D03*
X81203800Y-145770600D03*
G04 #@! TD*
D16*
G04 #@! TO.N,+5V*
X90500000Y-163000000D02*
X91000000Y-163500000D01*
X91000000Y-163500000D02*
X91000000Y-173500000D01*
X107330000Y-160100000D02*
X107330000Y-164840000D01*
X93020000Y-145790000D02*
X107330000Y-160100000D01*
D17*
G04 #@! TO.N,GND*
X109730000Y-91470000D02*
X109730000Y-91378500D01*
X107569000Y-47788102D02*
X109111051Y-46246051D01*
X107569000Y-89217500D02*
X107569000Y-47788102D01*
X109730000Y-91378500D02*
X107569000Y-89217500D01*
D16*
X109730000Y-91470000D02*
X106916700Y-91470000D01*
X103251000Y-107848400D02*
X103187500Y-107848400D01*
X105727500Y-105371900D02*
X103251000Y-107848400D01*
X105727500Y-92659200D02*
X105727500Y-105371900D01*
X106916700Y-91470000D02*
X105727500Y-92659200D01*
D18*
X45974000Y-159156400D02*
X43713400Y-159156400D01*
X48882300Y-156248100D02*
X45974000Y-159156400D01*
X48882300Y-149199600D02*
X48882300Y-156248100D01*
X50114200Y-147967700D02*
X48882300Y-149199600D01*
X52184300Y-156248100D02*
X48882300Y-156248100D01*
X56489600Y-160553400D02*
X52184300Y-156248100D01*
X69126100Y-150583900D02*
X66840100Y-148297900D01*
X74434700Y-152704800D02*
X74371200Y-152641300D01*
X74371200Y-152641300D02*
X69964300Y-152641300D01*
X69964300Y-152641300D02*
X69126100Y-151803100D01*
X69126100Y-151803100D02*
X69126100Y-150583900D01*
D17*
X78701900Y-172351700D02*
X82702400Y-168351200D01*
X74091800Y-172351700D02*
X78701900Y-172351700D01*
X72313800Y-170573700D02*
X74091800Y-172351700D01*
X72313800Y-167855900D02*
X72313800Y-170573700D01*
X72453500Y-167716200D02*
X72313800Y-167855900D01*
D18*
X86350000Y-152670000D02*
X86010000Y-152670000D01*
X87060000Y-153380000D02*
X86350000Y-152670000D01*
X87060000Y-154920000D02*
X87060000Y-153380000D01*
X87450000Y-155310000D02*
X87060000Y-154920000D01*
X94030000Y-155310000D02*
X87450000Y-155310000D01*
X94470000Y-154870000D02*
X94030000Y-155310000D01*
D16*
X96290000Y-102110000D02*
X94540000Y-103860000D01*
X94540000Y-103860000D02*
X94540000Y-111370422D01*
X94540000Y-111370422D02*
X92379796Y-113530626D01*
X92379796Y-113530626D02*
X92379796Y-116120204D01*
X92379796Y-116120204D02*
X89080000Y-119420000D01*
X89080000Y-119420000D02*
X89080000Y-124443018D01*
X89080000Y-124443018D02*
X83170000Y-130353018D01*
X83170000Y-130353018D02*
X83170000Y-139320000D01*
X83170000Y-139320000D02*
X87110000Y-143260000D01*
X32130000Y-101400000D02*
X29390000Y-104140000D01*
X29390000Y-104140000D02*
X29390000Y-111870000D01*
X29390000Y-111870000D02*
X34870000Y-117350000D01*
D17*
G04 #@! TO.N,+3V3*
X55840000Y-129500000D02*
X72500000Y-129500000D01*
X36322000Y-109982000D02*
X55840000Y-129500000D01*
X31242000Y-109982000D02*
X36322000Y-109982000D01*
X30480000Y-110744000D02*
X31242000Y-109982000D01*
X30480000Y-110744000D02*
X33274000Y-110744000D01*
X38862000Y-116332000D02*
X38862000Y-118618000D01*
X33274000Y-110744000D02*
X38862000Y-116332000D01*
X72500000Y-142000000D02*
X79000000Y-142000000D01*
X85000000Y-137000000D02*
X91500000Y-137000000D01*
X91500000Y-124500000D02*
X91552400Y-124500000D01*
X96380300Y-44704000D02*
X96380300Y-46189900D01*
X97370900Y-43713400D02*
X96380300Y-44704000D01*
X103289100Y-43713400D02*
X97370900Y-43713400D01*
X105981498Y-46405798D02*
X103289100Y-43713400D01*
X105981498Y-89496902D02*
X105981498Y-46405798D01*
X103758998Y-91719402D02*
X105981498Y-89496902D01*
X103758998Y-104190800D02*
X103758998Y-91719402D01*
X93814900Y-114134898D02*
X103758998Y-104190800D01*
X93814900Y-122237500D02*
X93814900Y-114134898D01*
X91552400Y-124500000D02*
X93814900Y-122237500D01*
X68922900Y-147662900D02*
X68922900Y-145491200D01*
X69405500Y-148145500D02*
X68922900Y-147662900D01*
X72237600Y-165277800D02*
X71970900Y-165544500D01*
X77673200Y-165277800D02*
X72237600Y-165277800D01*
X77952600Y-165557200D02*
X77673200Y-165277800D01*
D19*
G04 #@! TO.N,/SDA*
X89484200Y-156337000D02*
X89255600Y-156565600D01*
X89255600Y-156565600D02*
X86372700Y-156565600D01*
X86372700Y-156565600D02*
X85750400Y-157187900D01*
X109111051Y-42653949D02*
X108214702Y-41757600D01*
X85483700Y-147828000D02*
X94399098Y-138912602D01*
X94399098Y-138912602D02*
X94399098Y-114554000D01*
X94399098Y-114554000D02*
X104317800Y-104635298D01*
X104317800Y-104635298D02*
X104317800Y-92062300D01*
X104317800Y-92062300D02*
X106540300Y-89839800D01*
X106540300Y-89839800D02*
X106540300Y-46050200D01*
X106540300Y-46050200D02*
X105384600Y-44894500D01*
X105384600Y-44894500D02*
X105384600Y-42913300D01*
X105384600Y-42913300D02*
X106540300Y-41757600D01*
X106540300Y-41757600D02*
X108214702Y-41757600D01*
G04 #@! TO.N,/PWR_ON_OFF*
X110907102Y-44450000D02*
X109220000Y-44450000D01*
X82296000Y-156908500D02*
X82994500Y-157607000D01*
X82296000Y-151003000D02*
X82296000Y-156908500D01*
X84328000Y-148971000D02*
X82296000Y-151003000D01*
X85534500Y-148971000D02*
X84328000Y-148971000D01*
X94805500Y-139700000D02*
X85534500Y-148971000D01*
X94805500Y-114744500D02*
X94805500Y-139700000D01*
X104775000Y-104775000D02*
X94805500Y-114744500D01*
X104775000Y-92265500D02*
X104775000Y-104775000D01*
X106997500Y-90043000D02*
X104775000Y-92265500D01*
X106997500Y-48831500D02*
X106997500Y-90043000D01*
X106997500Y-46672500D02*
X106997500Y-48831500D01*
X109220000Y-44450000D02*
X106997500Y-46672500D01*
X30120000Y-51660000D02*
X25540000Y-51660000D01*
X31460000Y-53000000D02*
X30120000Y-51660000D01*
X96700000Y-53000000D02*
X31460000Y-53000000D01*
X103580000Y-46120000D02*
X96700000Y-53000000D01*
G04 #@! TO.N,/CS_TOUCH*
X112090200Y-66249800D02*
X109730000Y-68610000D01*
X112090200Y-43980100D02*
X112090200Y-66249800D01*
X109448600Y-41338500D02*
X112090200Y-43980100D01*
X106337100Y-41338500D02*
X109448600Y-41338500D01*
X104571800Y-43103800D02*
X106337100Y-41338500D01*
X97104200Y-43103800D02*
X104571800Y-43103800D01*
X95605600Y-44602400D02*
X97104200Y-43103800D01*
X95605600Y-46482000D02*
X95605600Y-44602400D01*
X96100900Y-46977300D02*
X95605600Y-46482000D01*
X96786700Y-46977300D02*
X96100900Y-46977300D01*
X97167700Y-46596300D02*
X96786700Y-46977300D01*
X97167700Y-44706866D02*
X97167700Y-46596300D01*
X97602364Y-44272202D02*
X97167700Y-44706866D01*
X102997002Y-44272202D02*
X97602364Y-44272202D01*
X105395867Y-46671067D02*
X102997002Y-44272202D01*
X105395867Y-89231629D02*
X105395867Y-46671067D01*
X103200196Y-91427300D02*
X105395867Y-89231629D01*
X103200196Y-103949504D02*
X103200196Y-91427300D01*
X93256098Y-113893602D02*
X103200196Y-103949504D01*
X93256098Y-121818400D02*
X93256098Y-113893602D01*
X91911331Y-123163167D02*
X93256098Y-121818400D01*
X90692133Y-123163167D02*
X91911331Y-123163167D01*
X89979500Y-123875800D02*
X90692133Y-123163167D01*
X89979500Y-124993400D02*
X89979500Y-123875800D01*
X93954600Y-128968500D02*
X89979500Y-124993400D01*
X93954600Y-138366500D02*
X93954600Y-128968500D01*
X81889598Y-150431502D02*
X93954600Y-138366500D01*
X81889598Y-152387302D02*
X81889598Y-150431502D01*
X81610200Y-152666700D02*
X81889598Y-152387302D01*
G04 #@! TO.N,/LED_DATA*
X71374000Y-146558000D02*
X77978000Y-146558000D01*
X35814000Y-110998000D02*
X71374000Y-146558000D01*
G04 #@! TO.N,/LCD_RESET*
X75946000Y-160274000D02*
X75692000Y-160020000D01*
X88138000Y-160274000D02*
X75946000Y-160274000D01*
X89154000Y-159258000D02*
X88138000Y-160274000D01*
G04 #@! TO.N,/LCD_DC*
X109730000Y-83850000D02*
X110520000Y-83850000D01*
X103500000Y-163500000D02*
X103500000Y-163444000D01*
X106500000Y-166500000D02*
X103500000Y-163500000D01*
X110000000Y-166500000D02*
X106500000Y-166500000D01*
X112014000Y-164486000D02*
X110000000Y-166500000D01*
X112014000Y-160782000D02*
X112014000Y-164486000D01*
X110520000Y-83850000D02*
X112014000Y-85344000D01*
X112014000Y-85344000D02*
X112014000Y-160782000D01*
X74168000Y-158750000D02*
X73406000Y-157988000D01*
X87122000Y-158750000D02*
X74168000Y-158750000D01*
X88392000Y-157480000D02*
X87122000Y-158750000D01*
X97536000Y-157480000D02*
X88392000Y-157480000D01*
X103886000Y-163830000D02*
X103500000Y-163444000D01*
X103500000Y-163444000D02*
X97536000Y-157480000D01*
G04 #@! TO.N,/LCD_BKLT*
X97210000Y-156270000D02*
X94560000Y-156270000D01*
X98460000Y-155020000D02*
X97210000Y-156270000D01*
X75946000Y-159258000D02*
X72644000Y-159258000D01*
X76200000Y-159512000D02*
X75946000Y-159258000D01*
X87884000Y-159512000D02*
X76200000Y-159512000D01*
X89154000Y-158242000D02*
X87884000Y-159512000D01*
G04 #@! TO.N,/Y_B*
X72796400Y-147421600D02*
X71983600Y-148234400D01*
X78790800Y-147421600D02*
X72796400Y-147421600D01*
X80314800Y-145897600D02*
X78790800Y-147421600D01*
X80314800Y-127889000D02*
X80314800Y-145897600D01*
X80276700Y-127850900D02*
X80314800Y-127889000D01*
G04 #@! TO.N,/SPI0_CE0*
X64109598Y-160680402D02*
X64008000Y-160782000D01*
X92329598Y-160680402D02*
X64109598Y-160680402D01*
X92540000Y-160470000D02*
X92329598Y-160680402D01*
G04 #@! TO.N,/SPI1_MISO*
X48260000Y-166878000D02*
X74930000Y-166878000D01*
X47498000Y-166116000D02*
X48260000Y-166878000D01*
X94283500Y-149923500D02*
X91376500Y-149923500D01*
X98920000Y-154560000D02*
X94283500Y-149923500D01*
X99560000Y-154560000D02*
X98920000Y-154560000D01*
X99750000Y-154750000D02*
X99560000Y-154560000D01*
X74930000Y-169926000D02*
X74930000Y-166878000D01*
X75819000Y-170815000D02*
X74930000Y-169926000D01*
X84645500Y-157416500D02*
X85280500Y-158051500D01*
X84645500Y-151193500D02*
X84645500Y-157416500D01*
X85915500Y-149923500D02*
X84645500Y-151193500D01*
X91376500Y-149923500D02*
X85915500Y-149923500D01*
G04 #@! TO.N,/SELECT_B*
X65750000Y-112650000D02*
X65500000Y-112400000D01*
X74300000Y-112650000D02*
X65750000Y-112650000D01*
X75650000Y-114000000D02*
X74300000Y-112650000D01*
X75650000Y-124300000D02*
X75650000Y-114000000D01*
G04 #@! TO.N,/SPI1_MOSI*
X74676000Y-166116000D02*
X76454000Y-166116000D01*
X74422000Y-166370000D02*
X74676000Y-166116000D01*
X49276000Y-166370000D02*
X74422000Y-166370000D01*
X48260000Y-165354000D02*
X49276000Y-166370000D01*
X46736000Y-165354000D02*
X48260000Y-165354000D01*
X97707200Y-157022800D02*
X88274460Y-157022800D01*
X99180000Y-155550000D02*
X97707200Y-157022800D01*
X87309260Y-157988000D02*
X86258400Y-157988000D01*
X88274460Y-157022800D02*
X87309260Y-157988000D01*
G04 #@! TO.N,/SPI1_SCK*
X109730000Y-71150000D02*
X110266000Y-71150000D01*
X110266000Y-71150000D02*
X112420402Y-73304402D01*
X112420402Y-73304402D02*
X112420402Y-160000000D01*
X37084000Y-158750000D02*
X37084000Y-154940000D01*
X42926000Y-164592000D02*
X37084000Y-158750000D01*
X48514000Y-164592000D02*
X42926000Y-164592000D01*
X49784000Y-165862000D02*
X48514000Y-164592000D01*
X60452000Y-165862000D02*
X49784000Y-165862000D01*
X65024000Y-161290000D02*
X60452000Y-165862000D01*
X71882000Y-161290000D02*
X89400000Y-161290000D01*
X89400000Y-161290000D02*
X89408000Y-161290000D01*
X112420402Y-166079598D02*
X112420402Y-160000000D01*
X103640000Y-166640000D02*
X105000000Y-168000000D01*
X105000000Y-168000000D02*
X110500000Y-168000000D01*
X110500000Y-168000000D02*
X112420402Y-166079598D01*
X103632000Y-166632000D02*
X103640000Y-166640000D01*
X71882000Y-161290000D02*
X65024000Y-161290000D01*
X112420402Y-160000000D02*
X112420402Y-161137598D01*
X72898000Y-161290000D02*
X71882000Y-161290000D01*
X73660000Y-162052000D02*
X72898000Y-161290000D01*
X89400000Y-161290000D02*
X90110000Y-161290000D01*
X95460000Y-166640000D02*
X103640000Y-166640000D01*
X90110000Y-161290000D02*
X95460000Y-166640000D01*
G04 #@! TO.N,Net-(Q1-Pad1)*
X59480502Y-172910502D02*
X54510000Y-167940000D01*
X86419498Y-172910502D02*
X59480502Y-172910502D01*
X87770000Y-171560000D02*
X86419498Y-172910502D01*
G04 #@! TO.N,Net-(Q2-Pad1)*
X98298000Y-162128000D02*
X98298000Y-164846000D01*
X98180000Y-162010000D02*
X98298000Y-162128000D01*
G04 #@! TO.N,/IRQ_TOUCH*
X81480000Y-161980000D02*
X79880000Y-161980000D01*
X82050000Y-162550000D02*
X81480000Y-161980000D01*
X99250500Y-153860500D02*
X94907098Y-149517098D01*
X94907098Y-149517098D02*
X85369402Y-149517098D01*
X85369402Y-149517098D02*
X84201000Y-150685500D01*
X84201000Y-150685500D02*
X84201000Y-157924500D01*
X84201000Y-157924500D02*
X84328000Y-158051500D01*
G04 #@! TO.N,Net-(U6-Pad2)*
X69443600Y-159397700D02*
X69583300Y-159258000D01*
X69583300Y-159258000D02*
X69583300Y-155371800D01*
X69583300Y-155371800D02*
X69291200Y-155079700D01*
X69291200Y-155079700D02*
X69291200Y-153441400D01*
X69291200Y-153441400D02*
X68529198Y-152679398D01*
X68529198Y-152679398D02*
X60083698Y-152679398D01*
X60083698Y-152679398D02*
X58635900Y-151231600D01*
X58635900Y-141645900D02*
X58635900Y-151231600D01*
X47910000Y-130920000D02*
X58635900Y-141645900D01*
G04 #@! TO.N,Net-(U6-Pad1)*
X47170000Y-136230000D02*
X56250000Y-145310000D01*
X56250000Y-145310000D02*
X56261000Y-145321000D01*
X57912000Y-153085800D02*
X56261000Y-151434800D01*
X56250000Y-151423800D02*
X56261000Y-151434800D01*
X56250000Y-145310000D02*
X56250000Y-151423800D01*
X68884800Y-157721300D02*
X68859400Y-157695900D01*
X68859400Y-157695900D02*
X68859400Y-153631900D01*
X68859400Y-153631900D02*
X68313300Y-153085800D01*
X68313300Y-153085800D02*
X57912000Y-153085800D01*
G04 #@! TO.N,/Tx*
X81203802Y-144386302D02*
X82423000Y-145605500D01*
X81203802Y-131079938D02*
X81203802Y-144386302D01*
X86842600Y-125441140D02*
X81203802Y-131079938D01*
X86842600Y-110112240D02*
X86842600Y-125441140D01*
X99999800Y-96955040D02*
X86842600Y-110112240D01*
X99999800Y-60375800D02*
X99999800Y-96955040D01*
X94437200Y-54813200D02*
X99999800Y-60375800D01*
G04 #@! TO.N,/Rx*
X92557600Y-55041800D02*
X92557600Y-54851300D01*
X99568000Y-62052200D02*
X92557600Y-55041800D01*
X99568000Y-96812100D02*
X99568000Y-62052200D01*
X86423500Y-109956600D02*
X99568000Y-96812100D01*
X86423500Y-125285500D02*
X86423500Y-109956600D01*
X80797400Y-130911600D02*
X86423500Y-125285500D01*
X80797400Y-145364200D02*
X80797400Y-130911600D01*
X81203800Y-145770600D02*
X80797400Y-145364200D01*
G04 #@! TD*
D20*
G04 #@! TO.N,GND*
G36*
X105867541Y-40766349D02*
X105867539Y-40766351D01*
X105806042Y-40807442D01*
X105764950Y-40868940D01*
X104266691Y-42367200D01*
X97176738Y-42367200D01*
X97104199Y-42352771D01*
X97031660Y-42367200D01*
X97031656Y-42367200D01*
X96816793Y-42409939D01*
X96573142Y-42572742D01*
X96532049Y-42634242D01*
X95136040Y-44030251D01*
X95074543Y-44071342D01*
X95033452Y-44132839D01*
X95033449Y-44132842D01*
X94911739Y-44314994D01*
X94854571Y-44602400D01*
X94869001Y-44674945D01*
X94869000Y-46409459D01*
X94854571Y-46482000D01*
X94869000Y-46554540D01*
X94869000Y-46554543D01*
X94911739Y-46769406D01*
X95074542Y-47013058D01*
X95136042Y-47054151D01*
X95528750Y-47446860D01*
X95569842Y-47508358D01*
X95631339Y-47549449D01*
X95631341Y-47549451D01*
X95813493Y-47671161D01*
X96028356Y-47713900D01*
X96028359Y-47713900D01*
X96100900Y-47728329D01*
X96173440Y-47713900D01*
X96714160Y-47713900D01*
X96786700Y-47728329D01*
X96859240Y-47713900D01*
X96859244Y-47713900D01*
X97074107Y-47671161D01*
X97317758Y-47508358D01*
X97358852Y-47446857D01*
X97637255Y-47168453D01*
X97698758Y-47127358D01*
X97861561Y-46883707D01*
X97904300Y-46668844D01*
X97904300Y-46668840D01*
X97918729Y-46596301D01*
X97904300Y-46523762D01*
X97904300Y-45011975D01*
X97907473Y-45008802D01*
X102691893Y-45008802D01*
X103000066Y-45316975D01*
X102750977Y-45566064D01*
X102602100Y-45925484D01*
X102602100Y-46056191D01*
X96394891Y-52263400D01*
X31765110Y-52263400D01*
X30692151Y-51190442D01*
X30651058Y-51128942D01*
X30407407Y-50966139D01*
X30192544Y-50923400D01*
X30192540Y-50923400D01*
X30120000Y-50908971D01*
X30047460Y-50923400D01*
X26186359Y-50923400D01*
X26093936Y-50830977D01*
X25734516Y-50682100D01*
X25345484Y-50682100D01*
X24986064Y-50830977D01*
X24710977Y-51106064D01*
X24562100Y-51465484D01*
X24562100Y-51854516D01*
X24710977Y-52213936D01*
X24986064Y-52489023D01*
X25345484Y-52637900D01*
X25734516Y-52637900D01*
X26093936Y-52489023D01*
X26186359Y-52396600D01*
X29814891Y-52396600D01*
X30887850Y-53469560D01*
X30928942Y-53531058D01*
X30990439Y-53572149D01*
X30990441Y-53572151D01*
X31172593Y-53693861D01*
X31387456Y-53736600D01*
X31387459Y-53736600D01*
X31459999Y-53751029D01*
X31532540Y-53736600D01*
X96627460Y-53736600D01*
X96700000Y-53751029D01*
X96772540Y-53736600D01*
X96772544Y-53736600D01*
X96987407Y-53693861D01*
X97231058Y-53531058D01*
X97272151Y-53469558D01*
X103643809Y-47097900D01*
X103774516Y-47097900D01*
X104133936Y-46949023D01*
X104383025Y-46699934D01*
X104659268Y-46976177D01*
X104659267Y-88926519D01*
X102730636Y-90855151D01*
X102669139Y-90896242D01*
X102628048Y-90957739D01*
X102628045Y-90957742D01*
X102506335Y-91139894D01*
X102449167Y-91427300D01*
X102463597Y-91499845D01*
X102463596Y-103644394D01*
X92786538Y-113321453D01*
X92725041Y-113362544D01*
X92683950Y-113424041D01*
X92683947Y-113424044D01*
X92562237Y-113606196D01*
X92505069Y-113893602D01*
X92519499Y-113966147D01*
X92519498Y-118707259D01*
X92426153Y-118613914D01*
X91825222Y-118365000D01*
X91174778Y-118365000D01*
X90573847Y-118613914D01*
X90113914Y-119073847D01*
X89865000Y-119674778D01*
X89865000Y-120325222D01*
X90113914Y-120926153D01*
X90573847Y-121386086D01*
X91174778Y-121635000D01*
X91825222Y-121635000D01*
X92426153Y-121386086D01*
X92519498Y-121292741D01*
X92519498Y-121513290D01*
X91606222Y-122426567D01*
X90764673Y-122426567D01*
X90692132Y-122412138D01*
X90619592Y-122426567D01*
X90619589Y-122426567D01*
X90404726Y-122469306D01*
X90222574Y-122591016D01*
X90222572Y-122591018D01*
X90161075Y-122632109D01*
X90119983Y-122693607D01*
X89509940Y-123303651D01*
X89448443Y-123344742D01*
X89407352Y-123406239D01*
X89407349Y-123406242D01*
X89285639Y-123588394D01*
X89228471Y-123875800D01*
X89242901Y-123948345D01*
X89242900Y-124920859D01*
X89228471Y-124993400D01*
X89242900Y-125065940D01*
X89242900Y-125065943D01*
X89285639Y-125280806D01*
X89448442Y-125524458D01*
X89509942Y-125565551D01*
X93218001Y-129273610D01*
X93218000Y-138061391D01*
X81420038Y-149859353D01*
X81358541Y-149900444D01*
X81317450Y-149961941D01*
X81317447Y-149961944D01*
X81195737Y-150144096D01*
X81152293Y-150362505D01*
X80892755Y-150255000D01*
X80437245Y-150255000D01*
X80016410Y-150429316D01*
X79694316Y-150751410D01*
X79520000Y-151172245D01*
X79520000Y-151627755D01*
X79694316Y-152048590D01*
X80016410Y-152370684D01*
X80437245Y-152545000D01*
X80632300Y-152545000D01*
X80632300Y-152795000D01*
X80437245Y-152795000D01*
X80016410Y-152969316D01*
X79694316Y-153291410D01*
X79520000Y-153712245D01*
X79520000Y-154167755D01*
X79694316Y-154588590D01*
X80016410Y-154910684D01*
X80437245Y-155085000D01*
X80892755Y-155085000D01*
X81313590Y-154910684D01*
X81559401Y-154664873D01*
X81559401Y-156835955D01*
X81544971Y-156908500D01*
X81602139Y-157195906D01*
X81723849Y-157378058D01*
X81723852Y-157378061D01*
X81764943Y-157439558D01*
X81826440Y-157480649D01*
X82016600Y-157670809D01*
X82016600Y-157801516D01*
X82104365Y-158013400D01*
X74473110Y-158013400D01*
X74383900Y-157924190D01*
X74383900Y-157793484D01*
X74235023Y-157434064D01*
X73959936Y-157158977D01*
X73600516Y-157010100D01*
X73211484Y-157010100D01*
X72852064Y-157158977D01*
X72576977Y-157434064D01*
X72428100Y-157793484D01*
X72428100Y-158182516D01*
X72468521Y-158280100D01*
X72449484Y-158280100D01*
X72090064Y-158428977D01*
X71814977Y-158704064D01*
X71666100Y-159063484D01*
X71666100Y-159452516D01*
X71814977Y-159811936D01*
X71946843Y-159943802D01*
X70275868Y-159943802D01*
X70421500Y-159592216D01*
X70421500Y-159203184D01*
X70319900Y-158957900D01*
X70319900Y-155444340D01*
X70334329Y-155371800D01*
X70319900Y-155299259D01*
X70319900Y-155299256D01*
X70277282Y-155085000D01*
X70732755Y-155085000D01*
X71153590Y-154910684D01*
X71475684Y-154588590D01*
X71650000Y-154167755D01*
X71650000Y-153712245D01*
X71900000Y-153712245D01*
X71900000Y-154167755D01*
X72074316Y-154588590D01*
X72396410Y-154910684D01*
X72817245Y-155085000D01*
X73272755Y-155085000D01*
X73693590Y-154910684D01*
X74015684Y-154588590D01*
X74190000Y-154167755D01*
X74190000Y-153712245D01*
X74440000Y-153712245D01*
X74440000Y-154167755D01*
X74614316Y-154588590D01*
X74936410Y-154910684D01*
X75357245Y-155085000D01*
X75812755Y-155085000D01*
X76233590Y-154910684D01*
X76555684Y-154588590D01*
X76730000Y-154167755D01*
X76730000Y-153712245D01*
X76980000Y-153712245D01*
X76980000Y-154167755D01*
X77154316Y-154588590D01*
X77476410Y-154910684D01*
X77897245Y-155085000D01*
X78352755Y-155085000D01*
X78773590Y-154910684D01*
X79095684Y-154588590D01*
X79270000Y-154167755D01*
X79270000Y-153712245D01*
X79095684Y-153291410D01*
X78773590Y-152969316D01*
X78352755Y-152795000D01*
X77897245Y-152795000D01*
X77476410Y-152969316D01*
X77154316Y-153291410D01*
X76980000Y-153712245D01*
X76730000Y-153712245D01*
X76555684Y-153291410D01*
X76233590Y-152969316D01*
X75812755Y-152795000D01*
X75357245Y-152795000D01*
X74936410Y-152969316D01*
X74614316Y-153291410D01*
X74440000Y-153712245D01*
X74190000Y-153712245D01*
X74015684Y-153291410D01*
X73693590Y-152969316D01*
X73272755Y-152795000D01*
X72817245Y-152795000D01*
X72396410Y-152969316D01*
X72074316Y-153291410D01*
X71900000Y-153712245D01*
X71650000Y-153712245D01*
X71475684Y-153291410D01*
X71153590Y-152969316D01*
X70732755Y-152795000D01*
X70277245Y-152795000D01*
X69860525Y-152967612D01*
X69822258Y-152910342D01*
X69760760Y-152869250D01*
X69101348Y-152209839D01*
X69060256Y-152148340D01*
X68925785Y-152058489D01*
X68935684Y-152048590D01*
X69110000Y-151627755D01*
X69110000Y-151172245D01*
X69360000Y-151172245D01*
X69360000Y-151627755D01*
X69534316Y-152048590D01*
X69856410Y-152370684D01*
X70277245Y-152545000D01*
X70732755Y-152545000D01*
X71153590Y-152370684D01*
X71475684Y-152048590D01*
X71650000Y-151627755D01*
X71650000Y-151172245D01*
X71900000Y-151172245D01*
X71900000Y-151627755D01*
X72074316Y-152048590D01*
X72396410Y-152370684D01*
X72817245Y-152545000D01*
X73272755Y-152545000D01*
X73693590Y-152370684D01*
X74015684Y-152048590D01*
X74190000Y-151627755D01*
X74190000Y-151172245D01*
X74440000Y-151172245D01*
X74440000Y-151627755D01*
X74614316Y-152048590D01*
X74936410Y-152370684D01*
X75357245Y-152545000D01*
X75812755Y-152545000D01*
X76233590Y-152370684D01*
X76555684Y-152048590D01*
X76730000Y-151627755D01*
X76730000Y-151172245D01*
X76980000Y-151172245D01*
X76980000Y-151627755D01*
X77154316Y-152048590D01*
X77476410Y-152370684D01*
X77897245Y-152545000D01*
X78352755Y-152545000D01*
X78773590Y-152370684D01*
X79095684Y-152048590D01*
X79270000Y-151627755D01*
X79270000Y-151172245D01*
X79095684Y-150751410D01*
X78773590Y-150429316D01*
X78352755Y-150255000D01*
X77897245Y-150255000D01*
X77476410Y-150429316D01*
X77154316Y-150751410D01*
X76980000Y-151172245D01*
X76730000Y-151172245D01*
X76555684Y-150751410D01*
X76233590Y-150429316D01*
X75812755Y-150255000D01*
X75357245Y-150255000D01*
X74936410Y-150429316D01*
X74614316Y-150751410D01*
X74440000Y-151172245D01*
X74190000Y-151172245D01*
X74015684Y-150751410D01*
X73693590Y-150429316D01*
X73272755Y-150255000D01*
X72817245Y-150255000D01*
X72396410Y-150429316D01*
X72074316Y-150751410D01*
X71900000Y-151172245D01*
X71650000Y-151172245D01*
X71475684Y-150751410D01*
X71153590Y-150429316D01*
X70732755Y-150255000D01*
X70277245Y-150255000D01*
X69856410Y-150429316D01*
X69534316Y-150751410D01*
X69360000Y-151172245D01*
X69110000Y-151172245D01*
X68935684Y-150751410D01*
X68613590Y-150429316D01*
X68192755Y-150255000D01*
X67737245Y-150255000D01*
X67316410Y-150429316D01*
X66994316Y-150751410D01*
X66820000Y-151172245D01*
X66820000Y-151627755D01*
X66950495Y-151942798D01*
X66439505Y-151942798D01*
X66570000Y-151627755D01*
X66570000Y-151172245D01*
X66395684Y-150751410D01*
X66073590Y-150429316D01*
X65652755Y-150255000D01*
X65197245Y-150255000D01*
X64776410Y-150429316D01*
X64454316Y-150751410D01*
X64280000Y-151172245D01*
X64280000Y-151627755D01*
X64410495Y-151942798D01*
X63899505Y-151942798D01*
X64030000Y-151627755D01*
X64030000Y-151172245D01*
X63855684Y-150751410D01*
X63533590Y-150429316D01*
X63112755Y-150255000D01*
X62657245Y-150255000D01*
X62236410Y-150429316D01*
X61914316Y-150751410D01*
X61740000Y-151172245D01*
X61740000Y-151627755D01*
X61870495Y-151942798D01*
X61359505Y-151942798D01*
X61490000Y-151627755D01*
X61490000Y-151172245D01*
X61315684Y-150751410D01*
X60993590Y-150429316D01*
X60572755Y-150255000D01*
X60117245Y-150255000D01*
X59696410Y-150429316D01*
X59374316Y-150751410D01*
X59372500Y-150755794D01*
X59372500Y-141718440D01*
X59386929Y-141645899D01*
X59372500Y-141573357D01*
X59372500Y-141573356D01*
X59329761Y-141358493D01*
X59208051Y-141176341D01*
X59208049Y-141176339D01*
X59166958Y-141114842D01*
X59105461Y-141073751D01*
X48887900Y-130856191D01*
X48887900Y-130725484D01*
X48739023Y-130366064D01*
X48463936Y-130090977D01*
X48104516Y-129942100D01*
X47715484Y-129942100D01*
X47356064Y-130090977D01*
X47080977Y-130366064D01*
X46932100Y-130725484D01*
X46932100Y-131114516D01*
X47080977Y-131473936D01*
X47356064Y-131749023D01*
X47715484Y-131897900D01*
X47846191Y-131897900D01*
X57899300Y-141951010D01*
X57899301Y-150255000D01*
X57577245Y-150255000D01*
X57156410Y-150429316D01*
X56986600Y-150599126D01*
X56986600Y-145448841D01*
X57012029Y-145320999D01*
X56954861Y-145033594D01*
X56833150Y-144851442D01*
X56822155Y-144840447D01*
X56822151Y-144840441D01*
X56822149Y-144840439D01*
X56781058Y-144778942D01*
X56719561Y-144737851D01*
X48147900Y-136166191D01*
X48147900Y-136035484D01*
X47999023Y-135676064D01*
X47723936Y-135400977D01*
X47364516Y-135252100D01*
X46975484Y-135252100D01*
X46616064Y-135400977D01*
X46340977Y-135676064D01*
X46192100Y-136035484D01*
X46192100Y-136424516D01*
X46340977Y-136783936D01*
X46616064Y-137059023D01*
X46975484Y-137207900D01*
X47106191Y-137207900D01*
X55513400Y-145615110D01*
X55513401Y-150263552D01*
X55492755Y-150255000D01*
X55037245Y-150255000D01*
X54616410Y-150429316D01*
X54294316Y-150751410D01*
X54120000Y-151172245D01*
X54120000Y-151627755D01*
X54294316Y-152048590D01*
X54616410Y-152370684D01*
X55037245Y-152545000D01*
X55492755Y-152545000D01*
X55913590Y-152370684D01*
X56034382Y-152249892D01*
X56955108Y-153170618D01*
X56834316Y-153291410D01*
X56660000Y-153712245D01*
X56660000Y-154167755D01*
X56834316Y-154588590D01*
X57156410Y-154910684D01*
X57577245Y-155085000D01*
X58032755Y-155085000D01*
X58453590Y-154910684D01*
X58775684Y-154588590D01*
X58950000Y-154167755D01*
X58950000Y-153822400D01*
X59200000Y-153822400D01*
X59200000Y-154167755D01*
X59374316Y-154588590D01*
X59696410Y-154910684D01*
X60117245Y-155085000D01*
X60572755Y-155085000D01*
X60993590Y-154910684D01*
X61315684Y-154588590D01*
X61490000Y-154167755D01*
X61490000Y-153822400D01*
X61740000Y-153822400D01*
X61740000Y-154167755D01*
X61914316Y-154588590D01*
X62236410Y-154910684D01*
X62657245Y-155085000D01*
X63112755Y-155085000D01*
X63533590Y-154910684D01*
X63855684Y-154588590D01*
X64030000Y-154167755D01*
X64030000Y-153822400D01*
X64280000Y-153822400D01*
X64280000Y-154167755D01*
X64454316Y-154588590D01*
X64776410Y-154910684D01*
X65197245Y-155085000D01*
X65652755Y-155085000D01*
X66073590Y-154910684D01*
X66395684Y-154588590D01*
X66570000Y-154167755D01*
X66570000Y-153822400D01*
X66820000Y-153822400D01*
X66820000Y-154167755D01*
X66994316Y-154588590D01*
X67316410Y-154910684D01*
X67737245Y-155085000D01*
X68122801Y-155085000D01*
X68122800Y-157100341D01*
X68055777Y-157167364D01*
X67906900Y-157526784D01*
X67906900Y-157915816D01*
X68055777Y-158275236D01*
X68330864Y-158550323D01*
X68690284Y-158699200D01*
X68759141Y-158699200D01*
X68614577Y-158843764D01*
X68465700Y-159203184D01*
X68465700Y-159592216D01*
X68611332Y-159943802D01*
X64539786Y-159943802D01*
X64202516Y-159804100D01*
X63813484Y-159804100D01*
X63454064Y-159952977D01*
X63178977Y-160228064D01*
X63030100Y-160587484D01*
X63030100Y-160976516D01*
X63178977Y-161335936D01*
X63454064Y-161611023D01*
X63600579Y-161671712D01*
X60146891Y-165125400D01*
X50089110Y-165125400D01*
X49086150Y-164122441D01*
X49045058Y-164060942D01*
X48801407Y-163898139D01*
X48586544Y-163855400D01*
X48586540Y-163855400D01*
X48514000Y-163840971D01*
X48441460Y-163855400D01*
X43231110Y-163855400D01*
X37820600Y-158444891D01*
X37820600Y-155586359D01*
X37913023Y-155493936D01*
X38061900Y-155134516D01*
X38061900Y-154745484D01*
X37913023Y-154386064D01*
X37637936Y-154110977D01*
X37278516Y-153962100D01*
X36889484Y-153962100D01*
X36530064Y-154110977D01*
X36254977Y-154386064D01*
X36106100Y-154745484D01*
X36106100Y-155134516D01*
X36254977Y-155493936D01*
X36347401Y-155586360D01*
X36347400Y-158677460D01*
X36332971Y-158750000D01*
X36347400Y-158822540D01*
X36347400Y-158822543D01*
X36390139Y-159037406D01*
X36552942Y-159281058D01*
X36614442Y-159322151D01*
X42353851Y-165061561D01*
X42394942Y-165123058D01*
X42456439Y-165164149D01*
X42456441Y-165164151D01*
X42626529Y-165277800D01*
X42638593Y-165285861D01*
X42853456Y-165328600D01*
X42853459Y-165328600D01*
X42926000Y-165343029D01*
X42998540Y-165328600D01*
X45758100Y-165328600D01*
X45758100Y-165548516D01*
X45906977Y-165907936D01*
X46182064Y-166183023D01*
X46526363Y-166325637D01*
X46668977Y-166669936D01*
X46944064Y-166945023D01*
X47303484Y-167093900D01*
X47434190Y-167093900D01*
X47687850Y-167347560D01*
X47728942Y-167409058D01*
X47790439Y-167450149D01*
X47790441Y-167450151D01*
X47818564Y-167468942D01*
X47972593Y-167571861D01*
X48187456Y-167614600D01*
X48187459Y-167614600D01*
X48260000Y-167629029D01*
X48332540Y-167614600D01*
X53586314Y-167614600D01*
X53532100Y-167745484D01*
X53532100Y-168134516D01*
X53680977Y-168493936D01*
X53956064Y-168769023D01*
X54315484Y-168917900D01*
X54446191Y-168917900D01*
X58908351Y-173380060D01*
X58949444Y-173441560D01*
X59193095Y-173604363D01*
X59407958Y-173647102D01*
X59407961Y-173647102D01*
X59480501Y-173661531D01*
X59553042Y-173647102D01*
X86346958Y-173647102D01*
X86419498Y-173661531D01*
X86492038Y-173647102D01*
X86492042Y-173647102D01*
X86706905Y-173604363D01*
X86950556Y-173441560D01*
X86991649Y-173380060D01*
X87833810Y-172537900D01*
X87964516Y-172537900D01*
X88323936Y-172389023D01*
X88599023Y-172113936D01*
X88747900Y-171754516D01*
X88747900Y-171365484D01*
X88599023Y-171006064D01*
X88323936Y-170730977D01*
X87964516Y-170582100D01*
X87575484Y-170582100D01*
X87216064Y-170730977D01*
X86940977Y-171006064D01*
X86792100Y-171365484D01*
X86792100Y-171496190D01*
X86114389Y-172173902D01*
X59785611Y-172173902D01*
X55487900Y-167876191D01*
X55487900Y-167745484D01*
X55433686Y-167614600D01*
X74193401Y-167614600D01*
X74193400Y-169853460D01*
X74178971Y-169926000D01*
X74193400Y-169998540D01*
X74193400Y-169998543D01*
X74236139Y-170213406D01*
X74398942Y-170457058D01*
X74460442Y-170498151D01*
X74841100Y-170878809D01*
X74841100Y-171009516D01*
X74989977Y-171368936D01*
X75265064Y-171644023D01*
X75624484Y-171792900D01*
X76013516Y-171792900D01*
X76372936Y-171644023D01*
X76648023Y-171368936D01*
X76796900Y-171009516D01*
X76796900Y-170620484D01*
X76648023Y-170261064D01*
X76372936Y-169985977D01*
X76013516Y-169837100D01*
X75882809Y-169837100D01*
X75666600Y-169620891D01*
X75666600Y-167524359D01*
X75759023Y-167431936D01*
X75907900Y-167072516D01*
X75907900Y-166948269D01*
X76259484Y-167093900D01*
X76648516Y-167093900D01*
X77007936Y-166945023D01*
X77283023Y-166669936D01*
X77361385Y-166480753D01*
X77737874Y-166636700D01*
X78167326Y-166636700D01*
X78564088Y-166472356D01*
X78867756Y-166168688D01*
X79032100Y-165771926D01*
X79032100Y-165342474D01*
X78867756Y-164945712D01*
X78564088Y-164642044D01*
X78167326Y-164477700D01*
X78075922Y-164477700D01*
X78020070Y-164440381D01*
X77760756Y-164388800D01*
X77760755Y-164388800D01*
X77673200Y-164371384D01*
X77585645Y-164388800D01*
X72325155Y-164388800D01*
X72237600Y-164371384D01*
X72150045Y-164388800D01*
X72150044Y-164388800D01*
X71890730Y-164440381D01*
X71853885Y-164465000D01*
X71756174Y-164465000D01*
X71359412Y-164629344D01*
X71055744Y-164933012D01*
X70891400Y-165329774D01*
X70891400Y-165633400D01*
X61722309Y-165633400D01*
X65329109Y-162026600D01*
X72592891Y-162026600D01*
X72682100Y-162115809D01*
X72682100Y-162246516D01*
X72830977Y-162605936D01*
X73106064Y-162881023D01*
X73465484Y-163029900D01*
X73854516Y-163029900D01*
X74213936Y-162881023D01*
X74489023Y-162605936D01*
X74637900Y-162246516D01*
X74637900Y-162026600D01*
X78902100Y-162026600D01*
X78902100Y-162174516D01*
X79050977Y-162533936D01*
X79326064Y-162809023D01*
X79685484Y-162957900D01*
X80074516Y-162957900D01*
X80433936Y-162809023D01*
X80526359Y-162716600D01*
X81072100Y-162716600D01*
X81072100Y-162744516D01*
X81220977Y-163103936D01*
X81496064Y-163379023D01*
X81855484Y-163527900D01*
X82244516Y-163527900D01*
X82603936Y-163379023D01*
X82879023Y-163103936D01*
X83027900Y-162744516D01*
X83027900Y-162355484D01*
X82891671Y-162026600D01*
X89785156Y-162026600D01*
X89630163Y-162130163D01*
X89363503Y-162529248D01*
X89269864Y-163000000D01*
X89363503Y-163470752D01*
X89562853Y-163769101D01*
X89793500Y-163999748D01*
X89793501Y-173618826D01*
X89863504Y-173970753D01*
X90130163Y-174369838D01*
X90529248Y-174636497D01*
X91000000Y-174730136D01*
X91470753Y-174636497D01*
X91869838Y-174369838D01*
X92136497Y-173970753D01*
X92206500Y-173618826D01*
X92206500Y-164428209D01*
X94887851Y-167109561D01*
X94928942Y-167171058D01*
X94990439Y-167212149D01*
X94990441Y-167212151D01*
X95067141Y-167263400D01*
X95172593Y-167333861D01*
X95387456Y-167376600D01*
X95387459Y-167376600D01*
X95460000Y-167391029D01*
X95532540Y-167376600D01*
X103334891Y-167376600D01*
X104427849Y-168469558D01*
X104468942Y-168531058D01*
X104712593Y-168693861D01*
X104927456Y-168736600D01*
X104927460Y-168736600D01*
X104999999Y-168751029D01*
X105072538Y-168736600D01*
X110427460Y-168736600D01*
X110500000Y-168751029D01*
X110572540Y-168736600D01*
X110572544Y-168736600D01*
X110787407Y-168693861D01*
X111031058Y-168531058D01*
X111072151Y-168469558D01*
X112765001Y-166776709D01*
X112765001Y-184869484D01*
X112694125Y-185663637D01*
X112491820Y-186403140D01*
X112161758Y-187095128D01*
X111714371Y-187717733D01*
X111163808Y-188251266D01*
X110527456Y-188678876D01*
X109825437Y-188987042D01*
X109074681Y-189167282D01*
X108424888Y-189215000D01*
X25030505Y-189215000D01*
X24236363Y-189144125D01*
X23496860Y-188941820D01*
X22804872Y-188611758D01*
X22182267Y-188164371D01*
X21648734Y-187613808D01*
X21221124Y-186977456D01*
X20912958Y-186275437D01*
X20732718Y-185524681D01*
X20685000Y-184874888D01*
X20685000Y-151172245D01*
X41420000Y-151172245D01*
X41420000Y-151627755D01*
X41594316Y-152048590D01*
X41916410Y-152370684D01*
X42300000Y-152529573D01*
X42300000Y-152810427D01*
X41916410Y-152969316D01*
X41594316Y-153291410D01*
X41420000Y-153712245D01*
X41420000Y-154167755D01*
X41594316Y-154588590D01*
X41916410Y-154910684D01*
X42337245Y-155085000D01*
X42792755Y-155085000D01*
X43213590Y-154910684D01*
X43535684Y-154588590D01*
X43694573Y-154205000D01*
X43975427Y-154205000D01*
X44134316Y-154588590D01*
X44456410Y-154910684D01*
X44877245Y-155085000D01*
X45332755Y-155085000D01*
X45753590Y-154910684D01*
X46075684Y-154588590D01*
X46250000Y-154167755D01*
X46250000Y-153712245D01*
X46500000Y-153712245D01*
X46500000Y-154167755D01*
X46674316Y-154588590D01*
X46996410Y-154910684D01*
X47417245Y-155085000D01*
X47872755Y-155085000D01*
X48293590Y-154910684D01*
X48615684Y-154588590D01*
X48790000Y-154167755D01*
X48790000Y-153712245D01*
X49040000Y-153712245D01*
X49040000Y-154167755D01*
X49214316Y-154588590D01*
X49536410Y-154910684D01*
X49957245Y-155085000D01*
X50412755Y-155085000D01*
X50833590Y-154910684D01*
X51155684Y-154588590D01*
X51330000Y-154167755D01*
X51330000Y-153712245D01*
X51580000Y-153712245D01*
X51580000Y-154167755D01*
X51754316Y-154588590D01*
X52076410Y-154910684D01*
X52497245Y-155085000D01*
X52952755Y-155085000D01*
X53373590Y-154910684D01*
X53695684Y-154588590D01*
X53870000Y-154167755D01*
X53870000Y-153712245D01*
X54120000Y-153712245D01*
X54120000Y-154167755D01*
X54294316Y-154588590D01*
X54616410Y-154910684D01*
X55037245Y-155085000D01*
X55492755Y-155085000D01*
X55913590Y-154910684D01*
X56235684Y-154588590D01*
X56410000Y-154167755D01*
X56410000Y-153712245D01*
X56235684Y-153291410D01*
X55913590Y-152969316D01*
X55492755Y-152795000D01*
X55037245Y-152795000D01*
X54616410Y-152969316D01*
X54294316Y-153291410D01*
X54120000Y-153712245D01*
X53870000Y-153712245D01*
X53695684Y-153291410D01*
X53373590Y-152969316D01*
X52952755Y-152795000D01*
X52497245Y-152795000D01*
X52076410Y-152969316D01*
X51754316Y-153291410D01*
X51580000Y-153712245D01*
X51330000Y-153712245D01*
X51155684Y-153291410D01*
X50833590Y-152969316D01*
X50412755Y-152795000D01*
X49957245Y-152795000D01*
X49536410Y-152969316D01*
X49214316Y-153291410D01*
X49040000Y-153712245D01*
X48790000Y-153712245D01*
X48615684Y-153291410D01*
X48293590Y-152969316D01*
X47872755Y-152795000D01*
X47417245Y-152795000D01*
X46996410Y-152969316D01*
X46674316Y-153291410D01*
X46500000Y-153712245D01*
X46250000Y-153712245D01*
X46075684Y-153291410D01*
X45753590Y-152969316D01*
X45370000Y-152810427D01*
X45370000Y-152529573D01*
X45753590Y-152370684D01*
X46075684Y-152048590D01*
X46250000Y-151627755D01*
X46250000Y-151172245D01*
X46500000Y-151172245D01*
X46500000Y-151627755D01*
X46674316Y-152048590D01*
X46996410Y-152370684D01*
X47417245Y-152545000D01*
X47872755Y-152545000D01*
X48293590Y-152370684D01*
X48615684Y-152048590D01*
X48790000Y-151627755D01*
X48790000Y-151172245D01*
X49040000Y-151172245D01*
X49040000Y-151627755D01*
X49214316Y-152048590D01*
X49536410Y-152370684D01*
X49957245Y-152545000D01*
X50412755Y-152545000D01*
X50833590Y-152370684D01*
X51155684Y-152048590D01*
X51330000Y-151627755D01*
X51330000Y-151172245D01*
X51580000Y-151172245D01*
X51580000Y-151627755D01*
X51754316Y-152048590D01*
X52076410Y-152370684D01*
X52497245Y-152545000D01*
X52952755Y-152545000D01*
X53373590Y-152370684D01*
X53695684Y-152048590D01*
X53870000Y-151627755D01*
X53870000Y-151172245D01*
X53695684Y-150751410D01*
X53373590Y-150429316D01*
X52952755Y-150255000D01*
X52497245Y-150255000D01*
X52076410Y-150429316D01*
X51754316Y-150751410D01*
X51580000Y-151172245D01*
X51330000Y-151172245D01*
X51155684Y-150751410D01*
X50833590Y-150429316D01*
X50412755Y-150255000D01*
X49957245Y-150255000D01*
X49536410Y-150429316D01*
X49214316Y-150751410D01*
X49040000Y-151172245D01*
X48790000Y-151172245D01*
X48615684Y-150751410D01*
X48293590Y-150429316D01*
X47872755Y-150255000D01*
X47417245Y-150255000D01*
X46996410Y-150429316D01*
X46674316Y-150751410D01*
X46500000Y-151172245D01*
X46250000Y-151172245D01*
X46075684Y-150751410D01*
X45753590Y-150429316D01*
X45332755Y-150255000D01*
X44877245Y-150255000D01*
X44456410Y-150429316D01*
X44134316Y-150751410D01*
X43975427Y-151135000D01*
X43694573Y-151135000D01*
X43535684Y-150751410D01*
X43213590Y-150429316D01*
X42792755Y-150255000D01*
X42337245Y-150255000D01*
X41916410Y-150429316D01*
X41594316Y-150751410D01*
X41420000Y-151172245D01*
X20685000Y-151172245D01*
X20685000Y-139734778D01*
X28740000Y-139734778D01*
X28740000Y-140385222D01*
X28988914Y-140986153D01*
X29448847Y-141446086D01*
X30049778Y-141695000D01*
X30700222Y-141695000D01*
X31301153Y-141446086D01*
X31761086Y-140986153D01*
X32010000Y-140385222D01*
X32010000Y-139734778D01*
X31761086Y-139133847D01*
X31301153Y-138673914D01*
X30700222Y-138425000D01*
X30049778Y-138425000D01*
X29448847Y-138673914D01*
X28988914Y-139133847D01*
X28740000Y-139734778D01*
X20685000Y-139734778D01*
X20685000Y-120689778D01*
X27225000Y-120689778D01*
X27225000Y-121340222D01*
X27473914Y-121941153D01*
X27933847Y-122401086D01*
X28534778Y-122650000D01*
X29185222Y-122650000D01*
X29786153Y-122401086D01*
X30246086Y-121941153D01*
X30495000Y-121340222D01*
X30495000Y-120689778D01*
X30246086Y-120088847D01*
X29786153Y-119628914D01*
X29185222Y-119380000D01*
X28534778Y-119380000D01*
X27933847Y-119628914D01*
X27473914Y-120088847D01*
X27225000Y-120689778D01*
X20685000Y-120689778D01*
X20685000Y-110744000D01*
X29573584Y-110744000D01*
X29642581Y-111090870D01*
X29839067Y-111384933D01*
X30133130Y-111581419D01*
X30392444Y-111633000D01*
X30392445Y-111633000D01*
X30480000Y-111650416D01*
X30567555Y-111633000D01*
X32905765Y-111633000D01*
X37973000Y-116700236D01*
X37973001Y-117980355D01*
X37946844Y-118006512D01*
X37782500Y-118403274D01*
X37782500Y-118832726D01*
X37946844Y-119229488D01*
X38250512Y-119533156D01*
X38647274Y-119697500D01*
X39076726Y-119697500D01*
X39473488Y-119533156D01*
X39777156Y-119229488D01*
X39941500Y-118832726D01*
X39941500Y-118403274D01*
X39777156Y-118006512D01*
X39751000Y-117980356D01*
X39751000Y-116419550D01*
X39768415Y-116331999D01*
X39751000Y-116244448D01*
X39751000Y-116244444D01*
X39699419Y-115985130D01*
X39578596Y-115804305D01*
X68338934Y-144564644D01*
X68311412Y-144576044D01*
X68007744Y-144879712D01*
X67843400Y-145276474D01*
X67843400Y-145705926D01*
X68007744Y-146102688D01*
X68033901Y-146128845D01*
X68033900Y-147575345D01*
X68016484Y-147662900D01*
X68033900Y-147750455D01*
X68085481Y-148009769D01*
X68281967Y-148303833D01*
X68326000Y-148333255D01*
X68326000Y-148360226D01*
X68490344Y-148756988D01*
X68794012Y-149060656D01*
X69190774Y-149225000D01*
X69620226Y-149225000D01*
X70016988Y-149060656D01*
X70320656Y-148756988D01*
X70485000Y-148360226D01*
X70485000Y-147930774D01*
X70320656Y-147534012D01*
X70016988Y-147230344D01*
X69811900Y-147145394D01*
X69811900Y-146128844D01*
X69838056Y-146102688D01*
X69849456Y-146075166D01*
X70801851Y-147027561D01*
X70842942Y-147089058D01*
X70904439Y-147130149D01*
X70904441Y-147130151D01*
X71054391Y-147230344D01*
X71086593Y-147251861D01*
X71301456Y-147294600D01*
X71301459Y-147294600D01*
X71373999Y-147309029D01*
X71446540Y-147294600D01*
X71697103Y-147294600D01*
X71429664Y-147405377D01*
X71154577Y-147680464D01*
X71005700Y-148039884D01*
X71005700Y-148428916D01*
X71154577Y-148788336D01*
X71429664Y-149063423D01*
X71789084Y-149212300D01*
X72178116Y-149212300D01*
X72537536Y-149063423D01*
X72812623Y-148788336D01*
X72961500Y-148428916D01*
X72961500Y-148298210D01*
X73101510Y-148158200D01*
X78718260Y-148158200D01*
X78790800Y-148172629D01*
X78863340Y-148158200D01*
X78863344Y-148158200D01*
X79078207Y-148115461D01*
X79321858Y-147952658D01*
X79362951Y-147891158D01*
X80653132Y-146600977D01*
X81009284Y-146748500D01*
X81398316Y-146748500D01*
X81757736Y-146599623D01*
X81907087Y-146450272D01*
X82228484Y-146583400D01*
X82617516Y-146583400D01*
X82976936Y-146434523D01*
X83252023Y-146159436D01*
X83400900Y-145800016D01*
X83400900Y-145410984D01*
X83252023Y-145051564D01*
X82976936Y-144776477D01*
X82617516Y-144627600D01*
X82486809Y-144627600D01*
X81940402Y-144081193D01*
X81940402Y-136674778D01*
X83365000Y-136674778D01*
X83365000Y-137325222D01*
X83613914Y-137926153D01*
X84073847Y-138386086D01*
X84674778Y-138635000D01*
X85325222Y-138635000D01*
X85926153Y-138386086D01*
X86386086Y-137926153D01*
X86401475Y-137889000D01*
X90098525Y-137889000D01*
X90113914Y-137926153D01*
X90573847Y-138386086D01*
X91174778Y-138635000D01*
X91825222Y-138635000D01*
X92426153Y-138386086D01*
X92886086Y-137926153D01*
X93135000Y-137325222D01*
X93135000Y-136674778D01*
X92886086Y-136073847D01*
X92426153Y-135613914D01*
X91825222Y-135365000D01*
X91174778Y-135365000D01*
X90573847Y-135613914D01*
X90113914Y-136073847D01*
X90098525Y-136111000D01*
X86401475Y-136111000D01*
X86386086Y-136073847D01*
X85926153Y-135613914D01*
X85325222Y-135365000D01*
X84674778Y-135365000D01*
X84073847Y-135613914D01*
X83613914Y-136073847D01*
X83365000Y-136674778D01*
X81940402Y-136674778D01*
X81940402Y-132174778D01*
X83365000Y-132174778D01*
X83365000Y-132825222D01*
X83613914Y-133426153D01*
X84073847Y-133886086D01*
X84674778Y-134135000D01*
X85325222Y-134135000D01*
X85926153Y-133886086D01*
X86386086Y-133426153D01*
X86635000Y-132825222D01*
X86635000Y-132174778D01*
X89865000Y-132174778D01*
X89865000Y-132825222D01*
X90113914Y-133426153D01*
X90573847Y-133886086D01*
X91174778Y-134135000D01*
X91825222Y-134135000D01*
X92426153Y-133886086D01*
X92886086Y-133426153D01*
X93135000Y-132825222D01*
X93135000Y-132174778D01*
X92886086Y-131573847D01*
X92426153Y-131113914D01*
X91825222Y-130865000D01*
X91174778Y-130865000D01*
X90573847Y-131113914D01*
X90113914Y-131573847D01*
X89865000Y-132174778D01*
X86635000Y-132174778D01*
X86386086Y-131573847D01*
X85926153Y-131113914D01*
X85325222Y-130865000D01*
X84674778Y-130865000D01*
X84073847Y-131113914D01*
X83613914Y-131573847D01*
X83365000Y-132174778D01*
X81940402Y-132174778D01*
X81940402Y-131385047D01*
X87312161Y-126013289D01*
X87373658Y-125972198D01*
X87414749Y-125910701D01*
X87414751Y-125910699D01*
X87536461Y-125728547D01*
X87544673Y-125687261D01*
X87579200Y-125513684D01*
X87579200Y-125513681D01*
X87593629Y-125441140D01*
X87579200Y-125368600D01*
X87579200Y-110417349D01*
X100469361Y-97527189D01*
X100530858Y-97486098D01*
X100571949Y-97424601D01*
X100571951Y-97424599D01*
X100693661Y-97242447D01*
X100736400Y-97027584D01*
X100736400Y-97027581D01*
X100750829Y-96955040D01*
X100736400Y-96882500D01*
X100736400Y-60448340D01*
X100750829Y-60375799D01*
X100736400Y-60303257D01*
X100736400Y-60303256D01*
X100693661Y-60088393D01*
X100530858Y-59844742D01*
X100469358Y-59803649D01*
X95415100Y-54749391D01*
X95415100Y-54618684D01*
X95266223Y-54259264D01*
X94991136Y-53984177D01*
X94631716Y-53835300D01*
X94242684Y-53835300D01*
X93883264Y-53984177D01*
X93608177Y-54259264D01*
X93489509Y-54545753D01*
X93386623Y-54297364D01*
X93111536Y-54022277D01*
X92752116Y-53873400D01*
X92363084Y-53873400D01*
X92003664Y-54022277D01*
X91728577Y-54297364D01*
X91579700Y-54656784D01*
X91579700Y-55045816D01*
X91728577Y-55405236D01*
X92003664Y-55680323D01*
X92261011Y-55786920D01*
X98831401Y-62357311D01*
X98831400Y-96506990D01*
X85953940Y-109384451D01*
X85892443Y-109425542D01*
X85851352Y-109487039D01*
X85851349Y-109487042D01*
X85729639Y-109669194D01*
X85672471Y-109956600D01*
X85686901Y-110029145D01*
X85686900Y-118514812D01*
X85325222Y-118365000D01*
X84674778Y-118365000D01*
X84073847Y-118613914D01*
X83613914Y-119073847D01*
X83365000Y-119674778D01*
X83365000Y-120325222D01*
X83613914Y-120926153D01*
X84073847Y-121386086D01*
X84674778Y-121635000D01*
X85325222Y-121635000D01*
X85686900Y-121485188D01*
X85686900Y-123014812D01*
X85325222Y-122865000D01*
X84674778Y-122865000D01*
X84073847Y-123113914D01*
X83613914Y-123573847D01*
X83365000Y-124174778D01*
X83365000Y-124825222D01*
X83613914Y-125426153D01*
X84073847Y-125886086D01*
X84574024Y-126093266D01*
X81051400Y-129615891D01*
X81051400Y-128459159D01*
X81105723Y-128404836D01*
X81254600Y-128045416D01*
X81254600Y-127656384D01*
X81105723Y-127296964D01*
X80830636Y-127021877D01*
X80471216Y-126873000D01*
X80082184Y-126873000D01*
X79722764Y-127021877D01*
X79447677Y-127296964D01*
X79298800Y-127656384D01*
X79298800Y-127865000D01*
X78674778Y-127865000D01*
X78073847Y-128113914D01*
X77613914Y-128573847D01*
X77365000Y-129174778D01*
X77365000Y-129825222D01*
X77613914Y-130426153D01*
X78073847Y-130886086D01*
X78674778Y-131135000D01*
X79325222Y-131135000D01*
X79578200Y-131030213D01*
X79578200Y-135969787D01*
X79325222Y-135865000D01*
X78674778Y-135865000D01*
X78073847Y-136113914D01*
X77613914Y-136573847D01*
X77365000Y-137174778D01*
X77365000Y-137825222D01*
X77613914Y-138426153D01*
X78073847Y-138886086D01*
X78674778Y-139135000D01*
X79325222Y-139135000D01*
X79578201Y-139030213D01*
X79578201Y-140469787D01*
X79325222Y-140365000D01*
X78674778Y-140365000D01*
X78073847Y-140613914D01*
X77613914Y-141073847D01*
X77598525Y-141111000D01*
X73901475Y-141111000D01*
X73886086Y-141073847D01*
X73426153Y-140613914D01*
X72825222Y-140365000D01*
X72174778Y-140365000D01*
X71573847Y-140613914D01*
X71113914Y-141073847D01*
X70865000Y-141674778D01*
X70865000Y-142325222D01*
X71113914Y-142926153D01*
X71573847Y-143386086D01*
X72174778Y-143635000D01*
X72825222Y-143635000D01*
X73426153Y-143386086D01*
X73886086Y-142926153D01*
X73901475Y-142889000D01*
X77598525Y-142889000D01*
X77613914Y-142926153D01*
X78073847Y-143386086D01*
X78674778Y-143635000D01*
X79325222Y-143635000D01*
X79578201Y-143530213D01*
X79578201Y-145592490D01*
X78912349Y-146258342D01*
X78807023Y-146004064D01*
X78531936Y-145728977D01*
X78172516Y-145580100D01*
X77783484Y-145580100D01*
X77424064Y-145728977D01*
X77331641Y-145821400D01*
X71679110Y-145821400D01*
X63032488Y-137174778D01*
X70865000Y-137174778D01*
X70865000Y-137825222D01*
X71113914Y-138426153D01*
X71573847Y-138886086D01*
X72174778Y-139135000D01*
X72825222Y-139135000D01*
X73426153Y-138886086D01*
X73886086Y-138426153D01*
X74135000Y-137825222D01*
X74135000Y-137174778D01*
X73886086Y-136573847D01*
X73426153Y-136113914D01*
X72825222Y-135865000D01*
X72174778Y-135865000D01*
X71573847Y-136113914D01*
X71113914Y-136573847D01*
X70865000Y-137174778D01*
X63032488Y-137174778D01*
X56246710Y-130389000D01*
X71098525Y-130389000D01*
X71113914Y-130426153D01*
X71573847Y-130886086D01*
X72174778Y-131135000D01*
X72825222Y-131135000D01*
X73426153Y-130886086D01*
X73886086Y-130426153D01*
X74135000Y-129825222D01*
X74135000Y-129174778D01*
X73886086Y-128573847D01*
X73426153Y-128113914D01*
X72825222Y-127865000D01*
X72174778Y-127865000D01*
X71573847Y-128113914D01*
X71113914Y-128573847D01*
X71098525Y-128611000D01*
X56208236Y-128611000D01*
X52272014Y-124674778D01*
X70865000Y-124674778D01*
X70865000Y-125325222D01*
X71113914Y-125926153D01*
X71573847Y-126386086D01*
X72174778Y-126635000D01*
X72825222Y-126635000D01*
X73426153Y-126386086D01*
X73886086Y-125926153D01*
X74135000Y-125325222D01*
X74135000Y-124674778D01*
X73886086Y-124073847D01*
X73426153Y-123613914D01*
X72825222Y-123365000D01*
X72174778Y-123365000D01*
X71573847Y-123613914D01*
X71113914Y-124073847D01*
X70865000Y-124674778D01*
X52272014Y-124674778D01*
X39802720Y-112205484D01*
X64522100Y-112205484D01*
X64522100Y-112594516D01*
X64670977Y-112953936D01*
X64946064Y-113229023D01*
X65305484Y-113377900D01*
X65633718Y-113377900D01*
X65677456Y-113386600D01*
X65677460Y-113386600D01*
X65749999Y-113401029D01*
X65822538Y-113386600D01*
X73994891Y-113386600D01*
X74913401Y-114305110D01*
X74913400Y-123653641D01*
X74820977Y-123746064D01*
X74672100Y-124105484D01*
X74672100Y-124494516D01*
X74820977Y-124853936D01*
X75096064Y-125129023D01*
X75455484Y-125277900D01*
X75844516Y-125277900D01*
X76203936Y-125129023D01*
X76479023Y-124853936D01*
X76553232Y-124674778D01*
X77365000Y-124674778D01*
X77365000Y-125325222D01*
X77613914Y-125926153D01*
X78073847Y-126386086D01*
X78674778Y-126635000D01*
X79325222Y-126635000D01*
X79926153Y-126386086D01*
X80386086Y-125926153D01*
X80635000Y-125325222D01*
X80635000Y-124674778D01*
X80386086Y-124073847D01*
X79926153Y-123613914D01*
X79325222Y-123365000D01*
X78674778Y-123365000D01*
X78073847Y-123613914D01*
X77613914Y-124073847D01*
X77365000Y-124674778D01*
X76553232Y-124674778D01*
X76627900Y-124494516D01*
X76627900Y-124105484D01*
X76479023Y-123746064D01*
X76386600Y-123653641D01*
X76386600Y-114072540D01*
X76401029Y-113999999D01*
X76386600Y-113927459D01*
X76386600Y-113927456D01*
X76343861Y-113712593D01*
X76181058Y-113468942D01*
X76119558Y-113427849D01*
X74872151Y-112180442D01*
X74831058Y-112118942D01*
X74587407Y-111956139D01*
X74372544Y-111913400D01*
X74372540Y-111913400D01*
X74300000Y-111898971D01*
X74227460Y-111913400D01*
X66356915Y-111913400D01*
X66329023Y-111846064D01*
X66053936Y-111570977D01*
X65694516Y-111422100D01*
X65305484Y-111422100D01*
X64946064Y-111570977D01*
X64670977Y-111846064D01*
X64522100Y-112205484D01*
X39802720Y-112205484D01*
X37012531Y-109415296D01*
X36962933Y-109341067D01*
X36668870Y-109144581D01*
X36409556Y-109093000D01*
X36409555Y-109093000D01*
X36322000Y-109075584D01*
X36234445Y-109093000D01*
X31329555Y-109093000D01*
X31242000Y-109075584D01*
X31154445Y-109093000D01*
X31154444Y-109093000D01*
X30895130Y-109144581D01*
X30601067Y-109341067D01*
X30551471Y-109415294D01*
X29913296Y-110053469D01*
X29839067Y-110103067D01*
X29642581Y-110397130D01*
X29573584Y-110744000D01*
X20685000Y-110744000D01*
X20685000Y-45030506D01*
X20755875Y-44236363D01*
X20958180Y-43496860D01*
X21288242Y-42804872D01*
X21735629Y-42182267D01*
X22286195Y-41648732D01*
X22922544Y-41221124D01*
X23624561Y-40912959D01*
X24375320Y-40732717D01*
X25025112Y-40685000D01*
X105989288Y-40685000D01*
X105867541Y-40766349D01*
X105867541Y-40766349D01*
G37*
X105867541Y-40766349D02*
X105867539Y-40766351D01*
X105806042Y-40807442D01*
X105764950Y-40868940D01*
X104266691Y-42367200D01*
X97176738Y-42367200D01*
X97104199Y-42352771D01*
X97031660Y-42367200D01*
X97031656Y-42367200D01*
X96816793Y-42409939D01*
X96573142Y-42572742D01*
X96532049Y-42634242D01*
X95136040Y-44030251D01*
X95074543Y-44071342D01*
X95033452Y-44132839D01*
X95033449Y-44132842D01*
X94911739Y-44314994D01*
X94854571Y-44602400D01*
X94869001Y-44674945D01*
X94869000Y-46409459D01*
X94854571Y-46482000D01*
X94869000Y-46554540D01*
X94869000Y-46554543D01*
X94911739Y-46769406D01*
X95074542Y-47013058D01*
X95136042Y-47054151D01*
X95528750Y-47446860D01*
X95569842Y-47508358D01*
X95631339Y-47549449D01*
X95631341Y-47549451D01*
X95813493Y-47671161D01*
X96028356Y-47713900D01*
X96028359Y-47713900D01*
X96100900Y-47728329D01*
X96173440Y-47713900D01*
X96714160Y-47713900D01*
X96786700Y-47728329D01*
X96859240Y-47713900D01*
X96859244Y-47713900D01*
X97074107Y-47671161D01*
X97317758Y-47508358D01*
X97358852Y-47446857D01*
X97637255Y-47168453D01*
X97698758Y-47127358D01*
X97861561Y-46883707D01*
X97904300Y-46668844D01*
X97904300Y-46668840D01*
X97918729Y-46596301D01*
X97904300Y-46523762D01*
X97904300Y-45011975D01*
X97907473Y-45008802D01*
X102691893Y-45008802D01*
X103000066Y-45316975D01*
X102750977Y-45566064D01*
X102602100Y-45925484D01*
X102602100Y-46056191D01*
X96394891Y-52263400D01*
X31765110Y-52263400D01*
X30692151Y-51190442D01*
X30651058Y-51128942D01*
X30407407Y-50966139D01*
X30192544Y-50923400D01*
X30192540Y-50923400D01*
X30120000Y-50908971D01*
X30047460Y-50923400D01*
X26186359Y-50923400D01*
X26093936Y-50830977D01*
X25734516Y-50682100D01*
X25345484Y-50682100D01*
X24986064Y-50830977D01*
X24710977Y-51106064D01*
X24562100Y-51465484D01*
X24562100Y-51854516D01*
X24710977Y-52213936D01*
X24986064Y-52489023D01*
X25345484Y-52637900D01*
X25734516Y-52637900D01*
X26093936Y-52489023D01*
X26186359Y-52396600D01*
X29814891Y-52396600D01*
X30887850Y-53469560D01*
X30928942Y-53531058D01*
X30990439Y-53572149D01*
X30990441Y-53572151D01*
X31172593Y-53693861D01*
X31387456Y-53736600D01*
X31387459Y-53736600D01*
X31459999Y-53751029D01*
X31532540Y-53736600D01*
X96627460Y-53736600D01*
X96700000Y-53751029D01*
X96772540Y-53736600D01*
X96772544Y-53736600D01*
X96987407Y-53693861D01*
X97231058Y-53531058D01*
X97272151Y-53469558D01*
X103643809Y-47097900D01*
X103774516Y-47097900D01*
X104133936Y-46949023D01*
X104383025Y-46699934D01*
X104659268Y-46976177D01*
X104659267Y-88926519D01*
X102730636Y-90855151D01*
X102669139Y-90896242D01*
X102628048Y-90957739D01*
X102628045Y-90957742D01*
X102506335Y-91139894D01*
X102449167Y-91427300D01*
X102463597Y-91499845D01*
X102463596Y-103644394D01*
X92786538Y-113321453D01*
X92725041Y-113362544D01*
X92683950Y-113424041D01*
X92683947Y-113424044D01*
X92562237Y-113606196D01*
X92505069Y-113893602D01*
X92519499Y-113966147D01*
X92519498Y-118707259D01*
X92426153Y-118613914D01*
X91825222Y-118365000D01*
X91174778Y-118365000D01*
X90573847Y-118613914D01*
X90113914Y-119073847D01*
X89865000Y-119674778D01*
X89865000Y-120325222D01*
X90113914Y-120926153D01*
X90573847Y-121386086D01*
X91174778Y-121635000D01*
X91825222Y-121635000D01*
X92426153Y-121386086D01*
X92519498Y-121292741D01*
X92519498Y-121513290D01*
X91606222Y-122426567D01*
X90764673Y-122426567D01*
X90692132Y-122412138D01*
X90619592Y-122426567D01*
X90619589Y-122426567D01*
X90404726Y-122469306D01*
X90222574Y-122591016D01*
X90222572Y-122591018D01*
X90161075Y-122632109D01*
X90119983Y-122693607D01*
X89509940Y-123303651D01*
X89448443Y-123344742D01*
X89407352Y-123406239D01*
X89407349Y-123406242D01*
X89285639Y-123588394D01*
X89228471Y-123875800D01*
X89242901Y-123948345D01*
X89242900Y-124920859D01*
X89228471Y-124993400D01*
X89242900Y-125065940D01*
X89242900Y-125065943D01*
X89285639Y-125280806D01*
X89448442Y-125524458D01*
X89509942Y-125565551D01*
X93218001Y-129273610D01*
X93218000Y-138061391D01*
X81420038Y-149859353D01*
X81358541Y-149900444D01*
X81317450Y-149961941D01*
X81317447Y-149961944D01*
X81195737Y-150144096D01*
X81152293Y-150362505D01*
X80892755Y-150255000D01*
X80437245Y-150255000D01*
X80016410Y-150429316D01*
X79694316Y-150751410D01*
X79520000Y-151172245D01*
X79520000Y-151627755D01*
X79694316Y-152048590D01*
X80016410Y-152370684D01*
X80437245Y-152545000D01*
X80632300Y-152545000D01*
X80632300Y-152795000D01*
X80437245Y-152795000D01*
X80016410Y-152969316D01*
X79694316Y-153291410D01*
X79520000Y-153712245D01*
X79520000Y-154167755D01*
X79694316Y-154588590D01*
X80016410Y-154910684D01*
X80437245Y-155085000D01*
X80892755Y-155085000D01*
X81313590Y-154910684D01*
X81559401Y-154664873D01*
X81559401Y-156835955D01*
X81544971Y-156908500D01*
X81602139Y-157195906D01*
X81723849Y-157378058D01*
X81723852Y-157378061D01*
X81764943Y-157439558D01*
X81826440Y-157480649D01*
X82016600Y-157670809D01*
X82016600Y-157801516D01*
X82104365Y-158013400D01*
X74473110Y-158013400D01*
X74383900Y-157924190D01*
X74383900Y-157793484D01*
X74235023Y-157434064D01*
X73959936Y-157158977D01*
X73600516Y-157010100D01*
X73211484Y-157010100D01*
X72852064Y-157158977D01*
X72576977Y-157434064D01*
X72428100Y-157793484D01*
X72428100Y-158182516D01*
X72468521Y-158280100D01*
X72449484Y-158280100D01*
X72090064Y-158428977D01*
X71814977Y-158704064D01*
X71666100Y-159063484D01*
X71666100Y-159452516D01*
X71814977Y-159811936D01*
X71946843Y-159943802D01*
X70275868Y-159943802D01*
X70421500Y-159592216D01*
X70421500Y-159203184D01*
X70319900Y-158957900D01*
X70319900Y-155444340D01*
X70334329Y-155371800D01*
X70319900Y-155299259D01*
X70319900Y-155299256D01*
X70277282Y-155085000D01*
X70732755Y-155085000D01*
X71153590Y-154910684D01*
X71475684Y-154588590D01*
X71650000Y-154167755D01*
X71650000Y-153712245D01*
X71900000Y-153712245D01*
X71900000Y-154167755D01*
X72074316Y-154588590D01*
X72396410Y-154910684D01*
X72817245Y-155085000D01*
X73272755Y-155085000D01*
X73693590Y-154910684D01*
X74015684Y-154588590D01*
X74190000Y-154167755D01*
X74190000Y-153712245D01*
X74440000Y-153712245D01*
X74440000Y-154167755D01*
X74614316Y-154588590D01*
X74936410Y-154910684D01*
X75357245Y-155085000D01*
X75812755Y-155085000D01*
X76233590Y-154910684D01*
X76555684Y-154588590D01*
X76730000Y-154167755D01*
X76730000Y-153712245D01*
X76980000Y-153712245D01*
X76980000Y-154167755D01*
X77154316Y-154588590D01*
X77476410Y-154910684D01*
X77897245Y-155085000D01*
X78352755Y-155085000D01*
X78773590Y-154910684D01*
X79095684Y-154588590D01*
X79270000Y-154167755D01*
X79270000Y-153712245D01*
X79095684Y-153291410D01*
X78773590Y-152969316D01*
X78352755Y-152795000D01*
X77897245Y-152795000D01*
X77476410Y-152969316D01*
X77154316Y-153291410D01*
X76980000Y-153712245D01*
X76730000Y-153712245D01*
X76555684Y-153291410D01*
X76233590Y-152969316D01*
X75812755Y-152795000D01*
X75357245Y-152795000D01*
X74936410Y-152969316D01*
X74614316Y-153291410D01*
X74440000Y-153712245D01*
X74190000Y-153712245D01*
X74015684Y-153291410D01*
X73693590Y-152969316D01*
X73272755Y-152795000D01*
X72817245Y-152795000D01*
X72396410Y-152969316D01*
X72074316Y-153291410D01*
X71900000Y-153712245D01*
X71650000Y-153712245D01*
X71475684Y-153291410D01*
X71153590Y-152969316D01*
X70732755Y-152795000D01*
X70277245Y-152795000D01*
X69860525Y-152967612D01*
X69822258Y-152910342D01*
X69760760Y-152869250D01*
X69101348Y-152209839D01*
X69060256Y-152148340D01*
X68925785Y-152058489D01*
X68935684Y-152048590D01*
X69110000Y-151627755D01*
X69110000Y-151172245D01*
X69360000Y-151172245D01*
X69360000Y-151627755D01*
X69534316Y-152048590D01*
X69856410Y-152370684D01*
X70277245Y-152545000D01*
X70732755Y-152545000D01*
X71153590Y-152370684D01*
X71475684Y-152048590D01*
X71650000Y-151627755D01*
X71650000Y-151172245D01*
X71900000Y-151172245D01*
X71900000Y-151627755D01*
X72074316Y-152048590D01*
X72396410Y-152370684D01*
X72817245Y-152545000D01*
X73272755Y-152545000D01*
X73693590Y-152370684D01*
X74015684Y-152048590D01*
X74190000Y-151627755D01*
X74190000Y-151172245D01*
X74440000Y-151172245D01*
X74440000Y-151627755D01*
X74614316Y-152048590D01*
X74936410Y-152370684D01*
X75357245Y-152545000D01*
X75812755Y-152545000D01*
X76233590Y-152370684D01*
X76555684Y-152048590D01*
X76730000Y-151627755D01*
X76730000Y-151172245D01*
X76980000Y-151172245D01*
X76980000Y-151627755D01*
X77154316Y-152048590D01*
X77476410Y-152370684D01*
X77897245Y-152545000D01*
X78352755Y-152545000D01*
X78773590Y-152370684D01*
X79095684Y-152048590D01*
X79270000Y-151627755D01*
X79270000Y-151172245D01*
X79095684Y-150751410D01*
X78773590Y-150429316D01*
X78352755Y-150255000D01*
X77897245Y-150255000D01*
X77476410Y-150429316D01*
X77154316Y-150751410D01*
X76980000Y-151172245D01*
X76730000Y-151172245D01*
X76555684Y-150751410D01*
X76233590Y-150429316D01*
X75812755Y-150255000D01*
X75357245Y-150255000D01*
X74936410Y-150429316D01*
X74614316Y-150751410D01*
X74440000Y-151172245D01*
X74190000Y-151172245D01*
X74015684Y-150751410D01*
X73693590Y-150429316D01*
X73272755Y-150255000D01*
X72817245Y-150255000D01*
X72396410Y-150429316D01*
X72074316Y-150751410D01*
X71900000Y-151172245D01*
X71650000Y-151172245D01*
X71475684Y-150751410D01*
X71153590Y-150429316D01*
X70732755Y-150255000D01*
X70277245Y-150255000D01*
X69856410Y-150429316D01*
X69534316Y-150751410D01*
X69360000Y-151172245D01*
X69110000Y-151172245D01*
X68935684Y-150751410D01*
X68613590Y-150429316D01*
X68192755Y-150255000D01*
X67737245Y-150255000D01*
X67316410Y-150429316D01*
X66994316Y-150751410D01*
X66820000Y-151172245D01*
X66820000Y-151627755D01*
X66950495Y-151942798D01*
X66439505Y-151942798D01*
X66570000Y-151627755D01*
X66570000Y-151172245D01*
X66395684Y-150751410D01*
X66073590Y-150429316D01*
X65652755Y-150255000D01*
X65197245Y-150255000D01*
X64776410Y-150429316D01*
X64454316Y-150751410D01*
X64280000Y-151172245D01*
X64280000Y-151627755D01*
X64410495Y-151942798D01*
X63899505Y-151942798D01*
X64030000Y-151627755D01*
X64030000Y-151172245D01*
X63855684Y-150751410D01*
X63533590Y-150429316D01*
X63112755Y-150255000D01*
X62657245Y-150255000D01*
X62236410Y-150429316D01*
X61914316Y-150751410D01*
X61740000Y-151172245D01*
X61740000Y-151627755D01*
X61870495Y-151942798D01*
X61359505Y-151942798D01*
X61490000Y-151627755D01*
X61490000Y-151172245D01*
X61315684Y-150751410D01*
X60993590Y-150429316D01*
X60572755Y-150255000D01*
X60117245Y-150255000D01*
X59696410Y-150429316D01*
X59374316Y-150751410D01*
X59372500Y-150755794D01*
X59372500Y-141718440D01*
X59386929Y-141645899D01*
X59372500Y-141573357D01*
X59372500Y-141573356D01*
X59329761Y-141358493D01*
X59208051Y-141176341D01*
X59208049Y-141176339D01*
X59166958Y-141114842D01*
X59105461Y-141073751D01*
X48887900Y-130856191D01*
X48887900Y-130725484D01*
X48739023Y-130366064D01*
X48463936Y-130090977D01*
X48104516Y-129942100D01*
X47715484Y-129942100D01*
X47356064Y-130090977D01*
X47080977Y-130366064D01*
X46932100Y-130725484D01*
X46932100Y-131114516D01*
X47080977Y-131473936D01*
X47356064Y-131749023D01*
X47715484Y-131897900D01*
X47846191Y-131897900D01*
X57899300Y-141951010D01*
X57899301Y-150255000D01*
X57577245Y-150255000D01*
X57156410Y-150429316D01*
X56986600Y-150599126D01*
X56986600Y-145448841D01*
X57012029Y-145320999D01*
X56954861Y-145033594D01*
X56833150Y-144851442D01*
X56822155Y-144840447D01*
X56822151Y-144840441D01*
X56822149Y-144840439D01*
X56781058Y-144778942D01*
X56719561Y-144737851D01*
X48147900Y-136166191D01*
X48147900Y-136035484D01*
X47999023Y-135676064D01*
X47723936Y-135400977D01*
X47364516Y-135252100D01*
X46975484Y-135252100D01*
X46616064Y-135400977D01*
X46340977Y-135676064D01*
X46192100Y-136035484D01*
X46192100Y-136424516D01*
X46340977Y-136783936D01*
X46616064Y-137059023D01*
X46975484Y-137207900D01*
X47106191Y-137207900D01*
X55513400Y-145615110D01*
X55513401Y-150263552D01*
X55492755Y-150255000D01*
X55037245Y-150255000D01*
X54616410Y-150429316D01*
X54294316Y-150751410D01*
X54120000Y-151172245D01*
X54120000Y-151627755D01*
X54294316Y-152048590D01*
X54616410Y-152370684D01*
X55037245Y-152545000D01*
X55492755Y-152545000D01*
X55913590Y-152370684D01*
X56034382Y-152249892D01*
X56955108Y-153170618D01*
X56834316Y-153291410D01*
X56660000Y-153712245D01*
X56660000Y-154167755D01*
X56834316Y-154588590D01*
X57156410Y-154910684D01*
X57577245Y-155085000D01*
X58032755Y-155085000D01*
X58453590Y-154910684D01*
X58775684Y-154588590D01*
X58950000Y-154167755D01*
X58950000Y-153822400D01*
X59200000Y-153822400D01*
X59200000Y-154167755D01*
X59374316Y-154588590D01*
X59696410Y-154910684D01*
X60117245Y-155085000D01*
X60572755Y-155085000D01*
X60993590Y-154910684D01*
X61315684Y-154588590D01*
X61490000Y-154167755D01*
X61490000Y-153822400D01*
X61740000Y-153822400D01*
X61740000Y-154167755D01*
X61914316Y-154588590D01*
X62236410Y-154910684D01*
X62657245Y-155085000D01*
X63112755Y-155085000D01*
X63533590Y-154910684D01*
X63855684Y-154588590D01*
X64030000Y-154167755D01*
X64030000Y-153822400D01*
X64280000Y-153822400D01*
X64280000Y-154167755D01*
X64454316Y-154588590D01*
X64776410Y-154910684D01*
X65197245Y-155085000D01*
X65652755Y-155085000D01*
X66073590Y-154910684D01*
X66395684Y-154588590D01*
X66570000Y-154167755D01*
X66570000Y-153822400D01*
X66820000Y-153822400D01*
X66820000Y-154167755D01*
X66994316Y-154588590D01*
X67316410Y-154910684D01*
X67737245Y-155085000D01*
X68122801Y-155085000D01*
X68122800Y-157100341D01*
X68055777Y-157167364D01*
X67906900Y-157526784D01*
X67906900Y-157915816D01*
X68055777Y-158275236D01*
X68330864Y-158550323D01*
X68690284Y-158699200D01*
X68759141Y-158699200D01*
X68614577Y-158843764D01*
X68465700Y-159203184D01*
X68465700Y-159592216D01*
X68611332Y-159943802D01*
X64539786Y-159943802D01*
X64202516Y-159804100D01*
X63813484Y-159804100D01*
X63454064Y-159952977D01*
X63178977Y-160228064D01*
X63030100Y-160587484D01*
X63030100Y-160976516D01*
X63178977Y-161335936D01*
X63454064Y-161611023D01*
X63600579Y-161671712D01*
X60146891Y-165125400D01*
X50089110Y-165125400D01*
X49086150Y-164122441D01*
X49045058Y-164060942D01*
X48801407Y-163898139D01*
X48586544Y-163855400D01*
X48586540Y-163855400D01*
X48514000Y-163840971D01*
X48441460Y-163855400D01*
X43231110Y-163855400D01*
X37820600Y-158444891D01*
X37820600Y-155586359D01*
X37913023Y-155493936D01*
X38061900Y-155134516D01*
X38061900Y-154745484D01*
X37913023Y-154386064D01*
X37637936Y-154110977D01*
X37278516Y-153962100D01*
X36889484Y-153962100D01*
X36530064Y-154110977D01*
X36254977Y-154386064D01*
X36106100Y-154745484D01*
X36106100Y-155134516D01*
X36254977Y-155493936D01*
X36347401Y-155586360D01*
X36347400Y-158677460D01*
X36332971Y-158750000D01*
X36347400Y-158822540D01*
X36347400Y-158822543D01*
X36390139Y-159037406D01*
X36552942Y-159281058D01*
X36614442Y-159322151D01*
X42353851Y-165061561D01*
X42394942Y-165123058D01*
X42456439Y-165164149D01*
X42456441Y-165164151D01*
X42626529Y-165277800D01*
X42638593Y-165285861D01*
X42853456Y-165328600D01*
X42853459Y-165328600D01*
X42926000Y-165343029D01*
X42998540Y-165328600D01*
X45758100Y-165328600D01*
X45758100Y-165548516D01*
X45906977Y-165907936D01*
X46182064Y-166183023D01*
X46526363Y-166325637D01*
X46668977Y-166669936D01*
X46944064Y-166945023D01*
X47303484Y-167093900D01*
X47434190Y-167093900D01*
X47687850Y-167347560D01*
X47728942Y-167409058D01*
X47790439Y-167450149D01*
X47790441Y-167450151D01*
X47818564Y-167468942D01*
X47972593Y-167571861D01*
X48187456Y-167614600D01*
X48187459Y-167614600D01*
X48260000Y-167629029D01*
X48332540Y-167614600D01*
X53586314Y-167614600D01*
X53532100Y-167745484D01*
X53532100Y-168134516D01*
X53680977Y-168493936D01*
X53956064Y-168769023D01*
X54315484Y-168917900D01*
X54446191Y-168917900D01*
X58908351Y-173380060D01*
X58949444Y-173441560D01*
X59193095Y-173604363D01*
X59407958Y-173647102D01*
X59407961Y-173647102D01*
X59480501Y-173661531D01*
X59553042Y-173647102D01*
X86346958Y-173647102D01*
X86419498Y-173661531D01*
X86492038Y-173647102D01*
X86492042Y-173647102D01*
X86706905Y-173604363D01*
X86950556Y-173441560D01*
X86991649Y-173380060D01*
X87833810Y-172537900D01*
X87964516Y-172537900D01*
X88323936Y-172389023D01*
X88599023Y-172113936D01*
X88747900Y-171754516D01*
X88747900Y-171365484D01*
X88599023Y-171006064D01*
X88323936Y-170730977D01*
X87964516Y-170582100D01*
X87575484Y-170582100D01*
X87216064Y-170730977D01*
X86940977Y-171006064D01*
X86792100Y-171365484D01*
X86792100Y-171496190D01*
X86114389Y-172173902D01*
X59785611Y-172173902D01*
X55487900Y-167876191D01*
X55487900Y-167745484D01*
X55433686Y-167614600D01*
X74193401Y-167614600D01*
X74193400Y-169853460D01*
X74178971Y-169926000D01*
X74193400Y-169998540D01*
X74193400Y-169998543D01*
X74236139Y-170213406D01*
X74398942Y-170457058D01*
X74460442Y-170498151D01*
X74841100Y-170878809D01*
X74841100Y-171009516D01*
X74989977Y-171368936D01*
X75265064Y-171644023D01*
X75624484Y-171792900D01*
X76013516Y-171792900D01*
X76372936Y-171644023D01*
X76648023Y-171368936D01*
X76796900Y-171009516D01*
X76796900Y-170620484D01*
X76648023Y-170261064D01*
X76372936Y-169985977D01*
X76013516Y-169837100D01*
X75882809Y-169837100D01*
X75666600Y-169620891D01*
X75666600Y-167524359D01*
X75759023Y-167431936D01*
X75907900Y-167072516D01*
X75907900Y-166948269D01*
X76259484Y-167093900D01*
X76648516Y-167093900D01*
X77007936Y-166945023D01*
X77283023Y-166669936D01*
X77361385Y-166480753D01*
X77737874Y-166636700D01*
X78167326Y-166636700D01*
X78564088Y-166472356D01*
X78867756Y-166168688D01*
X79032100Y-165771926D01*
X79032100Y-165342474D01*
X78867756Y-164945712D01*
X78564088Y-164642044D01*
X78167326Y-164477700D01*
X78075922Y-164477700D01*
X78020070Y-164440381D01*
X77760756Y-164388800D01*
X77760755Y-164388800D01*
X77673200Y-164371384D01*
X77585645Y-164388800D01*
X72325155Y-164388800D01*
X72237600Y-164371384D01*
X72150045Y-164388800D01*
X72150044Y-164388800D01*
X71890730Y-164440381D01*
X71853885Y-164465000D01*
X71756174Y-164465000D01*
X71359412Y-164629344D01*
X71055744Y-164933012D01*
X70891400Y-165329774D01*
X70891400Y-165633400D01*
X61722309Y-165633400D01*
X65329109Y-162026600D01*
X72592891Y-162026600D01*
X72682100Y-162115809D01*
X72682100Y-162246516D01*
X72830977Y-162605936D01*
X73106064Y-162881023D01*
X73465484Y-163029900D01*
X73854516Y-163029900D01*
X74213936Y-162881023D01*
X74489023Y-162605936D01*
X74637900Y-162246516D01*
X74637900Y-162026600D01*
X78902100Y-162026600D01*
X78902100Y-162174516D01*
X79050977Y-162533936D01*
X79326064Y-162809023D01*
X79685484Y-162957900D01*
X80074516Y-162957900D01*
X80433936Y-162809023D01*
X80526359Y-162716600D01*
X81072100Y-162716600D01*
X81072100Y-162744516D01*
X81220977Y-163103936D01*
X81496064Y-163379023D01*
X81855484Y-163527900D01*
X82244516Y-163527900D01*
X82603936Y-163379023D01*
X82879023Y-163103936D01*
X83027900Y-162744516D01*
X83027900Y-162355484D01*
X82891671Y-162026600D01*
X89785156Y-162026600D01*
X89630163Y-162130163D01*
X89363503Y-162529248D01*
X89269864Y-163000000D01*
X89363503Y-163470752D01*
X89562853Y-163769101D01*
X89793500Y-163999748D01*
X89793501Y-173618826D01*
X89863504Y-173970753D01*
X90130163Y-174369838D01*
X90529248Y-174636497D01*
X91000000Y-174730136D01*
X91470753Y-174636497D01*
X91869838Y-174369838D01*
X92136497Y-173970753D01*
X92206500Y-173618826D01*
X92206500Y-164428209D01*
X94887851Y-167109561D01*
X94928942Y-167171058D01*
X94990439Y-167212149D01*
X94990441Y-167212151D01*
X95067141Y-167263400D01*
X95172593Y-167333861D01*
X95387456Y-167376600D01*
X95387459Y-167376600D01*
X95460000Y-167391029D01*
X95532540Y-167376600D01*
X103334891Y-167376600D01*
X104427849Y-168469558D01*
X104468942Y-168531058D01*
X104712593Y-168693861D01*
X104927456Y-168736600D01*
X104927460Y-168736600D01*
X104999999Y-168751029D01*
X105072538Y-168736600D01*
X110427460Y-168736600D01*
X110500000Y-168751029D01*
X110572540Y-168736600D01*
X110572544Y-168736600D01*
X110787407Y-168693861D01*
X111031058Y-168531058D01*
X111072151Y-168469558D01*
X112765001Y-166776709D01*
X112765001Y-184869484D01*
X112694125Y-185663637D01*
X112491820Y-186403140D01*
X112161758Y-187095128D01*
X111714371Y-187717733D01*
X111163808Y-188251266D01*
X110527456Y-188678876D01*
X109825437Y-188987042D01*
X109074681Y-189167282D01*
X108424888Y-189215000D01*
X25030505Y-189215000D01*
X24236363Y-189144125D01*
X23496860Y-188941820D01*
X22804872Y-188611758D01*
X22182267Y-188164371D01*
X21648734Y-187613808D01*
X21221124Y-186977456D01*
X20912958Y-186275437D01*
X20732718Y-185524681D01*
X20685000Y-184874888D01*
X20685000Y-151172245D01*
X41420000Y-151172245D01*
X41420000Y-151627755D01*
X41594316Y-152048590D01*
X41916410Y-152370684D01*
X42300000Y-152529573D01*
X42300000Y-152810427D01*
X41916410Y-152969316D01*
X41594316Y-153291410D01*
X41420000Y-153712245D01*
X41420000Y-154167755D01*
X41594316Y-154588590D01*
X41916410Y-154910684D01*
X42337245Y-155085000D01*
X42792755Y-155085000D01*
X43213590Y-154910684D01*
X43535684Y-154588590D01*
X43694573Y-154205000D01*
X43975427Y-154205000D01*
X44134316Y-154588590D01*
X44456410Y-154910684D01*
X44877245Y-155085000D01*
X45332755Y-155085000D01*
X45753590Y-154910684D01*
X46075684Y-154588590D01*
X46250000Y-154167755D01*
X46250000Y-153712245D01*
X46500000Y-153712245D01*
X46500000Y-154167755D01*
X46674316Y-154588590D01*
X46996410Y-154910684D01*
X47417245Y-155085000D01*
X47872755Y-155085000D01*
X48293590Y-154910684D01*
X48615684Y-154588590D01*
X48790000Y-154167755D01*
X48790000Y-153712245D01*
X49040000Y-153712245D01*
X49040000Y-154167755D01*
X49214316Y-154588590D01*
X49536410Y-154910684D01*
X49957245Y-155085000D01*
X50412755Y-155085000D01*
X50833590Y-154910684D01*
X51155684Y-154588590D01*
X51330000Y-154167755D01*
X51330000Y-153712245D01*
X51580000Y-153712245D01*
X51580000Y-154167755D01*
X51754316Y-154588590D01*
X52076410Y-154910684D01*
X52497245Y-155085000D01*
X52952755Y-155085000D01*
X53373590Y-154910684D01*
X53695684Y-154588590D01*
X53870000Y-154167755D01*
X53870000Y-153712245D01*
X54120000Y-153712245D01*
X54120000Y-154167755D01*
X54294316Y-154588590D01*
X54616410Y-154910684D01*
X55037245Y-155085000D01*
X55492755Y-155085000D01*
X55913590Y-154910684D01*
X56235684Y-154588590D01*
X56410000Y-154167755D01*
X56410000Y-153712245D01*
X56235684Y-153291410D01*
X55913590Y-152969316D01*
X55492755Y-152795000D01*
X55037245Y-152795000D01*
X54616410Y-152969316D01*
X54294316Y-153291410D01*
X54120000Y-153712245D01*
X53870000Y-153712245D01*
X53695684Y-153291410D01*
X53373590Y-152969316D01*
X52952755Y-152795000D01*
X52497245Y-152795000D01*
X52076410Y-152969316D01*
X51754316Y-153291410D01*
X51580000Y-153712245D01*
X51330000Y-153712245D01*
X51155684Y-153291410D01*
X50833590Y-152969316D01*
X50412755Y-152795000D01*
X49957245Y-152795000D01*
X49536410Y-152969316D01*
X49214316Y-153291410D01*
X49040000Y-153712245D01*
X48790000Y-153712245D01*
X48615684Y-153291410D01*
X48293590Y-152969316D01*
X47872755Y-152795000D01*
X47417245Y-152795000D01*
X46996410Y-152969316D01*
X46674316Y-153291410D01*
X46500000Y-153712245D01*
X46250000Y-153712245D01*
X46075684Y-153291410D01*
X45753590Y-152969316D01*
X45370000Y-152810427D01*
X45370000Y-152529573D01*
X45753590Y-152370684D01*
X46075684Y-152048590D01*
X46250000Y-151627755D01*
X46250000Y-151172245D01*
X46500000Y-151172245D01*
X46500000Y-151627755D01*
X46674316Y-152048590D01*
X46996410Y-152370684D01*
X47417245Y-152545000D01*
X47872755Y-152545000D01*
X48293590Y-152370684D01*
X48615684Y-152048590D01*
X48790000Y-151627755D01*
X48790000Y-151172245D01*
X49040000Y-151172245D01*
X49040000Y-151627755D01*
X49214316Y-152048590D01*
X49536410Y-152370684D01*
X49957245Y-152545000D01*
X50412755Y-152545000D01*
X50833590Y-152370684D01*
X51155684Y-152048590D01*
X51330000Y-151627755D01*
X51330000Y-151172245D01*
X51580000Y-151172245D01*
X51580000Y-151627755D01*
X51754316Y-152048590D01*
X52076410Y-152370684D01*
X52497245Y-152545000D01*
X52952755Y-152545000D01*
X53373590Y-152370684D01*
X53695684Y-152048590D01*
X53870000Y-151627755D01*
X53870000Y-151172245D01*
X53695684Y-150751410D01*
X53373590Y-150429316D01*
X52952755Y-150255000D01*
X52497245Y-150255000D01*
X52076410Y-150429316D01*
X51754316Y-150751410D01*
X51580000Y-151172245D01*
X51330000Y-151172245D01*
X51155684Y-150751410D01*
X50833590Y-150429316D01*
X50412755Y-150255000D01*
X49957245Y-150255000D01*
X49536410Y-150429316D01*
X49214316Y-150751410D01*
X49040000Y-151172245D01*
X48790000Y-151172245D01*
X48615684Y-150751410D01*
X48293590Y-150429316D01*
X47872755Y-150255000D01*
X47417245Y-150255000D01*
X46996410Y-150429316D01*
X46674316Y-150751410D01*
X46500000Y-151172245D01*
X46250000Y-151172245D01*
X46075684Y-150751410D01*
X45753590Y-150429316D01*
X45332755Y-150255000D01*
X44877245Y-150255000D01*
X44456410Y-150429316D01*
X44134316Y-150751410D01*
X43975427Y-151135000D01*
X43694573Y-151135000D01*
X43535684Y-150751410D01*
X43213590Y-150429316D01*
X42792755Y-150255000D01*
X42337245Y-150255000D01*
X41916410Y-150429316D01*
X41594316Y-150751410D01*
X41420000Y-151172245D01*
X20685000Y-151172245D01*
X20685000Y-139734778D01*
X28740000Y-139734778D01*
X28740000Y-140385222D01*
X28988914Y-140986153D01*
X29448847Y-141446086D01*
X30049778Y-141695000D01*
X30700222Y-141695000D01*
X31301153Y-141446086D01*
X31761086Y-140986153D01*
X32010000Y-140385222D01*
X32010000Y-139734778D01*
X31761086Y-139133847D01*
X31301153Y-138673914D01*
X30700222Y-138425000D01*
X30049778Y-138425000D01*
X29448847Y-138673914D01*
X28988914Y-139133847D01*
X28740000Y-139734778D01*
X20685000Y-139734778D01*
X20685000Y-120689778D01*
X27225000Y-120689778D01*
X27225000Y-121340222D01*
X27473914Y-121941153D01*
X27933847Y-122401086D01*
X28534778Y-122650000D01*
X29185222Y-122650000D01*
X29786153Y-122401086D01*
X30246086Y-121941153D01*
X30495000Y-121340222D01*
X30495000Y-120689778D01*
X30246086Y-120088847D01*
X29786153Y-119628914D01*
X29185222Y-119380000D01*
X28534778Y-119380000D01*
X27933847Y-119628914D01*
X27473914Y-120088847D01*
X27225000Y-120689778D01*
X20685000Y-120689778D01*
X20685000Y-110744000D01*
X29573584Y-110744000D01*
X29642581Y-111090870D01*
X29839067Y-111384933D01*
X30133130Y-111581419D01*
X30392444Y-111633000D01*
X30392445Y-111633000D01*
X30480000Y-111650416D01*
X30567555Y-111633000D01*
X32905765Y-111633000D01*
X37973000Y-116700236D01*
X37973001Y-117980355D01*
X37946844Y-118006512D01*
X37782500Y-118403274D01*
X37782500Y-118832726D01*
X37946844Y-119229488D01*
X38250512Y-119533156D01*
X38647274Y-119697500D01*
X39076726Y-119697500D01*
X39473488Y-119533156D01*
X39777156Y-119229488D01*
X39941500Y-118832726D01*
X39941500Y-118403274D01*
X39777156Y-118006512D01*
X39751000Y-117980356D01*
X39751000Y-116419550D01*
X39768415Y-116331999D01*
X39751000Y-116244448D01*
X39751000Y-116244444D01*
X39699419Y-115985130D01*
X39578596Y-115804305D01*
X68338934Y-144564644D01*
X68311412Y-144576044D01*
X68007744Y-144879712D01*
X67843400Y-145276474D01*
X67843400Y-145705926D01*
X68007744Y-146102688D01*
X68033901Y-146128845D01*
X68033900Y-147575345D01*
X68016484Y-147662900D01*
X68033900Y-147750455D01*
X68085481Y-148009769D01*
X68281967Y-148303833D01*
X68326000Y-148333255D01*
X68326000Y-148360226D01*
X68490344Y-148756988D01*
X68794012Y-149060656D01*
X69190774Y-149225000D01*
X69620226Y-149225000D01*
X70016988Y-149060656D01*
X70320656Y-148756988D01*
X70485000Y-148360226D01*
X70485000Y-147930774D01*
X70320656Y-147534012D01*
X70016988Y-147230344D01*
X69811900Y-147145394D01*
X69811900Y-146128844D01*
X69838056Y-146102688D01*
X69849456Y-146075166D01*
X70801851Y-147027561D01*
X70842942Y-147089058D01*
X70904439Y-147130149D01*
X70904441Y-147130151D01*
X71054391Y-147230344D01*
X71086593Y-147251861D01*
X71301456Y-147294600D01*
X71301459Y-147294600D01*
X71373999Y-147309029D01*
X71446540Y-147294600D01*
X71697103Y-147294600D01*
X71429664Y-147405377D01*
X71154577Y-147680464D01*
X71005700Y-148039884D01*
X71005700Y-148428916D01*
X71154577Y-148788336D01*
X71429664Y-149063423D01*
X71789084Y-149212300D01*
X72178116Y-149212300D01*
X72537536Y-149063423D01*
X72812623Y-148788336D01*
X72961500Y-148428916D01*
X72961500Y-148298210D01*
X73101510Y-148158200D01*
X78718260Y-148158200D01*
X78790800Y-148172629D01*
X78863340Y-148158200D01*
X78863344Y-148158200D01*
X79078207Y-148115461D01*
X79321858Y-147952658D01*
X79362951Y-147891158D01*
X80653132Y-146600977D01*
X81009284Y-146748500D01*
X81398316Y-146748500D01*
X81757736Y-146599623D01*
X81907087Y-146450272D01*
X82228484Y-146583400D01*
X82617516Y-146583400D01*
X82976936Y-146434523D01*
X83252023Y-146159436D01*
X83400900Y-145800016D01*
X83400900Y-145410984D01*
X83252023Y-145051564D01*
X82976936Y-144776477D01*
X82617516Y-144627600D01*
X82486809Y-144627600D01*
X81940402Y-144081193D01*
X81940402Y-136674778D01*
X83365000Y-136674778D01*
X83365000Y-137325222D01*
X83613914Y-137926153D01*
X84073847Y-138386086D01*
X84674778Y-138635000D01*
X85325222Y-138635000D01*
X85926153Y-138386086D01*
X86386086Y-137926153D01*
X86401475Y-137889000D01*
X90098525Y-137889000D01*
X90113914Y-137926153D01*
X90573847Y-138386086D01*
X91174778Y-138635000D01*
X91825222Y-138635000D01*
X92426153Y-138386086D01*
X92886086Y-137926153D01*
X93135000Y-137325222D01*
X93135000Y-136674778D01*
X92886086Y-136073847D01*
X92426153Y-135613914D01*
X91825222Y-135365000D01*
X91174778Y-135365000D01*
X90573847Y-135613914D01*
X90113914Y-136073847D01*
X90098525Y-136111000D01*
X86401475Y-136111000D01*
X86386086Y-136073847D01*
X85926153Y-135613914D01*
X85325222Y-135365000D01*
X84674778Y-135365000D01*
X84073847Y-135613914D01*
X83613914Y-136073847D01*
X83365000Y-136674778D01*
X81940402Y-136674778D01*
X81940402Y-132174778D01*
X83365000Y-132174778D01*
X83365000Y-132825222D01*
X83613914Y-133426153D01*
X84073847Y-133886086D01*
X84674778Y-134135000D01*
X85325222Y-134135000D01*
X85926153Y-133886086D01*
X86386086Y-133426153D01*
X86635000Y-132825222D01*
X86635000Y-132174778D01*
X89865000Y-132174778D01*
X89865000Y-132825222D01*
X90113914Y-133426153D01*
X90573847Y-133886086D01*
X91174778Y-134135000D01*
X91825222Y-134135000D01*
X92426153Y-133886086D01*
X92886086Y-133426153D01*
X93135000Y-132825222D01*
X93135000Y-132174778D01*
X92886086Y-131573847D01*
X92426153Y-131113914D01*
X91825222Y-130865000D01*
X91174778Y-130865000D01*
X90573847Y-131113914D01*
X90113914Y-131573847D01*
X89865000Y-132174778D01*
X86635000Y-132174778D01*
X86386086Y-131573847D01*
X85926153Y-131113914D01*
X85325222Y-130865000D01*
X84674778Y-130865000D01*
X84073847Y-131113914D01*
X83613914Y-131573847D01*
X83365000Y-132174778D01*
X81940402Y-132174778D01*
X81940402Y-131385047D01*
X87312161Y-126013289D01*
X87373658Y-125972198D01*
X87414749Y-125910701D01*
X87414751Y-125910699D01*
X87536461Y-125728547D01*
X87544673Y-125687261D01*
X87579200Y-125513684D01*
X87579200Y-125513681D01*
X87593629Y-125441140D01*
X87579200Y-125368600D01*
X87579200Y-110417349D01*
X100469361Y-97527189D01*
X100530858Y-97486098D01*
X100571949Y-97424601D01*
X100571951Y-97424599D01*
X100693661Y-97242447D01*
X100736400Y-97027584D01*
X100736400Y-97027581D01*
X100750829Y-96955040D01*
X100736400Y-96882500D01*
X100736400Y-60448340D01*
X100750829Y-60375799D01*
X100736400Y-60303257D01*
X100736400Y-60303256D01*
X100693661Y-60088393D01*
X100530858Y-59844742D01*
X100469358Y-59803649D01*
X95415100Y-54749391D01*
X95415100Y-54618684D01*
X95266223Y-54259264D01*
X94991136Y-53984177D01*
X94631716Y-53835300D01*
X94242684Y-53835300D01*
X93883264Y-53984177D01*
X93608177Y-54259264D01*
X93489509Y-54545753D01*
X93386623Y-54297364D01*
X93111536Y-54022277D01*
X92752116Y-53873400D01*
X92363084Y-53873400D01*
X92003664Y-54022277D01*
X91728577Y-54297364D01*
X91579700Y-54656784D01*
X91579700Y-55045816D01*
X91728577Y-55405236D01*
X92003664Y-55680323D01*
X92261011Y-55786920D01*
X98831401Y-62357311D01*
X98831400Y-96506990D01*
X85953940Y-109384451D01*
X85892443Y-109425542D01*
X85851352Y-109487039D01*
X85851349Y-109487042D01*
X85729639Y-109669194D01*
X85672471Y-109956600D01*
X85686901Y-110029145D01*
X85686900Y-118514812D01*
X85325222Y-118365000D01*
X84674778Y-118365000D01*
X84073847Y-118613914D01*
X83613914Y-119073847D01*
X83365000Y-119674778D01*
X83365000Y-120325222D01*
X83613914Y-120926153D01*
X84073847Y-121386086D01*
X84674778Y-121635000D01*
X85325222Y-121635000D01*
X85686900Y-121485188D01*
X85686900Y-123014812D01*
X85325222Y-122865000D01*
X84674778Y-122865000D01*
X84073847Y-123113914D01*
X83613914Y-123573847D01*
X83365000Y-124174778D01*
X83365000Y-124825222D01*
X83613914Y-125426153D01*
X84073847Y-125886086D01*
X84574024Y-126093266D01*
X81051400Y-129615891D01*
X81051400Y-128459159D01*
X81105723Y-128404836D01*
X81254600Y-128045416D01*
X81254600Y-127656384D01*
X81105723Y-127296964D01*
X80830636Y-127021877D01*
X80471216Y-126873000D01*
X80082184Y-126873000D01*
X79722764Y-127021877D01*
X79447677Y-127296964D01*
X79298800Y-127656384D01*
X79298800Y-127865000D01*
X78674778Y-127865000D01*
X78073847Y-128113914D01*
X77613914Y-128573847D01*
X77365000Y-129174778D01*
X77365000Y-129825222D01*
X77613914Y-130426153D01*
X78073847Y-130886086D01*
X78674778Y-131135000D01*
X79325222Y-131135000D01*
X79578200Y-131030213D01*
X79578200Y-135969787D01*
X79325222Y-135865000D01*
X78674778Y-135865000D01*
X78073847Y-136113914D01*
X77613914Y-136573847D01*
X77365000Y-137174778D01*
X77365000Y-137825222D01*
X77613914Y-138426153D01*
X78073847Y-138886086D01*
X78674778Y-139135000D01*
X79325222Y-139135000D01*
X79578201Y-139030213D01*
X79578201Y-140469787D01*
X79325222Y-140365000D01*
X78674778Y-140365000D01*
X78073847Y-140613914D01*
X77613914Y-141073847D01*
X77598525Y-141111000D01*
X73901475Y-141111000D01*
X73886086Y-141073847D01*
X73426153Y-140613914D01*
X72825222Y-140365000D01*
X72174778Y-140365000D01*
X71573847Y-140613914D01*
X71113914Y-141073847D01*
X70865000Y-141674778D01*
X70865000Y-142325222D01*
X71113914Y-142926153D01*
X71573847Y-143386086D01*
X72174778Y-143635000D01*
X72825222Y-143635000D01*
X73426153Y-143386086D01*
X73886086Y-142926153D01*
X73901475Y-142889000D01*
X77598525Y-142889000D01*
X77613914Y-142926153D01*
X78073847Y-143386086D01*
X78674778Y-143635000D01*
X79325222Y-143635000D01*
X79578201Y-143530213D01*
X79578201Y-145592490D01*
X78912349Y-146258342D01*
X78807023Y-146004064D01*
X78531936Y-145728977D01*
X78172516Y-145580100D01*
X77783484Y-145580100D01*
X77424064Y-145728977D01*
X77331641Y-145821400D01*
X71679110Y-145821400D01*
X63032488Y-137174778D01*
X70865000Y-137174778D01*
X70865000Y-137825222D01*
X71113914Y-138426153D01*
X71573847Y-138886086D01*
X72174778Y-139135000D01*
X72825222Y-139135000D01*
X73426153Y-138886086D01*
X73886086Y-138426153D01*
X74135000Y-137825222D01*
X74135000Y-137174778D01*
X73886086Y-136573847D01*
X73426153Y-136113914D01*
X72825222Y-135865000D01*
X72174778Y-135865000D01*
X71573847Y-136113914D01*
X71113914Y-136573847D01*
X70865000Y-137174778D01*
X63032488Y-137174778D01*
X56246710Y-130389000D01*
X71098525Y-130389000D01*
X71113914Y-130426153D01*
X71573847Y-130886086D01*
X72174778Y-131135000D01*
X72825222Y-131135000D01*
X73426153Y-130886086D01*
X73886086Y-130426153D01*
X74135000Y-129825222D01*
X74135000Y-129174778D01*
X73886086Y-128573847D01*
X73426153Y-128113914D01*
X72825222Y-127865000D01*
X72174778Y-127865000D01*
X71573847Y-128113914D01*
X71113914Y-128573847D01*
X71098525Y-128611000D01*
X56208236Y-128611000D01*
X52272014Y-124674778D01*
X70865000Y-124674778D01*
X70865000Y-125325222D01*
X71113914Y-125926153D01*
X71573847Y-126386086D01*
X72174778Y-126635000D01*
X72825222Y-126635000D01*
X73426153Y-126386086D01*
X73886086Y-125926153D01*
X74135000Y-125325222D01*
X74135000Y-124674778D01*
X73886086Y-124073847D01*
X73426153Y-123613914D01*
X72825222Y-123365000D01*
X72174778Y-123365000D01*
X71573847Y-123613914D01*
X71113914Y-124073847D01*
X70865000Y-124674778D01*
X52272014Y-124674778D01*
X39802720Y-112205484D01*
X64522100Y-112205484D01*
X64522100Y-112594516D01*
X64670977Y-112953936D01*
X64946064Y-113229023D01*
X65305484Y-113377900D01*
X65633718Y-113377900D01*
X65677456Y-113386600D01*
X65677460Y-113386600D01*
X65749999Y-113401029D01*
X65822538Y-113386600D01*
X73994891Y-113386600D01*
X74913401Y-114305110D01*
X74913400Y-123653641D01*
X74820977Y-123746064D01*
X74672100Y-124105484D01*
X74672100Y-124494516D01*
X74820977Y-124853936D01*
X75096064Y-125129023D01*
X75455484Y-125277900D01*
X75844516Y-125277900D01*
X76203936Y-125129023D01*
X76479023Y-124853936D01*
X76553232Y-124674778D01*
X77365000Y-124674778D01*
X77365000Y-125325222D01*
X77613914Y-125926153D01*
X78073847Y-126386086D01*
X78674778Y-126635000D01*
X79325222Y-126635000D01*
X79926153Y-126386086D01*
X80386086Y-125926153D01*
X80635000Y-125325222D01*
X80635000Y-124674778D01*
X80386086Y-124073847D01*
X79926153Y-123613914D01*
X79325222Y-123365000D01*
X78674778Y-123365000D01*
X78073847Y-123613914D01*
X77613914Y-124073847D01*
X77365000Y-124674778D01*
X76553232Y-124674778D01*
X76627900Y-124494516D01*
X76627900Y-124105484D01*
X76479023Y-123746064D01*
X76386600Y-123653641D01*
X76386600Y-114072540D01*
X76401029Y-113999999D01*
X76386600Y-113927459D01*
X76386600Y-113927456D01*
X76343861Y-113712593D01*
X76181058Y-113468942D01*
X76119558Y-113427849D01*
X74872151Y-112180442D01*
X74831058Y-112118942D01*
X74587407Y-111956139D01*
X74372544Y-111913400D01*
X74372540Y-111913400D01*
X74300000Y-111898971D01*
X74227460Y-111913400D01*
X66356915Y-111913400D01*
X66329023Y-111846064D01*
X66053936Y-111570977D01*
X65694516Y-111422100D01*
X65305484Y-111422100D01*
X64946064Y-111570977D01*
X64670977Y-111846064D01*
X64522100Y-112205484D01*
X39802720Y-112205484D01*
X37012531Y-109415296D01*
X36962933Y-109341067D01*
X36668870Y-109144581D01*
X36409556Y-109093000D01*
X36409555Y-109093000D01*
X36322000Y-109075584D01*
X36234445Y-109093000D01*
X31329555Y-109093000D01*
X31242000Y-109075584D01*
X31154445Y-109093000D01*
X31154444Y-109093000D01*
X30895130Y-109144581D01*
X30601067Y-109341067D01*
X30551471Y-109415294D01*
X29913296Y-110053469D01*
X29839067Y-110103067D01*
X29642581Y-110397130D01*
X29573584Y-110744000D01*
X20685000Y-110744000D01*
X20685000Y-45030506D01*
X20755875Y-44236363D01*
X20958180Y-43496860D01*
X21288242Y-42804872D01*
X21735629Y-42182267D01*
X22286195Y-41648732D01*
X22922544Y-41221124D01*
X23624561Y-40912959D01*
X24375320Y-40732717D01*
X25025112Y-40685000D01*
X105989288Y-40685000D01*
X105867541Y-40766349D01*
G36*
X111353601Y-65944689D02*
X111254000Y-66044290D01*
X111254000Y-65766858D01*
X111021985Y-65206723D01*
X110615262Y-64800000D01*
X111021985Y-64393277D01*
X111254000Y-63833142D01*
X111254000Y-63226858D01*
X111021985Y-62666723D01*
X110615262Y-62260000D01*
X111021985Y-61853277D01*
X111254000Y-61293142D01*
X111254000Y-60686858D01*
X111021985Y-60126723D01*
X110593277Y-59698015D01*
X110033142Y-59466000D01*
X109426858Y-59466000D01*
X108866723Y-59698015D01*
X108438015Y-60126723D01*
X108206000Y-60686858D01*
X108206000Y-61293142D01*
X108438015Y-61853277D01*
X108844738Y-62260000D01*
X108438015Y-62666723D01*
X108206000Y-63226858D01*
X108206000Y-63833142D01*
X108438015Y-64393277D01*
X108844738Y-64800000D01*
X108438015Y-65206723D01*
X108206000Y-65766858D01*
X108206000Y-66373142D01*
X108438015Y-66933277D01*
X108844738Y-67340000D01*
X108438015Y-67746723D01*
X108206000Y-68306858D01*
X108206000Y-68913142D01*
X108438015Y-69473277D01*
X108844738Y-69880000D01*
X108438015Y-70286723D01*
X108206000Y-70846858D01*
X108206000Y-71453142D01*
X108438015Y-72013277D01*
X108844738Y-72420000D01*
X108438015Y-72826723D01*
X108206000Y-73386858D01*
X108206000Y-73993142D01*
X108438015Y-74553277D01*
X108844738Y-74960000D01*
X108438015Y-75366723D01*
X108206000Y-75926858D01*
X108206000Y-76533142D01*
X108438015Y-77093277D01*
X108844738Y-77500000D01*
X108438015Y-77906723D01*
X108206000Y-78466858D01*
X108206000Y-79073142D01*
X108438015Y-79633277D01*
X108844738Y-80040000D01*
X108438015Y-80446723D01*
X108206000Y-81006858D01*
X108206000Y-81613142D01*
X108438015Y-82173277D01*
X108844738Y-82580000D01*
X108438015Y-82986723D01*
X108206000Y-83546858D01*
X108206000Y-84153142D01*
X108438015Y-84713277D01*
X108844738Y-85120000D01*
X108438015Y-85526723D01*
X108206000Y-86086858D01*
X108206000Y-86693142D01*
X108438015Y-87253277D01*
X108844738Y-87660000D01*
X108438015Y-88066723D01*
X108206000Y-88626858D01*
X108206000Y-89233142D01*
X108438015Y-89793277D01*
X108866723Y-90221985D01*
X108892430Y-90232633D01*
X108837409Y-90397804D01*
X109730000Y-91290395D01*
X110622591Y-90397804D01*
X110567570Y-90232633D01*
X110593277Y-90221985D01*
X111021985Y-89793277D01*
X111254000Y-89233142D01*
X111254000Y-88626858D01*
X111021985Y-88066723D01*
X110615262Y-87660000D01*
X111021985Y-87253277D01*
X111254000Y-86693142D01*
X111254000Y-86086858D01*
X111021985Y-85526723D01*
X110615262Y-85120000D01*
X110681776Y-85053486D01*
X111277400Y-85649110D01*
X111277401Y-160709452D01*
X111277400Y-160709457D01*
X111277401Y-164180889D01*
X109694891Y-165763400D01*
X108119676Y-165763400D01*
X108199838Y-165709838D01*
X108466497Y-165310753D01*
X108536500Y-164958826D01*
X108536500Y-160218825D01*
X108560136Y-160099999D01*
X108466497Y-159629247D01*
X108388155Y-159512000D01*
X108199838Y-159230162D01*
X108099098Y-159162850D01*
X93789101Y-144852853D01*
X93490752Y-144653503D01*
X93020000Y-144559864D01*
X92549248Y-144653503D01*
X92150163Y-144920163D01*
X91883503Y-145319248D01*
X91789864Y-145790000D01*
X91883503Y-146260752D01*
X92082853Y-146559101D01*
X94304250Y-148780498D01*
X86766711Y-148780498D01*
X95275061Y-140272149D01*
X95336558Y-140231058D01*
X95377649Y-140169561D01*
X95377651Y-140169559D01*
X95499361Y-139987407D01*
X95542100Y-139772544D01*
X95542100Y-139772541D01*
X95556529Y-139700000D01*
X95542100Y-139627460D01*
X95542100Y-131674778D01*
X95865000Y-131674778D01*
X95865000Y-132325222D01*
X96113914Y-132926153D01*
X96573847Y-133386086D01*
X97174778Y-133635000D01*
X97825222Y-133635000D01*
X98426153Y-133386086D01*
X98886086Y-132926153D01*
X99135000Y-132325222D01*
X99135000Y-131674778D01*
X102365000Y-131674778D01*
X102365000Y-132325222D01*
X102613914Y-132926153D01*
X103073847Y-133386086D01*
X103674778Y-133635000D01*
X104325222Y-133635000D01*
X104926153Y-133386086D01*
X105386086Y-132926153D01*
X105635000Y-132325222D01*
X105635000Y-131674778D01*
X105386086Y-131073847D01*
X104926153Y-130613914D01*
X104325222Y-130365000D01*
X103674778Y-130365000D01*
X103073847Y-130613914D01*
X102613914Y-131073847D01*
X102365000Y-131674778D01*
X99135000Y-131674778D01*
X98886086Y-131073847D01*
X98426153Y-130613914D01*
X97825222Y-130365000D01*
X97174778Y-130365000D01*
X96573847Y-130613914D01*
X96113914Y-131073847D01*
X95865000Y-131674778D01*
X95542100Y-131674778D01*
X95542100Y-127174778D01*
X95865000Y-127174778D01*
X95865000Y-127825222D01*
X96113914Y-128426153D01*
X96573847Y-128886086D01*
X97174778Y-129135000D01*
X97825222Y-129135000D01*
X98426153Y-128886086D01*
X98886086Y-128426153D01*
X99135000Y-127825222D01*
X99135000Y-127174778D01*
X102365000Y-127174778D01*
X102365000Y-127825222D01*
X102613914Y-128426153D01*
X103073847Y-128886086D01*
X103674778Y-129135000D01*
X104325222Y-129135000D01*
X104926153Y-128886086D01*
X105386086Y-128426153D01*
X105635000Y-127825222D01*
X105635000Y-127174778D01*
X105386086Y-126573847D01*
X104926153Y-126113914D01*
X104325222Y-125865000D01*
X103674778Y-125865000D01*
X103073847Y-126113914D01*
X102613914Y-126573847D01*
X102365000Y-127174778D01*
X99135000Y-127174778D01*
X98886086Y-126573847D01*
X98426153Y-126113914D01*
X97825222Y-125865000D01*
X97174778Y-125865000D01*
X96573847Y-126113914D01*
X96113914Y-126573847D01*
X95865000Y-127174778D01*
X95542100Y-127174778D01*
X95542100Y-119174778D01*
X95865000Y-119174778D01*
X95865000Y-119825222D01*
X96113914Y-120426153D01*
X96573847Y-120886086D01*
X97174778Y-121135000D01*
X97825222Y-121135000D01*
X98426153Y-120886086D01*
X98886086Y-120426153D01*
X99135000Y-119825222D01*
X99135000Y-119174778D01*
X102365000Y-119174778D01*
X102365000Y-119825222D01*
X102613914Y-120426153D01*
X103073847Y-120886086D01*
X103674778Y-121135000D01*
X104325222Y-121135000D01*
X104926153Y-120886086D01*
X105386086Y-120426153D01*
X105635000Y-119825222D01*
X105635000Y-119174778D01*
X105386086Y-118573847D01*
X104926153Y-118113914D01*
X104325222Y-117865000D01*
X103674778Y-117865000D01*
X103073847Y-118113914D01*
X102613914Y-118573847D01*
X102365000Y-119174778D01*
X99135000Y-119174778D01*
X98886086Y-118573847D01*
X98426153Y-118113914D01*
X97825222Y-117865000D01*
X97174778Y-117865000D01*
X96573847Y-118113914D01*
X96113914Y-118573847D01*
X95865000Y-119174778D01*
X95542100Y-119174778D01*
X95542100Y-115049609D01*
X95865000Y-114726709D01*
X95865000Y-115325222D01*
X96113914Y-115926153D01*
X96573847Y-116386086D01*
X97174778Y-116635000D01*
X97825222Y-116635000D01*
X98426153Y-116386086D01*
X98886086Y-115926153D01*
X99135000Y-115325222D01*
X99135000Y-114674778D01*
X102365000Y-114674778D01*
X102365000Y-115325222D01*
X102613914Y-115926153D01*
X103073847Y-116386086D01*
X103674778Y-116635000D01*
X104325222Y-116635000D01*
X104926153Y-116386086D01*
X105386086Y-115926153D01*
X105635000Y-115325222D01*
X105635000Y-114674778D01*
X105386086Y-114073847D01*
X104926153Y-113613914D01*
X104325222Y-113365000D01*
X103674778Y-113365000D01*
X103073847Y-113613914D01*
X102613914Y-114073847D01*
X102365000Y-114674778D01*
X99135000Y-114674778D01*
X98886086Y-114073847D01*
X98426153Y-113613914D01*
X97825222Y-113365000D01*
X97226709Y-113365000D01*
X105244561Y-105347149D01*
X105306058Y-105306058D01*
X105347149Y-105244561D01*
X105347151Y-105244559D01*
X105468861Y-105062407D01*
X105475661Y-105028219D01*
X105511600Y-104847544D01*
X105511600Y-104847541D01*
X105526029Y-104775001D01*
X105511600Y-104702460D01*
X105511600Y-93706858D01*
X108206000Y-93706858D01*
X108206000Y-94313142D01*
X108438015Y-94873277D01*
X108866723Y-95301985D01*
X109426858Y-95534000D01*
X110033142Y-95534000D01*
X110593277Y-95301985D01*
X111021985Y-94873277D01*
X111254000Y-94313142D01*
X111254000Y-93706858D01*
X111021985Y-93146723D01*
X110593277Y-92718015D01*
X110567570Y-92707367D01*
X110622591Y-92542196D01*
X109730000Y-91649605D01*
X108837409Y-92542196D01*
X108892430Y-92707367D01*
X108866723Y-92718015D01*
X108438015Y-93146723D01*
X108206000Y-93706858D01*
X105511600Y-93706858D01*
X105511600Y-92570609D01*
X106850244Y-91231965D01*
X108194484Y-91231965D01*
X108220277Y-91837700D01*
X108402461Y-92277533D01*
X108657804Y-92362591D01*
X109550395Y-91470000D01*
X109909605Y-91470000D01*
X110802196Y-92362591D01*
X111057539Y-92277533D01*
X111265516Y-91708035D01*
X111239723Y-91102300D01*
X111057539Y-90662467D01*
X110802196Y-90577409D01*
X109909605Y-91470000D01*
X109550395Y-91470000D01*
X108657804Y-90577409D01*
X108402461Y-90662467D01*
X108194484Y-91231965D01*
X106850244Y-91231965D01*
X107467060Y-90615149D01*
X107528558Y-90574058D01*
X107569649Y-90512561D01*
X107569651Y-90512559D01*
X107691361Y-90330407D01*
X107695548Y-90309359D01*
X107734100Y-90115544D01*
X107734100Y-90115541D01*
X107748529Y-90043000D01*
X107734100Y-89970460D01*
X107734100Y-47269344D01*
X108267363Y-47269344D01*
X108344133Y-47517688D01*
X108754159Y-47687537D01*
X109332959Y-47714387D01*
X109877975Y-47517696D01*
X109955209Y-47269814D01*
X109111051Y-46425656D01*
X108267363Y-47269344D01*
X107734100Y-47269344D01*
X107734100Y-46977609D01*
X107798210Y-46913499D01*
X107839414Y-47012969D01*
X108087758Y-47089739D01*
X108931446Y-46246051D01*
X108917304Y-46231909D01*
X109096909Y-46052304D01*
X109111051Y-46066446D01*
X109125194Y-46052304D01*
X109304799Y-46231909D01*
X109290656Y-46246051D01*
X110134814Y-47090209D01*
X110382696Y-47012975D01*
X110579387Y-46467959D01*
X110552743Y-45893606D01*
X110760846Y-45935000D01*
X111053358Y-45935000D01*
X111353600Y-45875278D01*
X111353601Y-65944689D01*
X111353601Y-65944689D01*
G37*
X111353601Y-65944689D02*
X111254000Y-66044290D01*
X111254000Y-65766858D01*
X111021985Y-65206723D01*
X110615262Y-64800000D01*
X111021985Y-64393277D01*
X111254000Y-63833142D01*
X111254000Y-63226858D01*
X111021985Y-62666723D01*
X110615262Y-62260000D01*
X111021985Y-61853277D01*
X111254000Y-61293142D01*
X111254000Y-60686858D01*
X111021985Y-60126723D01*
X110593277Y-59698015D01*
X110033142Y-59466000D01*
X109426858Y-59466000D01*
X108866723Y-59698015D01*
X108438015Y-60126723D01*
X108206000Y-60686858D01*
X108206000Y-61293142D01*
X108438015Y-61853277D01*
X108844738Y-62260000D01*
X108438015Y-62666723D01*
X108206000Y-63226858D01*
X108206000Y-63833142D01*
X108438015Y-64393277D01*
X108844738Y-64800000D01*
X108438015Y-65206723D01*
X108206000Y-65766858D01*
X108206000Y-66373142D01*
X108438015Y-66933277D01*
X108844738Y-67340000D01*
X108438015Y-67746723D01*
X108206000Y-68306858D01*
X108206000Y-68913142D01*
X108438015Y-69473277D01*
X108844738Y-69880000D01*
X108438015Y-70286723D01*
X108206000Y-70846858D01*
X108206000Y-71453142D01*
X108438015Y-72013277D01*
X108844738Y-72420000D01*
X108438015Y-72826723D01*
X108206000Y-73386858D01*
X108206000Y-73993142D01*
X108438015Y-74553277D01*
X108844738Y-74960000D01*
X108438015Y-75366723D01*
X108206000Y-75926858D01*
X108206000Y-76533142D01*
X108438015Y-77093277D01*
X108844738Y-77500000D01*
X108438015Y-77906723D01*
X108206000Y-78466858D01*
X108206000Y-79073142D01*
X108438015Y-79633277D01*
X108844738Y-80040000D01*
X108438015Y-80446723D01*
X108206000Y-81006858D01*
X108206000Y-81613142D01*
X108438015Y-82173277D01*
X108844738Y-82580000D01*
X108438015Y-82986723D01*
X108206000Y-83546858D01*
X108206000Y-84153142D01*
X108438015Y-84713277D01*
X108844738Y-85120000D01*
X108438015Y-85526723D01*
X108206000Y-86086858D01*
X108206000Y-86693142D01*
X108438015Y-87253277D01*
X108844738Y-87660000D01*
X108438015Y-88066723D01*
X108206000Y-88626858D01*
X108206000Y-89233142D01*
X108438015Y-89793277D01*
X108866723Y-90221985D01*
X108892430Y-90232633D01*
X108837409Y-90397804D01*
X109730000Y-91290395D01*
X110622591Y-90397804D01*
X110567570Y-90232633D01*
X110593277Y-90221985D01*
X111021985Y-89793277D01*
X111254000Y-89233142D01*
X111254000Y-88626858D01*
X111021985Y-88066723D01*
X110615262Y-87660000D01*
X111021985Y-87253277D01*
X111254000Y-86693142D01*
X111254000Y-86086858D01*
X111021985Y-85526723D01*
X110615262Y-85120000D01*
X110681776Y-85053486D01*
X111277400Y-85649110D01*
X111277401Y-160709452D01*
X111277400Y-160709457D01*
X111277401Y-164180889D01*
X109694891Y-165763400D01*
X108119676Y-165763400D01*
X108199838Y-165709838D01*
X108466497Y-165310753D01*
X108536500Y-164958826D01*
X108536500Y-160218825D01*
X108560136Y-160099999D01*
X108466497Y-159629247D01*
X108388155Y-159512000D01*
X108199838Y-159230162D01*
X108099098Y-159162850D01*
X93789101Y-144852853D01*
X93490752Y-144653503D01*
X93020000Y-144559864D01*
X92549248Y-144653503D01*
X92150163Y-144920163D01*
X91883503Y-145319248D01*
X91789864Y-145790000D01*
X91883503Y-146260752D01*
X92082853Y-146559101D01*
X94304250Y-148780498D01*
X86766711Y-148780498D01*
X95275061Y-140272149D01*
X95336558Y-140231058D01*
X95377649Y-140169561D01*
X95377651Y-140169559D01*
X95499361Y-139987407D01*
X95542100Y-139772544D01*
X95542100Y-139772541D01*
X95556529Y-139700000D01*
X95542100Y-139627460D01*
X95542100Y-131674778D01*
X95865000Y-131674778D01*
X95865000Y-132325222D01*
X96113914Y-132926153D01*
X96573847Y-133386086D01*
X97174778Y-133635000D01*
X97825222Y-133635000D01*
X98426153Y-133386086D01*
X98886086Y-132926153D01*
X99135000Y-132325222D01*
X99135000Y-131674778D01*
X102365000Y-131674778D01*
X102365000Y-132325222D01*
X102613914Y-132926153D01*
X103073847Y-133386086D01*
X103674778Y-133635000D01*
X104325222Y-133635000D01*
X104926153Y-133386086D01*
X105386086Y-132926153D01*
X105635000Y-132325222D01*
X105635000Y-131674778D01*
X105386086Y-131073847D01*
X104926153Y-130613914D01*
X104325222Y-130365000D01*
X103674778Y-130365000D01*
X103073847Y-130613914D01*
X102613914Y-131073847D01*
X102365000Y-131674778D01*
X99135000Y-131674778D01*
X98886086Y-131073847D01*
X98426153Y-130613914D01*
X97825222Y-130365000D01*
X97174778Y-130365000D01*
X96573847Y-130613914D01*
X96113914Y-131073847D01*
X95865000Y-131674778D01*
X95542100Y-131674778D01*
X95542100Y-127174778D01*
X95865000Y-127174778D01*
X95865000Y-127825222D01*
X96113914Y-128426153D01*
X96573847Y-128886086D01*
X97174778Y-129135000D01*
X97825222Y-129135000D01*
X98426153Y-128886086D01*
X98886086Y-128426153D01*
X99135000Y-127825222D01*
X99135000Y-127174778D01*
X102365000Y-127174778D01*
X102365000Y-127825222D01*
X102613914Y-128426153D01*
X103073847Y-128886086D01*
X103674778Y-129135000D01*
X104325222Y-129135000D01*
X104926153Y-128886086D01*
X105386086Y-128426153D01*
X105635000Y-127825222D01*
X105635000Y-127174778D01*
X105386086Y-126573847D01*
X104926153Y-126113914D01*
X104325222Y-125865000D01*
X103674778Y-125865000D01*
X103073847Y-126113914D01*
X102613914Y-126573847D01*
X102365000Y-127174778D01*
X99135000Y-127174778D01*
X98886086Y-126573847D01*
X98426153Y-126113914D01*
X97825222Y-125865000D01*
X97174778Y-125865000D01*
X96573847Y-126113914D01*
X96113914Y-126573847D01*
X95865000Y-127174778D01*
X95542100Y-127174778D01*
X95542100Y-119174778D01*
X95865000Y-119174778D01*
X95865000Y-119825222D01*
X96113914Y-120426153D01*
X96573847Y-120886086D01*
X97174778Y-121135000D01*
X97825222Y-121135000D01*
X98426153Y-120886086D01*
X98886086Y-120426153D01*
X99135000Y-119825222D01*
X99135000Y-119174778D01*
X102365000Y-119174778D01*
X102365000Y-119825222D01*
X102613914Y-120426153D01*
X103073847Y-120886086D01*
X103674778Y-121135000D01*
X104325222Y-121135000D01*
X104926153Y-120886086D01*
X105386086Y-120426153D01*
X105635000Y-119825222D01*
X105635000Y-119174778D01*
X105386086Y-118573847D01*
X104926153Y-118113914D01*
X104325222Y-117865000D01*
X103674778Y-117865000D01*
X103073847Y-118113914D01*
X102613914Y-118573847D01*
X102365000Y-119174778D01*
X99135000Y-119174778D01*
X98886086Y-118573847D01*
X98426153Y-118113914D01*
X97825222Y-117865000D01*
X97174778Y-117865000D01*
X96573847Y-118113914D01*
X96113914Y-118573847D01*
X95865000Y-119174778D01*
X95542100Y-119174778D01*
X95542100Y-115049609D01*
X95865000Y-114726709D01*
X95865000Y-115325222D01*
X96113914Y-115926153D01*
X96573847Y-116386086D01*
X97174778Y-116635000D01*
X97825222Y-116635000D01*
X98426153Y-116386086D01*
X98886086Y-115926153D01*
X99135000Y-115325222D01*
X99135000Y-114674778D01*
X102365000Y-114674778D01*
X102365000Y-115325222D01*
X102613914Y-115926153D01*
X103073847Y-116386086D01*
X103674778Y-116635000D01*
X104325222Y-116635000D01*
X104926153Y-116386086D01*
X105386086Y-115926153D01*
X105635000Y-115325222D01*
X105635000Y-114674778D01*
X105386086Y-114073847D01*
X104926153Y-113613914D01*
X104325222Y-113365000D01*
X103674778Y-113365000D01*
X103073847Y-113613914D01*
X102613914Y-114073847D01*
X102365000Y-114674778D01*
X99135000Y-114674778D01*
X98886086Y-114073847D01*
X98426153Y-113613914D01*
X97825222Y-113365000D01*
X97226709Y-113365000D01*
X105244561Y-105347149D01*
X105306058Y-105306058D01*
X105347149Y-105244561D01*
X105347151Y-105244559D01*
X105468861Y-105062407D01*
X105475661Y-105028219D01*
X105511600Y-104847544D01*
X105511600Y-104847541D01*
X105526029Y-104775001D01*
X105511600Y-104702460D01*
X105511600Y-93706858D01*
X108206000Y-93706858D01*
X108206000Y-94313142D01*
X108438015Y-94873277D01*
X108866723Y-95301985D01*
X109426858Y-95534000D01*
X110033142Y-95534000D01*
X110593277Y-95301985D01*
X111021985Y-94873277D01*
X111254000Y-94313142D01*
X111254000Y-93706858D01*
X111021985Y-93146723D01*
X110593277Y-92718015D01*
X110567570Y-92707367D01*
X110622591Y-92542196D01*
X109730000Y-91649605D01*
X108837409Y-92542196D01*
X108892430Y-92707367D01*
X108866723Y-92718015D01*
X108438015Y-93146723D01*
X108206000Y-93706858D01*
X105511600Y-93706858D01*
X105511600Y-92570609D01*
X106850244Y-91231965D01*
X108194484Y-91231965D01*
X108220277Y-91837700D01*
X108402461Y-92277533D01*
X108657804Y-92362591D01*
X109550395Y-91470000D01*
X109909605Y-91470000D01*
X110802196Y-92362591D01*
X111057539Y-92277533D01*
X111265516Y-91708035D01*
X111239723Y-91102300D01*
X111057539Y-90662467D01*
X110802196Y-90577409D01*
X109909605Y-91470000D01*
X109550395Y-91470000D01*
X108657804Y-90577409D01*
X108402461Y-90662467D01*
X108194484Y-91231965D01*
X106850244Y-91231965D01*
X107467060Y-90615149D01*
X107528558Y-90574058D01*
X107569649Y-90512561D01*
X107569651Y-90512559D01*
X107691361Y-90330407D01*
X107695548Y-90309359D01*
X107734100Y-90115544D01*
X107734100Y-90115541D01*
X107748529Y-90043000D01*
X107734100Y-89970460D01*
X107734100Y-47269344D01*
X108267363Y-47269344D01*
X108344133Y-47517688D01*
X108754159Y-47687537D01*
X109332959Y-47714387D01*
X109877975Y-47517696D01*
X109955209Y-47269814D01*
X109111051Y-46425656D01*
X108267363Y-47269344D01*
X107734100Y-47269344D01*
X107734100Y-46977609D01*
X107798210Y-46913499D01*
X107839414Y-47012969D01*
X108087758Y-47089739D01*
X108931446Y-46246051D01*
X108917304Y-46231909D01*
X109096909Y-46052304D01*
X109111051Y-46066446D01*
X109125194Y-46052304D01*
X109304799Y-46231909D01*
X109290656Y-46246051D01*
X110134814Y-47090209D01*
X110382696Y-47012975D01*
X110579387Y-46467959D01*
X110552743Y-45893606D01*
X110760846Y-45935000D01*
X111053358Y-45935000D01*
X111353600Y-45875278D01*
X111353601Y-65944689D01*
G36*
X87314316Y-150751410D02*
X87140000Y-151172245D01*
X87140000Y-151627755D01*
X87314316Y-152048590D01*
X87636410Y-152370684D01*
X88020000Y-152529573D01*
X88020000Y-152810427D01*
X87636410Y-152969316D01*
X87314316Y-153291410D01*
X87140000Y-153712245D01*
X87140000Y-154167755D01*
X87314316Y-154588590D01*
X87636410Y-154910684D01*
X88057245Y-155085000D01*
X88512755Y-155085000D01*
X88933590Y-154910684D01*
X89255684Y-154588590D01*
X89414573Y-154205000D01*
X89695427Y-154205000D01*
X89854316Y-154588590D01*
X90176410Y-154910684D01*
X90597245Y-155085000D01*
X91052755Y-155085000D01*
X91473590Y-154910684D01*
X91795684Y-154588590D01*
X91970000Y-154167755D01*
X91970000Y-153712245D01*
X91795684Y-153291410D01*
X91473590Y-152969316D01*
X91090000Y-152810427D01*
X91090000Y-152529573D01*
X91473590Y-152370684D01*
X91795684Y-152048590D01*
X91970000Y-151627755D01*
X91970000Y-151172245D01*
X91795684Y-150751410D01*
X91704374Y-150660100D01*
X93978391Y-150660100D01*
X97707666Y-154389375D01*
X97630977Y-154466064D01*
X97482100Y-154825484D01*
X97482100Y-154956190D01*
X96904891Y-155533400D01*
X95206359Y-155533400D01*
X95113936Y-155440977D01*
X94754516Y-155292100D01*
X94365484Y-155292100D01*
X94006064Y-155440977D01*
X93730977Y-155716064D01*
X93582100Y-156075484D01*
X93582100Y-156286200D01*
X90462100Y-156286200D01*
X90462100Y-156142484D01*
X90313223Y-155783064D01*
X90038136Y-155507977D01*
X89678716Y-155359100D01*
X89289684Y-155359100D01*
X88930264Y-155507977D01*
X88655177Y-155783064D01*
X88636150Y-155829000D01*
X86445240Y-155829000D01*
X86372699Y-155814571D01*
X86300159Y-155829000D01*
X86300156Y-155829000D01*
X86085293Y-155871739D01*
X85903141Y-155993449D01*
X85903139Y-155993451D01*
X85841642Y-156034542D01*
X85800550Y-156096040D01*
X85686590Y-156210000D01*
X85555884Y-156210000D01*
X85382100Y-156281984D01*
X85382100Y-155029021D01*
X85517245Y-155085000D01*
X85972755Y-155085000D01*
X86393590Y-154910684D01*
X86715684Y-154588590D01*
X86890000Y-154167755D01*
X86890000Y-153712245D01*
X86715684Y-153291410D01*
X86393590Y-152969316D01*
X85972755Y-152795000D01*
X85517245Y-152795000D01*
X85382100Y-152850979D01*
X85382100Y-152489021D01*
X85517245Y-152545000D01*
X85972755Y-152545000D01*
X86393590Y-152370684D01*
X86715684Y-152048590D01*
X86890000Y-151627755D01*
X86890000Y-151172245D01*
X86715684Y-150751410D01*
X86624374Y-150660100D01*
X87405626Y-150660100D01*
X87314316Y-150751410D01*
X87314316Y-150751410D01*
G37*
X87314316Y-150751410D02*
X87140000Y-151172245D01*
X87140000Y-151627755D01*
X87314316Y-152048590D01*
X87636410Y-152370684D01*
X88020000Y-152529573D01*
X88020000Y-152810427D01*
X87636410Y-152969316D01*
X87314316Y-153291410D01*
X87140000Y-153712245D01*
X87140000Y-154167755D01*
X87314316Y-154588590D01*
X87636410Y-154910684D01*
X88057245Y-155085000D01*
X88512755Y-155085000D01*
X88933590Y-154910684D01*
X89255684Y-154588590D01*
X89414573Y-154205000D01*
X89695427Y-154205000D01*
X89854316Y-154588590D01*
X90176410Y-154910684D01*
X90597245Y-155085000D01*
X91052755Y-155085000D01*
X91473590Y-154910684D01*
X91795684Y-154588590D01*
X91970000Y-154167755D01*
X91970000Y-153712245D01*
X91795684Y-153291410D01*
X91473590Y-152969316D01*
X91090000Y-152810427D01*
X91090000Y-152529573D01*
X91473590Y-152370684D01*
X91795684Y-152048590D01*
X91970000Y-151627755D01*
X91970000Y-151172245D01*
X91795684Y-150751410D01*
X91704374Y-150660100D01*
X93978391Y-150660100D01*
X97707666Y-154389375D01*
X97630977Y-154466064D01*
X97482100Y-154825484D01*
X97482100Y-154956190D01*
X96904891Y-155533400D01*
X95206359Y-155533400D01*
X95113936Y-155440977D01*
X94754516Y-155292100D01*
X94365484Y-155292100D01*
X94006064Y-155440977D01*
X93730977Y-155716064D01*
X93582100Y-156075484D01*
X93582100Y-156286200D01*
X90462100Y-156286200D01*
X90462100Y-156142484D01*
X90313223Y-155783064D01*
X90038136Y-155507977D01*
X89678716Y-155359100D01*
X89289684Y-155359100D01*
X88930264Y-155507977D01*
X88655177Y-155783064D01*
X88636150Y-155829000D01*
X86445240Y-155829000D01*
X86372699Y-155814571D01*
X86300159Y-155829000D01*
X86300156Y-155829000D01*
X86085293Y-155871739D01*
X85903141Y-155993449D01*
X85903139Y-155993451D01*
X85841642Y-156034542D01*
X85800550Y-156096040D01*
X85686590Y-156210000D01*
X85555884Y-156210000D01*
X85382100Y-156281984D01*
X85382100Y-155029021D01*
X85517245Y-155085000D01*
X85972755Y-155085000D01*
X86393590Y-154910684D01*
X86715684Y-154588590D01*
X86890000Y-154167755D01*
X86890000Y-153712245D01*
X86715684Y-153291410D01*
X86393590Y-152969316D01*
X85972755Y-152795000D01*
X85517245Y-152795000D01*
X85382100Y-152850979D01*
X85382100Y-152489021D01*
X85517245Y-152545000D01*
X85972755Y-152545000D01*
X86393590Y-152370684D01*
X86715684Y-152048590D01*
X86890000Y-151627755D01*
X86890000Y-151172245D01*
X86715684Y-150751410D01*
X86624374Y-150660100D01*
X87405626Y-150660100D01*
X87314316Y-150751410D01*
G04 #@! TD*
M02*
