M48
;DRILL file {KiCad (5.0.0-3-g5ebb6b6)} date Wednesday, October 24, 2018 at 08:15:58 AM
;FORMAT={2:4/ absolute / inch / suppress trailing zeros}
FMAT,2
INCH,LZ
T1C0.0130
T2C0.0150
T3C0.0402
T4C0.0472
T5C0.0402
T6C0.0709
T7C0.0787
%
G90
G05
M72
T1
X010055Y-020339
X0141Y-0437
X0146Y-061
X0184Y-0651
X018571Y-053634
X0187Y-0654
X018862Y-051543
X021461Y-066118
X0252Y-0633
X025787Y-044252
X02712Y-062095
X02734Y-062755
X02834Y-05836
X0286Y-0627
X0289Y-0622
X029Y-0638
X0295Y-0657
X029783Y-048937
X0298Y-063
X02985Y-06725
X0301Y-0654
X0307Y-0577
X031449Y-063772
X031605Y-050335
X03197Y-05739
X03213Y-060105
X032303Y-063996
X03245Y-057325
X032675Y-06205
X0332Y-062225
X033575Y-062225
X033655Y-0582
X03376Y-061885
X03396Y-0622
X034555Y-067543
X0351Y-0623
X0351Y-0627
X03523Y-06155
X036433Y-063177
X03644Y-021595
X03718Y-02158
X037228Y-061524
X038654Y-063783
X0387Y-0649
X038764Y-061031
X039047Y-06124
X039075Y-060575
X039272Y-060925
X04078Y-018157
T2
X01265Y-039921
X013728Y-046201
X0153Y-0467
X01721Y-06266
X01973Y-058255
X02224Y-06321
X026315Y-058385
X027135Y-05728
X027325Y-058325
X028335Y-065175
X028525Y-06603
X029305Y-06012
X03069Y-06518
X03256Y-06628
X033862Y-060106
X034295Y-056402
X03563Y-064173
X035827Y-068307
X036622Y-057398
X037193Y-060972
X037909Y-040201
X037945Y-018185
X040625Y-04246
X042256Y-064898
T3
X043201Y-024012
X043201Y-025012
X043201Y-026012
X043201Y-027012
X043201Y-028012
X043201Y-029012
X043201Y-030012
X043201Y-031012
X043201Y-032012
X043201Y-033012
X043201Y-034012
X043201Y-035012
X043201Y-036012
X043201Y-037012
X04225Y-0175
X042957Y-016793
X042957Y-018207
X043664Y-0175
T4
X038386Y-050197
X038386Y-051969
X040945Y-050197
X040945Y-051969
X033465Y-052165
X033465Y-053937
X036024Y-052165
X036024Y-053937
X028543Y-049213
X028543Y-050984
X031102Y-049213
X031102Y-050984
X033465Y-047244
X033465Y-049016
X036024Y-047244
X036024Y-049016
X038386Y-045276
X038386Y-047047
X040945Y-045276
X040945Y-047047
X028543Y-054134
X028543Y-055906
X031102Y-054134
X031102Y-055906
T5
X016758Y-059606
X016758Y-060606
X017758Y-059606
X017758Y-060606
X018758Y-059606
X018758Y-060606
X019758Y-059606
X019758Y-060606
X020758Y-059606
X020758Y-060606
X021758Y-059606
X021758Y-060606
X022758Y-059606
X022758Y-060606
X023758Y-059606
X023758Y-060606
X024758Y-059606
X024758Y-060606
X025758Y-059606
X025758Y-060606
X026758Y-059606
X026758Y-060606
X027758Y-059606
X027758Y-060606
X028758Y-059606
X028758Y-060606
X029758Y-059606
X029758Y-060606
X030758Y-059606
X030758Y-060606
X031758Y-059606
X031758Y-060606
X032758Y-059606
X032758Y-060606
X033758Y-059606
X033758Y-060606
X034758Y-059606
X034758Y-060606
X035758Y-059606
X035758Y-060606
T6
X017258Y-060106
X035258Y-060106
T7
X011362Y-047644
X011959Y-055142
T0
M30
